<svg xmlns="http://www.w3.org/2000/svg" width="188" height="234.19" viewBox="0 0 188 234.19">
  <g id="Grupo_54547" data-name="Grupo 54547" transform="translate(-186 -462)">
    <ellipse id="Elipse_4028" data-name="Elipse 4028" cx="94" cy="8" rx="94" ry="8" transform="translate(186 680)" fill="#e4e4e4"/>
    <rect id="Rect치ngulo_5266" data-name="Rect치ngulo 5266" width="188" height="234" transform="translate(186 462)" fill="none"/>
    <g id="Grupo_54541" data-name="Grupo 54541" transform="translate(-1021.058 424.295)">
      <path id="Trazado_102140" data-name="Trazado 102140" d="M1327.039,95.415s9.426,2.767,8.849,15.581S1327.039,95.415,1327.039,95.415Z" transform="translate(-12.84 -12.445)" fill="#eea886"/>
      <g id="Grupo_54541-2" data-name="Grupo 54541" transform="translate(1312.886 82.97)">
        <path id="Trazado_102141" data-name="Trazado 102141" d="M1325.735,95.415s.727.989-.182,7.364.814,9.042,1.019,11.7,3.317,19.789,3.4,20.545.5,9.879,1.716,12.3,10.135,16.137,10.255,16.821,4.331-2.388,4.331-2.388-8.011-16.665-8.529-18.309c-.645-2.04-2.617-7.095-2.738-9.739-.3-6.465.289-21.478.062-24.748C1334.646,102.832,1329.822,96.389,1325.735,95.415Z" transform="translate(-1325.29 -95.415)" fill="#eea886"/>
      </g>
      <g id="Grupo_54544" data-name="Grupo 54544" transform="translate(1320.581 137.68)">
        <g id="Grupo_54543" data-name="Grupo 54543">
          <g id="Grupo_54542" data-name="Grupo 54542">
            <path id="Trazado_102142" data-name="Trazado 102142" d="M1340.305,168.3s1.4,3.083,2.233,3.275,1.817,1.219,2.528,1.534,2.946.487,3.549,1.07a22.235,22.235,0,0,0,1.737,2.727c.552.432,1.773,1.172,1.395,1.636s-1.646.1-1.646.1a.908.908,0,0,1,.274.935c-.4,1-1.066,1.042-1.066,1.042s.214.747-.057,1.118a1.8,1.8,0,0,1-1.244.843,1.711,1.711,0,0,1-.574,1.029,1.526,1.526,0,0,1-1.485.248s-.664.918-1.276.739a5.438,5.438,0,0,1-1.408-.9,20.9,20.9,0,0,1-4.63-7.082,25.26,25.26,0,0,0-3.093-5.972Z" transform="translate(-1335.541 -168.304)" fill="#eea987"/>
          </g>
        </g>
      </g>
      <rect id="Rect치ngulo_5265" data-name="Rect치ngulo 5265" width="26.557" height="44.317" transform="matrix(0.63, 0.777, -0.777, 0.63, 1334.419, 112.879)" fill="#214361"/>
      <g id="Grupo_54546" data-name="Grupo 54546" transform="translate(1326.351 144.705)">
        <g id="Grupo_54545" data-name="Grupo 54545">
          <path id="Trazado_102143" data-name="Trazado 102143" d="M1351.846,180.572s-2.668-2.965-4-2.908-.423,1.179-.423,1.179-.878-1.126-1.823-.529.182,1.855.182,1.855a1.1,1.1,0,0,0-1.588.26c-.7.938.468,1.771.468,1.771s-1.762-.26-1.383,1.178a6.3,6.3,0,0,0,3.257,3.612s.732.2,1.344-.746a1.536,1.536,0,0,0,2.1-1.276s1.924-.444,1.313-1.981A1.377,1.377,0,0,0,1351.846,180.572Z" transform="translate(-1343.228 -177.663)" fill="#db9c7c"/>
        </g>
      </g>
      <path id="Trazado_102144" data-name="Trazado 102144" d="M1311.053,45.537s-13.631-1.134-13.259,13.205,2.645,16.5-.009,26.629,13.291-5.755,13.291-5.755Z" transform="translate(-5.469 0)" fill="#fccca2"/>
      <path id="Trazado_102145" data-name="Trazado 102145" d="M1290.73,162.863s-5.018,6.4-6.791,10.631-4.725,13.508-4.33,20.692,2.754,20.669,2.065,23.72-1.375,9.351-2.115,11.516-3.69,8.463-3.988,14.959,4.136,35.039,3.938,37.7,5.02,1.083,5.02,1.083,1.77-25.786,2.755-30.216,2.166-19.486,3.052-20.569,3.308-12.3,2.932-14.074,9.665-28.346,10.255-33.661,15.394-21.776,15.394-21.776A46.013,46.013,0,0,0,1290.73,162.863Z" transform="translate(0 -28.719)" fill="#eea987"/>
      <path id="Trazado_102146" data-name="Trazado 102146" d="M1321.165,162.312a29.907,29.907,0,0,0,.551,3.666c.295.984,7.087,26.083,7.776,35.728a189.91,189.91,0,0,0,2.755,19.886,42.731,42.731,0,0,1-.886,10.723c-.588,1.771,2.954,43.6,3.249,44.585s-2.363,1.28-4.232.983-11.318-30.707-10.728-35.824,1.179-16.03-.492-20.467-16.731-36.52-16.83-38.488S1295.81,147.23,1321.165,162.312Z" transform="translate(-6.478 -28.168)" fill="#eea987"/>
      <path id="Trazado_102147" data-name="Trazado 102147" d="M1285.112,319.274a21.039,21.039,0,0,0,1.015,4.324c.531.927,1.985,5.648,2.65,6.531s2.118,7.5,0,8.3-7.107,2.118-8.782-.529a10.89,10.89,0,0,1-1.633-7.326c.265-2.03,2.277-11.346,2.25-12.268S1285.112,319.274,1285.112,319.274Z" transform="translate(-0.676 -67.971)" fill="#eea987"/>
      <path id="Trazado_102148" data-name="Trazado 102148" d="M1287.869,331.7s.227,5.143-3.656,5.143-5.6-4.681-5.6-4.681-1.322,2.3,0,7.2,6.841,3.882,8.076,3.7S1293.776,341.338,1287.869,331.7Z" transform="translate(-0.614 -71.376)" fill="#214361"/>
      <path id="Trazado_102149" data-name="Trazado 102149" d="M1342.649,313.526s2.745,4.91,4.374,5.9c2.031,1.241,5.973,5.217,7.351,5.4s6.328,1.061,5.372,3.857c-.784,2.289-12.591,1.962-13.923.814s-5.314-5.268-6.921-5.177-1.009,5.942-1.009,5.942h-1.745s-.61-5.693-.684-6.671c-.217-2.9,1.849-5.029,1.94-6.68s.185-2.886.185-2.886Z" transform="translate(-14.937 -66.843)" fill="#214361"/>
      <path id="Trazado_102150" data-name="Trazado 102150" d="M1354.269,324.6s-3.894,1.344-6.888-.376-8.744-4.336-10.777-4.356c0,0,1.106-3.39,1.13-3.77s.144-2.163.144-2.163l5.027-.805s3.26,4.784,4.7,5.912A81.636,81.636,0,0,1,1354.269,324.6Z" transform="translate(-15.225 -66.744)" fill="#eea987"/>
      <path id="Trazado_102151" data-name="Trazado 102151" d="M1319.922,162.782s1.4,5.831,1.918,7.53,3.834,28.037,4.65,44.512c0,0-19.856,7.528-47.167,6.273,0,0-.665-30.265,1.844-38.828s7.055-16.575,10.483-19.045C1294.7,161.026,1319.922,162.782,1319.922,162.782Z" transform="translate(-0.919 -29.081)" fill="#95308e"/>
      <path id="Trazado_102152" data-name="Trazado 102152" d="M1325.727,110.889c-.221,3.471-1.641,5.691-1.936,6.945s0,4.133-.369,7.014-1.476,16.608-1.106,20.521-26.855,2.145-28.92.964c0,0,4.584-8.2,4.707-11.594.042-1.166.739-4.8-1.182-7.454-1.012-1.4-2.892-5.867-4.768-9.132h0c-.727-1.266-1.488-2.528-2.02-3.468h0a13.1,13.1,0,0,1-1.079-2.681s-1.211-15.058,2.11-16.756a16.925,16.925,0,0,1,8.342-2.141,23.642,23.642,0,0,0,5.389-.811l7.6.811a16.957,16.957,0,0,0,4.6,1.405c1.918.147,4.263,4.317,5.425,7.336C1323.481,104.337,1325.948,107.419,1325.727,110.889Z" transform="translate(-3.312 -11.667)" fill="#ef4188"/>
      <path id="Trazado_102153" data-name="Trazado 102153" d="M1292.336,94.134s-6.016.5-8.281,6.03-2.072,11.145-2.561,13.187-1.208,13.875-1.724,15.624a98.681,98.681,0,0,0-2.683,16.411c-.4,6.555.581,20.378.581,20.378l3.334-1.62s2.969-20.5,4.255-24.832c1.1-3.7,1.1-10.008,1.719-12.284s4.4-15.972,5-17.36C1292.916,107.543,1297.508,94.065,1292.336,94.134Z" transform="translate(-0.358 -12.126)" fill="#eea886"/>
      <path id="Trazado_102154" data-name="Trazado 102154" d="M1310.407,47.435a11.585,11.585,0,0,1,13.3,9.165,28.177,28.177,0,0,1-.368,4.433c-.37,1.974,1.982,7.4,1.568,7.73a12.45,12.45,0,0,1-2.217.894s-1.278,6.37-3.442,6.564-10.519-.558-15.236-7.76S1296.764,49.667,1310.407,47.435Z" transform="translate(-6.157 -0.446)" fill="#eea886"/>
      <path id="Trazado_102155" data-name="Trazado 102155" d="M1317.572,80.631s-.166.892-.321,2.2c-.079.672-.156,1.451-.205,2.276-.134,2.288-.065,4.933.715,6.611,0,0-4.241,2.578-8.776-3.73,0,0,.448-7.827-2.159-11.989S1317.572,80.631,1317.572,80.631Z" transform="translate(-7.714 -7.325)" fill="#eea886"/>
      <path id="Trazado_102156" data-name="Trazado 102156" d="M1323.418,56.156s-5.088,4.391-10.473,5.776-8.237,7.435-8.237,7.435-9.53-9.506-3.779-18.73S1323.408,45.526,1323.418,56.156Z" transform="translate(-5.867 -0.002)" fill="#fccca2"/>
      <path id="Trazado_102157" data-name="Trazado 102157" d="M1318.311,84.417c-.079.672-.156,1.451-.2,2.276a23.776,23.776,0,0,1-7.368-5.464A27.034,27.034,0,0,0,1318.311,84.417Z" transform="translate(-8.774 -8.907)" fill="#a77860"/>
      <path id="Trazado_102158" data-name="Trazado 102158" d="M1311.927,67.416s-5.511,14.816-4.85,18.382c0,0-2.917-.5-8.109,1.085C1298.967,86.882,1301.478,60.452,1311.927,67.416Z" transform="translate(-5.838 -5.17)" fill="#fccca2"/>
      <path id="Trazado_102159" data-name="Trazado 102159" d="M1307.32,92.665s1.814,11.11,8.532,9.856,1.622-9.4,1.622-9.4S1314.49,90.624,1307.32,92.665Z" transform="translate(-7.922 -11.559)" fill="#eea886"/>
      <path id="Trazado_102160" data-name="Trazado 102160" d="M1281.184,186.66a29.312,29.312,0,0,0,1.359,3.529,51.881,51.881,0,0,1,1.032,7.441c.02.635-.428.293-.674-.107-.142-.231-.675-2.218-1.129-3.263-.381-.876-.677-1.193-.813-.891a19.687,19.687,0,0,0,.321,5.65c.464,1.576.382,5.294-.5,4.825s-3.357-7-3.381-9.523a49.452,49.452,0,0,1,.365-5.579Z" transform="translate(-0.458 -35.202)" fill="#eea886"/>
    </g>
  </g>
</svg>
