<svg xmlns="http://www.w3.org/2000/svg" xmlns:xlink="http://www.w3.org/1999/xlink" width="812" height="256.017" viewBox="0 0 812 256.017">
  <defs>
    <linearGradient id="linear-gradient" y1="0.5" x2="1.007" y2="0.5" gradientUnits="objectBoundingBox">
      <stop offset="0" stop-color="#7da8ff"/>
      <stop offset="0.261" stop-color="#7da8ff"/>
      <stop offset="0.7" stop-color="#3366c2"/>
      <stop offset="1" stop-color="#3366c2"/>
    </linearGradient>
    <linearGradient id="linear-gradient-2" x1="-11.792" y1="0.5" x2="18.882" y2="0.5" gradientUnits="objectBoundingBox">
      <stop offset="0.261" stop-color="#7da8ff"/>
      <stop offset="0.454" stop-color="#6a87dc"/>
      <stop offset="0.7" stop-color="#5059ab"/>
    </linearGradient>
    <linearGradient id="linear-gradient-3" x1="-0.006" y1="0.5" x2="1" y2="0.5" gradientUnits="objectBoundingBox">
      <stop offset="0" stop-color="#3366c2"/>
      <stop offset="0.357" stop-color="#3366c2"/>
      <stop offset="0.783" stop-color="#09909f"/>
      <stop offset="1" stop-color="#09909f"/>
    </linearGradient>
    <linearGradient id="linear-gradient-4" x1="-18.086" y1="0.5" x2="12.791" y2="0.5" gradientUnits="objectBoundingBox">
      <stop offset="0.357" stop-color="#5059ab"/>
      <stop offset="0.566" stop-color="#2b75a4"/>
      <stop offset="0.783" stop-color="#09909f"/>
    </linearGradient>
  </defs>
  <g id="Grupo_53550" data-name="Grupo 53550" transform="translate(-211.09 -202.177)">
    <g id="Grupo_53540" data-name="Grupo 53540" transform="translate(211.09 202.177)">
      <g id="Grupo_53537" data-name="Grupo 53537">
        <path id="Trazado_99735" data-name="Trazado 99735" d="M339.1,458.194a128.009,128.009,0,1,1,84.469-224.211,2.843,2.843,0,1,1-3.754,4.272,122.312,122.312,0,1,0-15.358,195.358c34.278-21.708,53.6-64.147,72.29-105.191,18.866-41.432,38.375-84.274,73.462-106.47a128.09,128.09,0,0,1,181.509,48.241,2.843,2.843,0,0,1-5.023,2.665,122.413,122.413,0,0,0-173.448-46.1c-33.655,21.291-52.8,63.349-71.325,104.023-19.033,41.8-38.714,85.025-74.42,107.638A127.56,127.56,0,0,1,339.1,458.194Z" transform="translate(-211.09 -202.177)" fill="url(#linear-gradient)"/>
      </g>
      <g id="Grupo_53538" data-name="Grupo 53538" transform="translate(201.645 25.194)">
        <path id="Trazado_99736" data-name="Trazado 99736" d="M363.173,221.614a8.55,8.55,0,1,1-12.078.577A8.552,8.552,0,0,1,363.173,221.614Z" transform="translate(-348.872 -219.392)" fill="url(#linear-gradient-2)"/>
      </g>
      <g id="Grupo_53539" data-name="Grupo 53539" transform="translate(509.27 60.459)">
        <path id="Trazado_99737" data-name="Trazado 99737" d="M559.992,255.9a8.55,8.55,0,1,0,3.773-11.487A8.553,8.553,0,0,0,559.992,255.9Z" transform="translate(-559.071 -243.488)" fill="#3366c2"/>
      </g>
    </g>
    <g id="Grupo_53544" data-name="Grupo 53544" transform="translate(492.62 202.177)">
      <g id="Grupo_53541" data-name="Grupo 53541" transform="translate(5.505)">
        <path id="Trazado_99738" data-name="Trazado 99738" d="M804.176,458.194a127.875,127.875,0,0,1-84.456-31.814,2.843,2.843,0,0,1,3.754-4.272,122.31,122.31,0,1,0,15.367-195.354c-34.29,21.71-53.614,64.144-72.3,105.18C647.675,373.363,628.166,416.2,593.069,438.4A128.022,128.022,0,0,1,407.46,381.645a2.842,2.842,0,1,1,5.206-2.283,122.337,122.337,0,0,0,177.36,54.231c33.669-21.292,52.819-63.345,71.34-104.014,19.033-41.795,38.713-85.012,74.431-107.626a128.02,128.02,0,1,1,68.379,236.241Z" transform="translate(-407.219 -202.177)" fill="url(#linear-gradient-3)"/>
      </g>
      <g id="Grupo_53542" data-name="Grupo 53542" transform="translate(0 170.151)">
        <path id="Trazado_99739" data-name="Trazado 99739" d="M404.09,330.214a8.55,8.55,0,1,1,11.142,4.7A8.551,8.551,0,0,1,404.09,330.214Z" transform="translate(-403.458 -318.44)" fill="#3366c2"/>
      </g>
      <g id="Grupo_53543" data-name="Grupo 53543" transform="translate(311.746 213.723)">
        <path id="Trazado_99740" data-name="Trazado 99740" d="M630.773,350.435a8.551,8.551,0,1,0,.575,12.078A8.552,8.552,0,0,0,630.773,350.435Z" transform="translate(-616.472 -348.212)" fill="url(#linear-gradient-4)"/>
      </g>
    </g>
    <g id="Confidentiality_Confidencialidad_" data-name="Confidentiality Confidencialidad " transform="translate(521.647 333.239)" style="isolation: isolate">
      <path id="Trazado_102920" data-name="Trazado 102920" d="M13.053-4.973a5.283,5.283,0,0,1-1.779,3.794A6.248,6.248,0,0,1,7.044.205,5.618,5.618,0,0,1,2.528-1.728,7.925,7.925,0,0,1,.882-7.034v-.913a8.95,8.95,0,0,1,.759-3.794,5.686,5.686,0,0,1,2.169-2.517,6.075,6.075,0,0,1,3.276-.877,6.087,6.087,0,0,1,4.163,1.384,5.677,5.677,0,0,1,1.825,3.886H10a3.118,3.118,0,0,0-.8-2.1,2.981,2.981,0,0,0-2.107-.651,2.614,2.614,0,0,0-2.3,1.1A6.178,6.178,0,0,0,4-8.09v1.128a6.612,6.612,0,0,0,.733,3.538A2.565,2.565,0,0,0,7.044-2.307a3.037,3.037,0,0,0,2.128-.651,2.941,2.941,0,0,0,.8-2.015Zm1.364-.677a6.58,6.58,0,0,1,.636-2.943,4.654,4.654,0,0,1,1.83-2,5.34,5.34,0,0,1,2.774-.708,5.052,5.052,0,0,1,3.666,1.374,5.514,5.514,0,0,1,1.584,3.732l.021.759a5.8,5.8,0,0,1-1.425,4.1A4.954,4.954,0,0,1,19.677.205a4.979,4.979,0,0,1-3.83-1.538,5.9,5.9,0,0,1-1.43-4.184Zm2.963.21a4.147,4.147,0,0,0,.595,2.418,1.962,1.962,0,0,0,1.7.837,1.966,1.966,0,0,0,1.682-.827,4.538,4.538,0,0,0,.6-2.644,4.106,4.106,0,0,0-.6-2.4,1.967,1.967,0,0,0-1.7-.852,1.934,1.934,0,0,0-1.682.847A4.614,4.614,0,0,0,17.38-5.44Zm12.1-5.655.092,1.282A3.874,3.874,0,0,1,32.761-11.3a3.219,3.219,0,0,1,2.625,1.036,4.832,4.832,0,0,1,.882,3.1V0H33.3V-7.112a1.93,1.93,0,0,0-.41-1.372,1.833,1.833,0,0,0-1.364-.426,2.038,2.038,0,0,0-1.876,1.069V0H26.691V-11.095ZM39.231,0V-8.921H37.581v-2.174h1.651v-.513a4.161,4.161,0,0,1,1.287-3.225,5.178,5.178,0,0,1,3.573-1.133,11.853,11.853,0,0,1,3.363.6l-.431,2.451a13.122,13.122,0,0,0-1.559-.385,7.658,7.658,0,0,0-1.189-.087q-2.071,0-2.071,1.835v.451h2.184v2.174H42.205V0Zm9.608,0H45.866V-11.095h2.974Zm1.989-5.629a6.686,6.686,0,0,1,1.164-4.132A3.776,3.776,0,0,1,55.176-11.3a3.4,3.4,0,0,1,2.676,1.21v-5.66h2.974V0H58.15l-.144-1.179A3.487,3.487,0,0,1,55.156.205a3.766,3.766,0,0,1-3.143-1.543A6.9,6.9,0,0,1,50.829-5.629Zm2.963.211a4.4,4.4,0,0,0,.543,2.4,1.769,1.769,0,0,0,1.579.834,1.982,1.982,0,0,0,1.938-1.164v-4.4a1.954,1.954,0,0,0-1.917-1.164Q53.792-8.911,53.792-5.419ZM68.229.205a5.447,5.447,0,0,1-3.973-1.5,5.321,5.321,0,0,1-1.533-3.989v-.287a6.7,6.7,0,0,1,.646-2.989,4.741,4.741,0,0,1,1.83-2.03,5.137,5.137,0,0,1,2.7-.713,4.6,4.6,0,0,1,3.584,1.436,5.833,5.833,0,0,1,1.307,4.071v1.21H65.728a2.753,2.753,0,0,0,.866,1.743,2.619,2.619,0,0,0,1.83.656A3.2,3.2,0,0,0,71.1-3.425l1.456,1.63a4.449,4.449,0,0,1-1.8,1.471A5.921,5.921,0,0,1,68.229.205Zm-.338-9.116a1.852,1.852,0,0,0-1.43.6,3.093,3.093,0,0,0-.7,1.71H69.88V-6.84a2.206,2.206,0,0,0-.533-1.529A1.91,1.91,0,0,0,67.891-8.911ZM77.2-11.095l.092,1.282A3.874,3.874,0,0,1,80.483-11.3a3.219,3.219,0,0,1,2.625,1.036,4.832,4.832,0,0,1,.882,3.1V0H81.026V-7.112a1.93,1.93,0,0,0-.41-1.372,1.833,1.833,0,0,0-1.364-.426,2.038,2.038,0,0,0-1.876,1.069V0H74.413V-11.095Zm12.582-2.728v2.728h1.9v2.174h-1.9v5.537a1.322,1.322,0,0,0,.236.882,1.184,1.184,0,0,0,.9.267,4.726,4.726,0,0,0,.872-.072V-.062A6.1,6.1,0,0,1,90,.205q-3.117,0-3.179-3.148V-8.921H85.2v-2.174h1.62v-2.728ZM96.458,0H93.485V-11.095h2.974ZM93.311-13.966a1.459,1.459,0,0,1,.446-1.1,1.676,1.676,0,0,1,1.215-.431,1.679,1.679,0,0,1,1.21.431,1.451,1.451,0,0,1,.451,1.1,1.455,1.455,0,0,1-.456,1.107,1.684,1.684,0,0,1-1.2.431,1.684,1.684,0,0,1-1.2-.431A1.455,1.455,0,0,1,93.311-13.966ZM105.328,0a3.291,3.291,0,0,1-.3-.995,3.586,3.586,0,0,1-2.8,1.2,3.939,3.939,0,0,1-2.7-.943,3.034,3.034,0,0,1-1.072-2.379,3.135,3.135,0,0,1,1.307-2.707,6.451,6.451,0,0,1,3.779-.954h1.364v-.636a1.828,1.828,0,0,0-.395-1.23,1.553,1.553,0,0,0-1.246-.461,1.766,1.766,0,0,0-1.174.359,1.219,1.219,0,0,0-.426.984H98.7A2.977,2.977,0,0,1,99.3-9.546a3.931,3.931,0,0,1,1.682-1.287,6.129,6.129,0,0,1,2.44-.467,4.842,4.842,0,0,1,3.256,1.031,3.605,3.605,0,0,1,1.2,2.9v4.809a5.3,5.3,0,0,0,.441,2.389V0Zm-2.451-2.061a2.552,2.552,0,0,0,1.21-.292,1.919,1.919,0,0,0,.82-.784V-5.045H103.8q-2.225,0-2.369,1.538l-.01.174a1.186,1.186,0,0,0,.39.913A1.514,1.514,0,0,0,102.877-2.061ZM113.285,0h-2.974V-15.75h2.974Zm5.568,0h-2.974V-11.095h2.974Zm-3.148-13.966a1.459,1.459,0,0,1,.446-1.1,1.676,1.676,0,0,1,1.215-.431,1.679,1.679,0,0,1,1.21.431,1.451,1.451,0,0,1,.451,1.1,1.455,1.455,0,0,1-.456,1.107,1.684,1.684,0,0,1-1.2.431,1.684,1.684,0,0,1-1.2-.431A1.455,1.455,0,0,1,115.705-13.966Zm9.136.144v2.728h1.9v2.174h-1.9v5.537a1.322,1.322,0,0,0,.236.882,1.184,1.184,0,0,0,.9.267,4.726,4.726,0,0,0,.872-.072V-.062a6.1,6.1,0,0,1-1.794.267q-3.117,0-3.179-3.148V-8.921h-1.62v-2.174h1.62v-2.728Zm7.69,9.628,2.051-6.9h3.179L133.3,1.723l-.246.584a3.382,3.382,0,0,1-3.281,2.174,4.663,4.663,0,0,1-1.312-.195V2.041l.451.01a2.438,2.438,0,0,0,1.256-.256,1.684,1.684,0,0,0,.651-.851l.349-.913-3.886-11.125h3.189Z" transform="translate(20.027 20)" fill="#3366c2"/>
      <path id="Trazado_102921" data-name="Trazado 102921" d="M1.271-6.07A15.736,15.736,0,0,1,1.9-10.541,11.8,11.8,0,0,1,3.743-14.3,6.892,6.892,0,0,1,6.388-16.57l.574,1.6a7.137,7.137,0,0,0-2.338,3.425,15.858,15.858,0,0,0-.841,5.414v.318A16.161,16.161,0,0,0,4.614-.379,7.276,7.276,0,0,0,6.962,3.1L6.388,4.666a6.9,6.9,0,0,1-2.6-2.21A11.6,11.6,0,0,1,1.948-1.2a15.643,15.643,0,0,1-.677-4.327Zm19.154,1.1a5.283,5.283,0,0,1-1.779,3.794A6.248,6.248,0,0,1,14.417.205,5.618,5.618,0,0,1,9.9-1.728,7.925,7.925,0,0,1,8.254-7.034v-.913a8.95,8.95,0,0,1,.759-3.794,5.686,5.686,0,0,1,2.169-2.517,6.075,6.075,0,0,1,3.276-.877,6.087,6.087,0,0,1,4.163,1.384,5.677,5.677,0,0,1,1.825,3.886H17.37a3.118,3.118,0,0,0-.8-2.1,2.981,2.981,0,0,0-2.107-.651,2.614,2.614,0,0,0-2.3,1.1,6.178,6.178,0,0,0-.784,3.42v1.128A6.612,6.612,0,0,0,12.1-3.425a2.565,2.565,0,0,0,2.312,1.118,3.037,3.037,0,0,0,2.128-.651,2.941,2.941,0,0,0,.8-2.015ZM21.79-5.65a6.58,6.58,0,0,1,.636-2.943,4.654,4.654,0,0,1,1.83-2,5.34,5.34,0,0,1,2.774-.708A5.052,5.052,0,0,1,30.7-9.926a5.514,5.514,0,0,1,1.584,3.732l.021.759a5.8,5.8,0,0,1-1.425,4.1A4.954,4.954,0,0,1,27.05.205a4.979,4.979,0,0,1-3.83-1.538,5.9,5.9,0,0,1-1.43-4.184Zm2.963.21a4.147,4.147,0,0,0,.595,2.418,1.962,1.962,0,0,0,1.7.837,1.966,1.966,0,0,0,1.682-.827,4.538,4.538,0,0,0,.6-2.644,4.106,4.106,0,0,0-.6-2.4,1.967,1.967,0,0,0-1.7-.852,1.934,1.934,0,0,0-1.682.847A4.614,4.614,0,0,0,24.753-5.44Zm12.1-5.655.092,1.282A3.874,3.874,0,0,1,40.134-11.3a3.219,3.219,0,0,1,2.625,1.036,4.832,4.832,0,0,1,.882,3.1V0H40.677V-7.112a1.93,1.93,0,0,0-.41-1.372A1.833,1.833,0,0,0,38.9-8.911a2.038,2.038,0,0,0-1.876,1.069V0H34.063V-11.095ZM46.6,0V-8.921H44.953v-2.174H46.6v-.513a4.161,4.161,0,0,1,1.287-3.225,5.178,5.178,0,0,1,3.573-1.133,11.853,11.853,0,0,1,3.363.6L54.4-12.91a13.122,13.122,0,0,0-1.559-.385,7.658,7.658,0,0,0-1.189-.087q-2.071,0-2.071,1.835v.451h2.184v2.174H49.578V0Zm9.608,0H53.238V-11.095h2.974ZM58.2-5.629a6.686,6.686,0,0,1,1.164-4.132A3.776,3.776,0,0,1,62.549-11.3a3.4,3.4,0,0,1,2.676,1.21v-5.66H68.2V0H65.522l-.144-1.179A3.487,3.487,0,0,1,62.528.205a3.766,3.766,0,0,1-3.143-1.543A6.9,6.9,0,0,1,58.2-5.629Zm2.963.211a4.4,4.4,0,0,0,.543,2.4,1.769,1.769,0,0,0,1.579.834,1.982,1.982,0,0,0,1.938-1.164v-4.4a1.954,1.954,0,0,0-1.917-1.164Q61.165-8.911,61.165-5.419ZM75.6.205a5.447,5.447,0,0,1-3.973-1.5A5.321,5.321,0,0,1,70.1-5.281v-.287a6.7,6.7,0,0,1,.646-2.989,4.741,4.741,0,0,1,1.83-2.03,5.137,5.137,0,0,1,2.7-.713,4.6,4.6,0,0,1,3.584,1.436,5.833,5.833,0,0,1,1.307,4.071v1.21H73.1a2.753,2.753,0,0,0,.866,1.743,2.619,2.619,0,0,0,1.83.656,3.2,3.2,0,0,0,2.676-1.241l1.456,1.63a4.449,4.449,0,0,1-1.8,1.471A5.921,5.921,0,0,1,75.6.205Zm-.338-9.116a1.852,1.852,0,0,0-1.43.6,3.093,3.093,0,0,0-.7,1.71h4.122V-6.84A2.206,2.206,0,0,0,76.72-8.37,1.91,1.91,0,0,0,75.264-8.911Zm9.311-2.184.092,1.282A3.874,3.874,0,0,1,87.855-11.3a3.219,3.219,0,0,1,2.625,1.036,4.832,4.832,0,0,1,.882,3.1V0H88.4V-7.112a1.93,1.93,0,0,0-.41-1.372,1.833,1.833,0,0,0-1.364-.426,2.038,2.038,0,0,0-1.876,1.069V0H81.785V-11.095ZM98.222-2.184a1.944,1.944,0,0,0,1.333-.451,1.581,1.581,0,0,0,.533-1.2h2.779a3.8,3.8,0,0,1-.615,2.066A4.06,4.06,0,0,1,100.6-.313a5.183,5.183,0,0,1-2.323.518,4.817,4.817,0,0,1-3.753-1.512,5.985,5.985,0,0,1-1.374-4.178v-.195A5.917,5.917,0,0,1,94.51-9.772,4.761,4.761,0,0,1,98.253-11.3a4.667,4.667,0,0,1,3.338,1.184,4.193,4.193,0,0,1,1.277,3.153h-2.779a2.036,2.036,0,0,0-.533-1.407A1.778,1.778,0,0,0,98.2-8.911a1.785,1.785,0,0,0-1.564.755,4.374,4.374,0,0,0-.528,2.449V-5.4a4.43,4.43,0,0,0,.523,2.465A1.807,1.807,0,0,0,98.222-2.184ZM107.687,0h-2.974V-11.095h2.974Zm-3.148-13.966a1.459,1.459,0,0,1,.446-1.1,1.676,1.676,0,0,1,1.215-.431,1.679,1.679,0,0,1,1.21.431,1.451,1.451,0,0,1,.451,1.1,1.455,1.455,0,0,1-.456,1.107,1.684,1.684,0,0,1-1.2.431,1.684,1.684,0,0,1-1.2-.431A1.455,1.455,0,0,1,104.539-13.966ZM116.556,0a3.291,3.291,0,0,1-.3-.995,3.586,3.586,0,0,1-2.8,1.2,3.939,3.939,0,0,1-2.7-.943,3.034,3.034,0,0,1-1.072-2.379,3.135,3.135,0,0,1,1.307-2.707,6.451,6.451,0,0,1,3.779-.954h1.364v-.636a1.828,1.828,0,0,0-.395-1.23,1.553,1.553,0,0,0-1.246-.461,1.766,1.766,0,0,0-1.174.359,1.219,1.219,0,0,0-.426.984h-2.963a2.977,2.977,0,0,1,.595-1.784,3.931,3.931,0,0,1,1.682-1.287,6.129,6.129,0,0,1,2.44-.467,4.842,4.842,0,0,1,3.256,1.031,3.605,3.605,0,0,1,1.2,2.9v4.809a5.3,5.3,0,0,0,.441,2.389V0Zm-2.451-2.061a2.552,2.552,0,0,0,1.21-.292,1.919,1.919,0,0,0,.82-.784V-5.045h-1.107q-2.225,0-2.369,1.538l-.01.174a1.186,1.186,0,0,0,.39.913A1.514,1.514,0,0,0,114.105-2.061ZM124.513,0H121.54V-15.75h2.974Zm5.568,0h-2.974V-11.095h2.974Zm-3.148-13.966a1.459,1.459,0,0,1,.446-1.1,1.676,1.676,0,0,1,1.215-.431,1.679,1.679,0,0,1,1.21.431,1.451,1.451,0,0,1,.451,1.1,1.455,1.455,0,0,1-.456,1.107,1.684,1.684,0,0,1-1.2.431,1.684,1.684,0,0,1-1.2-.431A1.455,1.455,0,0,1,126.933-13.966Zm5.127,8.336a6.686,6.686,0,0,1,1.164-4.132,3.776,3.776,0,0,1,3.184-1.538,3.4,3.4,0,0,1,2.676,1.21v-5.66h2.974V0h-2.676l-.144-1.179A3.487,3.487,0,0,1,136.387.205a3.766,3.766,0,0,1-3.143-1.543A6.9,6.9,0,0,1,132.06-5.629Zm2.963.211a4.4,4.4,0,0,0,.543,2.4,1.769,1.769,0,0,0,1.579.834,1.982,1.982,0,0,0,1.938-1.164v-4.4a1.954,1.954,0,0,0-1.917-1.164Q135.023-8.911,135.023-5.419ZM150.784,0a3.291,3.291,0,0,1-.3-.995,3.586,3.586,0,0,1-2.8,1.2,3.939,3.939,0,0,1-2.7-.943,3.034,3.034,0,0,1-1.072-2.379,3.135,3.135,0,0,1,1.307-2.707A6.451,6.451,0,0,1,149-6.778h1.364v-.636a1.828,1.828,0,0,0-.395-1.23,1.553,1.553,0,0,0-1.246-.461,1.766,1.766,0,0,0-1.174.359,1.219,1.219,0,0,0-.426.984H144.16a2.977,2.977,0,0,1,.595-1.784,3.931,3.931,0,0,1,1.682-1.287,6.129,6.129,0,0,1,2.44-.467,4.842,4.842,0,0,1,3.256,1.031,3.605,3.605,0,0,1,1.2,2.9v4.809a5.3,5.3,0,0,0,.441,2.389V0Zm-2.451-2.061a2.552,2.552,0,0,0,1.21-.292,1.919,1.919,0,0,0,.82-.784V-5.045h-1.107q-2.225,0-2.369,1.538l-.01.174a1.186,1.186,0,0,0,.39.913A1.514,1.514,0,0,0,148.333-2.061Zm6.819-3.568a6.686,6.686,0,0,1,1.164-4.132A3.776,3.776,0,0,1,159.5-11.3a3.4,3.4,0,0,1,2.676,1.21v-5.66h2.974V0h-2.676l-.144-1.179A3.487,3.487,0,0,1,159.479.205a3.766,3.766,0,0,1-3.143-1.543A6.9,6.9,0,0,1,155.152-5.629Zm2.963.211a4.4,4.4,0,0,0,.543,2.4,1.769,1.769,0,0,0,1.579.834,1.982,1.982,0,0,0,1.938-1.164v-4.4a1.954,1.954,0,0,0-1.917-1.164Q158.115-8.911,158.115-5.419Zm14.438-.416a14.932,14.932,0,0,1-.667,4.46,12.108,12.108,0,0,1-1.917,3.784,6.908,6.908,0,0,1-2.676,2.256L166.718,3.1a7.21,7.21,0,0,0,2.3-3.384,15.669,15.669,0,0,0,.872-5.26v-.543a16.024,16.024,0,0,0-.836-5.4A7.516,7.516,0,0,0,166.718-15l.574-1.569a6.911,6.911,0,0,1,2.63,2.194,11.952,11.952,0,0,1,1.917,3.7,14.826,14.826,0,0,1,.713,4.378Z" transform="translate(0 41.953)" fill="#3366c2"/>
    </g>
    <g id="Integrity_Integridad_" data-name="Integrity Integridad " transform="translate(266.344 333.239)" style="isolation: isolate">
      <path id="Trazado_102919" data-name="Trazado 102919" d="M4.6,0H1.528V-14.93H4.6ZM9.987-11.095l.092,1.282A3.874,3.874,0,0,1,13.269-11.3a3.219,3.219,0,0,1,2.625,1.036,4.832,4.832,0,0,1,.882,3.1V0H13.812V-7.112a1.93,1.93,0,0,0-.41-1.372,1.833,1.833,0,0,0-1.364-.426,2.038,2.038,0,0,0-1.876,1.069V0H7.2V-11.095Zm12.582-2.728v2.728h1.9v2.174h-1.9v5.537A1.322,1.322,0,0,0,22.8-2.5a1.184,1.184,0,0,0,.9.267,4.726,4.726,0,0,0,.872-.072V-.062a6.1,6.1,0,0,1-1.794.267q-3.117,0-3.179-3.148V-8.921h-1.62v-2.174h1.62v-2.728ZM31.223.205a5.447,5.447,0,0,1-3.973-1.5,5.321,5.321,0,0,1-1.533-3.989v-.287a6.7,6.7,0,0,1,.646-2.989,4.741,4.741,0,0,1,1.83-2.03,5.137,5.137,0,0,1,2.7-.713,4.6,4.6,0,0,1,3.584,1.436,5.833,5.833,0,0,1,1.307,4.071v1.21H28.721a2.753,2.753,0,0,0,.866,1.743,2.619,2.619,0,0,0,1.83.656,3.2,3.2,0,0,0,2.676-1.241l1.456,1.63a4.449,4.449,0,0,1-1.8,1.471A5.921,5.921,0,0,1,31.223.205Zm-.338-9.116a1.852,1.852,0,0,0-1.43.6,3.093,3.093,0,0,0-.7,1.71h4.122V-6.84a2.206,2.206,0,0,0-.533-1.529A1.91,1.91,0,0,0,30.885-8.911Zm6.152,3.281a6.5,6.5,0,0,1,1.215-4.112A3.937,3.937,0,0,1,41.528-11.3a3.453,3.453,0,0,1,2.84,1.251l.123-1.046h2.687V-.369a4.742,4.742,0,0,1-.661,2.533A4.248,4.248,0,0,1,44.656,3.8a6.543,6.543,0,0,1-2.81.564,6.084,6.084,0,0,1-2.379-.487,4.222,4.222,0,0,1-1.753-1.256L39.026.82a3.471,3.471,0,0,0,2.687,1.241,2.541,2.541,0,0,0,1.835-.631A2.365,2.365,0,0,0,44.2-.359V-.954a3.428,3.428,0,0,1-2.7,1.159,3.927,3.927,0,0,1-3.235-1.564,6.5,6.5,0,0,1-1.236-4.148ZM40-5.419a4.07,4.07,0,0,0,.6,2.374,1.923,1.923,0,0,0,1.661.86A2.056,2.056,0,0,0,44.2-3.2V-7.891a2.051,2.051,0,0,0-1.917-1.02,1.935,1.935,0,0,0-1.677.876A4.589,4.589,0,0,0,40-5.419Zm15.688-2.9A8.051,8.051,0,0,0,54.623-8.4a2.171,2.171,0,0,0-2.2,1.138V0H49.455V-11.095h2.8l.082,1.323A2.746,2.746,0,0,1,54.807-11.3a3.105,3.105,0,0,1,.923.133ZM60.242,0H57.268V-11.095h2.974ZM57.094-13.966a1.459,1.459,0,0,1,.446-1.1,1.676,1.676,0,0,1,1.215-.431,1.679,1.679,0,0,1,1.21.431,1.451,1.451,0,0,1,.451,1.1,1.455,1.455,0,0,1-.456,1.107,1.684,1.684,0,0,1-1.2.431,1.684,1.684,0,0,1-1.2-.431A1.455,1.455,0,0,1,57.094-13.966Zm9.136.144v2.728h1.9v2.174h-1.9v5.537a1.322,1.322,0,0,0,.236.882,1.184,1.184,0,0,0,.9.267,4.726,4.726,0,0,0,.872-.072V-.062a6.1,6.1,0,0,1-1.794.267q-3.117,0-3.179-3.148V-8.921h-1.62v-2.174h1.62v-2.728Zm7.69,9.628,2.051-6.9H79.15L74.689,1.723l-.246.584a3.382,3.382,0,0,1-3.281,2.174,4.663,4.663,0,0,1-1.312-.195V2.041l.451.01a2.438,2.438,0,0,0,1.256-.256,1.684,1.684,0,0,0,.651-.851l.349-.913L68.67-11.095h3.189Z" transform="translate(17.877 20)" fill="#698cf2"/>
      <path id="Trazado_102918" data-name="Trazado 102918" d="M1.271-6.07A15.736,15.736,0,0,1,1.9-10.541,11.8,11.8,0,0,1,3.743-14.3,6.892,6.892,0,0,1,6.388-16.57l.574,1.6a7.137,7.137,0,0,0-2.338,3.425,15.858,15.858,0,0,0-.841,5.414v.318A16.161,16.161,0,0,0,4.614-.379,7.276,7.276,0,0,0,6.962,3.1L6.388,4.666a6.9,6.9,0,0,1-2.6-2.21A11.6,11.6,0,0,1,1.948-1.2a15.643,15.643,0,0,1-.677-4.327ZM11.977,0H8.9V-14.93h3.076ZM17.36-11.095l.092,1.282A3.874,3.874,0,0,1,20.641-11.3a3.219,3.219,0,0,1,2.625,1.036,4.832,4.832,0,0,1,.882,3.1V0H21.185V-7.112a1.93,1.93,0,0,0-.41-1.372,1.833,1.833,0,0,0-1.364-.426,2.038,2.038,0,0,0-1.876,1.069V0H14.571V-11.095Zm12.582-2.728v2.728h1.9v2.174h-1.9v5.537a1.322,1.322,0,0,0,.236.882,1.184,1.184,0,0,0,.9.267,4.726,4.726,0,0,0,.872-.072V-.062a6.1,6.1,0,0,1-1.794.267q-3.117,0-3.179-3.148V-8.921h-1.62v-2.174h1.62v-2.728ZM38.6.205a5.447,5.447,0,0,1-3.973-1.5,5.321,5.321,0,0,1-1.533-3.989v-.287a6.7,6.7,0,0,1,.646-2.989,4.741,4.741,0,0,1,1.83-2.03,5.137,5.137,0,0,1,2.7-.713,4.6,4.6,0,0,1,3.584,1.436,5.833,5.833,0,0,1,1.307,4.071v1.21H36.094A2.753,2.753,0,0,0,36.96-2.84a2.619,2.619,0,0,0,1.83.656,3.2,3.2,0,0,0,2.676-1.241l1.456,1.63a4.449,4.449,0,0,1-1.8,1.471A5.921,5.921,0,0,1,38.6.205Zm-.338-9.116a1.852,1.852,0,0,0-1.43.6,3.093,3.093,0,0,0-.7,1.71h4.122V-6.84a2.206,2.206,0,0,0-.533-1.529A1.91,1.91,0,0,0,38.257-8.911ZM44.41-5.629a6.5,6.5,0,0,1,1.215-4.112A3.937,3.937,0,0,1,48.9-11.3a3.453,3.453,0,0,1,2.84,1.251l.123-1.046h2.687V-.369a4.742,4.742,0,0,1-.661,2.533A4.248,4.248,0,0,1,52.028,3.8a6.543,6.543,0,0,1-2.81.564,6.084,6.084,0,0,1-2.379-.487,4.222,4.222,0,0,1-1.753-1.256L46.4.82a3.471,3.471,0,0,0,2.687,1.241,2.541,2.541,0,0,0,1.835-.631,2.365,2.365,0,0,0,.656-1.789V-.954A3.428,3.428,0,0,1,48.88.205a3.927,3.927,0,0,1-3.235-1.564A6.5,6.5,0,0,1,44.41-5.506Zm2.963.211a4.07,4.07,0,0,0,.6,2.374,1.923,1.923,0,0,0,1.661.86A2.056,2.056,0,0,0,51.577-3.2V-7.891a2.051,2.051,0,0,0-1.917-1.02,1.935,1.935,0,0,0-1.677.876A4.589,4.589,0,0,0,47.373-5.419Zm15.688-2.9A8.051,8.051,0,0,0,62-8.4a2.171,2.171,0,0,0-2.2,1.138V0H56.827V-11.095h2.8l.082,1.323A2.746,2.746,0,0,1,62.18-11.3a3.105,3.105,0,0,1,.923.133ZM67.614,0H64.641V-11.095h2.974ZM64.466-13.966a1.459,1.459,0,0,1,.446-1.1,1.676,1.676,0,0,1,1.215-.431,1.679,1.679,0,0,1,1.21.431,1.451,1.451,0,0,1,.451,1.1,1.455,1.455,0,0,1-.456,1.107,1.684,1.684,0,0,1-1.2.431,1.684,1.684,0,0,1-1.2-.431A1.455,1.455,0,0,1,64.466-13.966Zm5.127,8.336a6.686,6.686,0,0,1,1.164-4.132A3.776,3.776,0,0,1,73.941-11.3a3.4,3.4,0,0,1,2.676,1.21v-5.66h2.974V0H76.915l-.144-1.179A3.487,3.487,0,0,1,73.92.205a3.766,3.766,0,0,1-3.143-1.543A6.9,6.9,0,0,1,69.593-5.629Zm2.963.211a4.4,4.4,0,0,0,.543,2.4,1.769,1.769,0,0,0,1.579.834,1.982,1.982,0,0,0,1.938-1.164v-4.4A1.954,1.954,0,0,0,74.7-8.911Q72.557-8.911,72.557-5.419ZM88.317,0a3.291,3.291,0,0,1-.3-.995,3.586,3.586,0,0,1-2.8,1.2,3.939,3.939,0,0,1-2.7-.943,3.034,3.034,0,0,1-1.072-2.379,3.135,3.135,0,0,1,1.307-2.707,6.451,6.451,0,0,1,3.779-.954H87.9v-.636a1.828,1.828,0,0,0-.395-1.23,1.553,1.553,0,0,0-1.246-.461,1.766,1.766,0,0,0-1.174.359,1.219,1.219,0,0,0-.426.984H81.693a2.977,2.977,0,0,1,.595-1.784,3.931,3.931,0,0,1,1.682-1.287,6.129,6.129,0,0,1,2.44-.467,4.842,4.842,0,0,1,3.256,1.031,3.605,3.605,0,0,1,1.2,2.9v4.809a5.3,5.3,0,0,0,.441,2.389V0ZM85.866-2.061a2.552,2.552,0,0,0,1.21-.292,1.919,1.919,0,0,0,.82-.784V-5.045H86.789q-2.225,0-2.369,1.538l-.01.174a1.186,1.186,0,0,0,.39.913A1.514,1.514,0,0,0,85.866-2.061Zm6.819-3.568a6.686,6.686,0,0,1,1.164-4.132A3.776,3.776,0,0,1,97.033-11.3a3.4,3.4,0,0,1,2.676,1.21v-5.66h2.974V0h-2.676l-.144-1.179A3.487,3.487,0,0,1,97.012.205a3.766,3.766,0,0,1-3.143-1.543A6.9,6.9,0,0,1,92.685-5.629Zm2.963.211a4.4,4.4,0,0,0,.543,2.4,1.769,1.769,0,0,0,1.579.834,1.982,1.982,0,0,0,1.938-1.164v-4.4a1.954,1.954,0,0,0-1.917-1.164Q95.648-8.911,95.648-5.419Zm14.438-.416a14.932,14.932,0,0,1-.667,4.46A12.108,12.108,0,0,1,107.5,2.41a6.908,6.908,0,0,1-2.676,2.256L104.251,3.1a7.21,7.21,0,0,0,2.3-3.384,15.669,15.669,0,0,0,.872-5.26v-.543a16.024,16.024,0,0,0-.836-5.4A7.516,7.516,0,0,0,104.251-15l.574-1.569a6.911,6.911,0,0,1,2.63,2.194,11.952,11.952,0,0,1,1.917,3.7,14.826,14.826,0,0,1,.713,4.378Z" transform="translate(0 41.953)" fill="#698cf2"/>
    </g>
    <g id="Availability_Disponibilidad_" data-name="Availability Disponibilidad " transform="translate(823.825 333.239)" style="isolation: isolate">
      <g id="Grupo_54917" data-name="Grupo 54917">
        <path id="Trazado_102922" data-name="Trazado 102922" d="M9.762-3.076H4.368L3.343,0H.072L5.629-14.93H8.48L14.068,0H10.8ZM5.2-5.568H8.931L7.055-11.156ZM18.908-3.62l2.061-7.475h3.1L20.323,0h-2.83L13.75-11.095h3.1ZM31.644,0a3.291,3.291,0,0,1-.3-.995,3.586,3.586,0,0,1-2.8,1.2,3.939,3.939,0,0,1-2.7-.943,3.034,3.034,0,0,1-1.072-2.379,3.135,3.135,0,0,1,1.307-2.707,6.451,6.451,0,0,1,3.779-.954h1.364v-.636a1.828,1.828,0,0,0-.395-1.23,1.553,1.553,0,0,0-1.246-.461,1.766,1.766,0,0,0-1.174.359,1.219,1.219,0,0,0-.426.984H25.02a2.977,2.977,0,0,1,.595-1.784A3.931,3.931,0,0,1,27.3-10.833a6.129,6.129,0,0,1,2.44-.467,4.842,4.842,0,0,1,3.256,1.031,3.605,3.605,0,0,1,1.2,2.9v4.809a5.3,5.3,0,0,0,.441,2.389V0ZM29.193-2.061a2.552,2.552,0,0,0,1.21-.292,1.919,1.919,0,0,0,.82-.784V-5.045H30.116q-2.225,0-2.369,1.538l-.01.174a1.186,1.186,0,0,0,.39.913A1.514,1.514,0,0,0,29.193-2.061ZM39.6,0H36.627V-11.095H39.6ZM36.453-13.966a1.459,1.459,0,0,1,.446-1.1,1.676,1.676,0,0,1,1.215-.431,1.679,1.679,0,0,1,1.21.431,1.451,1.451,0,0,1,.451,1.1,1.455,1.455,0,0,1-.456,1.107,1.684,1.684,0,0,1-1.2.431,1.684,1.684,0,0,1-1.2-.431A1.455,1.455,0,0,1,36.453-13.966ZM45.168,0H42.195V-15.75h2.974Zm8.87,0a3.291,3.291,0,0,1-.3-.995,3.586,3.586,0,0,1-2.8,1.2,3.939,3.939,0,0,1-2.7-.943,3.034,3.034,0,0,1-1.072-2.379,3.135,3.135,0,0,1,1.307-2.707,6.451,6.451,0,0,1,3.779-.954h1.364v-.636a1.828,1.828,0,0,0-.395-1.23,1.553,1.553,0,0,0-1.246-.461,1.766,1.766,0,0,0-1.174.359,1.219,1.219,0,0,0-.426.984H47.414a2.977,2.977,0,0,1,.595-1.784,3.931,3.931,0,0,1,1.682-1.287,6.129,6.129,0,0,1,2.44-.467,4.842,4.842,0,0,1,3.256,1.031,3.605,3.605,0,0,1,1.2,2.9v4.809a5.3,5.3,0,0,0,.441,2.389V0ZM51.587-2.061a2.552,2.552,0,0,0,1.21-.292,1.919,1.919,0,0,0,.82-.784V-5.045H52.51q-2.225,0-2.369,1.538l-.01.174a1.186,1.186,0,0,0,.39.913A1.514,1.514,0,0,0,51.587-2.061ZM68.865-5.445a6.718,6.718,0,0,1-1.138,4.158A3.77,3.77,0,0,1,64.548.205a3.464,3.464,0,0,1-2.881-1.384L61.534,0H58.868V-15.75h2.963v5.65a3.375,3.375,0,0,1,2.7-1.2,3.8,3.8,0,0,1,3.184,1.492,6.728,6.728,0,0,1,1.154,4.2ZM65.9-5.671a4.438,4.438,0,0,0-.533-2.463,1.8,1.8,0,0,0-1.589-.777,1.954,1.954,0,0,0-1.948,1.162v4.392A1.981,1.981,0,0,0,63.8-2.184,1.83,1.83,0,0,0,65.687-3.6,7.343,7.343,0,0,0,65.9-5.671ZM73.818,0H70.844V-11.095h2.974ZM70.67-13.966a1.459,1.459,0,0,1,.446-1.1,1.676,1.676,0,0,1,1.215-.431,1.679,1.679,0,0,1,1.21.431,1.451,1.451,0,0,1,.451,1.1,1.455,1.455,0,0,1-.456,1.107,1.684,1.684,0,0,1-1.2.431,1.684,1.684,0,0,1-1.2-.431A1.455,1.455,0,0,1,70.67-13.966ZM79.386,0H76.412V-15.75h2.974Zm5.568,0H81.98V-11.095h2.974ZM81.806-13.966a1.459,1.459,0,0,1,.446-1.1,1.676,1.676,0,0,1,1.215-.431,1.679,1.679,0,0,1,1.21.431,1.451,1.451,0,0,1,.451,1.1,1.455,1.455,0,0,1-.456,1.107,1.684,1.684,0,0,1-1.2.431,1.684,1.684,0,0,1-1.2-.431A1.455,1.455,0,0,1,81.806-13.966Zm9.136.144v2.728h1.9v2.174h-1.9v5.537a1.322,1.322,0,0,0,.236.882,1.184,1.184,0,0,0,.9.267,4.726,4.726,0,0,0,.872-.072V-.062a6.1,6.1,0,0,1-1.794.267q-3.117,0-3.179-3.148V-8.921h-1.62v-2.174h1.62v-2.728Zm7.69,9.628,2.051-6.9h3.179L99.4,1.723l-.246.584a3.382,3.382,0,0,1-3.281,2.174,4.663,4.663,0,0,1-1.312-.195V2.041l.451.01a2.438,2.438,0,0,0,1.256-.256A1.684,1.684,0,0,0,96.92.943l.349-.913L93.382-11.095h3.189Z" transform="translate(25.297 20)" fill="#0991a1"/>
        <path id="Trazado_102923" data-name="Trazado 102923" d="M1.271-6.07A15.736,15.736,0,0,1,1.9-10.541,11.8,11.8,0,0,1,3.743-14.3,6.892,6.892,0,0,1,6.388-16.57l.574,1.6a7.137,7.137,0,0,0-2.338,3.425,15.858,15.858,0,0,0-.841,5.414v.318A16.161,16.161,0,0,0,4.614-.379,7.276,7.276,0,0,0,6.962,3.1L6.388,4.666a6.9,6.9,0,0,1-2.6-2.21A11.6,11.6,0,0,1,1.948-1.2a15.643,15.643,0,0,1-.677-4.327ZM8.706,0V-14.93H13.3a6.976,6.976,0,0,1,3.522.887,6.185,6.185,0,0,1,2.425,2.522A7.78,7.78,0,0,1,20.118-7.8v.687a7.8,7.8,0,0,1-.856,3.7A6.132,6.132,0,0,1,16.847-.9,7.029,7.029,0,0,1,13.33,0Zm3.076-12.438v9.967h1.487A3.341,3.341,0,0,0,16.027-3.65,5.329,5.329,0,0,0,17-7.024v-.79a5.413,5.413,0,0,0-.943-3.45A3.329,3.329,0,0,0,13.3-12.438ZM25.286,0H22.313V-11.095h2.974ZM22.138-13.966a1.459,1.459,0,0,1,.446-1.1,1.676,1.676,0,0,1,1.215-.431,1.679,1.679,0,0,1,1.21.431,1.451,1.451,0,0,1,.451,1.1A1.455,1.455,0,0,1,25-12.858a1.684,1.684,0,0,1-1.2.431,1.684,1.684,0,0,1-1.2-.431A1.455,1.455,0,0,1,22.138-13.966Zm11.6,10.9a.955.955,0,0,0-.538-.856,6.115,6.115,0,0,0-1.728-.559q-3.958-.831-3.958-3.363a3.049,3.049,0,0,1,1.225-2.466,4.943,4.943,0,0,1,3.2-.99,5.32,5.32,0,0,1,3.379.995,3.135,3.135,0,0,1,1.266,2.584H33.623a1.434,1.434,0,0,0-.41-1.051,1.736,1.736,0,0,0-1.282-.415,1.774,1.774,0,0,0-1.159.338,1.068,1.068,0,0,0-.41.861.913.913,0,0,0,.467.795A4.8,4.8,0,0,0,32.4-6.67a12.856,12.856,0,0,1,1.866.5,3.066,3.066,0,0,1,2.348,2.984,2.894,2.894,0,0,1-1.3,2.456,5.618,5.618,0,0,1-3.363.938,5.867,5.867,0,0,1-2.476-.5,4.155,4.155,0,0,1-1.7-1.364,3.169,3.169,0,0,1-.615-1.871h2.81a1.547,1.547,0,0,0,.584,1.21,2.318,2.318,0,0,0,1.456.42A2.146,2.146,0,0,0,33.3-2.22,1,1,0,0,0,33.735-3.066ZM48.511-5.445a6.654,6.654,0,0,1-1.164,4.107A3.731,3.731,0,0,1,44.2.205,3.456,3.456,0,0,1,41.487-.964V4.266H38.524v-15.36h2.748l.1,1.087a3.483,3.483,0,0,1,2.81-1.292,3.757,3.757,0,0,1,3.189,1.518A6.834,6.834,0,0,1,48.511-5.6Zm-2.963-.226A4.391,4.391,0,0,0,45-8.067,1.785,1.785,0,0,0,43.4-8.911a1.94,1.94,0,0,0-1.917,1.07v4.556a1.972,1.972,0,0,0,1.938,1.1Q45.548-2.184,45.548-5.671Zm4.337.021a6.58,6.58,0,0,1,.636-2.943,4.654,4.654,0,0,1,1.83-2,5.34,5.34,0,0,1,2.774-.708,5.052,5.052,0,0,1,3.666,1.374,5.514,5.514,0,0,1,1.584,3.732l.021.759a5.8,5.8,0,0,1-1.425,4.1A4.954,4.954,0,0,1,55.146.205a4.979,4.979,0,0,1-3.83-1.538,5.9,5.9,0,0,1-1.43-4.184Zm2.963.21a4.147,4.147,0,0,0,.595,2.418,1.962,1.962,0,0,0,1.7.837,1.966,1.966,0,0,0,1.682-.827,4.538,4.538,0,0,0,.6-2.644,4.106,4.106,0,0,0-.6-2.4,1.967,1.967,0,0,0-1.7-.852,1.934,1.934,0,0,0-1.682.847A4.614,4.614,0,0,0,52.849-5.44Zm12.1-5.655.092,1.282A3.874,3.874,0,0,1,68.229-11.3a3.219,3.219,0,0,1,2.625,1.036,4.832,4.832,0,0,1,.882,3.1V0H68.773V-7.112a1.93,1.93,0,0,0-.41-1.372A1.833,1.833,0,0,0,67-8.911a2.038,2.038,0,0,0-1.876,1.069V0H62.159V-11.095ZM77.109,0H74.136V-11.095h2.974ZM73.961-13.966a1.459,1.459,0,0,1,.446-1.1,1.676,1.676,0,0,1,1.215-.431,1.679,1.679,0,0,1,1.21.431,1.451,1.451,0,0,1,.451,1.1,1.455,1.455,0,0,1-.456,1.107,1.684,1.684,0,0,1-1.2.431,1.684,1.684,0,0,1-1.2-.431A1.455,1.455,0,0,1,73.961-13.966ZM89.547-5.445a6.718,6.718,0,0,1-1.138,4.158A3.77,3.77,0,0,1,85.23.205a3.464,3.464,0,0,1-2.881-1.384L82.216,0H79.55V-15.75h2.963v5.65a3.375,3.375,0,0,1,2.7-1.2,3.8,3.8,0,0,1,3.184,1.492,6.728,6.728,0,0,1,1.154,4.2Zm-2.963-.226a4.438,4.438,0,0,0-.533-2.463,1.8,1.8,0,0,0-1.589-.777,1.954,1.954,0,0,0-1.948,1.162v4.392a1.981,1.981,0,0,0,1.969,1.172A1.83,1.83,0,0,0,86.369-3.6,7.343,7.343,0,0,0,86.584-5.671ZM94.5,0H91.526V-11.095H94.5ZM91.352-13.966a1.459,1.459,0,0,1,.446-1.1,1.676,1.676,0,0,1,1.215-.431,1.679,1.679,0,0,1,1.21.431,1.451,1.451,0,0,1,.451,1.1,1.455,1.455,0,0,1-.456,1.107,1.684,1.684,0,0,1-1.2.431,1.684,1.684,0,0,1-1.2-.431A1.455,1.455,0,0,1,91.352-13.966ZM100.068,0H97.094V-15.75h2.974Zm5.568,0h-2.974V-11.095h2.974Zm-3.148-13.966a1.459,1.459,0,0,1,.446-1.1,1.676,1.676,0,0,1,1.215-.431,1.679,1.679,0,0,1,1.21.431,1.451,1.451,0,0,1,.451,1.1,1.455,1.455,0,0,1-.456,1.107,1.684,1.684,0,0,1-1.2.431,1.684,1.684,0,0,1-1.2-.431A1.455,1.455,0,0,1,102.488-13.966Zm5.127,8.336a6.686,6.686,0,0,1,1.164-4.132,3.776,3.776,0,0,1,3.184-1.538,3.4,3.4,0,0,1,2.676,1.21v-5.66h2.974V0h-2.676l-.144-1.179A3.487,3.487,0,0,1,111.942.205,3.766,3.766,0,0,1,108.8-1.338,6.9,6.9,0,0,1,107.615-5.629Zm2.963.211a4.4,4.4,0,0,0,.543,2.4,1.769,1.769,0,0,0,1.579.834,1.982,1.982,0,0,0,1.938-1.164v-4.4a1.954,1.954,0,0,0-1.917-1.164Q110.578-8.911,110.578-5.419ZM126.338,0a3.291,3.291,0,0,1-.3-.995,3.586,3.586,0,0,1-2.8,1.2,3.939,3.939,0,0,1-2.7-.943,3.034,3.034,0,0,1-1.072-2.379,3.135,3.135,0,0,1,1.307-2.707,6.451,6.451,0,0,1,3.779-.954h1.364v-.636a1.828,1.828,0,0,0-.395-1.23,1.553,1.553,0,0,0-1.246-.461,1.766,1.766,0,0,0-1.174.359,1.219,1.219,0,0,0-.426.984h-2.963a2.977,2.977,0,0,1,.595-1.784,3.931,3.931,0,0,1,1.682-1.287,6.129,6.129,0,0,1,2.44-.467,4.842,4.842,0,0,1,3.256,1.031,3.605,3.605,0,0,1,1.2,2.9v4.809a5.3,5.3,0,0,0,.441,2.389V0Zm-2.451-2.061a2.552,2.552,0,0,0,1.21-.292,1.919,1.919,0,0,0,.82-.784V-5.045h-1.107q-2.225,0-2.369,1.538l-.01.174a1.186,1.186,0,0,0,.39.913A1.514,1.514,0,0,0,123.888-2.061Zm6.819-3.568a6.686,6.686,0,0,1,1.164-4.132,3.776,3.776,0,0,1,3.184-1.538,3.4,3.4,0,0,1,2.676,1.21v-5.66H140.7V0h-2.676l-.144-1.179A3.487,3.487,0,0,1,135.034.205a3.766,3.766,0,0,1-3.143-1.543A6.9,6.9,0,0,1,130.707-5.629Zm2.963.211a4.4,4.4,0,0,0,.543,2.4,1.769,1.769,0,0,0,1.579.834,1.982,1.982,0,0,0,1.938-1.164v-4.4a1.954,1.954,0,0,0-1.917-1.164Q133.67-8.911,133.67-5.419Zm14.438-.416a14.932,14.932,0,0,1-.667,4.46,12.108,12.108,0,0,1-1.917,3.784,6.908,6.908,0,0,1-2.676,2.256L142.273,3.1a7.21,7.21,0,0,0,2.3-3.384,15.669,15.669,0,0,0,.872-5.26v-.543a16.024,16.024,0,0,0-.836-5.4A7.516,7.516,0,0,0,142.273-15l.574-1.569a6.911,6.911,0,0,1,2.63,2.194,11.952,11.952,0,0,1,1.917,3.7,14.826,14.826,0,0,1,.713,4.378Z" transform="translate(0 41.952)" fill="#0991a1"/>
      </g>
    </g>
    <g id="Grupo_53545" data-name="Grupo 53545" transform="translate(585.84 253.338)" style="isolation: isolate">
      <path id="Trazado_99741" data-name="Trazado 99741" d="M505.23,298.863V280a16.333,16.333,0,0,1-1.983.237,14.929,14.929,0,0,1-1.923-.24v18.865H481.612v-.824q0-17.433.013-34.865a1.045,1.045,0,0,0-.68-1.1,23.954,23.954,0,0,1-13.439-18.064,11.471,11.471,0,0,1,.023-5.681,5.907,5.907,0,0,1,6.5-3.929,5.831,5.831,0,0,1,4.9,5.266,14.3,14.3,0,0,0,1.708,6.7,12.357,12.357,0,0,0,11.189,6.33q15.4.042,30.791,0a9.762,9.762,0,0,1,8.883,4.97,9.4,9.4,0,0,1,1.307,4.945q.02,5.741,0,11.481a5.882,5.882,0,0,1-4.529,5.967,6.036,6.036,0,0,1-1.657.155,15.03,15.03,0,0,1-1.665-.217v18.86Zm-19.677-3.887c1.112,0,2.094-.048,3.068.016.713.047.9-.173.894-.887-.031-6.254-.022-12.507-.023-18.762v-.953h3.962v20.521H497.4v-34.3h3.916v.8q0,6.267,0,12.532a3.609,3.609,0,0,0,.089.967,1.957,1.957,0,0,0,3.829-.642q.015-5.67.006-11.342a5.937,5.937,0,0,0-6.267-6.286c-2.425-.007-4.853.047-7.277-.01-6.952-.165-12.027-3.347-15.13-9.592a16.934,16.934,0,0,1-1.537-6.84A1.877,1.877,0,0,0,473,238.277a1.908,1.908,0,0,0-1.854,2.113,27.061,27.061,0,0,0,.628,4.7A20.147,20.147,0,0,0,484.8,259.44a.977.977,0,0,1,.765,1.089q-.033,16.8-.015,33.6Zm27.559,0V274.394h3.935v.719q0,4.375,0,8.75,0,5.216.006,10.432c0,.268-.148.67.356.673,1.162.009,2.323,0,3.574,0V260.618h3.959v.875c0,4.224-.006,8.449.006,12.672a1.928,1.928,0,0,0,1.91,2.132,1.962,1.962,0,0,0,2.011-2.121c.015-3.8.043-7.609,0-11.412a5.913,5.913,0,0,0-6.284-6.123q-7.242.007-14.486,0h-.814a3.116,3.116,0,0,0,.158.328,10.746,10.746,0,0,1,1.747,6.362q-.029,15.367,0,30.735v.846c.23.025.388.056.547.056C510.819,294.974,511.911,294.973,513.112,294.973Z" transform="translate(-467.154 -231.704)" fill="#3366c2"/>
      <path id="Trazado_99742" data-name="Trazado 99742" d="M511.123,241.084a8.523,8.523,0,1,1-8.523-8.542A8.543,8.543,0,0,1,511.123,241.084Zm-8.5,4.553a4.58,4.58,0,1,0-4.59-4.565A4.6,4.6,0,0,0,502.624,245.637Z" transform="translate(-454.676 -232.542)" fill="#3366c2"/>
      <path id="Trazado_99743" data-name="Trazado 99743" d="M494.991,241.065a8.52,8.52,0,1,1-8.487-8.523A8.577,8.577,0,0,1,494.991,241.065Zm-3.956.009a4.571,4.571,0,1,0-4.587,4.565A4.576,4.576,0,0,0,491.035,241.074Z" transform="translate(-462.15 -232.542)" fill="#3366c2"/>
    </g>
    <g id="Grupo_53546" data-name="Grupo 53546" transform="translate(864.253 253.351)" style="isolation: isolate">
      <path id="Trazado_99744" data-name="Trazado 99744" d="M704.065,274.251v18.8H684.442V246.964a2.914,2.914,0,0,1,.44-.063c5.76,0,11.522-.042,17.284.012a9.764,9.764,0,0,1,9.782,9.876c.053,3.848.037,7.7,0,11.546a5.741,5.741,0,0,1-4.516,5.877A15.456,15.456,0,0,1,704.065,274.251Zm-15.689-23.4v38.23h3.9V268.573h3.944V289.1h3.918V254.811h3.946v.884q0,6.087,0,12.175a7.832,7.832,0,0,0,.034.907,1.9,1.9,0,0,0,1.829,1.7,1.969,1.969,0,0,0,2.068-2.2q.02-5.633,0-11.266a6.723,6.723,0,0,0-.2-1.658,5.818,5.818,0,0,0-5.888-4.519c-4.338-.017-8.677,0-13.015,0C688.748,250.831,688.587,250.845,688.376,250.856Z" transform="translate(-644.854 -225.907)" fill="#09909f"/>
      <path id="Trazado_99745" data-name="Trazado 99745" d="M657.392,268.112V232.59h35.443v44.745l-.2.155a2.927,2.927,0,0,0-.316-.53c-2.548-2.759-5.111-5.5-7.645-8.273a1.6,1.6,0,0,0-1.313-.588q-12.559.031-25.118.013Zm3.938-3.928h.9q10.322,0,20.643,0a7.862,7.862,0,0,1,2.9.1c.827.357,1.385,1.338,2.056,2.049.32.341.631.692,1.048,1.152V236.5H661.33Z" transform="translate(-657.392 -232.533)" fill="#09909f"/>
      <path id="Trazado_99746" data-name="Trazado 99746" d="M693.825,232.551a8.526,8.526,0,1,1-8.525,8.491A8.512,8.512,0,0,1,693.825,232.551Zm-.073,13.085a4.574,4.574,0,1,0-4.494-4.657A4.6,4.6,0,0,0,693.752,245.636Z" transform="translate(-644.457 -232.551)" fill="#09909f"/>
      <path id="Trazado_99747" data-name="Trazado 99747" d="M668.973,257.442a2.192,2.192,0,0,1-1.683-.786l-4.01-4.786a2.2,2.2,0,0,1,3.365-2.82l2.279,2.721L679.7,238.164a2.195,2.195,0,1,1,3.441,2.725L670.693,256.61a2.19,2.19,0,0,1-1.69.833Z" transform="translate(-654.9 -230.335)" fill="#09909f"/>
    </g>
    <g id="Grupo_53549" data-name="Grupo 53549" transform="translate(290.584 253.353)">
      <path id="Trazado_99748" data-name="Trazado 99748" d="M297.285,293.055V246.971a3.078,3.078,0,0,1,.461-.069c5.762,0,11.524-.042,17.284.01a9.766,9.766,0,0,1,9.786,9.873c.054,3.848.037,7.7,0,11.546a5.853,5.853,0,0,1-4.509,5.907,6.028,6.028,0,0,1-1.655.164,14.417,14.417,0,0,1-1.695-.221v18.875Zm7.844-3.944V268.577h3.941v20.53h3.919V254.8h3.959v.871q0,6.087,0,12.176a8.157,8.157,0,0,0,.032.907,1.907,1.907,0,0,0,1.949,1.724,1.991,1.991,0,0,0,1.951-2.252q.015-5.563,0-11.126a7.055,7.055,0,0,0-.2-1.728,5.826,5.826,0,0,0-5.942-4.541c-4.316-.013-8.63,0-12.946,0-.18,0-.359.019-.561.029v38.25Z" transform="translate(-249.289 -225.908)" fill="#7da8ff"/>
      <path id="Trazado_99749" data-name="Trazado 99749" d="M306.715,232.552a8.526,8.526,0,1,1-8.554,8.531A8.513,8.513,0,0,1,306.715,232.552Zm-.057,3.937a4.577,4.577,0,1,0,4.625,4.54A4.6,4.6,0,0,0,306.658,236.489Z" transform="translate(-248.883 -232.552)" fill="#7da8ff"/>
      <g id="Grupo_53547" data-name="Grupo 53547" transform="translate(5.381 47.355)">
        <path id="Trazado_99750" data-name="Trazado 99750" d="M301.748,266.409H269.666" transform="translate(-267.471 -264.214)" fill="#7da8ff"/>
        <path id="Trazado_99751" data-name="Trazado 99751" d="M302.443,269.3H270.361a2.2,2.2,0,1,1,0-4.391h32.081a2.2,2.2,0,0,1,0,4.391Z" transform="translate(-268.166 -264.909)" fill="#7da8ff"/>
      </g>
      <g id="Grupo_53548" data-name="Grupo 53548" transform="translate(21.422 6.331)">
        <line id="Línea_139" data-name="Línea 139" y2="41.025" transform="translate(2.195 2.194)" fill="#7da8ff"/>
        <path id="Trazado_99752" data-name="Trazado 99752" d="M281.322,282.292a2.194,2.194,0,0,1-2.2-2.2V239.073a2.2,2.2,0,0,1,4.391,0V280.1A2.194,2.194,0,0,1,281.322,282.292Z" transform="translate(-279.127 -236.878)" fill="#7da8ff"/>
      </g>
      <path id="Trazado_99753" data-name="Trazado 99753" d="M306.852,266.832H292.273a2.144,2.144,0,0,1-2.011-2.885l6.113-16.543H271.613a2.143,2.143,0,0,1,0-4.285h27.577a2.141,2.141,0,0,1,1.993,1.357l7.663,19.428a2.143,2.143,0,0,1-1.993,2.928Zm-11.5-4.285H303.7L299.39,251.61Z" transform="translate(-262.181 -227.654)" fill="#7da8ff"/>
      <path id="Trazado_99754" data-name="Trazado 99754" d="M281.988,266.9h-15.3a2.195,2.195,0,0,1-2.046-2.988l7.053-18.186a1.5,1.5,0,0,1,.076-.173,2.2,2.2,0,0,1,4.206-1.117l8.043,19.428a2.2,2.2,0,0,1-2.028,3.035Zm-12.1-4.391H278.7l-4.55-10.991Z" transform="translate(-264.489 -227.671)" fill="#7da8ff"/>
    </g>
  </g>
</svg>
