<svg xmlns="http://www.w3.org/2000/svg" width="500" height="322" viewBox="0 0 500 322">
  <g id="Grupo_54918" data-name="Grupo 54918" transform="translate(-914 -463)">
    <g id="Rectángulo_5047" data-name="Rectángulo 5047" transform="translate(914 463)">
      <rect id="Rectángulo_5046" data-name="Rectángulo 5046" width="500" height="322" transform="translate(0 0)" fill="none"/>
      <rect id="Rectángulo_5047-2" data-name="Rectángulo 5047" width="498.874" height="320.946" transform="translate(0.563 0.563)" fill="none"/>
    </g>
    <path id="Trazado_99181" data-name="Trazado 99181" d="M473.265,56.929H85.474c-5.617,0-10.171,4.87-10.171,10.877v54.646c0,6.006,4.553,10.876,10.171,10.876H143l18.151,18.545-3.582-18.545h315.7c5.616,0,10.169-4.87,10.169-10.876V67.806C483.435,61.8,478.881,56.929,473.265,56.929Z" transform="translate(852.737 410.195)" fill="#64b0b9" opacity="0.18"/>
    <path id="Trazado_99182" data-name="Trazado 99182" d="M56.371,289.408H237.249a8.888,8.888,0,0,0,9.1-8.664V263.111a8.889,8.889,0,0,0-9.1-8.666H219.562l6.226-13.646-22.8,13.646H56.371a8.889,8.889,0,0,0-9.1,8.666v17.633A8.888,8.888,0,0,0,56.371,289.408Z" transform="translate(871.333 452.693)" fill="#3366c2" opacity="0.15"/>
    <path id="Trazado_102941" data-name="Trazado 102941" d="M34.976,7.88a5.731,5.731,0,0,1-2.282-1.108,2.116,2.116,0,0,1-.714-1.622,2.236,2.236,0,0,1,.873-1.806,3.469,3.469,0,0,1,2.269-.714A3.786,3.786,0,0,1,36.82,3a2.792,2.792,0,0,1,1.155,1.016,2.6,2.6,0,0,1,.409,1.416H37.16a1.69,1.69,0,0,0-.533-1.322,2.168,2.168,0,0,0-1.5-.481,2.22,2.22,0,0,0-1.406.4,1.326,1.326,0,0,0-.5,1.1,1.193,1.193,0,0,0,.479.957,4.7,4.7,0,0,0,1.631.715,7.569,7.569,0,0,1,1.8.715,2.736,2.736,0,0,1,.965.911A2.325,2.325,0,0,1,38.4,9.651a2.159,2.159,0,0,1-.876,1.8,3.735,3.735,0,0,1-2.342.676,4.344,4.344,0,0,1-1.777-.365,2.991,2.991,0,0,1-1.273-1,2.44,2.44,0,0,1-.448-1.441h1.225a1.592,1.592,0,0,0,.619,1.323,2.606,2.606,0,0,0,1.654.486,2.4,2.4,0,0,0,1.479-.394,1.278,1.278,0,0,0,.514-1.073A1.255,1.255,0,0,0,36.7,8.614,5.489,5.489,0,0,0,34.976,7.88Zm7.655,4.247a3,3,0,0,1-2.272-.917,3.4,3.4,0,0,1-.876-2.453V8.541a4.121,4.121,0,0,1,.39-1.825,3.045,3.045,0,0,1,1.092-1.257A2.745,2.745,0,0,1,42.485,5a2.572,2.572,0,0,1,2.082.882,3.82,3.82,0,0,1,.743,2.526V8.9H40.657a2.441,2.441,0,0,0,.594,1.641,1.866,1.866,0,0,0,1.444.625,2.045,2.045,0,0,0,1.054-.254,2.648,2.648,0,0,0,.755-.673l.717.559A2.884,2.884,0,0,1,42.631,12.127ZM42.485,5.97a1.566,1.566,0,0,0-1.193.517,2.515,2.515,0,0,0-.6,1.45h3.44V7.849a2.237,2.237,0,0,0-.482-1.387A1.475,1.475,0,0,0,42.485,5.97Zm10.156,5.2a1.692,1.692,0,0,0,1.1-.381,1.34,1.34,0,0,0,.521-.952h1.111a2.13,2.13,0,0,1-.406,1.124,2.676,2.676,0,0,1-1,.851,2.885,2.885,0,0,1-1.323.317,2.829,2.829,0,0,1-2.231-.936,3.729,3.729,0,0,1-.828-2.561v-.2a4.135,4.135,0,0,1,.368-1.784,2.8,2.8,0,0,1,1.057-1.212A3,3,0,0,1,52.635,5a2.755,2.755,0,0,1,1.92.692,2.473,2.473,0,0,1,.816,1.8H54.26a1.618,1.618,0,0,0-.5-1.095,1.57,1.57,0,0,0-1.12-.428,1.644,1.644,0,0,0-1.387.644,3.026,3.026,0,0,0-.492,1.863V8.7a2.965,2.965,0,0,0,.489,1.828A1.651,1.651,0,0,0,52.641,11.168Zm6.9.958a3,3,0,0,1-2.272-.917,3.4,3.4,0,0,1-.876-2.453V8.541a4.121,4.121,0,0,1,.39-1.825,3.045,3.045,0,0,1,1.092-1.257A2.745,2.745,0,0,1,59.4,5a2.572,2.572,0,0,1,2.082.882,3.82,3.82,0,0,1,.743,2.526V8.9H57.567a2.441,2.441,0,0,0,.594,1.641,1.866,1.866,0,0,0,1.444.625,2.045,2.045,0,0,0,1.054-.254,2.648,2.648,0,0,0,.755-.673l.717.559A2.884,2.884,0,0,1,59.541,12.127ZM59.4,5.97a1.566,1.566,0,0,0-1.193.517,2.515,2.515,0,0,0-.6,1.45h3.44V7.849a2.237,2.237,0,0,0-.482-1.387A1.475,1.475,0,0,0,59.4,5.97Zm5.294-.838L64.727,6A2.5,2.5,0,0,1,66.784,5q2.177,0,2.2,2.457V12H67.806V7.455a1.581,1.581,0,0,0-.34-1.1A1.361,1.361,0,0,0,66.429,6a1.7,1.7,0,0,0-1,.3,2.069,2.069,0,0,0-.673.8V12H63.579V5.132Zm7.655-1.663V5.132h1.282V6.04H72.345V10.3a.953.953,0,0,0,.171.62.721.721,0,0,0,.584.207,2.843,2.843,0,0,0,.559-.076V12a3.424,3.424,0,0,1-.9.126,1.462,1.462,0,0,1-1.187-.476,2.045,2.045,0,0,1-.4-1.352V6.04H69.92V5.132h1.25V3.469Zm5.973,2.717a3.519,3.519,0,0,0-.578-.044,1.547,1.547,0,0,0-1.568.984V12H75V5.132h1.143l.019.793A1.829,1.829,0,0,1,77.8,5a1.2,1.2,0,0,1,.521.089ZM83.383,12a2.467,2.467,0,0,1-.165-.724,2.62,2.62,0,0,1-1.955.851,2.424,2.424,0,0,1-1.666-.574,1.859,1.859,0,0,1-.651-1.457,1.942,1.942,0,0,1,.816-1.666,3.846,3.846,0,0,1,2.295-.594H83.2V7.3a1.319,1.319,0,0,0-.368-.981,1.48,1.48,0,0,0-1.085-.365,1.712,1.712,0,0,0-1.054.317.935.935,0,0,0-.425.768H79.086a1.621,1.621,0,0,1,.365-.993,2.491,2.491,0,0,1,.99-.759A3.331,3.331,0,0,1,81.815,5a2.715,2.715,0,0,1,1.86.594,2.141,2.141,0,0,1,.7,1.635v3.161a3.865,3.865,0,0,0,.241,1.5V12Zm-1.949-.9a2.064,2.064,0,0,0,1.047-.286,1.728,1.728,0,0,0,.717-.743V8.667h-.92q-2.158,0-2.158,1.263a1.069,1.069,0,0,0,.368.863A1.415,1.415,0,0,0,81.434,11.1Zm10.848,1.022a3,3,0,0,1-2.272-.917,3.4,3.4,0,0,1-.876-2.453V8.541a4.121,4.121,0,0,1,.39-1.825,3.045,3.045,0,0,1,1.092-1.257A2.745,2.745,0,0,1,92.137,5a2.572,2.572,0,0,1,2.082.882,3.82,3.82,0,0,1,.743,2.526V8.9H90.308a2.441,2.441,0,0,0,.594,1.641,1.866,1.866,0,0,0,1.444.625,2.045,2.045,0,0,0,1.054-.254,2.648,2.648,0,0,0,.755-.673l.717.559A2.884,2.884,0,0,1,92.283,12.127ZM92.137,5.97a1.566,1.566,0,0,0-1.193.517,2.515,2.515,0,0,0-.6,1.45h3.44V7.849A2.237,2.237,0,0,0,93.3,6.462,1.475,1.475,0,0,0,92.137,5.97Zm5.294-.838L97.469,6A2.5,2.5,0,0,1,99.525,5q2.177,0,2.2,2.457V12h-1.174V7.455a1.581,1.581,0,0,0-.34-1.1A1.361,1.361,0,0,0,99.17,6a1.7,1.7,0,0,0-1,.3,2.069,2.069,0,0,0-.673.8V12H96.32V5.132ZM108.3,3.469V5.132h1.282V6.04H108.3V10.3a.953.953,0,0,0,.171.62.721.721,0,0,0,.584.207,2.843,2.843,0,0,0,.559-.076V12a3.424,3.424,0,0,1-.9.126,1.462,1.462,0,0,1-1.187-.476,2.045,2.045,0,0,1-.4-1.352V6.04h-1.25V5.132h1.25V3.469ZM110.519,8.5a4.057,4.057,0,0,1,.4-1.815,2.96,2.96,0,0,1,1.1-1.244A3.007,3.007,0,0,1,113.636,5a2.9,2.9,0,0,1,2.269.971,3.736,3.736,0,0,1,.866,2.583v.083a4.092,4.092,0,0,1-.384,1.8,2.916,2.916,0,0,1-1.1,1.241,3.041,3.041,0,0,1-1.641.444,2.889,2.889,0,0,1-2.263-.971,3.718,3.718,0,0,1-.866-2.571Zm1.181.14a2.938,2.938,0,0,0,.53,1.834,1.8,1.8,0,0,0,2.841-.01A3.213,3.213,0,0,0,115.6,8.5a2.933,2.933,0,0,0-.536-1.831,1.705,1.705,0,0,0-1.425-.7,1.686,1.686,0,0,0-1.4.692A3.189,3.189,0,0,0,111.7,8.642Zm6.259-.133a4.023,4.023,0,0,1,.749-2.542,2.548,2.548,0,0,1,3.872-.136V2.25h1.174V12h-1.079l-.057-.736a2.391,2.391,0,0,1-1.961.863,2.346,2.346,0,0,1-1.946-.978,4.069,4.069,0,0,1-.752-2.552Zm1.174.133a3.046,3.046,0,0,0,.482,1.828,1.56,1.56,0,0,0,1.333.66,1.713,1.713,0,0,0,1.631-1V6.973A1.726,1.726,0,0,0,120.961,6a1.567,1.567,0,0,0-1.346.667A3.354,3.354,0,0,0,119.133,8.642Zm6.132-.14a4.057,4.057,0,0,1,.4-1.815,2.96,2.96,0,0,1,1.1-1.244A3.007,3.007,0,0,1,128.382,5a2.9,2.9,0,0,1,2.269.971,3.736,3.736,0,0,1,.866,2.583v.083a4.092,4.092,0,0,1-.384,1.8,2.916,2.916,0,0,1-1.1,1.241,3.041,3.041,0,0,1-1.641.444,2.889,2.889,0,0,1-2.263-.971,3.718,3.718,0,0,1-.866-2.571Zm1.181.14a2.938,2.938,0,0,0,.53,1.834,1.8,1.8,0,0,0,2.841-.01,3.213,3.213,0,0,0,.527-1.965,2.933,2.933,0,0,0-.536-1.831,1.705,1.705,0,0,0-1.425-.7,1.686,1.686,0,0,0-1.4.692A3.189,3.189,0,0,0,126.446,8.642Zm10.543,1.536a.865.865,0,0,0-.359-.74,3.452,3.452,0,0,0-1.25-.454,5.912,5.912,0,0,1-1.416-.457,2.014,2.014,0,0,1-.774-.635,1.518,1.518,0,0,1-.251-.876,1.782,1.782,0,0,1,.714-1.428A2.789,2.789,0,0,1,135.478,5a2.87,2.87,0,0,1,1.895.6A1.915,1.915,0,0,1,138.1,7.15h-1.181a1.06,1.06,0,0,0-.409-.832,1.534,1.534,0,0,0-1.031-.349,1.605,1.605,0,0,0-1,.279.879.879,0,0,0-.362.73.712.712,0,0,0,.336.641,4.139,4.139,0,0,0,1.216.413,6.334,6.334,0,0,1,1.425.47,2.079,2.079,0,0,1,.809.657,1.615,1.615,0,0,1,.263.936,1.758,1.758,0,0,1-.736,1.476,3.089,3.089,0,0,1-1.911.555,3.459,3.459,0,0,1-1.46-.292,2.375,2.375,0,0,1-.993-.816,1.966,1.966,0,0,1-.359-1.133h1.174a1.216,1.216,0,0,0,.473.936,1.835,1.835,0,0,0,1.165.346,1.894,1.894,0,0,0,1.07-.27A.829.829,0,0,0,136.989,10.178Zm7.2,1.822h-1.174V2.25h1.174Zm1.568-3.5a4.057,4.057,0,0,1,.4-1.815,2.959,2.959,0,0,1,1.1-1.244A3.007,3.007,0,0,1,148.872,5a2.9,2.9,0,0,1,2.269.971,3.736,3.736,0,0,1,.866,2.583v.083a4.092,4.092,0,0,1-.384,1.8,2.916,2.916,0,0,1-1.1,1.241,3.041,3.041,0,0,1-1.641.444,2.889,2.889,0,0,1-2.263-.971,3.718,3.718,0,0,1-.866-2.571Zm1.181.14a2.938,2.938,0,0,0,.53,1.834,1.8,1.8,0,0,0,2.841-.01,3.213,3.213,0,0,0,.527-1.965,2.933,2.933,0,0,0-.536-1.831,1.705,1.705,0,0,0-1.425-.7,1.686,1.686,0,0,0-1.4.692A3.189,3.189,0,0,0,146.936,8.642Zm10.543,1.536a.865.865,0,0,0-.359-.74,3.452,3.452,0,0,0-1.25-.454,5.912,5.912,0,0,1-1.416-.457,2.014,2.014,0,0,1-.774-.635,1.518,1.518,0,0,1-.251-.876,1.782,1.782,0,0,1,.714-1.428A2.789,2.789,0,0,1,155.969,5a2.87,2.87,0,0,1,1.895.6,1.915,1.915,0,0,1,.727,1.542H157.41A1.06,1.06,0,0,0,157,6.319a1.534,1.534,0,0,0-1.031-.349,1.605,1.605,0,0,0-1,.279.879.879,0,0,0-.362.73.712.712,0,0,0,.336.641,4.139,4.139,0,0,0,1.216.413,6.334,6.334,0,0,1,1.425.47,2.079,2.079,0,0,1,.809.657,1.615,1.615,0,0,1,.263.936,1.758,1.758,0,0,1-.736,1.476,3.089,3.089,0,0,1-1.911.555,3.459,3.459,0,0,1-1.46-.292,2.375,2.375,0,0,1-.993-.816,1.966,1.966,0,0,1-.359-1.133h1.174a1.216,1.216,0,0,0,.473.936,1.835,1.835,0,0,0,1.165.346,1.894,1.894,0,0,0,1.07-.27A.829.829,0,0,0,157.479,10.178Zm5.637-1.669a4.023,4.023,0,0,1,.749-2.542,2.548,2.548,0,0,1,3.872-.136V2.25h1.174V12h-1.079l-.057-.736a2.391,2.391,0,0,1-1.961.863,2.346,2.346,0,0,1-1.946-.978,4.069,4.069,0,0,1-.752-2.552Zm1.174.133a3.046,3.046,0,0,0,.482,1.828,1.56,1.56,0,0,0,1.333.66,1.713,1.713,0,0,0,1.631-1V6.973A1.726,1.726,0,0,0,166.119,6a1.567,1.567,0,0,0-1.346.667A3.354,3.354,0,0,0,164.29,8.642Zm9.293,3.485a3,3,0,0,1-2.272-.917,3.4,3.4,0,0,1-.876-2.453V8.541a4.121,4.121,0,0,1,.39-1.825,3.045,3.045,0,0,1,1.092-1.257A2.745,2.745,0,0,1,173.437,5a2.572,2.572,0,0,1,2.082.882,3.82,3.82,0,0,1,.743,2.526V8.9h-4.653a2.441,2.441,0,0,0,.594,1.641,1.866,1.866,0,0,0,1.444.625,2.045,2.045,0,0,0,1.054-.254,2.647,2.647,0,0,0,.755-.673l.717.559A2.884,2.884,0,0,1,173.583,12.127Zm-.146-6.157a1.566,1.566,0,0,0-1.193.517,2.515,2.515,0,0,0-.6,1.45h3.44V7.849a2.237,2.237,0,0,0-.482-1.387A1.475,1.475,0,0,0,173.437,5.97Zm5.776-2.5V5.132H180.5V6.04h-1.282V10.3a.953.953,0,0,0,.171.62.721.721,0,0,0,.584.207,2.843,2.843,0,0,0,.559-.076V12a3.424,3.424,0,0,1-.9.126,1.462,1.462,0,0,1-1.187-.476,2.045,2.045,0,0,1-.4-1.352V6.04h-1.25V5.132h1.25V3.469ZM186.107,12a2.467,2.467,0,0,1-.165-.724,2.62,2.62,0,0,1-1.955.851,2.424,2.424,0,0,1-1.666-.574,1.859,1.859,0,0,1-.651-1.457,1.942,1.942,0,0,1,.816-1.666,3.846,3.846,0,0,1,2.295-.594h1.143V7.3a1.319,1.319,0,0,0-.368-.981,1.48,1.48,0,0,0-1.085-.365,1.712,1.712,0,0,0-1.054.317.935.935,0,0,0-.425.768H181.81a1.621,1.621,0,0,1,.365-.993,2.491,2.491,0,0,1,.99-.759A3.331,3.331,0,0,1,184.539,5a2.715,2.715,0,0,1,1.86.594,2.141,2.141,0,0,1,.7,1.635v3.161a3.865,3.865,0,0,0,.241,1.5V12Zm-1.949-.9a2.064,2.064,0,0,0,1.047-.286,1.728,1.728,0,0,0,.717-.743V8.667H185q-2.158,0-2.158,1.263a1.069,1.069,0,0,0,.368.863A1.415,1.415,0,0,0,184.159,11.1Zm6.056.9H189.04V2.25h1.174Zm3.155,0h-1.174V2.25h1.174Zm4.729.127a3,3,0,0,1-2.272-.917,3.4,3.4,0,0,1-.876-2.453V8.541a4.121,4.121,0,0,1,.39-1.825,3.045,3.045,0,0,1,1.092-1.257A2.745,2.745,0,0,1,197.952,5a2.572,2.572,0,0,1,2.082.882,3.82,3.82,0,0,1,.743,2.526V8.9h-4.653a2.441,2.441,0,0,0,.594,1.641,1.866,1.866,0,0,0,1.444.625,2.045,2.045,0,0,0,1.054-.254,2.647,2.647,0,0,0,.755-.673l.717.559A2.884,2.884,0,0,1,198.1,12.127Zm-.146-6.157a1.566,1.566,0,0,0-1.193.517,2.515,2.515,0,0,0-.6,1.45h3.44V7.849a2.237,2.237,0,0,0-.482-1.387A1.475,1.475,0,0,0,197.952,5.97Zm8.182,4.208a.865.865,0,0,0-.359-.74,3.452,3.452,0,0,0-1.25-.454,5.912,5.912,0,0,1-1.416-.457,2.014,2.014,0,0,1-.774-.635,1.518,1.518,0,0,1-.251-.876,1.782,1.782,0,0,1,.714-1.428A2.789,2.789,0,0,1,204.623,5a2.87,2.87,0,0,1,1.895.6,1.915,1.915,0,0,1,.727,1.542h-1.181a1.06,1.06,0,0,0-.409-.832,1.534,1.534,0,0,0-1.031-.349,1.605,1.605,0,0,0-1,.279.879.879,0,0,0-.362.73.712.712,0,0,0,.336.641,4.139,4.139,0,0,0,1.216.413,6.334,6.334,0,0,1,1.425.47,2.079,2.079,0,0,1,.809.657,1.615,1.615,0,0,1,.263.936,1.758,1.758,0,0,1-.736,1.476,3.089,3.089,0,0,1-1.911.555,3.459,3.459,0,0,1-1.46-.292,2.375,2.375,0,0,1-.993-.816,1.966,1.966,0,0,1-.359-1.133h1.174a1.216,1.216,0,0,0,.473.936,1.835,1.835,0,0,0,1.165.346,1.894,1.894,0,0,0,1.07-.27A.829.829,0,0,0,206.134,10.178Zm7.033-5.046.038.863A2.5,2.5,0,0,1,215.262,5q2.177,0,2.2,2.457V12h-1.174V7.455a1.581,1.581,0,0,0-.34-1.1A1.361,1.361,0,0,0,214.907,6a1.7,1.7,0,0,0-1,.3,2.069,2.069,0,0,0-.673.8V12h-1.174V5.132Zm8.912,7a3,3,0,0,1-2.272-.917,3.4,3.4,0,0,1-.876-2.453V8.541a4.121,4.121,0,0,1,.39-1.825,3.045,3.045,0,0,1,1.092-1.257A2.745,2.745,0,0,1,221.933,5a2.572,2.572,0,0,1,2.082.882,3.82,3.82,0,0,1,.743,2.526V8.9h-4.653a2.441,2.441,0,0,0,.594,1.641,1.866,1.866,0,0,0,1.444.625,2.045,2.045,0,0,0,1.054-.254,2.647,2.647,0,0,0,.755-.673l.717.559A2.884,2.884,0,0,1,222.079,12.127Zm-.146-6.157a1.566,1.566,0,0,0-1.193.517,2.515,2.515,0,0,0-.6,1.45h3.44V7.849a2.237,2.237,0,0,0-.482-1.387A1.475,1.475,0,0,0,221.933,5.97Zm6.938,5.2a1.692,1.692,0,0,0,1.1-.381,1.34,1.34,0,0,0,.521-.952H231.6a2.13,2.13,0,0,1-.406,1.124,2.676,2.676,0,0,1-1,.851,2.885,2.885,0,0,1-1.323.317,2.829,2.829,0,0,1-2.231-.936,3.729,3.729,0,0,1-.828-2.561v-.2a4.135,4.135,0,0,1,.368-1.784,2.8,2.8,0,0,1,1.057-1.212A3,3,0,0,1,228.865,5a2.755,2.755,0,0,1,1.92.692,2.473,2.473,0,0,1,.816,1.8H230.49a1.618,1.618,0,0,0-.5-1.095,1.57,1.57,0,0,0-1.12-.428,1.644,1.644,0,0,0-1.387.644,3.026,3.026,0,0,0-.492,1.863V8.7a2.965,2.965,0,0,0,.489,1.828A1.651,1.651,0,0,0,228.871,11.168Zm6.9.958a3,3,0,0,1-2.272-.917,3.4,3.4,0,0,1-.876-2.453V8.541a4.121,4.121,0,0,1,.39-1.825,3.045,3.045,0,0,1,1.092-1.257A2.745,2.745,0,0,1,235.625,5a2.572,2.572,0,0,1,2.082.882,3.82,3.82,0,0,1,.743,2.526V8.9H233.8a2.441,2.441,0,0,0,.594,1.641,1.866,1.866,0,0,0,1.444.625,2.045,2.045,0,0,0,1.054-.254,2.647,2.647,0,0,0,.755-.673l.717.559A2.884,2.884,0,0,1,235.771,12.127Zm-.146-6.157a1.566,1.566,0,0,0-1.193.517,2.515,2.515,0,0,0-.6,1.45h3.44V7.849a2.237,2.237,0,0,0-.482-1.387A1.475,1.475,0,0,0,235.625,5.97Zm8.182,4.208a.865.865,0,0,0-.359-.74,3.452,3.452,0,0,0-1.25-.454,5.912,5.912,0,0,1-1.416-.457,2.014,2.014,0,0,1-.774-.635,1.518,1.518,0,0,1-.251-.876,1.782,1.782,0,0,1,.714-1.428A2.789,2.789,0,0,1,242.3,5a2.87,2.87,0,0,1,1.895.6,1.915,1.915,0,0,1,.727,1.542h-1.181a1.06,1.06,0,0,0-.409-.832A1.534,1.534,0,0,0,242.3,5.97a1.605,1.605,0,0,0-1,.279.879.879,0,0,0-.362.73.712.712,0,0,0,.336.641,4.139,4.139,0,0,0,1.216.413,6.334,6.334,0,0,1,1.425.47,2.079,2.079,0,0,1,.809.657,1.615,1.615,0,0,1,.263.936,1.758,1.758,0,0,1-.736,1.476,3.089,3.089,0,0,1-1.911.555,3.459,3.459,0,0,1-1.46-.292,2.375,2.375,0,0,1-.993-.816,1.966,1.966,0,0,1-.359-1.133H240.7a1.216,1.216,0,0,0,.473.936,1.835,1.835,0,0,0,1.165.346,1.894,1.894,0,0,0,1.07-.27A.829.829,0,0,0,243.808,10.178ZM250.752,12a2.467,2.467,0,0,1-.165-.724,2.62,2.62,0,0,1-1.955.851,2.424,2.424,0,0,1-1.666-.574,1.859,1.859,0,0,1-.651-1.457,1.942,1.942,0,0,1,.816-1.666,3.846,3.846,0,0,1,2.295-.594h1.143V7.3a1.319,1.319,0,0,0-.368-.981,1.48,1.48,0,0,0-1.085-.365,1.712,1.712,0,0,0-1.054.317.935.935,0,0,0-.425.768h-1.181a1.621,1.621,0,0,1,.365-.993,2.491,2.491,0,0,1,.99-.759A3.331,3.331,0,0,1,249.184,5a2.715,2.715,0,0,1,1.86.594,2.141,2.141,0,0,1,.7,1.635v3.161a3.865,3.865,0,0,0,.241,1.5V12Zm-1.949-.9a2.064,2.064,0,0,0,1.047-.286,1.728,1.728,0,0,0,.717-.743V8.667h-.92q-2.158,0-2.158,1.263a1.069,1.069,0,0,0,.368.863A1.415,1.415,0,0,0,248.8,11.1Zm8.1-4.919a3.519,3.519,0,0,0-.578-.044,1.547,1.547,0,0,0-1.568.984V12h-1.174V5.132h1.143l.019.793A1.829,1.829,0,0,1,256.382,5a1.2,1.2,0,0,1,.521.089ZM259.258,12h-1.174V5.132h1.174Zm-1.27-8.69a.7.7,0,0,1,.175-.482.655.655,0,0,1,.517-.2.666.666,0,0,1,.521.2.694.694,0,0,1,.178.482.671.671,0,0,1-.178.476.678.678,0,0,1-.521.19.667.667,0,0,1-.517-.19A.678.678,0,0,1,257.988,3.31ZM260.826,8.5a4.057,4.057,0,0,1,.4-1.815,2.96,2.96,0,0,1,1.1-1.244A3.007,3.007,0,0,1,263.942,5a2.9,2.9,0,0,1,2.269.971,3.736,3.736,0,0,1,.866,2.583v.083a4.092,4.092,0,0,1-.384,1.8,2.916,2.916,0,0,1-1.1,1.241,3.041,3.041,0,0,1-1.641.444,2.889,2.889,0,0,1-2.263-.971,3.718,3.718,0,0,1-.866-2.571Zm1.181.14a2.938,2.938,0,0,0,.53,1.834,1.8,1.8,0,0,0,2.841-.01A3.213,3.213,0,0,0,265.9,8.5a2.933,2.933,0,0,0-.536-1.831,1.705,1.705,0,0,0-1.425-.7,1.686,1.686,0,0,0-1.4.692A3.189,3.189,0,0,0,262.006,8.642Zm10.543,1.536a.864.864,0,0,0-.359-.74,3.452,3.452,0,0,0-1.25-.454,5.912,5.912,0,0,1-1.416-.457,2.014,2.014,0,0,1-.774-.635,1.518,1.518,0,0,1-.251-.876,1.782,1.782,0,0,1,.714-1.428A2.789,2.789,0,0,1,271.039,5a2.87,2.87,0,0,1,1.895.6,1.915,1.915,0,0,1,.727,1.542H272.48a1.06,1.06,0,0,0-.409-.832,1.534,1.534,0,0,0-1.031-.349,1.606,1.606,0,0,0-1,.279.879.879,0,0,0-.362.73.712.712,0,0,0,.336.641,4.139,4.139,0,0,0,1.216.413,6.334,6.334,0,0,1,1.425.47,2.079,2.079,0,0,1,.809.657,1.615,1.615,0,0,1,.263.936,1.758,1.758,0,0,1-.736,1.476,3.089,3.089,0,0,1-1.911.555,3.459,3.459,0,0,1-1.46-.292,2.375,2.375,0,0,1-.993-.816,1.966,1.966,0,0,1-.359-1.133h1.174a1.216,1.216,0,0,0,.473.936,1.835,1.835,0,0,0,1.165.346,1.894,1.894,0,0,0,1.07-.27A.829.829,0,0,0,272.55,10.178Zm11.724-1.536a4.113,4.113,0,0,1-.717,2.526,2.3,2.3,0,0,1-1.942.958,2.519,2.519,0,0,1-1.968-.793v3.307h-1.174V5.132h1.073l.057.762A2.419,2.419,0,0,1,281.6,5a2.342,2.342,0,0,1,1.958.933,4.157,4.157,0,0,1,.72,2.6ZM283.1,8.509a3.035,3.035,0,0,0-.5-1.834A1.6,1.6,0,0,0,281.246,6a1.726,1.726,0,0,0-1.6.946v3.282a1.73,1.73,0,0,0,1.612.939,1.587,1.587,0,0,0,1.343-.67A3.313,3.313,0,0,0,283.1,8.509ZM290.006,12a2.467,2.467,0,0,1-.165-.724,2.62,2.62,0,0,1-1.955.851,2.424,2.424,0,0,1-1.666-.574,1.859,1.859,0,0,1-.651-1.457,1.942,1.942,0,0,1,.816-1.666,3.846,3.846,0,0,1,2.295-.594h1.143V7.3a1.319,1.319,0,0,0-.368-.981,1.48,1.48,0,0,0-1.085-.365,1.712,1.712,0,0,0-1.054.317.935.935,0,0,0-.425.768h-1.181a1.621,1.621,0,0,1,.365-.993,2.491,2.491,0,0,1,.99-.759A3.331,3.331,0,0,1,288.438,5a2.715,2.715,0,0,1,1.86.594,2.141,2.141,0,0,1,.7,1.635v3.161a3.865,3.865,0,0,0,.241,1.5V12Zm-1.949-.9a2.064,2.064,0,0,0,1.047-.286,1.728,1.728,0,0,0,.717-.743V8.667h-.92q-2.158,0-2.158,1.263a1.069,1.069,0,0,0,.368.863A1.415,1.415,0,0,0,288.057,11.1Zm8.1-4.919a3.519,3.519,0,0,0-.578-.044,1.547,1.547,0,0,0-1.568.984V12h-1.174V5.132h1.143l.019.793A1.829,1.829,0,0,1,295.636,5a1.2,1.2,0,0,1,.521.089ZM301.222,12a2.467,2.467,0,0,1-.165-.724,2.62,2.62,0,0,1-1.955.851,2.424,2.424,0,0,1-1.666-.574,1.859,1.859,0,0,1-.651-1.457,1.942,1.942,0,0,1,.816-1.666,3.846,3.846,0,0,1,2.295-.594h1.143V7.3a1.319,1.319,0,0,0-.368-.981,1.48,1.48,0,0,0-1.085-.365,1.712,1.712,0,0,0-1.054.317.935.935,0,0,0-.425.768h-1.181a1.621,1.621,0,0,1,.365-.993,2.491,2.491,0,0,1,.99-.759A3.331,3.331,0,0,1,299.654,5a2.715,2.715,0,0,1,1.86.594,2.141,2.141,0,0,1,.7,1.635v3.161a3.865,3.865,0,0,0,.241,1.5V12Zm-1.949-.9a2.064,2.064,0,0,0,1.047-.286,1.728,1.728,0,0,0,.717-.743V8.667h-.92q-2.158,0-2.158,1.263a1.069,1.069,0,0,0,.368.863A1.415,1.415,0,0,0,299.273,11.1ZM13.73,28H12.556V21.132H13.73Zm-1.27-8.69a.7.7,0,0,1,.175-.482.655.655,0,0,1,.517-.2.666.666,0,0,1,.521.2.694.694,0,0,1,.178.482.671.671,0,0,1-.178.476.678.678,0,0,1-.521.19.667.667,0,0,1-.517-.19A.678.678,0,0,1,12.461,19.31Zm4.253,1.822.032.762A2.536,2.536,0,0,1,18.783,21a1.964,1.964,0,0,1,1.961,1.1,2.6,2.6,0,0,1,.892-.8,2.634,2.634,0,0,1,1.3-.3q2.26,0,2.3,2.393V28H24.058V23.468a1.577,1.577,0,0,0-.336-1.1A1.482,1.482,0,0,0,22.592,22a1.557,1.557,0,0,0-1.085.39,1.584,1.584,0,0,0-.5,1.051V28H19.824V23.5A1.31,1.31,0,0,0,18.358,22a1.571,1.571,0,0,0-1.581.984V28H15.6V21.132Zm16.091,3.51a4.113,4.113,0,0,1-.717,2.526,2.3,2.3,0,0,1-1.942.958,2.519,2.519,0,0,1-1.968-.793v3.307H27V21.132h1.073l.057.762A2.419,2.419,0,0,1,30.126,21a2.342,2.342,0,0,1,1.958.933,4.157,4.157,0,0,1,.72,2.6Zm-1.174-.133a3.035,3.035,0,0,0-.5-1.834A1.6,1.6,0,0,0,29.777,22a1.726,1.726,0,0,0-1.6.946v3.282a1.73,1.73,0,0,0,1.612.939,1.587,1.587,0,0,0,1.343-.67A3.312,3.312,0,0,0,31.631,24.509ZM35.573,28H34.4V18.25h1.174Zm4.729.127a3,3,0,0,1-2.272-.917,3.4,3.4,0,0,1-.876-2.453v-.216a4.121,4.121,0,0,1,.39-1.825,3.045,3.045,0,0,1,1.092-1.257A2.745,2.745,0,0,1,40.156,21a2.572,2.572,0,0,1,2.082.882,3.82,3.82,0,0,1,.743,2.526V24.9H38.328a2.441,2.441,0,0,0,.594,1.641,1.866,1.866,0,0,0,1.444.625,2.045,2.045,0,0,0,1.054-.254,2.648,2.648,0,0,0,.755-.673l.717.559A2.884,2.884,0,0,1,40.3,28.127Zm-.146-6.157a1.566,1.566,0,0,0-1.193.517,2.515,2.515,0,0,0-.6,1.45h3.44v-.089a2.237,2.237,0,0,0-.482-1.387A1.475,1.475,0,0,0,40.156,21.97Zm5.288-.838.032.762A2.536,2.536,0,0,1,47.513,21a1.964,1.964,0,0,1,1.961,1.1,2.6,2.6,0,0,1,.892-.8,2.634,2.634,0,0,1,1.3-.3q2.26,0,2.3,2.393V28H52.787V23.468a1.577,1.577,0,0,0-.336-1.1A1.482,1.482,0,0,0,51.321,22a1.557,1.557,0,0,0-1.085.39,1.584,1.584,0,0,0-.5,1.051V28H48.554V23.5A1.31,1.31,0,0,0,47.087,22a1.571,1.571,0,0,0-1.581.984V28H44.332V21.132Zm13.14,7a3,3,0,0,1-2.272-.917,3.4,3.4,0,0,1-.876-2.453v-.216a4.121,4.121,0,0,1,.39-1.825,3.045,3.045,0,0,1,1.092-1.257A2.745,2.745,0,0,1,58.437,21a2.572,2.572,0,0,1,2.082.882,3.82,3.82,0,0,1,.743,2.526V24.9H56.609a2.441,2.441,0,0,0,.594,1.641,1.866,1.866,0,0,0,1.444.625,2.045,2.045,0,0,0,1.054-.254,2.648,2.648,0,0,0,.755-.673l.717.559A2.884,2.884,0,0,1,58.583,28.127Zm-.146-6.157a1.566,1.566,0,0,0-1.193.517,2.515,2.515,0,0,0-.6,1.45h3.44v-.089a2.237,2.237,0,0,0-.482-1.387A1.475,1.475,0,0,0,58.437,21.97Zm5.294-.838.038.863A2.5,2.5,0,0,1,65.826,21q2.177,0,2.2,2.457V28H66.848V23.455a1.581,1.581,0,0,0-.34-1.1A1.361,1.361,0,0,0,65.47,22a1.7,1.7,0,0,0-1,.3,2.069,2.069,0,0,0-.673.8V28H62.62V21.132Zm7.655-1.663v1.663h1.282v.908H71.386V26.3a.953.953,0,0,0,.171.62.721.721,0,0,0,.584.207,2.843,2.843,0,0,0,.559-.076V28a3.424,3.424,0,0,1-.9.126,1.462,1.462,0,0,1-1.187-.476,2.045,2.045,0,0,1-.4-1.352V22.04h-1.25v-.908h1.25V19.469ZM78.28,28a2.467,2.467,0,0,1-.165-.724,2.62,2.62,0,0,1-1.955.851,2.424,2.424,0,0,1-1.666-.574,1.859,1.859,0,0,1-.651-1.457,1.942,1.942,0,0,1,.816-1.666,3.846,3.846,0,0,1,2.295-.594H78.1V23.3a1.319,1.319,0,0,0-.368-.981,1.48,1.48,0,0,0-1.085-.365,1.712,1.712,0,0,0-1.054.317.935.935,0,0,0-.425.768H73.982a1.621,1.621,0,0,1,.365-.993,2.491,2.491,0,0,1,.99-.759A3.331,3.331,0,0,1,76.712,21a2.715,2.715,0,0,1,1.86.594,2.141,2.141,0,0,1,.7,1.635v3.161a3.865,3.865,0,0,0,.241,1.5V28Zm-1.949-.9a2.064,2.064,0,0,0,1.047-.286,1.728,1.728,0,0,0,.717-.743V24.667h-.92q-2.158,0-2.158,1.263a1.069,1.069,0,0,0,.368.863A1.415,1.415,0,0,0,76.331,27.1Zm8.1-4.919a3.519,3.519,0,0,0-.578-.044,1.547,1.547,0,0,0-1.568.984V28H81.111V21.132h1.143l.019.793A1.829,1.829,0,0,1,83.91,21a1.2,1.2,0,0,1,.521.089Zm7.147,5.941a3,3,0,0,1-2.272-.917,3.4,3.4,0,0,1-.876-2.453v-.216a4.121,4.121,0,0,1,.39-1.825,3.045,3.045,0,0,1,1.092-1.257A2.745,2.745,0,0,1,91.432,21a2.572,2.572,0,0,1,2.082.882,3.82,3.82,0,0,1,.743,2.526V24.9H89.6a2.441,2.441,0,0,0,.594,1.641,1.866,1.866,0,0,0,1.444.625,2.045,2.045,0,0,0,1.054-.254,2.648,2.648,0,0,0,.755-.673l.717.559A2.884,2.884,0,0,1,91.578,28.127Zm-.146-6.157a1.566,1.566,0,0,0-1.193.517,2.515,2.515,0,0,0-.6,1.45h3.44v-.089a2.237,2.237,0,0,0-.482-1.387A1.475,1.475,0,0,0,91.432,21.97ZM96.891,28H95.717V18.25h1.174Zm10.9-3.358a4.113,4.113,0,0,1-.717,2.526,2.3,2.3,0,0,1-1.942.958,2.519,2.519,0,0,1-1.968-.793v3.307h-1.174V21.132h1.073l.057.762A2.419,2.419,0,0,1,105.111,21a2.342,2.342,0,0,1,1.958.933,4.157,4.157,0,0,1,.72,2.6Zm-1.174-.133a3.035,3.035,0,0,0-.5-1.834A1.6,1.6,0,0,0,104.762,22a1.726,1.726,0,0,0-1.6.946v3.282a1.73,1.73,0,0,0,1.612.939,1.587,1.587,0,0,0,1.343-.67A3.313,3.313,0,0,0,106.616,24.509ZM110.558,28h-1.174V18.25h1.174Zm6.119,0a2.467,2.467,0,0,1-.165-.724,2.62,2.62,0,0,1-1.955.851,2.424,2.424,0,0,1-1.666-.574,1.859,1.859,0,0,1-.651-1.457,1.942,1.942,0,0,1,.816-1.666,3.846,3.846,0,0,1,2.295-.594h1.143V23.3a1.319,1.319,0,0,0-.368-.981,1.48,1.48,0,0,0-1.085-.365,1.712,1.712,0,0,0-1.054.317.935.935,0,0,0-.425.768h-1.181a1.621,1.621,0,0,1,.365-.993,2.491,2.491,0,0,1,.99-.759A3.331,3.331,0,0,1,115.109,21a2.715,2.715,0,0,1,1.86.594,2.141,2.141,0,0,1,.7,1.635v3.161a3.865,3.865,0,0,0,.241,1.5V28Zm-1.949-.9a2.064,2.064,0,0,0,1.047-.286,1.728,1.728,0,0,0,.717-.743V24.667h-.92q-2.158,0-2.158,1.263a1.069,1.069,0,0,0,.368.863A1.415,1.415,0,0,0,114.728,27.1Zm5.891-5.973.038.863a2.5,2.5,0,0,1,2.057-.99q2.177,0,2.2,2.457V28h-1.174V23.455a1.581,1.581,0,0,0-.34-1.1A1.361,1.361,0,0,0,122.358,22a1.7,1.7,0,0,0-1,.3,2.069,2.069,0,0,0-.673.8V28h-1.174V21.132Zm12.13,7a3,3,0,0,1-2.272-.917,3.4,3.4,0,0,1-.876-2.453v-.216a4.121,4.121,0,0,1,.39-1.825,3.045,3.045,0,0,1,1.092-1.257A2.745,2.745,0,0,1,132.6,21a2.572,2.572,0,0,1,2.082.882,3.82,3.82,0,0,1,.743,2.526V24.9h-4.653a2.441,2.441,0,0,0,.594,1.641,1.866,1.866,0,0,0,1.444.625,2.045,2.045,0,0,0,1.054-.254,2.647,2.647,0,0,0,.755-.673l.717.559A2.884,2.884,0,0,1,132.749,28.127ZM132.6,21.97a1.566,1.566,0,0,0-1.193.517,2.515,2.515,0,0,0-.6,1.45h3.44v-.089a2.237,2.237,0,0,0-.482-1.387A1.475,1.475,0,0,0,132.6,21.97Zm8.182,4.208a.865.865,0,0,0-.359-.74,3.452,3.452,0,0,0-1.25-.454,5.912,5.912,0,0,1-1.416-.457,2.014,2.014,0,0,1-.774-.635,1.518,1.518,0,0,1-.251-.876,1.782,1.782,0,0,1,.714-1.428A2.789,2.789,0,0,1,139.274,21a2.87,2.87,0,0,1,1.895.6,1.915,1.915,0,0,1,.727,1.542h-1.181a1.06,1.06,0,0,0-.409-.832,1.534,1.534,0,0,0-1.031-.349,1.605,1.605,0,0,0-1,.279.879.879,0,0,0-.362.73.712.712,0,0,0,.336.641,4.139,4.139,0,0,0,1.216.413,6.334,6.334,0,0,1,1.425.47,2.079,2.079,0,0,1,.809.657,1.615,1.615,0,0,1,.263.936,1.758,1.758,0,0,1-.736,1.476,3.089,3.089,0,0,1-1.911.555,3.459,3.459,0,0,1-1.46-.292,2.375,2.375,0,0,1-.993-.816,1.966,1.966,0,0,1-.359-1.133h1.174a1.216,1.216,0,0,0,.473.936,1.835,1.835,0,0,0,1.165.346,1.894,1.894,0,0,0,1.07-.27A.829.829,0,0,0,140.785,26.178Zm8.506-1.536a4.112,4.112,0,0,1-.717,2.526,2.3,2.3,0,0,1-1.942.958,2.519,2.519,0,0,1-1.968-.793v3.307h-1.174V21.132h1.073l.057.762A2.419,2.419,0,0,1,146.612,21a2.342,2.342,0,0,1,1.958.933,4.157,4.157,0,0,1,.72,2.6Zm-1.174-.133a3.035,3.035,0,0,0-.5-1.834A1.6,1.6,0,0,0,146.263,22a1.726,1.726,0,0,0-1.6.946v3.282a1.73,1.73,0,0,0,1.612.939,1.587,1.587,0,0,0,1.343-.67A3.312,3.312,0,0,0,148.117,24.509Zm5.516,3.618a3,3,0,0,1-2.272-.917,3.4,3.4,0,0,1-.876-2.453v-.216a4.121,4.121,0,0,1,.39-1.825,3.045,3.045,0,0,1,1.092-1.257,2.745,2.745,0,0,1,1.52-.454,2.572,2.572,0,0,1,2.082.882,3.82,3.82,0,0,1,.743,2.526V24.9h-4.653a2.441,2.441,0,0,0,.594,1.641,1.866,1.866,0,0,0,1.444.625,2.045,2.045,0,0,0,1.054-.254,2.647,2.647,0,0,0,.755-.673l.717.559A2.884,2.884,0,0,1,153.633,28.127Zm-.146-6.157a1.566,1.566,0,0,0-1.193.517,2.515,2.515,0,0,0-.6,1.45h3.44v-.089a2.237,2.237,0,0,0-.482-1.387A1.475,1.475,0,0,0,153.487,21.97Zm6.938,5.2a1.692,1.692,0,0,0,1.1-.381,1.34,1.34,0,0,0,.521-.952h1.111a2.13,2.13,0,0,1-.406,1.124,2.676,2.676,0,0,1-1,.851,2.885,2.885,0,0,1-1.323.317,2.829,2.829,0,0,1-2.231-.936,3.729,3.729,0,0,1-.828-2.561v-.2a4.135,4.135,0,0,1,.368-1.784,2.8,2.8,0,0,1,1.057-1.212A3,3,0,0,1,160.418,21a2.755,2.755,0,0,1,1.92.692,2.473,2.473,0,0,1,.816,1.8h-1.111a1.618,1.618,0,0,0-.5-1.095,1.57,1.57,0,0,0-1.12-.428,1.644,1.644,0,0,0-1.387.644,3.026,3.026,0,0,0-.492,1.863V24.7a2.965,2.965,0,0,0,.489,1.828A1.651,1.651,0,0,0,160.425,27.168ZM165.75,28h-1.174V21.132h1.174Zm-1.27-8.69a.7.7,0,0,1,.175-.482.655.655,0,0,1,.517-.2.666.666,0,0,1,.521.2.694.694,0,0,1,.178.482.671.671,0,0,1-.178.476.678.678,0,0,1-.521.19.667.667,0,0,1-.517-.19A.678.678,0,0,1,164.481,19.31ZM168.023,28V22.04h-1.085v-.908h1.085v-.584a2.386,2.386,0,0,1,.657-1.79,2.548,2.548,0,0,1,1.857-.641,5.591,5.591,0,0,1,1.8.387l-.2.99a4.069,4.069,0,0,0-1.511-.317,1.478,1.478,0,0,0-1.089.34,1.4,1.4,0,0,0-.333,1.019v.6h1.4v.908h-1.4V28Zm4.894,0h-1.181V21.132h1.181Zm4.666-.832a1.692,1.692,0,0,0,1.1-.381,1.34,1.34,0,0,0,.521-.952h1.111a2.13,2.13,0,0,1-.406,1.124,2.676,2.676,0,0,1-1,.851,2.885,2.885,0,0,1-1.323.317,2.829,2.829,0,0,1-2.231-.936,3.729,3.729,0,0,1-.828-2.561v-.2a4.135,4.135,0,0,1,.368-1.784,2.8,2.8,0,0,1,1.057-1.212A3,3,0,0,1,177.576,21a2.755,2.755,0,0,1,1.92.692,2.473,2.473,0,0,1,.816,1.8H179.2a1.618,1.618,0,0,0-.5-1.095,1.57,1.57,0,0,0-1.12-.428,1.644,1.644,0,0,0-1.387.644,3.026,3.026,0,0,0-.492,1.863V24.7a2.965,2.965,0,0,0,.489,1.828A1.651,1.651,0,0,0,177.582,27.168Zm8.29.832a2.467,2.467,0,0,1-.165-.724,2.62,2.62,0,0,1-1.955.851,2.424,2.424,0,0,1-1.666-.574,1.859,1.859,0,0,1-.651-1.457,1.942,1.942,0,0,1,.816-1.666,3.846,3.846,0,0,1,2.295-.594h1.143V23.3a1.319,1.319,0,0,0-.368-.981,1.48,1.48,0,0,0-1.085-.365,1.712,1.712,0,0,0-1.054.317.935.935,0,0,0-.425.768h-1.181a1.621,1.621,0,0,1,.365-.993,2.491,2.491,0,0,1,.99-.759A3.331,3.331,0,0,1,184.3,21a2.715,2.715,0,0,1,1.86.594,2.141,2.141,0,0,1,.7,1.635v3.161a3.865,3.865,0,0,0,.241,1.5V28Zm-1.949-.9a2.064,2.064,0,0,0,1.047-.286,1.728,1.728,0,0,0,.717-.743V24.667h-.92q-2.158,0-2.158,1.263a1.069,1.069,0,0,0,.368.863A1.415,1.415,0,0,0,183.924,27.1Zm4.494-2.6a4.023,4.023,0,0,1,.749-2.542,2.548,2.548,0,0,1,3.872-.136V18.25h1.174V28h-1.079l-.057-.736a2.391,2.391,0,0,1-1.961.863,2.346,2.346,0,0,1-1.946-.978,4.069,4.069,0,0,1-.752-2.552Zm1.174.133a3.046,3.046,0,0,0,.482,1.828,1.56,1.56,0,0,0,1.333.66,1.713,1.713,0,0,0,1.631-1V22.973A1.726,1.726,0,0,0,191.42,22a1.567,1.567,0,0,0-1.346.667A3.354,3.354,0,0,0,189.592,24.642Zm6.132-.14a4.057,4.057,0,0,1,.4-1.815,2.959,2.959,0,0,1,1.1-1.244A3.007,3.007,0,0,1,198.841,21a2.9,2.9,0,0,1,2.269.971,3.736,3.736,0,0,1,.866,2.583v.083a4.092,4.092,0,0,1-.384,1.8,2.916,2.916,0,0,1-1.1,1.241,3.041,3.041,0,0,1-1.641.444,2.889,2.889,0,0,1-2.263-.971,3.718,3.718,0,0,1-.866-2.571Zm1.181.14a2.938,2.938,0,0,0,.53,1.834,1.8,1.8,0,0,0,2.841-.01A3.213,3.213,0,0,0,200.8,24.5a2.933,2.933,0,0,0-.536-1.831,1.705,1.705,0,0,0-1.425-.7,1.686,1.686,0,0,0-1.4.692A3.189,3.189,0,0,0,196.9,24.642Zm12.613,3.485a3,3,0,0,1-2.272-.917,3.4,3.4,0,0,1-.876-2.453v-.216a4.121,4.121,0,0,1,.39-1.825,3.045,3.045,0,0,1,1.092-1.257,2.745,2.745,0,0,1,1.52-.454,2.572,2.572,0,0,1,2.082.882,3.82,3.82,0,0,1,.743,2.526V24.9h-4.653a2.441,2.441,0,0,0,.594,1.641,1.866,1.866,0,0,0,1.444.625,2.045,2.045,0,0,0,1.054-.254,2.647,2.647,0,0,0,.755-.673l.717.559A2.884,2.884,0,0,1,209.517,28.127Zm-.146-6.157a1.566,1.566,0,0,0-1.193.517,2.515,2.515,0,0,0-.6,1.45h3.44v-.089a2.237,2.237,0,0,0-.482-1.387A1.475,1.475,0,0,0,209.371,21.97Zm5.294-.838L214.7,22A2.5,2.5,0,0,1,216.76,21q2.177,0,2.2,2.457V28h-1.174V23.455a1.581,1.581,0,0,0-.34-1.1A1.361,1.361,0,0,0,216.4,22a1.7,1.7,0,0,0-1,.3,2.069,2.069,0,0,0-.673.8V28h-1.174V21.132Zm12.13,7a3,3,0,0,1-2.272-.917,3.4,3.4,0,0,1-.876-2.453v-.216a4.121,4.121,0,0,1,.39-1.825,3.045,3.045,0,0,1,1.092-1.257A2.745,2.745,0,0,1,226.65,21a2.572,2.572,0,0,1,2.082.882,3.82,3.82,0,0,1,.743,2.526V24.9h-4.653a2.441,2.441,0,0,0,.594,1.641,1.866,1.866,0,0,0,1.444.625,2.045,2.045,0,0,0,1.054-.254,2.647,2.647,0,0,0,.755-.673l.717.559A2.884,2.884,0,0,1,226.8,28.127Zm-.146-6.157a1.566,1.566,0,0,0-1.193.517,2.515,2.515,0,0,0-.6,1.45h3.44v-.089a2.237,2.237,0,0,0-.482-1.387A1.475,1.475,0,0,0,226.65,21.97ZM232.109,28h-1.174V18.25h1.174Zm10.9-3.358a4.112,4.112,0,0,1-.717,2.526,2.3,2.3,0,0,1-1.942.958,2.519,2.519,0,0,1-1.968-.793v3.307h-1.174V21.132h1.073l.057.762A2.419,2.419,0,0,1,240.329,21a2.342,2.342,0,0,1,1.958.933,4.157,4.157,0,0,1,.72,2.6Zm-1.174-.133a3.035,3.035,0,0,0-.5-1.834A1.6,1.6,0,0,0,239.98,22a1.726,1.726,0,0,0-1.6.946v3.282a1.73,1.73,0,0,0,1.612.939,1.587,1.587,0,0,0,1.343-.67A3.312,3.312,0,0,0,241.833,24.509ZM245.775,28H244.6V18.25h1.174Zm6.119,0a2.467,2.467,0,0,1-.165-.724,2.62,2.62,0,0,1-1.955.851,2.424,2.424,0,0,1-1.666-.574,1.859,1.859,0,0,1-.651-1.457,1.942,1.942,0,0,1,.816-1.666,3.846,3.846,0,0,1,2.295-.594h1.143V23.3a1.319,1.319,0,0,0-.368-.981,1.48,1.48,0,0,0-1.085-.365,1.712,1.712,0,0,0-1.054.317.935.935,0,0,0-.425.768H247.6a1.621,1.621,0,0,1,.365-.993,2.491,2.491,0,0,1,.99-.759A3.331,3.331,0,0,1,250.327,21a2.715,2.715,0,0,1,1.86.594,2.141,2.141,0,0,1,.7,1.635v3.161a3.865,3.865,0,0,0,.241,1.5V28Zm-1.949-.9a2.064,2.064,0,0,0,1.047-.286,1.728,1.728,0,0,0,.717-.743V24.667h-.92q-2.158,0-2.158,1.263a1.069,1.069,0,0,0,.368.863A1.415,1.415,0,0,0,249.946,27.1Zm5.891-5.973.038.863a2.5,2.5,0,0,1,2.057-.99q2.177,0,2.2,2.457V28h-1.174V23.455a1.581,1.581,0,0,0-.34-1.1A1.361,1.361,0,0,0,257.576,22a1.7,1.7,0,0,0-1,.3,2.069,2.069,0,0,0-.673.8V28h-1.174V21.132Zm7.655-1.663v1.663h1.282v.908h-1.282V26.3a.953.953,0,0,0,.171.62.721.721,0,0,0,.584.207,2.843,2.843,0,0,0,.559-.076V28a3.425,3.425,0,0,1-.9.126,1.462,1.462,0,0,1-1.187-.476,2.045,2.045,0,0,1-.4-1.352V22.04h-1.25v-.908h1.25V19.469Zm5.5,8.658a3,3,0,0,1-2.272-.917,3.4,3.4,0,0,1-.876-2.453v-.216a4.121,4.121,0,0,1,.39-1.825,3.045,3.045,0,0,1,1.092-1.257,2.745,2.745,0,0,1,1.52-.454,2.572,2.572,0,0,1,2.082.882,3.82,3.82,0,0,1,.743,2.526V24.9h-4.653a2.441,2.441,0,0,0,.594,1.641,1.866,1.866,0,0,0,1.444.625,2.045,2.045,0,0,0,1.054-.254,2.648,2.648,0,0,0,.755-.673l.717.559A2.884,2.884,0,0,1,268.995,28.127Zm-.146-6.157a1.566,1.566,0,0,0-1.193.517,2.514,2.514,0,0,0-.6,1.45h3.44v-.089a2.237,2.237,0,0,0-.482-1.387A1.475,1.475,0,0,0,268.849,21.97ZM277.272,28a2.467,2.467,0,0,1-.165-.724,2.62,2.62,0,0,1-1.955.851,2.424,2.424,0,0,1-1.666-.574,1.859,1.859,0,0,1-.651-1.457,1.942,1.942,0,0,1,.816-1.666,3.846,3.846,0,0,1,2.295-.594h1.143V23.3a1.319,1.319,0,0,0-.368-.981,1.48,1.48,0,0,0-1.085-.365,1.712,1.712,0,0,0-1.054.317.935.935,0,0,0-.425.768h-1.181a1.621,1.621,0,0,1,.365-.993,2.491,2.491,0,0,1,.99-.759A3.331,3.331,0,0,1,275.7,21a2.715,2.715,0,0,1,1.86.594,2.141,2.141,0,0,1,.7,1.635v3.161a3.865,3.865,0,0,0,.241,1.5V28Zm-1.949-.9a2.064,2.064,0,0,0,1.047-.286,1.728,1.728,0,0,0,.717-.743V24.667h-.92q-2.158,0-2.158,1.263a1.069,1.069,0,0,0,.368.863A1.415,1.415,0,0,0,275.324,27.1Zm5.884-5.973.032.762A2.536,2.536,0,0,1,283.277,21a1.964,1.964,0,0,1,1.961,1.1,2.6,2.6,0,0,1,.892-.8,2.634,2.634,0,0,1,1.3-.3q2.26,0,2.3,2.393V28h-1.174V23.468a1.577,1.577,0,0,0-.336-1.1,1.482,1.482,0,0,0-1.13-.365,1.557,1.557,0,0,0-1.085.39,1.584,1.584,0,0,0-.5,1.051V28h-1.181V23.5a1.31,1.31,0,0,0-1.466-1.5,1.571,1.571,0,0,0-1.581.984V28H280.1V21.132ZM292.773,28H291.6V21.132h1.174Zm-1.27-8.69a.7.7,0,0,1,.175-.482.655.655,0,0,1,.517-.2.666.666,0,0,1,.521.2.694.694,0,0,1,.178.482.671.671,0,0,1-.178.476.678.678,0,0,1-.521.19.667.667,0,0,1-.517-.19A.678.678,0,0,1,291.5,19.31Zm6,8.817a3,3,0,0,1-2.272-.917,3.4,3.4,0,0,1-.876-2.453v-.216a4.121,4.121,0,0,1,.39-1.825,3.045,3.045,0,0,1,1.092-1.257,2.745,2.745,0,0,1,1.52-.454,2.572,2.572,0,0,1,2.082.882,3.82,3.82,0,0,1,.743,2.526V24.9h-4.653a2.441,2.441,0,0,0,.594,1.641,1.866,1.866,0,0,0,1.444.625,2.045,2.045,0,0,0,1.054-.254,2.648,2.648,0,0,0,.755-.673l.717.559A2.884,2.884,0,0,1,297.5,28.127Zm-.146-6.157a1.566,1.566,0,0,0-1.193.517,2.514,2.514,0,0,0-.6,1.45h3.44v-.089a2.237,2.237,0,0,0-.482-1.387A1.475,1.475,0,0,0,297.356,21.97Zm5.294-.838.038.863a2.5,2.5,0,0,1,2.057-.99q2.177,0,2.2,2.457V28h-1.174V23.455a1.581,1.581,0,0,0-.34-1.1A1.361,1.361,0,0,0,304.39,22a1.7,1.7,0,0,0-1,.3,2.069,2.069,0,0,0-.673.8V28h-1.174V21.132Zm7.655-1.663v1.663h1.282v.908h-1.282V26.3a.953.953,0,0,0,.171.62.721.721,0,0,0,.584.207,2.843,2.843,0,0,0,.559-.076V28a3.425,3.425,0,0,1-.9.126,1.462,1.462,0,0,1-1.187-.476,2.045,2.045,0,0,1-.4-1.352V22.04h-1.25v-.908h1.25V19.469Zm2.215,5.034a4.057,4.057,0,0,1,.4-1.815,2.96,2.96,0,0,1,1.1-1.244A3.007,3.007,0,0,1,315.638,21a2.9,2.9,0,0,1,2.269.971,3.736,3.736,0,0,1,.866,2.583v.083a4.092,4.092,0,0,1-.384,1.8,2.916,2.916,0,0,1-1.1,1.241,3.041,3.041,0,0,1-1.641.444,2.889,2.889,0,0,1-2.263-.971,3.718,3.718,0,0,1-.866-2.571Zm1.181.14a2.938,2.938,0,0,0,.53,1.834,1.8,1.8,0,0,0,2.841-.01A3.213,3.213,0,0,0,317.6,24.5a2.933,2.933,0,0,0-.536-1.831,1.705,1.705,0,0,0-1.425-.7,1.686,1.686,0,0,0-1.4.692A3.189,3.189,0,0,0,313.7,24.642Zm6.57,2.742a.735.735,0,0,1,.181-.508.689.689,0,0,1,.543-.2.71.71,0,0,1,.549.2.721.721,0,0,1,.187.508.681.681,0,0,1-.187.489.723.723,0,0,1-.549.2.653.653,0,0,1-.724-.686Z" transform="translate(966.06 488.334)" fill="#12263f"/>
    <path id="Trazado_102944" data-name="Trazado 102944" d="M2.784,5.768l-1.6,2.208L2.8,10.184H1.932L.348,7.976,1.932,5.768Zm1.968,0-1.6,2.208,1.6,2.208H3.9L2.316,7.976,3.9,5.768Zm5.364,2.688H7.248L6.408,11H5.328l2.76-8.088H9.336L12.1,11H10.98ZM7.464,7.64H9.912l-.8-2.328q-.168-.492-.42-1.476H8.664Q8.388,4.916,8.256,5.3ZM13.212,11V7q0-1.092-.048-1.812h.924l.048,1.152h.036a1.909,1.909,0,0,1,.636-.924,1.557,1.557,0,0,1,.984-.348,2.546,2.546,0,0,1,.288.024v1a1.871,1.871,0,0,0-.36-.024,1.275,1.275,0,0,0-.93.372,1.76,1.76,0,0,0-.486.972,3.016,3.016,0,0,0-.036.492V11Zm7.764,2.376V10.112h-.024a2.023,2.023,0,0,1-1.9,1.02,2.229,2.229,0,0,1-1.752-.816A3.107,3.107,0,0,1,16.6,8.2a3.167,3.167,0,0,1,.8-2.328,2.508,2.508,0,0,1,1.83-.8,2.1,2.1,0,0,1,1.1.276,1.779,1.779,0,0,1,.69.72h.024l.036-.876h1q-.048.96-.048,1.6v6.588Zm0-4.74V7.544a1.694,1.694,0,0,0-.048-.432,1.616,1.616,0,0,0-.54-.858,1.464,1.464,0,0,0-.972-.342,1.527,1.527,0,0,0-1.278.618,2.559,2.559,0,0,0-.474,1.6,2.575,2.575,0,0,0,.444,1.542,1.471,1.471,0,0,0,1.272.618,1.521,1.521,0,0,0,.924-.3,1.659,1.659,0,0,0,.588-.84A1.778,1.778,0,0,0,20.976,8.636Zm7.656-3.444V9.4q0,.984.048,1.6h-.936l-.06-.948H27.66a2.189,2.189,0,0,1-.732.756,2.112,2.112,0,0,1-1.188.324,2.038,2.038,0,0,1-.7-.12,2,2,0,0,1-.636-.39,1.824,1.824,0,0,1-.486-.792,3.821,3.821,0,0,1-.18-1.242v-3.4h1.056V8.4q0,1.86,1.3,1.86a1.371,1.371,0,0,0,.864-.288,1.6,1.6,0,0,0,.528-.684,1.386,1.386,0,0,0,.1-.54V5.192ZM31.44,11H30.384V5.192H31.44Zm-1-7.908a.631.631,0,0,1,.474-.192.622.622,0,0,1,.468.186.654.654,0,0,1,.18.474.638.638,0,0,1-.18.462.653.653,0,0,1-.492.186.6.6,0,0,1-.462-.186.691.691,0,0,1,.012-.93Zm2.994,1.02L34.464,3.8V5.192h1.512V6H34.464V9.128q0,1.128.792,1.128a2.174,2.174,0,0,0,.612-.072l.048.8a2.805,2.805,0,0,1-.936.144,1.471,1.471,0,0,1-1.14-.444,2.272,2.272,0,0,1-.408-1.524V6h-.9v-.8h.9ZM41.76,8.288H37.68a1.965,1.965,0,0,0,.57,1.518,2.056,2.056,0,0,0,1.422.5A3.978,3.978,0,0,0,41.28,10l.192.756a4.708,4.708,0,0,1-1.944.372,2.751,2.751,0,0,1-2.088-.8,2.964,2.964,0,0,1-.768-2.136,3.357,3.357,0,0,1,.744-2.232,2.453,2.453,0,0,1,1.98-.888,2.418,2.418,0,0,1,1.17.27,1.876,1.876,0,0,1,.75.7,3.453,3.453,0,0,1,.366.87A3.488,3.488,0,0,1,41.8,7.8,2.632,2.632,0,0,1,41.76,8.288Zm-4.068-.756h3.084a2.052,2.052,0,0,0-.33-1.17,1.243,1.243,0,0,0-1.134-.534,1.365,1.365,0,0,0-1.14.522A2.286,2.286,0,0,0,37.692,7.532ZM47.064,10l.18.792a3.855,3.855,0,0,1-1.668.336,2.793,2.793,0,0,1-2.1-.816,2.953,2.953,0,0,1-.792-2.148,3.2,3.2,0,0,1,4.584-2.784l-.24.8A2.6,2.6,0,0,0,45.8,5.912a1.888,1.888,0,0,0-1.506.63,2.306,2.306,0,0,0-.546,1.566,2.179,2.179,0,0,0,.57,1.584,1.928,1.928,0,0,0,1.446.588A3.171,3.171,0,0,0,47.064,10Zm1.812-5.892L49.908,3.8V5.192H51.42V6H49.908V9.128q0,1.128.792,1.128a2.173,2.173,0,0,0,.612-.072l.048.8a2.805,2.805,0,0,1-.936.144,1.471,1.471,0,0,1-1.14-.444,2.272,2.272,0,0,1-.408-1.524V6h-.9v-.8h.9Zm8.592,1.08V9.4q0,.984.048,1.6H56.58l-.06-.948H56.5a2.189,2.189,0,0,1-.732.756,2.112,2.112,0,0,1-1.188.324,2.038,2.038,0,0,1-.7-.12,2,2,0,0,1-.636-.39,1.824,1.824,0,0,1-.486-.792,3.821,3.821,0,0,1-.18-1.242v-3.4h1.056V8.4q0,1.86,1.3,1.86a1.371,1.371,0,0,0,.864-.288,1.6,1.6,0,0,0,.528-.684,1.386,1.386,0,0,0,.1-.54V5.192ZM59.22,11V7q0-1.092-.048-1.812H60.1l.048,1.152h.036a1.909,1.909,0,0,1,.636-.924,1.557,1.557,0,0,1,.984-.348,2.546,2.546,0,0,1,.288.024v1a1.871,1.871,0,0,0-.36-.024,1.275,1.275,0,0,0-.93.372,1.76,1.76,0,0,0-.486.972,3.016,3.016,0,0,0-.036.492V11Zm7.944-3.564V9.608A9.523,9.523,0,0,0,67.248,11H66.3l-.084-.732H66.18a2.052,2.052,0,0,1-.726.618,2.2,2.2,0,0,1-1.05.246A1.719,1.719,0,0,1,63.1,10.64a1.647,1.647,0,0,1-.468-1.176,1.786,1.786,0,0,1,.906-1.614A4.888,4.888,0,0,1,66.12,7.3v-.12a1.991,1.991,0,0,0-.042-.414,1.564,1.564,0,0,0-.168-.426.865.865,0,0,0-.408-.36,1.653,1.653,0,0,0-.7-.132,2.647,2.647,0,0,0-1.524.432l-.24-.708a3.541,3.541,0,0,1,1.92-.5,1.993,1.993,0,0,1,1.71.672A2.765,2.765,0,0,1,67.164,7.436Zm-1.02,1.608V8.036q-2.46-.048-2.46,1.308a.966.966,0,0,0,.282.75,1,1,0,0,0,.7.258A1.468,1.468,0,0,0,66.1,9.38,1.137,1.137,0,0,0,66.144,9.044ZM75.372,2.48h1.044V9.5q0,.708.048,1.5h-.936L75.48,9.992h-.036a1.935,1.935,0,0,1-.756.822,2.24,2.24,0,0,1-1.2.318,2.264,2.264,0,0,1-1.782-.822,3.131,3.131,0,0,1-.714-2.13,3.214,3.214,0,0,1,.75-2.256A2.4,2.4,0,0,1,73.6,5.072a2.191,2.191,0,0,1,1.086.252,1.709,1.709,0,0,1,.666.624h.024Zm0,6.084V7.556a1.751,1.751,0,0,0-.048-.444,1.567,1.567,0,0,0-.534-.864,1.592,1.592,0,0,0-2.262.282,2.615,2.615,0,0,0-.468,1.6,2.523,2.523,0,0,0,.45,1.536,1.48,1.48,0,0,0,1.266.612,1.526,1.526,0,0,0,.972-.342,1.64,1.64,0,0,0,.576-.918A1.9,1.9,0,0,0,75.372,8.564Zm7.476-.276h-4.08a1.965,1.965,0,0,0,.57,1.518,2.056,2.056,0,0,0,1.422.5,3.978,3.978,0,0,0,1.608-.3l.192.756a4.708,4.708,0,0,1-1.944.372,2.751,2.751,0,0,1-2.088-.8,2.964,2.964,0,0,1-.768-2.136A3.357,3.357,0,0,1,78.5,5.96a2.453,2.453,0,0,1,1.98-.888,2.418,2.418,0,0,1,1.17.27,1.876,1.876,0,0,1,.75.7,3.453,3.453,0,0,1,.366.87,3.488,3.488,0,0,1,.114.882A2.632,2.632,0,0,1,82.848,8.288ZM78.78,7.532h3.084a2.052,2.052,0,0,0-.33-1.17A1.243,1.243,0,0,0,80.4,5.828a1.365,1.365,0,0,0-1.14.522A2.286,2.286,0,0,0,78.78,7.532ZM86.364,10.6l.276-.876a3.386,3.386,0,0,0,1.86.528,1.873,1.873,0,0,0,1.242-.378,1.243,1.243,0,0,0,.45-1,1.268,1.268,0,0,0-.354-.918,3.258,3.258,0,0,0-1.17-.678q-2.136-.78-2.136-2.3A1.98,1.98,0,0,1,87.258,3.4a2.815,2.815,0,0,1,1.89-.618,3.477,3.477,0,0,1,1.776.4l-.288.852a2.855,2.855,0,0,0-1.524-.384,1.594,1.594,0,0,0-1.14.366,1.136,1.136,0,0,0-.384.846,1.148,1.148,0,0,0,.366.888,4.037,4.037,0,0,0,1.242.672,4.018,4.018,0,0,1,1.554.96,2.033,2.033,0,0,1,.5,1.416,2.181,2.181,0,0,1-.726,1.668,2.974,2.974,0,0,1-2.094.672,4.555,4.555,0,0,1-1.152-.15A2.965,2.965,0,0,1,86.364,10.6Zm8.82-5.532a2.64,2.64,0,0,1,2.022.828,3.019,3.019,0,0,1,.774,2.148,2.953,2.953,0,0,1-.864,2.292,2.9,2.9,0,0,1-2.028.792A2.65,2.65,0,0,1,93.1,10.31,2.99,2.99,0,0,1,92.3,8.144a3.049,3.049,0,0,1,.822-2.238A2.771,2.771,0,0,1,95.184,5.072Zm1.278,1.476a1.446,1.446,0,0,0-1.3-.684,1.5,1.5,0,0,0-1.32.666,2.725,2.725,0,0,0-.456,1.578,2.531,2.531,0,0,0,.492,1.6,1.525,1.525,0,0,0,1.26.636A1.542,1.542,0,0,0,96.4,9.7a2.534,2.534,0,0,0,.5-1.614A2.788,2.788,0,0,0,96.462,6.548Zm4,4.452H99.42V6h-.8v-.8h.8V4.916a2.731,2.731,0,0,1,.672-2.028,1.94,1.94,0,0,1,1.416-.54,2.342,2.342,0,0,1,.9.168l-.144.816a1.6,1.6,0,0,0-.672-.132q-1.128,0-1.128,1.68v.312h1.4V6h-1.4Zm2.724-6.888L104.22,3.8V5.192h1.512V6H104.22V9.128q0,1.128.792,1.128a2.174,2.174,0,0,0,.612-.072l.048.8a2.805,2.805,0,0,1-.936.144,1.471,1.471,0,0,1-1.14-.444,2.272,2.272,0,0,1-.408-1.524V6h-.9v-.8h.9Zm3.18,1.08h1.08l.78,2.952q.348,1.44.42,1.848h.036q.132-.588.516-1.836l.948-2.964h.888l.9,2.9q.324,1.056.516,1.9h.036a19.087,19.087,0,0,1,.444-1.884l.828-2.916H114.8L112.932,11h-.96l-.888-2.772a19.1,19.1,0,0,1-.516-1.908h-.024a17.135,17.135,0,0,1-.528,1.92L109.08,11h-.96Zm13.524,2.244V9.608A9.523,9.523,0,0,0,119.976,11h-.948l-.084-.732h-.036a2.052,2.052,0,0,1-.726.618,2.2,2.2,0,0,1-1.05.246,1.719,1.719,0,0,1-1.308-.492,1.647,1.647,0,0,1-.468-1.176,1.786,1.786,0,0,1,.906-1.614,4.888,4.888,0,0,1,2.586-.546v-.12a1.991,1.991,0,0,0-.042-.414,1.564,1.564,0,0,0-.168-.426.865.865,0,0,0-.408-.36,1.653,1.653,0,0,0-.7-.132A2.647,2.647,0,0,0,116,6.284l-.24-.708a3.541,3.541,0,0,1,1.92-.5,1.993,1.993,0,0,1,1.71.672A2.765,2.765,0,0,1,119.892,7.436Zm-1.02,1.608V8.036q-2.46-.048-2.46,1.308a.966.966,0,0,0,.282.75,1,1,0,0,0,.7.258,1.468,1.468,0,0,0,1.428-.972A1.137,1.137,0,0,0,118.872,9.044ZM121.6,11V7q0-1.092-.048-1.812h.924l.048,1.152h.036a1.909,1.909,0,0,1,.636-.924,1.557,1.557,0,0,1,.984-.348,2.546,2.546,0,0,1,.288.024v1a1.871,1.871,0,0,0-.36-.024,1.275,1.275,0,0,0-.93.372,1.76,1.76,0,0,0-.486.972,3.015,3.015,0,0,0-.036.492V11Zm8.472-2.712h-4.08a1.965,1.965,0,0,0,.57,1.518,2.056,2.056,0,0,0,1.422.5,3.978,3.978,0,0,0,1.608-.3l.192.756a4.708,4.708,0,0,1-1.944.372,2.751,2.751,0,0,1-2.088-.8,2.964,2.964,0,0,1-.768-2.136,3.357,3.357,0,0,1,.744-2.232,2.453,2.453,0,0,1,1.98-.888,2.418,2.418,0,0,1,1.17.27,1.876,1.876,0,0,1,.75.7,3.453,3.453,0,0,1,.366.87,3.488,3.488,0,0,1,.114.882A2.632,2.632,0,0,1,130.068,8.288ZM126,7.532h3.084a2.052,2.052,0,0,0-.33-1.17,1.243,1.243,0,0,0-1.134-.534,1.365,1.365,0,0,0-1.14.522A2.286,2.286,0,0,0,126,7.532Zm6.42.444-1.6-2.208h.84l1.6,2.208-1.6,2.208h-.84Zm1.956,0-1.608-2.208h.852l1.6,2.208-1.6,2.208h-.84Z" transform="translate(947.242 717.797)" fill="#1d1d1b"/>
    <path id="Trazado_99183" data-name="Trazado 99183" d="M218.229,196.54V173.617l-10.706-2.447a56.6,56.6,0,0,0-6.952-14.894l4.976-8.466L189.339,131.6l-9.3,5.837a56.506,56.506,0,0,0-15.456-5.631l-2.463-9.488H139.2l-2.447,10.706a56.557,56.557,0,0,0-14.9,6.95L113.394,135,97.186,151.209l5.837,9.3a56.433,56.433,0,0,0-5.631,15.456L87.9,178.424v22.922l10.706,2.447a56.558,56.558,0,0,0,6.952,14.9l-4.976,8.465,16.208,16.209,9.3-5.838a56.454,56.454,0,0,0,15.457,5.631l2.463,9.489H166.93l2.447-10.706a56.551,56.551,0,0,0,14.894-6.952l8.466,4.977,16.208-16.209-5.837-9.3A56.441,56.441,0,0,0,208.74,199Zm-65.163,29.7a38.757,38.757,0,1,1,38.757-38.757A38.757,38.757,0,0,1,153.065,226.239Z" transform="translate(885.89 437.75)" fill="#3da3af"/>
    <path id="Trazado_102942" data-name="Trazado 102942" d="M-18.635,0V-7.82h2.406a3.654,3.654,0,0,1,1.845.465,3.24,3.24,0,0,1,1.27,1.321,4.075,4.075,0,0,1,.457,1.947v.36a4.087,4.087,0,0,1-.448,1.939A3.212,3.212,0,0,1-14.37-.473,3.682,3.682,0,0,1-16.213,0Zm1.611-6.515v5.221h.779A1.75,1.75,0,0,0-14.8-1.912a2.791,2.791,0,0,0,.51-1.767v-.414A2.836,2.836,0,0,0-14.784-5.9a1.744,1.744,0,0,0-1.445-.615ZM-9.773,0h-1.611V-7.82h1.611Zm5.548-2.052a.827.827,0,0,0-.322-.7,4.227,4.227,0,0,0-1.16-.516A8.224,8.224,0,0,1-7.033-3.8,2.168,2.168,0,0,1-8.365-5.742a1.888,1.888,0,0,1,.357-1.131,2.33,2.33,0,0,1,1.026-.776,3.861,3.861,0,0,1,1.5-.279,3.515,3.515,0,0,1,1.493.3,2.378,2.378,0,0,1,1.018.857,2.242,2.242,0,0,1,.363,1.257H-4.219a1.055,1.055,0,0,0-.338-.835,1.391,1.391,0,0,0-.951-.3,1.486,1.486,0,0,0-.918.25.788.788,0,0,0-.328.658A.754.754,0,0,0-6.37-5.1a4.339,4.339,0,0,0,1.131.483,4.885,4.885,0,0,1,2,1.026,2.043,2.043,0,0,1,.628,1.525A1.882,1.882,0,0,1-3.376-.47,3.362,3.362,0,0,1-5.444.107a3.993,3.993,0,0,1-1.644-.33,2.6,2.6,0,0,1-1.131-.905A2.318,2.318,0,0,1-8.607-2.46H-6.99q0,1.294,1.547,1.294a1.5,1.5,0,0,0,.9-.234A.76.76,0,0,0-4.224-2.052ZM3.188-3.4H.094v2.105H3.725V0H-1.517V-7.82H3.714v1.305H.094v1.864H3.188ZM11.03,0H9.418L6.281-5.146V0H4.67V-7.82H6.281L9.424-2.664V-7.82H11.03ZM9.891-9.84a1.5,1.5,0,0,1-.354,1.018,1.1,1.1,0,0,1-.865.411,1.312,1.312,0,0,1-.363-.046,2.433,2.433,0,0,1-.438-.2,2.361,2.361,0,0,0-.4-.185A.985.985,0,0,0,7.2-8.873a.431.431,0,0,0-.32.134.522.522,0,0,0-.132.381l-.9-.054A1.526,1.526,0,0,1,6.2-9.426a1.085,1.085,0,0,1,.862-.419,1.11,1.11,0,0,1,.3.04,3.342,3.342,0,0,1,.465.2,3.02,3.02,0,0,0,.446.188,1.017,1.017,0,0,0,.258.032.453.453,0,0,0,.325-.132A.5.5,0,0,0,8.994-9.9Zm8.97,6.107a4.721,4.721,0,0,1-.408,2.025A3.074,3.074,0,0,1,17.284-.365a3.232,3.232,0,0,1-1.743.473A3.253,3.253,0,0,1,13.806-.36a3.1,3.1,0,0,1-1.182-1.335,4.586,4.586,0,0,1-.424-2v-.387a4.7,4.7,0,0,1,.416-2.033,3.1,3.1,0,0,1,1.176-1.348,3.236,3.236,0,0,1,1.738-.47,3.236,3.236,0,0,1,1.738.47A3.1,3.1,0,0,1,18.444-6.11a4.683,4.683,0,0,1,.416,2.028Zm-1.633-.354a3.291,3.291,0,0,0-.44-1.869A1.435,1.435,0,0,0,15.531-6.6a1.436,1.436,0,0,0-1.251.631,3.253,3.253,0,0,0-.446,1.85v.381a3.332,3.332,0,0,0,.44,1.858,1.432,1.432,0,0,0,1.268.661,1.419,1.419,0,0,0,1.246-.636,3.313,3.313,0,0,0,.44-1.856ZM-29.885,14V6.18h2.406a3.654,3.654,0,0,1,1.845.465,3.24,3.24,0,0,1,1.27,1.321,4.075,4.075,0,0,1,.457,1.947v.36a4.087,4.087,0,0,1-.448,1.939,3.212,3.212,0,0,1-1.265,1.316A3.682,3.682,0,0,1-27.462,14Zm1.611-6.515v5.221h.779a1.75,1.75,0,0,0,1.445-.618,2.791,2.791,0,0,0,.51-1.767V9.907A2.836,2.836,0,0,0-26.034,8.1a1.744,1.744,0,0,0-1.445-.615ZM-18.031,10.6h-3.094v2.105h3.631V14h-5.242V6.18H-17.5V7.485h-3.62V9.349h3.094Zm7.477-3.115h-2.4V14h-1.611V7.485h-2.363V6.18h6.37Zm4.689,4.9H-8.69L-9.228,14h-1.713L-8.03,6.18h1.493L-3.609,14H-5.323Zm-2.39-1.305H-6.3l-.983-2.927Zm6.988,1.622H2.154V14H-2.879V6.18h1.611Zm5.957,0H8.11V14H3.078V6.18H4.689Zm8.862-.317H10.726L10.189,14H8.476l2.911-7.82H12.88L15.807,14H14.094Zm-2.39-1.305h1.955l-.983-2.927ZM16.538,14V6.18h2.406a3.654,3.654,0,0,1,1.845.465,3.24,3.24,0,0,1,1.27,1.321,4.075,4.075,0,0,1,.457,1.947v.36a4.087,4.087,0,0,1-.448,1.939A3.212,3.212,0,0,1,20.8,13.527,3.682,3.682,0,0,1,18.96,14Zm1.611-6.515v5.221h.779a1.75,1.75,0,0,0,1.445-.618,2.791,2.791,0,0,0,.51-1.767V9.907A2.836,2.836,0,0,0,20.389,8.1a1.744,1.744,0,0,0-1.445-.615ZM30.11,10.267a4.721,4.721,0,0,1-.408,2.025,3.074,3.074,0,0,1-1.168,1.343,3.452,3.452,0,0,1-3.478.005,3.1,3.1,0,0,1-1.182-1.335,4.586,4.586,0,0,1-.424-2V9.923a4.7,4.7,0,0,1,.416-2.033,3.1,3.1,0,0,1,1.176-1.348,3.447,3.447,0,0,1,3.475,0A3.1,3.1,0,0,1,29.694,7.89a4.683,4.683,0,0,1,.416,2.028Zm-1.633-.354a3.291,3.291,0,0,0-.44-1.869,1.556,1.556,0,0,0-2.508-.008,3.253,3.253,0,0,0-.446,1.85v.381a3.332,3.332,0,0,0,.44,1.858,1.542,1.542,0,0,0,2.514.024,3.313,3.313,0,0,0,.44-1.856Z" transform="translate(1038.955 620.5)" fill="#0991a1"/>
    <path id="Trazado_99184" data-name="Trazado 99184" d="M391.655,231.832V198.457l-15.589-3.563a82.332,82.332,0,0,0-10.121-21.686l7.247-12.327-23.6-23.6-13.535,8.5a82.17,82.17,0,0,0-22.5-8.2l-3.586-13.815H276.591l-3.563,15.588a82.38,82.38,0,0,0-21.687,10.122l-12.327-7.247-23.6,23.6,8.5,13.535a82.2,82.2,0,0,0-8.2,22.5L201.9,205.455V238.83l15.588,3.563a82.377,82.377,0,0,0,10.12,21.687l-7.245,12.327,23.6,23.6,13.535-8.5a82.192,82.192,0,0,0,22.506,8.2l3.586,13.815h33.375l3.563-15.588a82.335,82.335,0,0,0,21.686-10.122l12.327,7.247,23.6-23.6-8.5-13.535a82.191,82.191,0,0,0,8.2-22.506Zm-94.877,43.242a56.43,56.43,0,1,1,56.43-56.43A56.43,56.43,0,0,1,296.777,275.075Z" transform="translate(900.268 437.933)" fill="#3465ad"/>
    <path id="Trazado_102943" data-name="Trazado 102943" d="M-18.635,0V-7.82h2.406a3.654,3.654,0,0,1,1.845.465,3.24,3.24,0,0,1,1.27,1.321,4.075,4.075,0,0,1,.457,1.947v.36a4.087,4.087,0,0,1-.448,1.939A3.212,3.212,0,0,1-14.37-.473,3.682,3.682,0,0,1-16.213,0Zm1.611-6.515v5.221h.779A1.75,1.75,0,0,0-14.8-1.912a2.791,2.791,0,0,0,.51-1.767v-.414A2.836,2.836,0,0,0-14.784-5.9a1.744,1.744,0,0,0-1.445-.615ZM-9.773,0h-1.611V-7.82h1.611Zm5.548-2.052a.827.827,0,0,0-.322-.7,4.227,4.227,0,0,0-1.16-.516A8.224,8.224,0,0,1-7.033-3.8,2.168,2.168,0,0,1-8.365-5.742a1.888,1.888,0,0,1,.357-1.131,2.33,2.33,0,0,1,1.026-.776,3.861,3.861,0,0,1,1.5-.279,3.515,3.515,0,0,1,1.493.3,2.378,2.378,0,0,1,1.018.857,2.242,2.242,0,0,1,.363,1.257H-4.219a1.055,1.055,0,0,0-.338-.835,1.391,1.391,0,0,0-.951-.3,1.486,1.486,0,0,0-.918.25.788.788,0,0,0-.328.658A.754.754,0,0,0-6.37-5.1a4.339,4.339,0,0,0,1.131.483,4.885,4.885,0,0,1,2,1.026,2.043,2.043,0,0,1,.628,1.525A1.882,1.882,0,0,1-3.376-.47,3.362,3.362,0,0,1-5.444.107a3.993,3.993,0,0,1-1.644-.33,2.6,2.6,0,0,1-1.131-.905A2.318,2.318,0,0,1-8.607-2.46H-6.99q0,1.294,1.547,1.294a1.5,1.5,0,0,0,.9-.234A.76.76,0,0,0-4.224-2.052ZM3.188-3.4H.094v2.105H3.725V0H-1.517V-7.82H3.714v1.305H.094v1.864H3.188ZM11.03,0H9.418L6.281-5.146V0H4.67V-7.82H6.281L9.424-2.664V-7.82H11.03ZM9.891-9.84a1.5,1.5,0,0,1-.354,1.018,1.1,1.1,0,0,1-.865.411,1.312,1.312,0,0,1-.363-.046,2.433,2.433,0,0,1-.438-.2,2.361,2.361,0,0,0-.4-.185A.985.985,0,0,0,7.2-8.873a.431.431,0,0,0-.32.134.522.522,0,0,0-.132.381l-.9-.054A1.526,1.526,0,0,1,6.2-9.426a1.085,1.085,0,0,1,.862-.419,1.11,1.11,0,0,1,.3.04,3.342,3.342,0,0,1,.465.2,3.02,3.02,0,0,0,.446.188,1.017,1.017,0,0,0,.258.032.453.453,0,0,0,.325-.132A.5.5,0,0,0,8.994-9.9Zm8.97,6.107a4.721,4.721,0,0,1-.408,2.025A3.074,3.074,0,0,1,17.284-.365a3.232,3.232,0,0,1-1.743.473A3.253,3.253,0,0,1,13.806-.36a3.1,3.1,0,0,1-1.182-1.335,4.586,4.586,0,0,1-.424-2v-.387a4.7,4.7,0,0,1,.416-2.033,3.1,3.1,0,0,1,1.176-1.348,3.236,3.236,0,0,1,1.738-.47,3.236,3.236,0,0,1,1.738.47A3.1,3.1,0,0,1,18.444-6.11a4.683,4.683,0,0,1,.416,2.028Zm-1.633-.354a3.291,3.291,0,0,0-.44-1.869A1.435,1.435,0,0,0,15.531-6.6a1.436,1.436,0,0,0-1.251.631,3.253,3.253,0,0,0-.446,1.85v.381a3.332,3.332,0,0,0,.44,1.858,1.432,1.432,0,0,0,1.268.661,1.419,1.419,0,0,0,1.246-.636,3.313,3.313,0,0,0,.44-1.856ZM-41.065,12.389H-43.89L-44.427,14H-46.14l2.911-7.82h1.493L-38.809,14h-1.713Zm-2.39-1.305H-41.5l-.983-2.927Zm8.271.054h-1.284V14h-1.611V6.18h2.906a3.285,3.285,0,0,1,2.138.618,2.132,2.132,0,0,1,.752,1.746,2.406,2.406,0,0,1-.346,1.335,2.363,2.363,0,0,1-1.05.851l1.692,3.2V14h-1.729Zm-1.284-1.305h1.3a1.331,1.331,0,0,0,.94-.309,1.1,1.1,0,0,0,.333-.851,1.182,1.182,0,0,0-.314-.87,1.306,1.306,0,0,0-.964-.317h-1.294Zm11.822.435a4.712,4.712,0,0,1-.354,1.9,3.269,3.269,0,0,1-.983,1.3l1.3,1.021-1.026.908-1.665-1.337a3.524,3.524,0,0,1-.591.048A3.253,3.253,0,0,1-29.7,13.64a3.1,3.1,0,0,1-1.182-1.335,4.586,4.586,0,0,1-.424-2V9.923a4.7,4.7,0,0,1,.416-2.033,3.1,3.1,0,0,1,1.176-1.348,3.236,3.236,0,0,1,1.738-.47,3.236,3.236,0,0,1,1.738.47A3.1,3.1,0,0,1-25.062,7.89a4.683,4.683,0,0,1,.416,2.028Zm-1.633-.354a3.291,3.291,0,0,0-.44-1.869A1.435,1.435,0,0,0-27.975,7.4a1.436,1.436,0,0,0-1.251.631,3.253,3.253,0,0,0-.446,1.85v.381a3.332,3.332,0,0,0,.44,1.858,1.432,1.432,0,0,0,1.268.661,1.419,1.419,0,0,0,1.246-.636,3.313,3.313,0,0,0,.44-1.856Zm8.733-3.733v5.151a2.637,2.637,0,0,1-.8,2.03,3.1,3.1,0,0,1-2.194.747,3.131,3.131,0,0,1-2.175-.725,2.592,2.592,0,0,1-.822-1.993V6.18h1.611v5.162a1.49,1.49,0,0,0,.368,1.12,1.412,1.412,0,0,0,1.018.352q1.359,0,1.38-1.429V6.18ZM-14.51,14h-1.611V6.18h1.611Zm7.224-6.515h-2.4V14h-1.611V7.485h-2.363V6.18h6.37ZM-1.662,10.6H-4.756v2.105h3.631V14H-6.367V6.18h5.231V7.485h-3.62V9.349h3.094Zm7.622.795a2.767,2.767,0,0,1-.932,1.987,3.273,3.273,0,0,1-2.216.725A2.943,2.943,0,0,1,.446,13.095a4.151,4.151,0,0,1-.862-2.78V9.837a4.688,4.688,0,0,1,.4-1.987A2.979,2.979,0,0,1,1.117,6.531a3.182,3.182,0,0,1,1.716-.459A3.188,3.188,0,0,1,5.014,6.8,2.974,2.974,0,0,1,5.97,8.833H4.359a1.633,1.633,0,0,0-.422-1.1,1.561,1.561,0,0,0-1.1-.341,1.369,1.369,0,0,0-1.206.577,3.236,3.236,0,0,0-.411,1.791v.591A3.463,3.463,0,0,0,1.6,12.206a1.344,1.344,0,0,0,1.211.585,1.591,1.591,0,0,0,1.115-.341A1.54,1.54,0,0,0,4.348,11.4Zm6.789-3.91h-2.4V14H8.741V7.485H6.378V6.18h6.37Zm7.192,2.782a4.721,4.721,0,0,1-.408,2.025,3.074,3.074,0,0,1-1.168,1.343,3.452,3.452,0,0,1-3.478.005A3.1,3.1,0,0,1,13.7,12.305a4.586,4.586,0,0,1-.424-2V9.923A4.7,4.7,0,0,1,13.7,7.89a3.1,3.1,0,0,1,1.176-1.348,3.447,3.447,0,0,1,3.475,0A3.1,3.1,0,0,1,19.524,7.89a4.683,4.683,0,0,1,.416,2.028Zm-1.633-.354a3.291,3.291,0,0,0-.44-1.869,1.556,1.556,0,0,0-2.508-.008,3.253,3.253,0,0,0-.446,1.85v.381a3.332,3.332,0,0,0,.44,1.858,1.542,1.542,0,0,0,2.514.024,3.313,3.313,0,0,0,.44-1.856ZM16.922,4.085h1.692L17.126,5.75H15.864ZM27.47,14H25.859L22.722,8.854V14H21.111V6.18h1.611l3.142,5.156V6.18H27.47Zm3.121,0H28.98V6.18h1.611Zm7.632-2.6a2.767,2.767,0,0,1-.932,1.987,3.273,3.273,0,0,1-2.216.725,2.943,2.943,0,0,1-2.366-1.012,4.151,4.151,0,0,1-.862-2.78V9.837a4.688,4.688,0,0,1,.4-1.987,2.979,2.979,0,0,1,1.136-1.319,3.55,3.55,0,0,1,3.9.266,2.974,2.974,0,0,1,.956,2.036H36.623a1.633,1.633,0,0,0-.422-1.1,1.561,1.561,0,0,0-1.1-.341,1.369,1.369,0,0,0-1.206.577,3.236,3.236,0,0,0-.411,1.791v.591a3.463,3.463,0,0,0,.384,1.853,1.344,1.344,0,0,0,1.211.585,1.591,1.591,0,0,0,1.115-.341,1.54,1.54,0,0,0,.422-1.055Zm7.482-1.128a4.721,4.721,0,0,1-.408,2.025,3.074,3.074,0,0,1-1.168,1.343,3.452,3.452,0,0,1-3.478.005,3.1,3.1,0,0,1-1.182-1.335,4.586,4.586,0,0,1-.424-2V9.923a4.7,4.7,0,0,1,.416-2.033,3.1,3.1,0,0,1,1.176-1.348,3.447,3.447,0,0,1,3.475,0A3.1,3.1,0,0,1,45.289,7.89a4.683,4.683,0,0,1,.416,2.028Zm-1.633-.354a3.291,3.291,0,0,0-.44-1.869,1.556,1.556,0,0,0-2.508-.008,3.253,3.253,0,0,0-.446,1.85v.381a3.332,3.332,0,0,0,.44,1.858,1.542,1.542,0,0,0,2.514.024,3.313,3.313,0,0,0,.44-1.856Z" transform="translate(1197.046 650.023)" fill="#3366c2"/>
    <path id="Trazado_102945" data-name="Trazado 102945" d="M49.3,0C76.526,0,98.6,3.359,98.6,7.5S76.526,15,49.3,15,0,11.645,0,7.5,22.072,0,49.3,0Z" transform="translate(1315.402 761.668)" fill="#e4e4e4"/>
    <g id="Grupo_54912" data-name="Grupo 54912" transform="translate(-339.789 530.764)">
      <path id="Trazado_102882" data-name="Trazado 102882" d="M1746.429,10.792c.129-.258,2.842-4.714,2.842-4.714s3.939-6.909,4.584-10.654.388-8.846-1.937-10.977-6.07-2.971-10.4-2.971-10.847,3.1-12.268,3.229-2.9,1.42-2.131,4.455,3.423,5.424,3.875,5.489,4.972,1.421,6,2.324,1.982,6.974,2.767,7.555,4.594,2.97,4.594,2.97Z" transform="translate(-28.049 0)" fill="#434443"/>
      <path id="Trazado_102883" data-name="Trazado 102883" d="M1750.729,28.058s-3.551-9.427-2.776-12.01a55.694,55.694,0,0,0,1.333-6.844l.346-2.712s2.02-4-.346-4.261-3.205-.194-4.045,2.453-.388,2.712-.388,2.712l-2.616-.129s2.1-6.65,1.389-7.684-2.2-2.841-5.488-1.808S1730-2.1,1730-2.1s-4,19.694,3.035,24.924c0,0,2.5,2.066,3.8,1.743l-.636,6.65s3.745,6.974,3.583,7.3S1750.729,28.058,1750.729,28.058Z" transform="translate(-28.67 -5.063)" fill="#eda785"/>
      <path id="Trazado_102884" data-name="Trazado 102884" d="M1747.742,31.65a9.536,9.536,0,0,1-7.306,3.745l-.2,2.128S1745.466,36.2,1747.742,31.65Z" transform="translate(-32.268 -15.887)" fill="#a67861"/>
      <path id="Trazado_102885" data-name="Trazado 102885" d="M1719.306,339.776a17.439,17.439,0,0,0,0,4.585c.387,1.227,1.4,4.649-.172,5.424s-8.48,3.487-8.48,3.487-7.555,1.486-10.977,0-3.939-2.97-1.227-4.455,9.471-3.1,9.9-3.616,2.174-2.906,2.174-2.906l.517-2.131Z" transform="translate(-18.489 -113.452)"/>
      <path id="Trazado_102886" data-name="Trazado 102886" d="M1755.782,337.131s-.258,4.649-.711,5.036-5.488,4.649-8.652,5.23-2.971,4.52-1.937,5.165,5.747,1.808,8.136,1.356,11.235-5.94,11.235-5.94a3.938,3.938,0,0,0,.71-2.841c-.388-1.291-1.356-6.2-1.356-6.2Z" transform="translate(-33.399 -112.615)"/>
      <path id="Trazado_102887" data-name="Trazado 102887" d="M1707.473,155.353l-2.453,19.37s-4.649,21.954-6.328,30.09-1.55,20.145,0,26.732,10.848,50.428,10.848,50.428l13.43-1.162s-9.427-51.462-9.3-53.657,7.1-28.8,7.1-28.8,6.069-20.791,6.586-21.049,1.807-3.745,2.324,4.778,4.907,51.656,4.907,51.656l4.52,47.676s8.394,2.325,10.719.258.645-61.107.645-61.107l1.808-54.884-1.337-20.081h-4.029l-36.733,4.843Z" transform="translate(-18.731 -51.969)" fill="#2f3234"/>
      <path id="Trazado_102888" data-name="Trazado 102888" d="M1720.528,56.126l-3.549,43.254-2.325,21.76,35.625-4.843-5.019-29.25,7.555-34-24.328.381Z" transform="translate(-24.169 -22.664)" fill="#ddcac3"/>
      <path id="Trazado_102889" data-name="Trazado 102889" d="M1719.937,46.335l-18.095,8.293-11.46,31.063-4.976-.9,1.207,9.2,3.317,4.3s6.786,2.036,7.238,2.036,6.936-15.078,6.936-15.078,1.96,7.841,1.96,9.348-9.2,43.276-9.2,43.276l4.976,5.428s7.841-32.721,10.4-46.744S1719.937,46.335,1719.937,46.335Z" transform="translate(-14.907 -20.537)" fill="#e84680"/>
      <path id="Trazado_102890" data-name="Trazado 102890" d="M1666.95,67.312l9.075,36.613s1.289,4.646-1.132,4.743-24.117,0-24.117,0-1.937,2.228-3.1-3.681-9.2-37.676-9.2-37.676-.968-3.2,2.034-3.584,24.02-.484,24.02-.484S1665.786,62.615,1666.95,67.312Z" transform="translate(0 -25.882)" fill="#313657"/>
      <path id="Trazado_102891" data-name="Trazado 102891" d="M1644.491,98.868l4.746-3.223s3.583-2.2,4.164-1.426,0,2.242,0,2.242l-3.486,1.826,4.843-.484s.968.484.581,1.065a8.122,8.122,0,0,1-2.034,1.453s2.131.969,1.549,1.647a4.19,4.19,0,0,1-1.162.968s1.258,1.743-.388,2.421-5.908,2.809-5.908,2.809S1644.255,103.479,1644.491,98.868Z" transform="translate(-1.948 -35.647)" fill="#eda785"/>
      <path id="Trazado_102892" data-name="Trazado 102892" d="M1767.1,45.342l16.013,5.559s7.98,26.1,9.04,35.643c.774,6.973.058,8.523.058,8.523l-19.429,34.868-8.523-5.036s13.23-27.765,13.976-28.8,1.52-5.036,1.52-7.878-5.166-13.559-5.166-13.559l-3.874-1.679" transform="translate(-39.876 -20.222)" fill="#e84680"/>
      <path id="Trazado_102893" data-name="Trazado 102893" d="M1772.421,62.321l-.9,8.911s-7.69,26.086,1.708,42.486,6.557,18.08,6.557,18.08l-11.228,7.748s-6.981-18.725-9.305-21.7-11.881-18.983-10.719-30.993,3.616-27.628,4.132-28.987,9.685-11.536,9.685-11.536Z" transform="translate(-34.864 -20.537)" fill="#e84680"/>
      <path id="Trazado_102894" data-name="Trazado 102894" d="M1760.549,42.536l-4.761-1.957L1744.843,49.1l4.262,9.885,9.492-13.856Z" transform="translate(-33.728 -18.714)" fill="#f6e3da"/>
      <path id="Trazado_102895" data-name="Trazado 102895" d="M1733.363,45.753l4.746-2.906,3.1,6.973-6.087,6.945Z" transform="translate(-30.093 -19.432)" fill="#f6e3da"/>
      <path id="Trazado_102896" data-name="Trazado 102896" d="M1743.045,57.088l-1.74,2.066s-2.938,16.336-2.227,27.894,2.745,24.084,2.745,24.084l-1.454,5.165-4.713-4.455s-5.811-39.9,2.453-51.845l.249-.65-.975-1.82,3.923-4.476Z" transform="translate(-30.19 -22.664)" fill="#5b82c1"/>
      <path id="Trazado_102897" data-name="Trazado 102897" d="M1764.87,162.379l-.941,1.87.226.134,6.844,4.063.988-1.861Z" transform="translate(-39.771 -57.281)" fill="none" stroke="#4e70a5" stroke-miterlimit="10" stroke-width="1"/>
      <path id="Trazado_102898" data-name="Trazado 102898" d="M1760.97,165.952l-2.615,2.131,8.846,4.939,1.563-3.928-6.373-3.783A4.79,4.79,0,0,1,1760.97,165.952Z" transform="translate(-38.006 -58.209)" fill="#eda785"/>
      <path id="Trazado_102899" data-name="Trazado 102899" d="M1723.064,152.241v4.326l6.457-.517v-4.778Z" transform="translate(-26.831 -53.764)" fill="#4b5156"/>
      <path id="Trazado_102900" data-name="Trazado 102900" d="M1742.576,149.206v4.972l12.042-1.873-.388-4.907Z" transform="translate(-33.01 -52.538)" fill="#4b5156"/>
      <path id="Trazado_102901" data-name="Trazado 102901" d="M1759.805,42.847l2.809,1.162-4.939,13.172-5.811,2.524,2.228,3.384-5.909,31.187S1737.432,62.121,1759.805,42.847Z" transform="translate(-33.967 -19.432)" fill="#c12465"/>
      <path id="Trazado_102902" data-name="Trazado 102902" d="M1728.6,46.775l-4.674,12.44,1.96,3.317-2.639,2.413,1.29,29.554,6.669-43.507.711-5.65Z" transform="translate(-26.89 -20.222)" fill="#c12465"/>
    </g>
  </g>
</svg>
