<svg xmlns="http://www.w3.org/2000/svg" width="812" height="107.5" viewBox="0 0 812 107.5">
  <g id="Grupo_54914" data-name="Grupo 54914" transform="translate(-394 -462.5)">
    <g id="Grupo_54913" data-name="Grupo 54913">
      <g id="Grupo_53767" data-name="Grupo 53767" transform="translate(226.075 -809.447)">
        <g id="Rectángulo_5181" data-name="Rectángulo 5181" opacity="0.1">
          <rect id="Rectángulo_5181-2" data-name="Rectángulo 5181" width="812" height="103" transform="translate(167.925 1276.448)" fill="#3366c2"/>
          <rect id="Rectángulo_5182" data-name="Rectángulo 5182" width="811" height="107" transform="translate(168.425 1271.948)" fill="#3366c2"/>
        </g>
        <rect id="Rectángulo_5183" data-name="Rectángulo 5183" width="255.118" height="56.693" rx="15.008" transform="translate(219.807 1289.244)" fill="#fff" stroke="#09909f" stroke-miterlimit="10" stroke-width="2" style="isolation: isolate"/>
        <rect id="Rectángulo_5184" data-name="Rectángulo 5184" width="255.118" height="56.693" rx="15.008" transform="translate(662.154 1289.244)" fill="#fff" stroke="#09909f" stroke-miterlimit="10" stroke-width="2" style="isolation: isolate"/>
        <path id="Trazado_102904" data-name="Trazado 102904" d="M-42.66-3.789A4.025,4.025,0,0,1-44.016-.9,4.76,4.76,0,0,1-47.238.156,4.28,4.28,0,0,1-50.68-1.316a6.038,6.038,0,0,1-1.254-4.043v-.7a6.819,6.819,0,0,1,.578-2.891A4.332,4.332,0,0,1-49.7-10.863a4.629,4.629,0,0,1,2.5-.668,4.637,4.637,0,0,1,3.172,1.055,4.326,4.326,0,0,1,1.391,2.961h-2.344a2.376,2.376,0,0,0-.613-1.6,2.271,2.271,0,0,0-1.605-.5,1.991,1.991,0,0,0-1.754.84,4.707,4.707,0,0,0-.6,2.605V-5.3A5.038,5.038,0,0,0-49-2.609a1.954,1.954,0,0,0,1.762.852,2.314,2.314,0,0,0,1.621-.5A2.241,2.241,0,0,0-45-3.789Zm1.039-.516a5.013,5.013,0,0,1,.484-2.242A3.546,3.546,0,0,1-39.742-8.07a4.069,4.069,0,0,1,2.113-.539,3.849,3.849,0,0,1,2.793,1.047,4.2,4.2,0,0,1,1.207,2.844l.016.578A4.418,4.418,0,0,1-34.7-1.02,3.775,3.775,0,0,1-37.613.156a3.793,3.793,0,0,1-2.918-1.172A4.5,4.5,0,0,1-41.621-4.2Zm2.258.16A3.16,3.16,0,0,0-38.91-2.3a1.5,1.5,0,0,0,1.3.638,1.5,1.5,0,0,0,1.281-.63,3.457,3.457,0,0,0,.461-2.015,3.128,3.128,0,0,0-.461-1.831,1.5,1.5,0,0,0-1.3-.649,1.474,1.474,0,0,0-1.281.646A3.516,3.516,0,0,0-39.363-4.144Zm9.258-4.309.07.945a2.971,2.971,0,0,1,2.43-1.1A2.255,2.255,0,0,1-25.363-7.32a2.9,2.9,0,0,1,2.539-1.289,2.521,2.521,0,0,1,2.047.8,3.681,3.681,0,0,1,.672,2.41V0h-2.266V-5.4a1.616,1.616,0,0,0-.281-1.053,1.245,1.245,0,0,0-.992-.333,1.409,1.409,0,0,0-1.406.971L-25.043,0H-27.3V-5.4A1.6,1.6,0,0,0-27.59-6.46a1.257,1.257,0,0,0-.984-.329,1.463,1.463,0,0,0-1.391.8V0h-2.258V-8.453Zm19.344,4.3a5.07,5.07,0,0,1-.887,3.129A2.843,2.843,0,0,1-14.043.156a2.633,2.633,0,0,1-2.07-.891V3.25h-2.258v-11.7h2.094l.078.828a2.654,2.654,0,0,1,2.141-.984,2.862,2.862,0,0,1,2.43,1.156,5.207,5.207,0,0,1,.867,3.188Zm-2.258-.172a3.345,3.345,0,0,0-.418-1.826,1.36,1.36,0,0,0-1.215-.643,1.478,1.478,0,0,0-1.461.815V-2.5a1.5,1.5,0,0,0,1.477.839Q-13.02-1.664-13.02-4.321Zm3.3.016A5.013,5.013,0,0,1-9.23-6.547,3.546,3.546,0,0,1-7.836-8.07a4.069,4.069,0,0,1,2.113-.539A3.849,3.849,0,0,1-2.93-7.562,4.2,4.2,0,0,1-1.723-4.719l.016.578A4.418,4.418,0,0,1-2.793-1.02,3.775,3.775,0,0,1-5.707.156,3.793,3.793,0,0,1-8.625-1.016,4.5,4.5,0,0,1-9.715-4.2Zm2.258.16A3.16,3.16,0,0,0-7-2.3a1.5,1.5,0,0,0,1.3.638,1.5,1.5,0,0,0,1.281-.63,3.457,3.457,0,0,0,.461-2.015A3.128,3.128,0,0,0-4.426-6.14a1.5,1.5,0,0,0-1.3-.649A1.474,1.474,0,0,0-7-6.144,3.516,3.516,0,0,0-7.457-4.144ZM1.762-8.453l.07.977a2.951,2.951,0,0,1,2.43-1.133,2.453,2.453,0,0,1,2,.789,3.682,3.682,0,0,1,.672,2.359V0H4.676V-5.419a1.47,1.47,0,0,0-.312-1.045,1.4,1.4,0,0,0-1.039-.325,1.553,1.553,0,0,0-1.43.814V0H-.363V-8.453ZM12.535.156A4.15,4.15,0,0,1,9.508-.984,4.054,4.054,0,0,1,8.34-4.023v-.219A5.106,5.106,0,0,1,8.832-6.52a3.612,3.612,0,0,1,1.395-1.547,3.914,3.914,0,0,1,2.059-.543,3.508,3.508,0,0,1,2.73,1.094,4.444,4.444,0,0,1,1,3.1v.922H10.629a2.1,2.1,0,0,0,.66,1.328,2,2,0,0,0,1.395.5,2.437,2.437,0,0,0,2.039-.945l1.109,1.242A3.389,3.389,0,0,1,14.457-.246,4.511,4.511,0,0,1,12.535.156Zm-.258-6.945a1.411,1.411,0,0,0-1.09.455,2.357,2.357,0,0,0-.535,1.3h3.141v-.181a1.681,1.681,0,0,0-.406-1.165A1.456,1.456,0,0,0,12.277-6.789Zm7.094-1.664.07.977a2.951,2.951,0,0,1,2.43-1.133,2.453,2.453,0,0,1,2,.789,3.682,3.682,0,0,1,.672,2.359V0H22.285V-5.419a1.47,1.47,0,0,0-.312-1.045,1.4,1.4,0,0,0-1.039-.325,1.553,1.553,0,0,0-1.43.814V0H17.246V-8.453Zm9.586-2.078v2.078H30.4V-6.8H28.957v4.219a1.007,1.007,0,0,0,.18.672.9.9,0,0,0,.688.2,3.6,3.6,0,0,0,.664-.055V-.047a4.648,4.648,0,0,1-1.367.2,2.156,2.156,0,0,1-2.422-2.4V-6.8H25.465V-8.453H26.7v-2.078ZM35.551.156A4.15,4.15,0,0,1,32.523-.984a4.054,4.054,0,0,1-1.168-3.039v-.219a5.106,5.106,0,0,1,.492-2.277,3.612,3.612,0,0,1,1.395-1.547A3.914,3.914,0,0,1,35.3-8.609a3.508,3.508,0,0,1,2.73,1.094,4.444,4.444,0,0,1,1,3.1v.922H33.645a2.1,2.1,0,0,0,.66,1.328,2,2,0,0,0,1.395.5,2.437,2.437,0,0,0,2.039-.945l1.109,1.242A3.389,3.389,0,0,1,37.473-.246,4.511,4.511,0,0,1,35.551.156Zm-.258-6.945a1.411,1.411,0,0,0-1.09.455,2.357,2.357,0,0,0-.535,1.3h3.141v-.181A1.681,1.681,0,0,0,36.4-6.377,1.456,1.456,0,0,0,35.293-6.789ZM49.684,0H47.426V-8.715l-2.7.832V-9.7l4.711-1.687h.242Z" transform="translate(338.986 1322.693)"/>
        <path id="Trazado_102908" data-name="Trazado 102908" d="M-30.828-5.07a7.053,7.053,0,0,1-2.809-1.363,2.6,2.6,0,0,1-.879-2,2.752,2.752,0,0,1,1.074-2.223,4.269,4.269,0,0,1,2.793-.879,4.66,4.66,0,0,1,2.09.453,3.436,3.436,0,0,1,1.422,1.25,3.2,3.2,0,0,1,.5,1.742h-1.508A2.08,2.08,0,0,0-28.8-9.713a2.669,2.669,0,0,0-1.852-.592,2.732,2.732,0,0,0-1.73.489A1.632,1.632,0,0,0-33-8.458a1.468,1.468,0,0,0,.59,1.178A5.785,5.785,0,0,0-30.4-6.4a9.316,9.316,0,0,1,2.219.88A3.367,3.367,0,0,1-27-4.4a2.861,2.861,0,0,1,.387,1.508A2.658,2.658,0,0,1-27.687-.676,4.6,4.6,0,0,1-30.57.156a5.347,5.347,0,0,1-2.187-.449,3.681,3.681,0,0,1-1.566-1.23A3,3,0,0,1-34.875-3.3h1.508a1.959,1.959,0,0,0,.762,1.629,3.207,3.207,0,0,0,2.035.6,2.948,2.948,0,0,0,1.82-.484,1.573,1.573,0,0,0,.633-1.32A1.545,1.545,0,0,0-28.7-4.168,6.755,6.755,0,0,0-30.828-5.07ZM-23.344,0h-1.445V-8.453h1.445Zm-1.562-10.7a.863.863,0,0,1,.215-.594.807.807,0,0,1,.637-.242.819.819,0,0,1,.641.242.854.854,0,0,1,.219.594.826.826,0,0,1-.219.586.834.834,0,0,1-.641.234.821.821,0,0,1-.637-.234A.834.834,0,0,1-24.906-10.7Zm8.8,8.453a1.064,1.064,0,0,0-.441-.91,4.249,4.249,0,0,0-1.539-.559,7.277,7.277,0,0,1-1.742-.562,2.479,2.479,0,0,1-.953-.781,1.869,1.869,0,0,1-.309-1.078,2.193,2.193,0,0,1,.879-1.758,3.432,3.432,0,0,1,2.246-.719,3.532,3.532,0,0,1,2.332.742,2.357,2.357,0,0,1,.895,1.9H-16.2a1.3,1.3,0,0,0-.5-1.023,1.888,1.888,0,0,0-1.27-.43,1.976,1.976,0,0,0-1.234.344,1.082,1.082,0,0,0-.445.9.877.877,0,0,0,.414.789,5.1,5.1,0,0,0,1.5.508,7.8,7.8,0,0,1,1.754.578,2.558,2.558,0,0,1,1,.809,1.988,1.988,0,0,1,.324,1.152A2.163,2.163,0,0,1-15.57-.527a3.8,3.8,0,0,1-2.352.684,4.257,4.257,0,0,1-1.8-.359,2.922,2.922,0,0,1-1.223-1A2.42,2.42,0,0,1-21.383-2.6h1.445a1.5,1.5,0,0,0,.582,1.152,2.258,2.258,0,0,0,1.434.426,2.331,2.331,0,0,0,1.316-.332A1.02,1.02,0,0,0-16.109-2.242ZM-10.82-10.5v2.047h1.578v1.117H-10.82v5.249a1.173,1.173,0,0,0,.211.763.888.888,0,0,0,.719.254A3.5,3.5,0,0,0-9.2-1.164V0a4.215,4.215,0,0,1-1.109.155A1.8,1.8,0,0,1-11.773-.43a2.517,2.517,0,0,1-.492-1.664V-7.336H-13.8V-8.453h1.539V-10.5ZM-4.047.156a3.693,3.693,0,0,1-2.8-1.129,4.19,4.19,0,0,1-1.078-3.02v-.266A5.073,5.073,0,0,1-7.441-6.5,3.748,3.748,0,0,1-6.1-8.051a3.378,3.378,0,0,1,1.871-.559A3.166,3.166,0,0,1-1.664-7.523,4.7,4.7,0,0,1-.75-4.414v.6H-6.477a3,3,0,0,0,.73,2.02,2.3,2.3,0,0,0,1.777.77,2.517,2.517,0,0,0,1.3-.312,3.259,3.259,0,0,0,.93-.828l.883.688A3.55,3.55,0,0,1-4.047.156Zm-.18-7.578A1.928,1.928,0,0,0-5.7-6.785,3.1,3.1,0,0,0-6.43-5H-2.2v-.109a2.753,2.753,0,0,0-.594-1.707A1.815,1.815,0,0,0-4.227-7.422ZM2.281-8.453l.039.938A3.122,3.122,0,0,1,4.828-8.609,2.417,2.417,0,0,1,7.242-7.25a3.2,3.2,0,0,1,1.1-.984,3.242,3.242,0,0,1,1.6-.375q2.781,0,2.828,2.945V0H11.32V-5.578a1.941,1.941,0,0,0-.414-1.355,1.823,1.823,0,0,0-1.391-.449A1.916,1.916,0,0,0,8.18-6.9a1.949,1.949,0,0,0-.617,1.293V0H6.109V-5.539A1.613,1.613,0,0,0,4.3-7.383,1.934,1.934,0,0,0,2.359-6.172V0H.914V-8.453ZM20.164,0a3.036,3.036,0,0,1-.2-.891A3.225,3.225,0,0,1,17.555.156,2.984,2.984,0,0,1,15.5-.551a2.287,2.287,0,0,1-.8-1.793,2.39,2.39,0,0,1,1-2.051,4.733,4.733,0,0,1,2.824-.73h1.406v-.664A1.623,1.623,0,0,0,19.484-7a1.821,1.821,0,0,0-1.336-.449,2.108,2.108,0,0,0-1.3.391,1.151,1.151,0,0,0-.523.945H14.875a2,2,0,0,1,.449-1.223,3.066,3.066,0,0,1,1.219-.934,4.1,4.1,0,0,1,1.691-.344,3.342,3.342,0,0,1,2.289.73,2.635,2.635,0,0,1,.859,2.012v3.891a4.757,4.757,0,0,0,.3,1.852V0Zm-2.4-1.1a2.54,2.54,0,0,0,1.289-.352,2.127,2.127,0,0,0,.883-.914V-4.1H18.8q-2.656,0-2.656,1.555A1.316,1.316,0,0,0,16.6-1.484,1.742,1.742,0,0,0,17.766-1.1ZM32.211,0H30.758V-9.633l-2.914,1.07V-9.875l4.141-1.555h.227Z" transform="translate(342.146 1366.67)"/>
        <rect id="Rectángulo_5185" data-name="Rectángulo 5185" width="23.528" height="23.528" transform="translate(462.169 1305.827)" fill="#5059ab" style="isolation: isolate"/>
        <path id="Trazado_102905" data-name="Trazado 102905" d="M-42.66-3.789A4.025,4.025,0,0,1-44.016-.9,4.76,4.76,0,0,1-47.238.156,4.28,4.28,0,0,1-50.68-1.316a6.038,6.038,0,0,1-1.254-4.043v-.7a6.819,6.819,0,0,1,.578-2.891A4.332,4.332,0,0,1-49.7-10.863a4.629,4.629,0,0,1,2.5-.668,4.637,4.637,0,0,1,3.172,1.055,4.326,4.326,0,0,1,1.391,2.961h-2.344a2.376,2.376,0,0,0-.613-1.6,2.271,2.271,0,0,0-1.605-.5,1.991,1.991,0,0,0-1.754.84,4.707,4.707,0,0,0-.6,2.605V-5.3A5.038,5.038,0,0,0-49-2.609a1.954,1.954,0,0,0,1.762.852,2.314,2.314,0,0,0,1.621-.5A2.241,2.241,0,0,0-45-3.789Zm1.039-.516a5.013,5.013,0,0,1,.484-2.242A3.546,3.546,0,0,1-39.742-8.07a4.069,4.069,0,0,1,2.113-.539,3.849,3.849,0,0,1,2.793,1.047,4.2,4.2,0,0,1,1.207,2.844l.016.578A4.418,4.418,0,0,1-34.7-1.02,3.775,3.775,0,0,1-37.613.156a3.793,3.793,0,0,1-2.918-1.172A4.5,4.5,0,0,1-41.621-4.2Zm2.258.16A3.16,3.16,0,0,0-38.91-2.3a1.5,1.5,0,0,0,1.3.638,1.5,1.5,0,0,0,1.281-.63,3.457,3.457,0,0,0,.461-2.015,3.128,3.128,0,0,0-.461-1.831,1.5,1.5,0,0,0-1.3-.649,1.474,1.474,0,0,0-1.281.646A3.516,3.516,0,0,0-39.363-4.144Zm9.258-4.309.07.945a2.971,2.971,0,0,1,2.43-1.1A2.255,2.255,0,0,1-25.363-7.32a2.9,2.9,0,0,1,2.539-1.289,2.521,2.521,0,0,1,2.047.8,3.681,3.681,0,0,1,.672,2.41V0h-2.266V-5.4a1.616,1.616,0,0,0-.281-1.053,1.245,1.245,0,0,0-.992-.333,1.409,1.409,0,0,0-1.406.971L-25.043,0H-27.3V-5.4A1.6,1.6,0,0,0-27.59-6.46a1.257,1.257,0,0,0-.984-.329,1.463,1.463,0,0,0-1.391.8V0h-2.258V-8.453Zm19.344,4.3a5.07,5.07,0,0,1-.887,3.129A2.843,2.843,0,0,1-14.043.156a2.633,2.633,0,0,1-2.07-.891V3.25h-2.258v-11.7h2.094l.078.828a2.654,2.654,0,0,1,2.141-.984,2.862,2.862,0,0,1,2.43,1.156,5.207,5.207,0,0,1,.867,3.188Zm-2.258-.172a3.345,3.345,0,0,0-.418-1.826,1.36,1.36,0,0,0-1.215-.643,1.478,1.478,0,0,0-1.461.815V-2.5a1.5,1.5,0,0,0,1.477.839Q-13.02-1.664-13.02-4.321Zm3.3.016A5.013,5.013,0,0,1-9.23-6.547,3.546,3.546,0,0,1-7.836-8.07a4.069,4.069,0,0,1,2.113-.539A3.849,3.849,0,0,1-2.93-7.562,4.2,4.2,0,0,1-1.723-4.719l.016.578A4.418,4.418,0,0,1-2.793-1.02,3.775,3.775,0,0,1-5.707.156,3.793,3.793,0,0,1-8.625-1.016,4.5,4.5,0,0,1-9.715-4.2Zm2.258.16A3.16,3.16,0,0,0-7-2.3a1.5,1.5,0,0,0,1.3.638,1.5,1.5,0,0,0,1.281-.63,3.457,3.457,0,0,0,.461-2.015A3.128,3.128,0,0,0-4.426-6.14a1.5,1.5,0,0,0-1.3-.649A1.474,1.474,0,0,0-7-6.144,3.516,3.516,0,0,0-7.457-4.144ZM1.762-8.453l.07.977a2.951,2.951,0,0,1,2.43-1.133,2.453,2.453,0,0,1,2,.789,3.682,3.682,0,0,1,.672,2.359V0H4.676V-5.419a1.47,1.47,0,0,0-.312-1.045,1.4,1.4,0,0,0-1.039-.325,1.553,1.553,0,0,0-1.43.814V0H-.363V-8.453ZM12.535.156A4.15,4.15,0,0,1,9.508-.984,4.054,4.054,0,0,1,8.34-4.023v-.219A5.106,5.106,0,0,1,8.832-6.52a3.612,3.612,0,0,1,1.395-1.547,3.914,3.914,0,0,1,2.059-.543,3.508,3.508,0,0,1,2.73,1.094,4.444,4.444,0,0,1,1,3.1v.922H10.629a2.1,2.1,0,0,0,.66,1.328,2,2,0,0,0,1.395.5,2.437,2.437,0,0,0,2.039-.945l1.109,1.242A3.389,3.389,0,0,1,14.457-.246,4.511,4.511,0,0,1,12.535.156Zm-.258-6.945a1.411,1.411,0,0,0-1.09.455,2.357,2.357,0,0,0-.535,1.3h3.141v-.181a1.681,1.681,0,0,0-.406-1.165A1.456,1.456,0,0,0,12.277-6.789Zm7.094-1.664.07.977a2.951,2.951,0,0,1,2.43-1.133,2.453,2.453,0,0,1,2,.789,3.682,3.682,0,0,1,.672,2.359V0H22.285V-5.419a1.47,1.47,0,0,0-.312-1.045,1.4,1.4,0,0,0-1.039-.325,1.553,1.553,0,0,0-1.43.814V0H17.246V-8.453Zm9.586-2.078v2.078H30.4V-6.8H28.957v4.219a1.007,1.007,0,0,0,.18.672.9.9,0,0,0,.688.2,3.6,3.6,0,0,0,.664-.055V-.047a4.648,4.648,0,0,1-1.367.2,2.156,2.156,0,0,1-2.422-2.4V-6.8H25.465V-8.453H26.7v-2.078ZM35.551.156A4.15,4.15,0,0,1,32.523-.984a4.054,4.054,0,0,1-1.168-3.039v-.219a5.106,5.106,0,0,1,.492-2.277,3.612,3.612,0,0,1,1.395-1.547A3.914,3.914,0,0,1,35.3-8.609a3.508,3.508,0,0,1,2.73,1.094,4.444,4.444,0,0,1,1,3.1v.922H33.645a2.1,2.1,0,0,0,.66,1.328,2,2,0,0,0,1.395.5,2.437,2.437,0,0,0,2.039-.945l1.109,1.242A3.389,3.389,0,0,1,37.473-.246,4.511,4.511,0,0,1,35.551.156Zm-.258-6.945a1.411,1.411,0,0,0-1.09.455,2.357,2.357,0,0,0-.535,1.3h3.141v-.181A1.681,1.681,0,0,0,36.4-6.377,1.456,1.456,0,0,0,35.293-6.789ZM52,0H44.2V-1.547l3.68-3.922A9.078,9.078,0,0,0,49-6.914a2.322,2.322,0,0,0,.363-1.172,1.738,1.738,0,0,0-.383-1.191,1.382,1.382,0,0,0-1.094-.434,1.49,1.49,0,0,0-1.207.527A2.089,2.089,0,0,0,46.238-7.8H43.973a3.729,3.729,0,0,1,.5-1.9,3.5,3.5,0,0,1,1.4-1.348,4.262,4.262,0,0,1,2.055-.488,4.036,4.036,0,0,1,2.73.844A2.985,2.985,0,0,1,51.629-8.3a3.825,3.825,0,0,1-.437,1.719,9.551,9.551,0,0,1-1.5,2.039L47.105-1.82H52Z" transform="translate(784.925 1322.693)"/>
        <path id="Trazado_102906" data-name="Trazado 102906" d="M-30.828-5.07a7.053,7.053,0,0,1-2.809-1.363,2.6,2.6,0,0,1-.879-2,2.752,2.752,0,0,1,1.074-2.223,4.269,4.269,0,0,1,2.793-.879,4.66,4.66,0,0,1,2.09.453,3.436,3.436,0,0,1,1.422,1.25,3.2,3.2,0,0,1,.5,1.742h-1.508A2.08,2.08,0,0,0-28.8-9.713a2.669,2.669,0,0,0-1.852-.592,2.732,2.732,0,0,0-1.73.489A1.632,1.632,0,0,0-33-8.458a1.468,1.468,0,0,0,.59,1.178A5.785,5.785,0,0,0-30.4-6.4a9.316,9.316,0,0,1,2.219.88A3.367,3.367,0,0,1-27-4.4a2.861,2.861,0,0,1,.387,1.508A2.658,2.658,0,0,1-27.687-.676,4.6,4.6,0,0,1-30.57.156a5.347,5.347,0,0,1-2.187-.449,3.681,3.681,0,0,1-1.566-1.23A3,3,0,0,1-34.875-3.3h1.508a1.959,1.959,0,0,0,.762,1.629,3.207,3.207,0,0,0,2.035.6,2.948,2.948,0,0,0,1.82-.484,1.573,1.573,0,0,0,.633-1.32A1.545,1.545,0,0,0-28.7-4.168,6.755,6.755,0,0,0-30.828-5.07ZM-23.344,0h-1.445V-8.453h1.445Zm-1.562-10.7a.863.863,0,0,1,.215-.594.807.807,0,0,1,.637-.242.819.819,0,0,1,.641.242.854.854,0,0,1,.219.594.826.826,0,0,1-.219.586.834.834,0,0,1-.641.234.821.821,0,0,1-.637-.234A.834.834,0,0,1-24.906-10.7Zm8.8,8.453a1.064,1.064,0,0,0-.441-.91,4.249,4.249,0,0,0-1.539-.559,7.277,7.277,0,0,1-1.742-.562,2.479,2.479,0,0,1-.953-.781,1.869,1.869,0,0,1-.309-1.078,2.193,2.193,0,0,1,.879-1.758,3.432,3.432,0,0,1,2.246-.719,3.532,3.532,0,0,1,2.332.742,2.357,2.357,0,0,1,.895,1.9H-16.2a1.3,1.3,0,0,0-.5-1.023,1.888,1.888,0,0,0-1.27-.43,1.976,1.976,0,0,0-1.234.344,1.082,1.082,0,0,0-.445.9.877.877,0,0,0,.414.789,5.1,5.1,0,0,0,1.5.508,7.8,7.8,0,0,1,1.754.578,2.558,2.558,0,0,1,1,.809,1.988,1.988,0,0,1,.324,1.152A2.163,2.163,0,0,1-15.57-.527a3.8,3.8,0,0,1-2.352.684,4.257,4.257,0,0,1-1.8-.359,2.922,2.922,0,0,1-1.223-1A2.42,2.42,0,0,1-21.383-2.6h1.445a1.5,1.5,0,0,0,.582,1.152,2.258,2.258,0,0,0,1.434.426,2.331,2.331,0,0,0,1.316-.332A1.02,1.02,0,0,0-16.109-2.242ZM-10.82-10.5v2.047h1.578v1.117H-10.82v5.249a1.173,1.173,0,0,0,.211.763.888.888,0,0,0,.719.254A3.5,3.5,0,0,0-9.2-1.164V0a4.215,4.215,0,0,1-1.109.155A1.8,1.8,0,0,1-11.773-.43a2.517,2.517,0,0,1-.492-1.664V-7.336H-13.8V-8.453h1.539V-10.5ZM-4.047.156a3.693,3.693,0,0,1-2.8-1.129,4.19,4.19,0,0,1-1.078-3.02v-.266A5.073,5.073,0,0,1-7.441-6.5,3.748,3.748,0,0,1-6.1-8.051a3.378,3.378,0,0,1,1.871-.559A3.166,3.166,0,0,1-1.664-7.523,4.7,4.7,0,0,1-.75-4.414v.6H-6.477a3,3,0,0,0,.73,2.02,2.3,2.3,0,0,0,1.777.77,2.517,2.517,0,0,0,1.3-.312,3.259,3.259,0,0,0,.93-.828l.883.688A3.55,3.55,0,0,1-4.047.156Zm-.18-7.578A1.928,1.928,0,0,0-5.7-6.785,3.1,3.1,0,0,0-6.43-5H-2.2v-.109a2.753,2.753,0,0,0-.594-1.707A1.815,1.815,0,0,0-4.227-7.422ZM2.281-8.453l.039.938A3.122,3.122,0,0,1,4.828-8.609,2.417,2.417,0,0,1,7.242-7.25a3.2,3.2,0,0,1,1.1-.984,3.242,3.242,0,0,1,1.6-.375q2.781,0,2.828,2.945V0H11.32V-5.578a1.941,1.941,0,0,0-.414-1.355,1.823,1.823,0,0,0-1.391-.449A1.916,1.916,0,0,0,8.18-6.9a1.949,1.949,0,0,0-.617,1.293V0H6.109V-5.539A1.613,1.613,0,0,0,4.3-7.383,1.934,1.934,0,0,0,2.359-6.172V0H.914V-8.453ZM20.164,0a3.036,3.036,0,0,1-.2-.891A3.225,3.225,0,0,1,17.555.156,2.984,2.984,0,0,1,15.5-.551a2.287,2.287,0,0,1-.8-1.793,2.39,2.39,0,0,1,1-2.051,4.733,4.733,0,0,1,2.824-.73h1.406v-.664A1.623,1.623,0,0,0,19.484-7a1.821,1.821,0,0,0-1.336-.449,2.108,2.108,0,0,0-1.3.391,1.151,1.151,0,0,0-.523.945H14.875a2,2,0,0,1,.449-1.223,3.066,3.066,0,0,1,1.219-.934,4.1,4.1,0,0,1,1.691-.344,3.342,3.342,0,0,1,2.289.73,2.635,2.635,0,0,1,.859,2.012v3.891a4.757,4.757,0,0,0,.3,1.852V0Zm-2.4-1.1a2.54,2.54,0,0,0,1.289-.352,2.127,2.127,0,0,0,.883-.914V-4.1H18.8q-2.656,0-2.656,1.555A1.316,1.316,0,0,0,16.6-1.484,1.742,1.742,0,0,0,17.766-1.1ZM34.914,0H27.461V-1.039L31.4-5.414a9.354,9.354,0,0,0,1.207-1.613,2.693,2.693,0,0,0,.332-1.285A2.041,2.041,0,0,0,32.4-9.773a1.885,1.885,0,0,0-1.437-.57,2.232,2.232,0,0,0-1.676.613,2.343,2.343,0,0,0-.6,1.707H27.242a3.355,3.355,0,0,1,1.012-2.539,3.751,3.751,0,0,1,2.707-.969,3.6,3.6,0,0,1,2.508.832,2.838,2.838,0,0,1,.922,2.215q0,1.68-2.141,4L29.2-1.18h5.711Z" transform="translate(784.925 1366.67)"/>
        <rect id="Rectángulo_5186" data-name="Rectángulo 5186" width="23.528" height="23.528" transform="translate(904.516 1305.827)" fill="#5059ab" style="isolation: isolate"/>
        <path id="Trazado_102907" data-name="Trazado 102907" d="M-40.176,0h-1.5V-11.375h1.5Zm3.883-8.453.047,1.063a3.08,3.08,0,0,1,2.531-1.219q2.68,0,2.7,3.023V0h-1.445V-5.594a1.946,1.946,0,0,0-.418-1.352,1.675,1.675,0,0,0-1.277-.437,2.086,2.086,0,0,0-1.234.375,2.546,2.546,0,0,0-.828.984V0H-37.66V-8.453ZM-28.121,0V-7.336h-1.336V-8.453h1.336V-9.32a2.878,2.878,0,0,1,.727-2.1,2.745,2.745,0,0,1,2.055-.742,3.816,3.816,0,0,1,.992.132l-.078,1.165a4.151,4.151,0,0,0-.781-.07,1.41,1.41,0,0,0-1.086.411,1.669,1.669,0,0,0-.383,1.18v.893h1.8v1.117h-1.8V0Zm4.461-4.3a4.993,4.993,0,0,1,.488-2.234A3.643,3.643,0,0,1-21.812-8.07a3.7,3.7,0,0,1,1.988-.539,3.565,3.565,0,0,1,2.793,1.2,4.6,4.6,0,0,1,1.066,3.18v.1a5.036,5.036,0,0,1-.473,2.215A3.589,3.589,0,0,1-17.789-.391a3.743,3.743,0,0,1-2.02.547,3.556,3.556,0,0,1-2.785-1.2A4.575,4.575,0,0,1-23.66-4.2Zm1.453.172a3.616,3.616,0,0,0,.652,2.258,2.088,2.088,0,0,0,1.746.852,2.075,2.075,0,0,0,1.75-.863A3.955,3.955,0,0,0-17.41-4.3a3.61,3.61,0,0,0-.66-2.254,2.1,2.1,0,0,0-1.754-.863,2.075,2.075,0,0,0-1.727.852A3.925,3.925,0,0,0-22.207-4.133Zm12.141-3.023a4.331,4.331,0,0,0-.711-.055A1.9,1.9,0,0,0-12.707-6V0h-1.445V-8.453h1.406l.023.977a2.251,2.251,0,0,1,2.016-1.133,1.477,1.477,0,0,1,.641.109Zm2.688-1.3.039.938A3.122,3.122,0,0,1-4.832-8.609,2.417,2.417,0,0,1-2.418-7.25a3.2,3.2,0,0,1,1.1-.984,3.242,3.242,0,0,1,1.6-.375q2.781,0,2.828,2.945V0H1.66V-5.578a1.941,1.941,0,0,0-.414-1.355A1.823,1.823,0,0,0-.145-7.383,1.916,1.916,0,0,0-1.48-6.9,1.949,1.949,0,0,0-2.1-5.609V0H-3.551V-5.539a1.613,1.613,0,0,0-1.8-1.844A1.934,1.934,0,0,0-7.3-6.172V0H-8.746V-8.453ZM10.5,0a3.036,3.036,0,0,1-.2-.891A3.225,3.225,0,0,1,7.895.156,2.984,2.984,0,0,1,5.844-.551a2.287,2.287,0,0,1-.8-1.793,2.39,2.39,0,0,1,1-2.051,4.733,4.733,0,0,1,2.824-.73h1.406v-.664A1.623,1.623,0,0,0,9.824-7a1.821,1.821,0,0,0-1.336-.449,2.107,2.107,0,0,0-1.3.391,1.151,1.151,0,0,0-.523.945H5.215a2,2,0,0,1,.449-1.223,3.066,3.066,0,0,1,1.219-.934,4.1,4.1,0,0,1,1.691-.344,3.342,3.342,0,0,1,2.289.73,2.635,2.635,0,0,1,.859,2.012v3.891a4.757,4.757,0,0,0,.3,1.852V0Zm-2.4-1.1a2.54,2.54,0,0,0,1.289-.352,2.127,2.127,0,0,0,.883-.914V-4.1H9.145q-2.656,0-2.656,1.555a1.316,1.316,0,0,0,.453,1.063A1.742,1.742,0,0,0,8.105-1.1Zm9.273.078a2.082,2.082,0,0,0,1.352-.469,1.649,1.649,0,0,0,.641-1.172h1.367a2.621,2.621,0,0,1-.5,1.383,3.293,3.293,0,0,1-1.23,1.047,3.55,3.55,0,0,1-1.629.391A3.482,3.482,0,0,1,14.633-1a4.59,4.59,0,0,1-1.02-3.152v-.242a5.089,5.089,0,0,1,.453-2.2,3.451,3.451,0,0,1,1.3-1.492,3.7,3.7,0,0,1,2-.531,3.39,3.39,0,0,1,2.363.852,3.043,3.043,0,0,1,1,2.211H19.371a1.992,1.992,0,0,0-.621-1.348,1.932,1.932,0,0,0-1.379-.527,2.023,2.023,0,0,0-1.707.793,3.724,3.724,0,0,0-.605,2.293v.273a3.65,3.65,0,0,0,.6,2.25A2.033,2.033,0,0,0,17.379-1.023ZM23.934,0H22.488V-8.453h1.445ZM22.371-10.7a.863.863,0,0,1,.215-.594.807.807,0,0,1,.637-.242.819.819,0,0,1,.641.242.854.854,0,0,1,.219.594.826.826,0,0,1-.219.586.834.834,0,0,1-.641.234.821.821,0,0,1-.637-.234A.834.834,0,0,1,22.371-10.7ZM25.863-4.3a4.993,4.993,0,0,1,.488-2.234A3.643,3.643,0,0,1,27.711-8.07,3.7,3.7,0,0,1,29.7-8.609a3.565,3.565,0,0,1,2.793,1.2,4.6,4.6,0,0,1,1.066,3.18v.1a5.036,5.036,0,0,1-.473,2.215A3.589,3.589,0,0,1,31.734-.391a3.743,3.743,0,0,1-2.02.547,3.556,3.556,0,0,1-2.785-1.2A4.575,4.575,0,0,1,25.863-4.2Zm1.453.172a3.616,3.616,0,0,0,.652,2.258,2.088,2.088,0,0,0,1.746.852,2.075,2.075,0,0,0,1.75-.863A3.955,3.955,0,0,0,32.113-4.3a3.61,3.61,0,0,0-.66-2.254A2.1,2.1,0,0,0,29.7-7.422a2.075,2.075,0,0,0-1.727.852A3.925,3.925,0,0,0,27.316-4.133Zm3.039-7.852h1.75l-2.094,2.3-1.164,0Zm6.383,3.531.047,1.063a3.08,3.08,0,0,1,2.531-1.219q2.68,0,2.7,3.023V0H40.574V-5.594a1.946,1.946,0,0,0-.418-1.352,1.675,1.675,0,0,0-1.277-.437,2.086,2.086,0,0,0-1.234.375,2.546,2.546,0,0,0-.828.984V0H35.371V-8.453Z" transform="translate(573.877 1345.937)"/>
        <g id="Grupo_53760" data-name="Grupo 53760">
          <rect id="Rectángulo_5187" data-name="Rectángulo 5187" width="115.112" height="5.669" rx="2.835" transform="translate(516.321 1314.751)" fill="#fff"/>
          <path id="Trazado_100027" data-name="Trazado 100027" d="M628.6,1321.214H519.156a3.628,3.628,0,1,1,0-7.256H628.6a3.628,3.628,0,1,1,0,7.256Zm-109.442-5.67a2.042,2.042,0,0,0,0,4.084H628.6a2.042,2.042,0,0,0,0-4.084Z" fill="#ff0062"/>
        </g>
        <g id="Grupo_53763" data-name="Grupo 53763">
          <g id="Grupo_53762" data-name="Grupo 53762">
            <g id="Grupo_53761" data-name="Grupo 53761">
              <path id="Trazado_100028" data-name="Trazado 100028" d="M636.71,1314.951l-7.464-7.464a3.731,3.731,0,1,0-5.277,5.277l4.826,4.826-4.826,4.825a3.731,3.731,0,1,0,5.277,5.277l7.464-7.464a3.731,3.731,0,0,0,0-5.277Zm-1.319,3.958-7.464,7.464a1.91,1.91,0,0,1-2.638,0,1.867,1.867,0,0,1,0-2.639l6.144-6.144-6.144-6.145a1.866,1.866,0,0,1,2.638-2.64l7.464,7.464a1.869,1.869,0,0,1,0,2.64Z" fill="#ff0062"/>
            </g>
          </g>
        </g>
        <path id="Trazado_100029" data-name="Trazado 100029" d="M635.391,1318.914l-7.464,7.464a1.91,1.91,0,0,1-2.638,0,1.867,1.867,0,0,1,0-2.639l6.144-6.144-6.144-6.145a1.866,1.866,0,0,1,2.638-2.64l7.464,7.464a1.868,1.868,0,0,1,0,2.64Z" fill="#fff"/>
        <g id="Grupo_53766" data-name="Grupo 53766">
          <g id="Grupo_53765" data-name="Grupo 53765">
            <g id="Grupo_53764" data-name="Grupo 53764">
              <path id="Trazado_100030" data-name="Trazado 100030" d="M511.141,1320.23l7.463,7.464a3.731,3.731,0,1,0,5.277-5.277l-4.825-4.825,4.825-4.826a3.731,3.731,0,1,0-5.277-5.277l-7.463,7.464a3.729,3.729,0,0,0,0,5.277Zm1.319-3.958,7.464-7.463a1.908,1.908,0,0,1,2.638,0,1.866,1.866,0,0,1,0,2.638l-6.144,6.145,6.144,6.144a1.866,1.866,0,0,1-2.638,2.64l-7.464-7.463a1.867,1.867,0,0,1,0-2.641Z" fill="#ff0062"/>
            </g>
          </g>
        </g>
        <path id="Trazado_100031" data-name="Trazado 100031" d="M512.46,1316.267l7.464-7.463a1.908,1.908,0,0,1,2.638,0,1.866,1.866,0,0,1,0,2.638l-6.144,6.145,6.144,6.144a1.866,1.866,0,0,1-2.638,2.641l-7.464-7.464a1.867,1.867,0,0,1,0-2.641Z" fill="#fff"/>
      </g>
    </g>
  </g>
</svg>
