<svg xmlns="http://www.w3.org/2000/svg" width="564" height="82" viewBox="0 0 564 82">
  <g id="Grupo_54924" data-name="Grupo 54924" transform="translate(731 10073)">
    <path id="Trazado_102980" data-name="Trazado 102980" d="M15,0H549a15,15,0,0,1,0,30H15A15,15,0,0,1,15,0Z" transform="translate(-731 -10021)" fill="#fff" opacity="0.62"/>
    <g id="Grupo_53792" data-name="Grupo 53792" transform="translate(-1147.094 -12012.083)">
      <path id="Trazado_100050" data-name="Trazado 100050" d="M751.39,2007.921h-23.5a4.558,4.558,0,0,1-4.558-4.558v-59.722a4.558,4.558,0,0,1,4.558-4.558h23.5a4.558,4.558,0,0,1,4.558,4.558v59.722A4.558,4.558,0,0,1,751.39,2007.921Z" fill="#0d0f0f"/>
      <g id="Grupo_53791" data-name="Grupo 53791">
        <rect id="Rectángulo_5207" data-name="Rectángulo 5207" width="22.055" height="5.397" transform="translate(728.615 1996.069)" fill="#64798a"/>
        <rect id="Rectángulo_5208" data-name="Rectángulo 5208" width="22.055" height="5.397" transform="translate(728.615 1986.31)" fill="#64798a"/>
        <rect id="Rectángulo_5209" data-name="Rectángulo 5209" width="22.055" height="5.397" transform="translate(728.615 1976.688)" fill="#64798a"/>
        <circle id="Elipse_4017" data-name="Elipse 4017" cx="4.443" cy="4.443" r="4.443" transform="translate(735.202 1946.371)" fill="#64798a"/>
      </g>
      <rect id="Rectángulo_5210" data-name="Rectángulo 5210" width="19.881" height="6.304" transform="translate(679.08 1998.097)" fill="#64798a"/>
      <path id="Trazado_100051" data-name="Trazado 100051" d="M732.948,1947.744a2.255,2.255,0,0,0-2.451-1.983H647.545a2.255,2.255,0,0,0-2.451,1.983v41.263h87.854Z" fill="#3a556a"/>
      <rect id="Rectángulo_5211" data-name="Rectángulo 5211" width="78.27" height="39.368" transform="translate(649.886 1949.64)" fill="#698cf2"/>
      <path id="Trazado_100052" data-name="Trazado 100052" d="M645.094,1989.007v7.776a2.255,2.255,0,0,0,2.451,1.983H730.5a2.254,2.254,0,0,0,2.451-1.983v-7.776Z" fill="#3a556a"/>
      <circle id="Elipse_4018" data-name="Elipse 4018" cx="2.696" cy="2.696" r="2.696" transform="translate(686.325 1991.189)" fill="#d5d6db"/>
      <path id="Trazado_100053" data-name="Trazado 100053" d="M701.373,2003.946h-24.7a4.514,4.514,0,0,0-4.513,4.513h33.73A4.514,4.514,0,0,0,701.373,2003.946Z" fill="#2f4859"/>
    </g>
    <path id="Trazado_102979" data-name="Trazado 102979" d="M-23.6-5.07a7.053,7.053,0,0,1-2.809-1.363,2.6,2.6,0,0,1-.879-2,2.751,2.751,0,0,1,1.074-2.223,4.269,4.269,0,0,1,2.793-.879,4.66,4.66,0,0,1,2.09.453,3.436,3.436,0,0,1,1.422,1.25,3.2,3.2,0,0,1,.5,1.742H-20.91a2.08,2.08,0,0,0-.656-1.627,2.669,2.669,0,0,0-1.852-.592,2.732,2.732,0,0,0-1.73.489,1.632,1.632,0,0,0-.621,1.358,1.468,1.468,0,0,0,.59,1.178,5.785,5.785,0,0,0,2.008.88,9.316,9.316,0,0,1,2.219.88A3.367,3.367,0,0,1-19.766-4.4a2.861,2.861,0,0,1,.387,1.508A2.658,2.658,0,0,1-20.457-.676,4.6,4.6,0,0,1-23.34.156a5.347,5.347,0,0,1-2.187-.449,3.681,3.681,0,0,1-1.566-1.23A3,3,0,0,1-27.645-3.3h1.508a1.959,1.959,0,0,0,.762,1.629,3.207,3.207,0,0,0,2.035.6,2.948,2.948,0,0,0,1.82-.484,1.573,1.573,0,0,0,.633-1.32,1.545,1.545,0,0,0-.586-1.293A6.755,6.755,0,0,0-23.6-5.07ZM-14.176.156a3.693,3.693,0,0,1-2.8-1.129,4.19,4.19,0,0,1-1.078-3.02v-.266A5.073,5.073,0,0,1-17.57-6.5a3.748,3.748,0,0,1,1.344-1.547,3.378,3.378,0,0,1,1.871-.559,3.166,3.166,0,0,1,2.563,1.086,4.7,4.7,0,0,1,.914,3.109v.6h-5.727a3,3,0,0,0,.73,2.02,2.3,2.3,0,0,0,1.777.77,2.517,2.517,0,0,0,1.3-.312,3.259,3.259,0,0,0,.93-.828l.883.688A3.55,3.55,0,0,1-14.176.156Zm-.18-7.578a1.928,1.928,0,0,0-1.469.637A3.1,3.1,0,0,0-16.559-5h4.234v-.109a2.753,2.753,0,0,0-.594-1.707A1.815,1.815,0,0,0-14.355-7.422Zm9.234.266a4.331,4.331,0,0,0-.711-.055A1.9,1.9,0,0,0-7.762-6V0H-9.207V-8.453H-7.8l.023.977A2.251,2.251,0,0,1-5.762-8.609a1.477,1.477,0,0,1,.641.109Zm4.258,5.2L1.23-8.453H2.707L-.324,0h-1.1L-4.488-8.453h1.477ZM5.668,0H4.223V-8.453H5.668ZM4.105-10.7a.863.863,0,0,1,.215-.594.807.807,0,0,1,.637-.242.819.819,0,0,1,.641.242.854.854,0,0,1,.219.594.826.826,0,0,1-.219.586.834.834,0,0,1-.641.234.821.821,0,0,1-.637-.234A.834.834,0,0,1,4.105-10.7Zm7.266,9.672a2.082,2.082,0,0,0,1.352-.469,1.649,1.649,0,0,0,.641-1.172H14.73a2.621,2.621,0,0,1-.5,1.383A3.293,3.293,0,0,1,13-.234a3.55,3.55,0,0,1-1.629.391A3.482,3.482,0,0,1,8.625-1a4.59,4.59,0,0,1-1.02-3.152v-.242a5.089,5.089,0,0,1,.453-2.2,3.451,3.451,0,0,1,1.3-1.492,3.7,3.7,0,0,1,2-.531,3.39,3.39,0,0,1,2.363.852,3.043,3.043,0,0,1,1,2.211H13.363a1.992,1.992,0,0,0-.621-1.348,1.932,1.932,0,0,0-1.379-.527,2.023,2.023,0,0,0-1.707.793,3.724,3.724,0,0,0-.605,2.293v.273a3.65,3.65,0,0,0,.6,2.25A2.033,2.033,0,0,0,11.371-1.023ZM17.926,0H16.48V-8.453h1.445ZM16.363-10.7a.863.863,0,0,1,.215-.594.807.807,0,0,1,.637-.242.819.819,0,0,1,.641.242.854.854,0,0,1,.219.594.826.826,0,0,1-.219.586.834.834,0,0,1-.641.234.821.821,0,0,1-.637-.234A.834.834,0,0,1,16.363-10.7ZM19.855-4.3a4.993,4.993,0,0,1,.488-2.234A3.643,3.643,0,0,1,21.7-8.07a3.7,3.7,0,0,1,1.988-.539,3.565,3.565,0,0,1,2.793,1.2,4.6,4.6,0,0,1,1.066,3.18v.1a5.036,5.036,0,0,1-.473,2.215A3.589,3.589,0,0,1,25.727-.391a3.743,3.743,0,0,1-2.02.547,3.556,3.556,0,0,1-2.785-1.2A4.575,4.575,0,0,1,19.855-4.2Zm1.453.172a3.616,3.616,0,0,0,.652,2.258,2.088,2.088,0,0,0,1.746.852,2.075,2.075,0,0,0,1.75-.863A3.955,3.955,0,0,0,26.105-4.3a3.61,3.61,0,0,0-.66-2.254,2.1,2.1,0,0,0-1.754-.863,2.075,2.075,0,0,0-1.727.852A3.925,3.925,0,0,0,21.309-4.133Z" transform="translate(-456.909 -10037.441)" fill="#fff"/>
    <g id="Grupo_54807" data-name="Grupo 54807" transform="translate(-943.856 -12525.498) rotate(-9)">
      <path id="Trazado_102456" data-name="Trazado 102456" d="M50.126,2571.987v-27.125c4.019-7.243-6.7-13.183.646-17.027H93.947a2.481,2.481,0,0,1,2.48,2.48v41.672a2.481,2.481,0,0,1-2.48,2.48H52.606a2.481,2.481,0,0,1-2.48-2.48Z" transform="translate(-65.016 -25.874)" fill="#e9f3fe"/>
      <path id="Trazado_102457" data-name="Trazado 102457" d="M-11.583,2530.315v44.152h-15.71a2.481,2.481,0,0,1-2.48-2.48v-41.672a2.481,2.481,0,0,1,2.48-2.48h13.229a2.481,2.481,0,0,1,2.48,2.48Z" transform="translate(0 -25.874)" fill="#a7d0fc"/>
      <path id="Trazado_102458" data-name="Trazado 102458" d="M11.369,2530.315v44.152H.207a2.481,2.481,0,0,1-2.48-2.48v-41.672a2.481,2.481,0,0,1,2.48-2.48H8.889a2.481,2.481,0,0,1,2.48,2.48Z" transform="translate(-22.953 -25.874)" fill="#c8e2fd"/>
      <path id="Trazado_102459" data-name="Trazado 102459" d="M143.3,2579.315v17.841H112.707a2.48,2.48,0,0,1-2.48-2.48v-15.36a2.481,2.481,0,0,1,2.48-2.48h28.112a2.481,2.481,0,0,1,2.48,2.48Z" transform="translate(-116.849 -66.771)" fill="#c8e2fd"/>
      <path id="Trazado_102460" data-name="Trazado 102460" d="M31.411,2499.315v6.118H-29.773v-6.118a2.48,2.48,0,0,1,2.48-2.48H28.931A2.481,2.481,0,0,1,31.411,2499.315Z" transform="translate(0)" fill="#86befb"/>
      <path id="Trazado_102461" data-name="Trazado 102461" d="M-22.745,2496.835a2.48,2.48,0,0,0-2.48,2.48v6.118h-4.547v-6.118a2.48,2.48,0,0,1,2.48-2.48Z" transform="translate(0)" fill="#76b6fa"/>
      <path id="Trazado_102462" data-name="Trazado 102462" d="M-11.793,2516.575a1.24,1.24,0,0,1-1.24,1.24,1.24,1.24,0,0,1-1.24-1.24,1.24,1.24,0,0,1,1.24-1.24A1.24,1.24,0,0,1-11.793,2516.575Zm3.679-1.2a1.24,1.24,0,0,0-1.24,1.24,1.24,1.24,0,0,0,1.24,1.24,1.24,1.24,0,0,0,1.24-1.24A1.24,1.24,0,0,0-8.113,2515.376Zm4.92.041a1.24,1.24,0,0,0-1.24,1.24,1.24,1.24,0,0,0,1.24,1.24,1.24,1.24,0,0,0,1.24-1.24A1.24,1.24,0,0,0-3.194,2515.417Z" transform="translate(-12.937 -15.441)" fill="#3493f8"/>
      <path id="Trazado_102463" data-name="Trazado 102463" d="M-3.757,2579.728a1.24,1.24,0,0,1-1.24,1.24h-9.095a1.24,1.24,0,0,1-1.24-1.24,1.24,1.24,0,0,1,1.24-1.24H-5A1.24,1.24,0,0,1-3.757,2579.728Z" transform="translate(-12.053 -68.151)" fill="#76b6fa"/>
      <path id="Trazado_102464" data-name="Trazado 102464" d="M-5,2621.359h-9.095a1.24,1.24,0,0,1-1.24-1.24,1.24,1.24,0,0,1,1.24-1.24H-5a1.24,1.24,0,0,1,1.24,1.24A1.24,1.24,0,0,1-5,2621.359Zm1.24,8.682A1.24,1.24,0,0,0-5,2628.8h-9.095a1.24,1.24,0,0,0-1.24,1.24,1.24,1.24,0,0,0,1.24,1.24H-5A1.24,1.24,0,0,0-3.757,2630.041Zm-3.307-4.961a1.24,1.24,0,0,0-1.24-1.24h-5.788a1.24,1.24,0,0,0-1.24,1.24,1.24,1.24,0,0,0,1.24,1.24H-8.3A1.24,1.24,0,0,0-7.064,2625.08Zm0,9.922a1.24,1.24,0,0,0-1.24-1.24h-5.788a1.24,1.24,0,0,0-1.24,1.24,1.24,1.24,0,0,0,1.24,1.24H-8.3A1.24,1.24,0,0,0-7.064,2635Zm0-25.273a1.24,1.24,0,0,0-1.24-1.24h-5.788a1.24,1.24,0,0,0-1.24,1.24,1.24,1.24,0,0,0,1.24,1.24H-8.3A1.24,1.24,0,0,0-7.064,2609.728Z" transform="translate(-12.053 -93.19)" fill="#86befb"/>
      <path id="Trazado_102465" data-name="Trazado 102465" d="M131.295,2619.119h-17.44a1.24,1.24,0,0,1,0-2.48h17.44a1.24,1.24,0,0,1,0,2.48Zm-12.065-24.391a1.24,1.24,0,0,0-1.24-1.24h-4.134a1.24,1.24,0,0,0,0,2.48h4.134A1.24,1.24,0,0,0,119.23,2594.728Zm-4.134,4.134a1.24,1.24,0,1,0-1.24,1.24A1.24,1.24,0,0,0,115.1,2598.862Zm17.44,23.62a1.24,1.24,0,0,0-1.24-1.24h-17.44a1.24,1.24,0,0,0,0,2.48h17.44A1.24,1.24,0,0,0,132.535,2622.482Zm3.057-23.847-2.908-2.336a5.248,5.248,0,0,0-6.647.06l-7,5.835a5.248,5.248,0,0,1-3.36,1.216h-5.449v5.165a2.481,2.481,0,0,0,2.48,2.48H143.3v-11.921l-3.567.588a5.248,5.248,0,0,1-4.14-1.087Z" transform="translate(-116.849 -80.67)" fill="#a7d0fc"/>
    </g>
    <g id="Grupo_54808" data-name="Grupo 54808" transform="matrix(0.966, 0.259, -0.259, 0.966, 309.381, -12470.938)">
      <path id="Trazado_102456-2" data-name="Trazado 102456" d="M50.126,2571.987v-27.125c4.019-7.243-6.7-13.183.646-17.027H93.947a2.481,2.481,0,0,1,2.48,2.48v41.672a2.481,2.481,0,0,1-2.48,2.48H52.606a2.481,2.481,0,0,1-2.48-2.48Z" transform="translate(-65.016 -25.874)" fill="#e9f3fe"/>
      <path id="Trazado_102457-2" data-name="Trazado 102457" d="M-11.583,2530.315v44.152h-15.71a2.481,2.481,0,0,1-2.48-2.48v-41.672a2.481,2.481,0,0,1,2.48-2.48h13.229a2.481,2.481,0,0,1,2.48,2.48Z" transform="translate(0 -25.874)" fill="#a7d0fc"/>
      <path id="Trazado_102458-2" data-name="Trazado 102458" d="M11.369,2530.315v44.152H.207a2.481,2.481,0,0,1-2.48-2.48v-41.672a2.481,2.481,0,0,1,2.48-2.48H8.889a2.481,2.481,0,0,1,2.48,2.48Z" transform="translate(-22.953 -25.874)" fill="#c8e2fd"/>
      <path id="Trazado_102459-2" data-name="Trazado 102459" d="M143.3,2579.315v17.841H112.707a2.48,2.48,0,0,1-2.48-2.48v-15.36a2.481,2.481,0,0,1,2.48-2.48h28.112a2.481,2.481,0,0,1,2.48,2.48Z" transform="translate(-116.849 -66.771)" fill="#c8e2fd"/>
      <path id="Trazado_102460-2" data-name="Trazado 102460" d="M31.411,2499.315v6.118H-29.773v-6.118a2.48,2.48,0,0,1,2.48-2.48H28.931A2.481,2.481,0,0,1,31.411,2499.315Z" transform="translate(0)" fill="#86befb"/>
      <path id="Trazado_102461-2" data-name="Trazado 102461" d="M-22.745,2496.835a2.48,2.48,0,0,0-2.48,2.48v6.118h-4.547v-6.118a2.48,2.48,0,0,1,2.48-2.48Z" transform="translate(0)" fill="#76b6fa"/>
      <path id="Trazado_102462-2" data-name="Trazado 102462" d="M-11.793,2516.575a1.24,1.24,0,0,1-1.24,1.24,1.24,1.24,0,0,1-1.24-1.24,1.24,1.24,0,0,1,1.24-1.24A1.24,1.24,0,0,1-11.793,2516.575Zm3.679-1.2a1.24,1.24,0,0,0-1.24,1.24,1.24,1.24,0,0,0,1.24,1.24,1.24,1.24,0,0,0,1.24-1.24A1.24,1.24,0,0,0-8.113,2515.376Zm4.92.041a1.24,1.24,0,0,0-1.24,1.24,1.24,1.24,0,0,0,1.24,1.24,1.24,1.24,0,0,0,1.24-1.24A1.24,1.24,0,0,0-3.194,2515.417Z" transform="translate(-12.937 -15.441)" fill="#3493f8"/>
      <path id="Trazado_102463-2" data-name="Trazado 102463" d="M-3.757,2579.728a1.24,1.24,0,0,1-1.24,1.24h-9.095a1.24,1.24,0,0,1-1.24-1.24,1.24,1.24,0,0,1,1.24-1.24H-5A1.24,1.24,0,0,1-3.757,2579.728Z" transform="translate(-12.053 -68.151)" fill="#76b6fa"/>
      <path id="Trazado_102464-2" data-name="Trazado 102464" d="M-5,2621.359h-9.095a1.24,1.24,0,0,1-1.24-1.24,1.24,1.24,0,0,1,1.24-1.24H-5a1.24,1.24,0,0,1,1.24,1.24A1.24,1.24,0,0,1-5,2621.359Zm1.24,8.682A1.24,1.24,0,0,0-5,2628.8h-9.095a1.24,1.24,0,0,0-1.24,1.24,1.24,1.24,0,0,0,1.24,1.24H-5A1.24,1.24,0,0,0-3.757,2630.041Zm-3.307-4.961a1.24,1.24,0,0,0-1.24-1.24h-5.788a1.24,1.24,0,0,0-1.24,1.24,1.24,1.24,0,0,0,1.24,1.24H-8.3A1.24,1.24,0,0,0-7.064,2625.08Zm0,9.922a1.24,1.24,0,0,0-1.24-1.24h-5.788a1.24,1.24,0,0,0-1.24,1.24,1.24,1.24,0,0,0,1.24,1.24H-8.3A1.24,1.24,0,0,0-7.064,2635Zm0-25.273a1.24,1.24,0,0,0-1.24-1.24h-5.788a1.24,1.24,0,0,0-1.24,1.24,1.24,1.24,0,0,0,1.24,1.24H-8.3A1.24,1.24,0,0,0-7.064,2609.728Z" transform="translate(-12.053 -93.19)" fill="#86befb"/>
      <path id="Trazado_102465-2" data-name="Trazado 102465" d="M131.295,2619.119h-17.44a1.24,1.24,0,0,1,0-2.48h17.44a1.24,1.24,0,0,1,0,2.48Zm-12.065-24.391a1.24,1.24,0,0,0-1.24-1.24h-4.134a1.24,1.24,0,0,0,0,2.48h4.134A1.24,1.24,0,0,0,119.23,2594.728Zm-4.134,4.134a1.24,1.24,0,1,0-1.24,1.24A1.24,1.24,0,0,0,115.1,2598.862Zm17.44,23.62a1.24,1.24,0,0,0-1.24-1.24h-17.44a1.24,1.24,0,0,0,0,2.48h17.44A1.24,1.24,0,0,0,132.535,2622.482Zm3.057-23.847-2.908-2.336a5.248,5.248,0,0,0-6.647.06l-7,5.835a5.248,5.248,0,0,1-3.36,1.216h-5.449v5.165a2.481,2.481,0,0,0,2.48,2.48H143.3v-11.921l-3.567.588a5.248,5.248,0,0,1-4.14-1.087Z" transform="translate(-116.849 -80.67)" fill="#a7d0fc"/>
    </g>
  </g>
</svg>
