<svg xmlns="http://www.w3.org/2000/svg" width="525.607" height="69.376" viewBox="0 0 525.607 69.376">
  <g id="Grupo_54922" data-name="Grupo 54922" transform="translate(721.847 9428.688)">
    <path id="Trazado_102987" data-name="Trazado 102987" d="M12.707,0H182.886a12.707,12.707,0,0,1,12.707,12.707V43.986a12.707,12.707,0,0,1-12.707,12.707H12.707A12.707,12.707,0,0,1,0,43.986V12.707A12.707,12.707,0,0,1,12.707,0Z" transform="translate(-721 -9418.622)" fill="#fff" stroke="#09909f" stroke-width="1.693"/>
    <path id="Trazado_102989" data-name="Trazado 102989" d="M-42.66-3.789A4.025,4.025,0,0,1-44.016-.9,4.76,4.76,0,0,1-47.238.156,4.28,4.28,0,0,1-50.68-1.316a6.038,6.038,0,0,1-1.254-4.043v-.7a6.819,6.819,0,0,1,.578-2.891A4.332,4.332,0,0,1-49.7-10.863a4.629,4.629,0,0,1,2.5-.668,4.637,4.637,0,0,1,3.172,1.055,4.326,4.326,0,0,1,1.391,2.961h-2.344a2.376,2.376,0,0,0-.613-1.6,2.271,2.271,0,0,0-1.605-.5,1.991,1.991,0,0,0-1.754.84,4.707,4.707,0,0,0-.6,2.605V-5.3A5.038,5.038,0,0,0-49-2.609a1.954,1.954,0,0,0,1.762.852,2.314,2.314,0,0,0,1.621-.5A2.241,2.241,0,0,0-45-3.789Zm1.039-.516a5.013,5.013,0,0,1,.484-2.242A3.546,3.546,0,0,1-39.742-8.07a4.069,4.069,0,0,1,2.113-.539,3.849,3.849,0,0,1,2.793,1.047,4.2,4.2,0,0,1,1.207,2.844l.016.578A4.418,4.418,0,0,1-34.7-1.02,3.775,3.775,0,0,1-37.613.156a3.793,3.793,0,0,1-2.918-1.172A4.5,4.5,0,0,1-41.621-4.2Zm2.258.16A3.16,3.16,0,0,0-38.91-2.3a1.5,1.5,0,0,0,1.3.638,1.5,1.5,0,0,0,1.281-.63,3.457,3.457,0,0,0,.461-2.015,3.128,3.128,0,0,0-.461-1.831,1.5,1.5,0,0,0-1.3-.649,1.474,1.474,0,0,0-1.281.646A3.516,3.516,0,0,0-39.363-4.144Zm9.258-4.309.07.945a2.971,2.971,0,0,1,2.43-1.1A2.255,2.255,0,0,1-25.363-7.32a2.9,2.9,0,0,1,2.539-1.289,2.521,2.521,0,0,1,2.047.8,3.681,3.681,0,0,1,.672,2.41V0h-2.266V-5.4a1.616,1.616,0,0,0-.281-1.053,1.245,1.245,0,0,0-.992-.333,1.409,1.409,0,0,0-1.406.971L-25.043,0H-27.3V-5.4A1.6,1.6,0,0,0-27.59-6.46a1.257,1.257,0,0,0-.984-.329,1.463,1.463,0,0,0-1.391.8V0h-2.258V-8.453Zm19.344,4.3a5.07,5.07,0,0,1-.887,3.129A2.843,2.843,0,0,1-14.043.156a2.633,2.633,0,0,1-2.07-.891V3.25h-2.258v-11.7h2.094l.078.828a2.654,2.654,0,0,1,2.141-.984,2.862,2.862,0,0,1,2.43,1.156,5.207,5.207,0,0,1,.867,3.188Zm-2.258-.172a3.345,3.345,0,0,0-.418-1.826,1.36,1.36,0,0,0-1.215-.643,1.478,1.478,0,0,0-1.461.815V-2.5a1.5,1.5,0,0,0,1.477.839Q-13.02-1.664-13.02-4.321Zm3.3.016A5.013,5.013,0,0,1-9.23-6.547,3.546,3.546,0,0,1-7.836-8.07a4.069,4.069,0,0,1,2.113-.539A3.849,3.849,0,0,1-2.93-7.562,4.2,4.2,0,0,1-1.723-4.719l.016.578A4.418,4.418,0,0,1-2.793-1.02,3.775,3.775,0,0,1-5.707.156,3.793,3.793,0,0,1-8.625-1.016,4.5,4.5,0,0,1-9.715-4.2Zm2.258.16A3.16,3.16,0,0,0-7-2.3a1.5,1.5,0,0,0,1.3.638,1.5,1.5,0,0,0,1.281-.63,3.457,3.457,0,0,0,.461-2.015A3.128,3.128,0,0,0-4.426-6.14a1.5,1.5,0,0,0-1.3-.649A1.474,1.474,0,0,0-7-6.144,3.516,3.516,0,0,0-7.457-4.144ZM1.762-8.453l.07.977a2.951,2.951,0,0,1,2.43-1.133,2.453,2.453,0,0,1,2,.789,3.682,3.682,0,0,1,.672,2.359V0H4.676V-5.419a1.47,1.47,0,0,0-.312-1.045,1.4,1.4,0,0,0-1.039-.325,1.553,1.553,0,0,0-1.43.814V0H-.363V-8.453ZM12.535.156A4.15,4.15,0,0,1,9.508-.984,4.054,4.054,0,0,1,8.34-4.023v-.219A5.106,5.106,0,0,1,8.832-6.52a3.612,3.612,0,0,1,1.395-1.547,3.914,3.914,0,0,1,2.059-.543,3.508,3.508,0,0,1,2.73,1.094,4.444,4.444,0,0,1,1,3.1v.922H10.629a2.1,2.1,0,0,0,.66,1.328,2,2,0,0,0,1.395.5,2.437,2.437,0,0,0,2.039-.945l1.109,1.242A3.389,3.389,0,0,1,14.457-.246,4.511,4.511,0,0,1,12.535.156Zm-.258-6.945a1.411,1.411,0,0,0-1.09.455,2.357,2.357,0,0,0-.535,1.3h3.141v-.181a1.681,1.681,0,0,0-.406-1.165A1.456,1.456,0,0,0,12.277-6.789Zm7.094-1.664.07.977a2.951,2.951,0,0,1,2.43-1.133,2.453,2.453,0,0,1,2,.789,3.682,3.682,0,0,1,.672,2.359V0H22.285V-5.419a1.47,1.47,0,0,0-.312-1.045,1.4,1.4,0,0,0-1.039-.325,1.553,1.553,0,0,0-1.43.814V0H17.246V-8.453Zm9.586-2.078v2.078H30.4V-6.8H28.957v4.219a1.007,1.007,0,0,0,.18.672.9.9,0,0,0,.688.2,3.6,3.6,0,0,0,.664-.055V-.047a4.648,4.648,0,0,1-1.367.2,2.156,2.156,0,0,1-2.422-2.4V-6.8H25.465V-8.453H26.7v-2.078ZM35.551.156A4.15,4.15,0,0,1,32.523-.984a4.054,4.054,0,0,1-1.168-3.039v-.219a5.106,5.106,0,0,1,.492-2.277,3.612,3.612,0,0,1,1.395-1.547A3.914,3.914,0,0,1,35.3-8.609a3.508,3.508,0,0,1,2.73,1.094,4.444,4.444,0,0,1,1,3.1v.922H33.645a2.1,2.1,0,0,0,.66,1.328,2,2,0,0,0,1.395.5,2.437,2.437,0,0,0,2.039-.945l1.109,1.242A3.389,3.389,0,0,1,37.473-.246,4.511,4.511,0,0,1,35.551.156Zm-.258-6.945a1.411,1.411,0,0,0-1.09.455,2.357,2.357,0,0,0-.535,1.3h3.141v-.181A1.681,1.681,0,0,0,36.4-6.377,1.456,1.456,0,0,0,35.293-6.789ZM49.684,0H47.426V-8.715l-2.7.832V-9.7l4.711-1.687h.242Z" transform="translate(-625.203 -9385.173)"/>
    <path id="Trazado_102986" data-name="Trazado 102986" d="M-32.246,0V-11.375h3.211a5.169,5.169,0,0,1,2.625.656,4.438,4.438,0,0,1,1.762,1.867A6.078,6.078,0,0,1-24.02-6.07v.727a6.1,6.1,0,0,1-.621,2.82A4.369,4.369,0,0,1-26.414-.664,5.5,5.5,0,0,1-29.1,0Zm1.5-10.148v8.922h1.578a3.434,3.434,0,0,0,2.7-1.079A4.458,4.458,0,0,0-25.5-5.379v-.665a4.529,4.529,0,0,0-.91-3.014A3.239,3.239,0,0,0-29-10.148ZM-18.473.156a3.693,3.693,0,0,1-2.8-1.129,4.19,4.19,0,0,1-1.078-3.02v-.266a5.073,5.073,0,0,1,.48-2.246,3.748,3.748,0,0,1,1.344-1.547,3.378,3.378,0,0,1,1.871-.559A3.166,3.166,0,0,1-16.09-7.523a4.7,4.7,0,0,1,.914,3.109v.6H-20.9a3,3,0,0,0,.73,2.02,2.3,2.3,0,0,0,1.777.77,2.517,2.517,0,0,0,1.3-.312,3.259,3.259,0,0,0,.93-.828l.883.688A3.55,3.55,0,0,1-18.473.156Zm-.18-7.578a1.928,1.928,0,0,0-1.469.637A3.1,3.1,0,0,0-20.855-5h4.234v-.109a2.753,2.753,0,0,0-.594-1.707A1.815,1.815,0,0,0-18.652-7.422Zm10.07,5.18a1.064,1.064,0,0,0-.441-.91,4.249,4.249,0,0,0-1.539-.559A7.277,7.277,0,0,1-12.3-4.273a2.479,2.479,0,0,1-.953-.781,1.869,1.869,0,0,1-.309-1.078,2.193,2.193,0,0,1,.879-1.758,3.432,3.432,0,0,1,2.246-.719,3.532,3.532,0,0,1,2.332.742,2.357,2.357,0,0,1,.895,1.9H-8.668a1.3,1.3,0,0,0-.5-1.023,1.888,1.888,0,0,0-1.27-.43,1.976,1.976,0,0,0-1.234.344,1.082,1.082,0,0,0-.445.9.877.877,0,0,0,.414.789,5.1,5.1,0,0,0,1.5.508A7.8,7.8,0,0,1-8.457-4.3a2.558,2.558,0,0,1,1,.809,1.988,1.988,0,0,1,.324,1.152A2.163,2.163,0,0,1-8.043-.527a3.8,3.8,0,0,1-2.352.684,4.257,4.257,0,0,1-1.8-.359,2.922,2.922,0,0,1-1.223-1A2.42,2.42,0,0,1-13.855-2.6h1.445a1.5,1.5,0,0,0,.582,1.152,2.258,2.258,0,0,0,1.434.426,2.331,2.331,0,0,0,1.316-.332A1.02,1.02,0,0,0-8.582-2.242Zm6.719,1.219A2.082,2.082,0,0,0-.512-1.492,1.649,1.649,0,0,0,.129-2.664H1.5A2.621,2.621,0,0,1,1-1.281,3.293,3.293,0,0,1-.234-.234,3.55,3.55,0,0,1-1.863.156,3.482,3.482,0,0,1-4.609-1a4.59,4.59,0,0,1-1.02-3.152v-.242a5.089,5.089,0,0,1,.453-2.2,3.451,3.451,0,0,1,1.3-1.492,3.7,3.7,0,0,1,2-.531,3.39,3.39,0,0,1,2.363.852,3.043,3.043,0,0,1,1,2.211H.129A1.992,1.992,0,0,0-.492-6.895a1.932,1.932,0,0,0-1.379-.527,2.023,2.023,0,0,0-1.707.793,3.724,3.724,0,0,0-.605,2.293v.273a3.65,3.65,0,0,0,.6,2.25A2.033,2.033,0,0,0-1.863-1.023Zm10.2.188A3.07,3.07,0,0,1,5.863.156,2.628,2.628,0,0,1,3.8-.629,3.4,3.4,0,0,1,3.09-2.953v-5.5H4.535v5.461Q4.535-1.07,6.1-1.07A2.163,2.163,0,0,0,8.3-2.3V-8.453H9.746V0H8.371ZM19.1-4.133a5.026,5.026,0,0,1-.891,3.113A2.846,2.846,0,0,1,15.816.156,2.947,2.947,0,0,1,13.34-.977L13.27,0H11.941V-12h1.445v4.477A2.93,2.93,0,0,1,15.8-8.609a2.863,2.863,0,0,1,2.418,1.164A5.177,5.177,0,0,1,19.1-4.258ZM17.652-4.3a3.906,3.906,0,0,0-.57-2.281,1.888,1.888,0,0,0-1.641-.8,2.122,2.122,0,0,0-2.055,1.328V-2.4a2.181,2.181,0,0,0,2.07,1.328,1.878,1.878,0,0,0,1.617-.8A4.153,4.153,0,0,0,17.652-4.3ZM25-7.156a4.331,4.331,0,0,0-.711-.055A1.9,1.9,0,0,0,22.363-6V0H20.918V-8.453h1.406l.023.977a2.251,2.251,0,0,1,2.016-1.133A1.477,1.477,0,0,1,25-8.5ZM29.691.156a3.693,3.693,0,0,1-2.8-1.129,4.19,4.19,0,0,1-1.078-3.02v-.266A5.073,5.073,0,0,1,26.3-6.5a3.748,3.748,0,0,1,1.344-1.547,3.378,3.378,0,0,1,1.871-.559,3.166,3.166,0,0,1,2.563,1.086,4.7,4.7,0,0,1,.914,3.109v.6H27.262a3,3,0,0,0,.73,2.02,2.3,2.3,0,0,0,1.777.77,2.517,2.517,0,0,0,1.3-.312A3.259,3.259,0,0,0,32-2.164l.883.688A3.55,3.55,0,0,1,29.691.156Zm-.18-7.578a1.928,1.928,0,0,0-1.469.637A3.1,3.1,0,0,0,27.309-5h4.234v-.109a2.753,2.753,0,0,0-.594-1.707A1.815,1.815,0,0,0,29.512-7.422Z" transform="translate(-411.279 -9366.522)"/>
    <path id="Trazado_102988" data-name="Trazado 102988" d="M0,0H23.528V23.528H0Z" transform="translate(-538.162 -9402.039)" fill="#5059ab"/>
    <g id="Grupo_53814" data-name="Grupo 53814" transform="translate(-952.187 -11367.771)">
      <path id="Trazado_100068" data-name="Trazado 100068" d="M751.39,2007.921h-23.5a4.558,4.558,0,0,1-4.558-4.558v-59.722a4.558,4.558,0,0,1,4.558-4.558h23.5a4.558,4.558,0,0,1,4.558,4.558v59.722A4.558,4.558,0,0,1,751.39,2007.921Z" fill="#0d0f0f"/>
      <g id="Grupo_53813" data-name="Grupo 53813">
        <rect id="Rectángulo_5223" data-name="Rectángulo 5223" width="22.055" height="5.397" transform="translate(728.615 1996.069)" fill="#64798a"/>
        <rect id="Rectángulo_5224" data-name="Rectángulo 5224" width="22.055" height="5.397" transform="translate(728.615 1986.31)" fill="#64798a"/>
        <rect id="Rectángulo_5225" data-name="Rectángulo 5225" width="22.055" height="5.397" transform="translate(728.615 1976.688)" fill="#64798a"/>
        <circle id="Elipse_4021" data-name="Elipse 4021" cx="4.443" cy="4.443" r="4.443" transform="translate(735.202 1946.371)" fill="#64798a"/>
      </g>
      <rect id="Rectángulo_5226" data-name="Rectángulo 5226" width="19.881" height="6.304" transform="translate(679.08 1998.097)" fill="#64798a"/>
      <path id="Trazado_100069" data-name="Trazado 100069" d="M732.948,1947.744a2.255,2.255,0,0,0-2.451-1.983H647.545a2.255,2.255,0,0,0-2.451,1.983v41.263h87.854Z" fill="#3a556a"/>
      <rect id="Rectángulo_5227" data-name="Rectángulo 5227" width="78.27" height="39.368" transform="translate(649.886 1949.64)" fill="#698cf2"/>
      <path id="Trazado_100070" data-name="Trazado 100070" d="M645.094,1989.007v7.776a2.255,2.255,0,0,0,2.451,1.983H730.5a2.254,2.254,0,0,0,2.451-1.983v-7.776Z" fill="#3a556a"/>
      <circle id="Elipse_4022" data-name="Elipse 4022" cx="2.696" cy="2.696" r="2.696" transform="translate(686.325 1991.189)" fill="#d5d6db"/>
      <path id="Trazado_100071" data-name="Trazado 100071" d="M701.373,2003.946h-24.7a4.514,4.514,0,0,0-4.513,4.513h33.73A4.514,4.514,0,0,0,701.373,2003.946Z" fill="#2f4859"/>
    </g>
    <g id="Grupo_53822" data-name="Grupo 53822" transform="translate(-952.187 -11367.771)">
      <g id="Grupo_53815" data-name="Grupo 53815">
        <rect id="Rectángulo_5228" data-name="Rectángulo 5228" width="156.852" height="5.669" rx="2.835" transform="translate(462.474 1973.849)" fill="#fff"/>
        <path id="Trazado_100072" data-name="Trazado 100072" d="M616.49,1980.311H465.309a3.628,3.628,0,1,1,0-7.256H616.49a3.628,3.628,0,1,1,0,7.256Zm-151.181-5.67a2.042,2.042,0,0,0,0,4.084H616.49a2.042,2.042,0,0,0,0-4.084Z" fill="#ff0062"/>
      </g>
      <g id="Grupo_53818" data-name="Grupo 53818">
        <g id="Grupo_53817" data-name="Grupo 53817">
          <g id="Grupo_53816" data-name="Grupo 53816">
            <path id="Trazado_100073" data-name="Trazado 100073" d="M624.6,1974.049l-7.463-7.464a3.731,3.731,0,1,0-5.277,5.277l4.825,4.825-4.825,4.826a3.731,3.731,0,1,0,5.277,5.277l7.463-7.464a3.729,3.729,0,0,0,0-5.277Zm-1.319,3.958-7.464,7.463a1.907,1.907,0,0,1-2.638,0,1.866,1.866,0,0,1,0-2.638l6.144-6.145-6.144-6.144a1.866,1.866,0,0,1,2.638-2.64l7.464,7.463a1.867,1.867,0,0,1,0,2.641Z" fill="#ff0062"/>
          </g>
        </g>
      </g>
      <path id="Trazado_100074" data-name="Trazado 100074" d="M623.283,1978.012l-7.464,7.463a1.907,1.907,0,0,1-2.638,0,1.866,1.866,0,0,1,0-2.638l6.144-6.145-6.144-6.144a1.866,1.866,0,0,1,2.638-2.641l7.464,7.464a1.867,1.867,0,0,1,0,2.641Z" fill="#fff"/>
      <g id="Grupo_53821" data-name="Grupo 53821">
        <g id="Grupo_53820" data-name="Grupo 53820">
          <g id="Grupo_53819" data-name="Grupo 53819">
            <path id="Trazado_100075" data-name="Trazado 100075" d="M457.294,1979.328l7.463,7.464a3.731,3.731,0,1,0,5.277-5.277l-4.825-4.826,4.825-4.825a3.731,3.731,0,1,0-5.277-5.277l-7.463,7.464a3.729,3.729,0,0,0,0,5.277Zm1.319-3.958,7.464-7.464a1.91,1.91,0,0,1,2.638,0,1.867,1.867,0,0,1,0,2.639l-6.144,6.144,6.144,6.145a1.866,1.866,0,0,1-2.638,2.64l-7.464-7.464a1.866,1.866,0,0,1,0-2.64Z" fill="#ff0062"/>
          </g>
        </g>
      </g>
      <path id="Trazado_100076" data-name="Trazado 100076" d="M458.613,1975.365l7.464-7.464a1.91,1.91,0,0,1,2.638,0,1.867,1.867,0,0,1,0,2.639l-6.144,6.144,6.144,6.145a1.866,1.866,0,0,1-2.638,2.64l-7.464-7.464a1.866,1.866,0,0,1,0-2.64Z" fill="#fff"/>
    </g>
    <path id="Trazado_102990" data-name="Trazado 102990" d="M-23.6-5.07a7.053,7.053,0,0,1-2.809-1.363,2.6,2.6,0,0,1-.879-2,2.751,2.751,0,0,1,1.074-2.223,4.269,4.269,0,0,1,2.793-.879,4.66,4.66,0,0,1,2.09.453,3.436,3.436,0,0,1,1.422,1.25,3.2,3.2,0,0,1,.5,1.742H-20.91a2.08,2.08,0,0,0-.656-1.627,2.669,2.669,0,0,0-1.852-.592,2.732,2.732,0,0,0-1.73.489,1.632,1.632,0,0,0-.621,1.358,1.468,1.468,0,0,0,.59,1.178,5.785,5.785,0,0,0,2.008.88,9.316,9.316,0,0,1,2.219.88A3.367,3.367,0,0,1-19.766-4.4a2.861,2.861,0,0,1,.387,1.508A2.658,2.658,0,0,1-20.457-.676,4.6,4.6,0,0,1-23.34.156a5.347,5.347,0,0,1-2.187-.449,3.681,3.681,0,0,1-1.566-1.23A3,3,0,0,1-27.645-3.3h1.508a1.959,1.959,0,0,0,.762,1.629,3.207,3.207,0,0,0,2.035.6,2.948,2.948,0,0,0,1.82-.484,1.573,1.573,0,0,0,.633-1.32,1.545,1.545,0,0,0-.586-1.293A6.755,6.755,0,0,0-23.6-5.07ZM-14.176.156a3.693,3.693,0,0,1-2.8-1.129,4.19,4.19,0,0,1-1.078-3.02v-.266A5.073,5.073,0,0,1-17.57-6.5a3.748,3.748,0,0,1,1.344-1.547,3.378,3.378,0,0,1,1.871-.559,3.166,3.166,0,0,1,2.563,1.086,4.7,4.7,0,0,1,.914,3.109v.6h-5.727a3,3,0,0,0,.73,2.02,2.3,2.3,0,0,0,1.777.77,2.517,2.517,0,0,0,1.3-.312,3.259,3.259,0,0,0,.93-.828l.883.688A3.55,3.55,0,0,1-14.176.156Zm-.18-7.578a1.928,1.928,0,0,0-1.469.637A3.1,3.1,0,0,0-16.559-5h4.234v-.109a2.753,2.753,0,0,0-.594-1.707A1.815,1.815,0,0,0-14.355-7.422Zm9.234.266a4.331,4.331,0,0,0-.711-.055A1.9,1.9,0,0,0-7.762-6V0H-9.207V-8.453H-7.8l.023.977A2.251,2.251,0,0,1-5.762-8.609a1.477,1.477,0,0,1,.641.109Zm4.258,5.2L1.23-8.453H2.707L-.324,0h-1.1L-4.488-8.453h1.477ZM5.668,0H4.223V-8.453H5.668ZM4.105-10.7a.863.863,0,0,1,.215-.594.807.807,0,0,1,.637-.242.819.819,0,0,1,.641.242.854.854,0,0,1,.219.594.826.826,0,0,1-.219.586.834.834,0,0,1-.641.234.821.821,0,0,1-.637-.234A.834.834,0,0,1,4.105-10.7Zm7.266,9.672a2.082,2.082,0,0,0,1.352-.469,1.649,1.649,0,0,0,.641-1.172H14.73a2.621,2.621,0,0,1-.5,1.383A3.293,3.293,0,0,1,13-.234a3.55,3.55,0,0,1-1.629.391A3.482,3.482,0,0,1,8.625-1a4.59,4.59,0,0,1-1.02-3.152v-.242a5.089,5.089,0,0,1,.453-2.2,3.451,3.451,0,0,1,1.3-1.492,3.7,3.7,0,0,1,2-.531,3.39,3.39,0,0,1,2.363.852,3.043,3.043,0,0,1,1,2.211H13.363a1.992,1.992,0,0,0-.621-1.348,1.932,1.932,0,0,0-1.379-.527,2.023,2.023,0,0,0-1.707.793,3.724,3.724,0,0,0-.605,2.293v.273a3.65,3.65,0,0,0,.6,2.25A2.033,2.033,0,0,0,11.371-1.023ZM17.926,0H16.48V-8.453h1.445ZM16.363-10.7a.863.863,0,0,1,.215-.594.807.807,0,0,1,.637-.242.819.819,0,0,1,.641.242.854.854,0,0,1,.219.594.826.826,0,0,1-.219.586.834.834,0,0,1-.641.234.821.821,0,0,1-.637-.234A.834.834,0,0,1,16.363-10.7ZM19.855-4.3a4.993,4.993,0,0,1,.488-2.234A3.643,3.643,0,0,1,21.7-8.07a3.7,3.7,0,0,1,1.988-.539,3.565,3.565,0,0,1,2.793,1.2,4.6,4.6,0,0,1,1.066,3.18v.1a5.036,5.036,0,0,1-.473,2.215A3.589,3.589,0,0,1,25.727-.391a3.743,3.743,0,0,1-2.02.547,3.556,3.556,0,0,1-2.785-1.2A4.575,4.575,0,0,1,19.855-4.2Zm1.453.172a3.616,3.616,0,0,0,.652,2.258,2.088,2.088,0,0,0,1.746.852,2.075,2.075,0,0,0,1.75-.863A3.955,3.955,0,0,0,26.105-4.3a3.61,3.61,0,0,0-.66-2.254,2.1,2.1,0,0,0-1.754-.863,2.075,2.075,0,0,0-1.727.852A3.925,3.925,0,0,0,21.309-4.133Z" transform="translate(-262.002 -9393.131)" fill="#fff"/>
  </g>
</svg>
