<svg xmlns="http://www.w3.org/2000/svg" width="1020" height="402.418" viewBox="0 0 1020 402.418">
  <g id="Grupo_54914" data-name="Grupo 54914" transform="translate(-290 -1776)">
    <g id="Grupo_53383" data-name="Grupo 53383" transform="translate(6 -77)">
      <g id="Grupo_53332" data-name="Grupo 53332" transform="translate(37 -42)">
        <g id="Grupo_53381" data-name="Grupo 53381" transform="translate(455 1895)">
          <g id="Grupo_53329" data-name="Grupo 53329" transform="translate(0)">
            <rect id="Rectángulo_5087" data-name="Rectángulo 5087" width="157" height="31" transform="translate(224 344)" fill="#3366c2"/>
            <path id="Rectángulo_5088" data-name="Rectángulo 5088" d="M27,0H331a27,27,0,0,1,27,27v4a0,0,0,0,1,0,0H0a0,0,0,0,1,0,0V27A27,27,0,0,1,27,0Z" transform="translate(123 371)" fill="#698cf2"/>
            <rect id="Rectángulo_5085" data-name="Rectángulo 5085" width="604" height="352" rx="16" fill="#698cf2"/>
            <rect id="Rectángulo_5086" data-name="Rectángulo 5086" width="575" height="303" rx="17" transform="translate(13 13)" fill="#fff"/>
          </g>
        </g>
      </g>
    </g>
    <g id="Grupo_53382" data-name="Grupo 53382" transform="translate(21 -101)">
      <path id="Trazado_102910" data-name="Trazado 102910" d="M-25.17-4.6h-4.313v3.527h5.011V0H-30.8V-9.953h6.255V-8.88h-4.942v3.206h4.313Zm6.439,2.639a.931.931,0,0,0-.386-.8,3.718,3.718,0,0,0-1.347-.489,6.367,6.367,0,0,1-1.524-.492,2.169,2.169,0,0,1-.834-.684,1.635,1.635,0,0,1-.27-.943A1.919,1.919,0,0,1-22.323-6.9a3,3,0,0,1,1.965-.629,3.091,3.091,0,0,1,2.041.649,2.063,2.063,0,0,1,.783,1.661h-1.271a1.142,1.142,0,0,0-.441-.9,1.652,1.652,0,0,0-1.111-.376,1.729,1.729,0,0,0-1.08.3.947.947,0,0,0-.39.786.767.767,0,0,0,.362.69,4.458,4.458,0,0,0,1.309.444,6.821,6.821,0,0,1,1.535.506,2.239,2.239,0,0,1,.872.708,1.74,1.74,0,0,1,.284,1.008,1.893,1.893,0,0,1-.793,1.589,3.326,3.326,0,0,1-2.058.6,3.725,3.725,0,0,1-1.572-.314,2.557,2.557,0,0,1-1.07-.878,2.117,2.117,0,0,1-.386-1.22h1.265a1.309,1.309,0,0,0,.509,1.008A1.976,1.976,0,0,0-20.316-.9a2.039,2.039,0,0,0,1.152-.291A.893.893,0,0,0-18.73-1.962ZM-14.1-9.187V-7.4h1.381v.978H-14.1v4.593a1.027,1.027,0,0,0,.185.667.777.777,0,0,0,.629.222,3.062,3.062,0,0,0,.6-.082V0a3.688,3.688,0,0,1-.971.136,1.575,1.575,0,0,1-1.278-.513,2.2,2.2,0,0,1-.431-1.456V-6.419h-1.347V-7.4h1.347V-9.187ZM-7.67-6.262a3.79,3.79,0,0,0-.622-.048A1.667,1.667,0,0,0-9.98-5.25V0h-1.265V-7.4h1.23l.021.854A1.969,1.969,0,0,1-8.23-7.533a1.292,1.292,0,0,1,.561.1Zm5.729,5.53A2.686,2.686,0,0,1-4.108.137,2.3,2.3,0,0,1-5.91-.55a2.974,2.974,0,0,1-.625-2.034V-7.4h1.265v4.778q0,1.682,1.367,1.682a1.893,1.893,0,0,0,1.928-1.08V-7.4H-.711V0h-1.2ZM4.177-.9a1.822,1.822,0,0,0,1.183-.41A1.443,1.443,0,0,0,5.92-2.331h1.2a2.293,2.293,0,0,1-.437,1.21A2.881,2.881,0,0,1,5.6-.205,3.107,3.107,0,0,1,4.177.137a3.047,3.047,0,0,1-2.4-1.008A4.016,4.016,0,0,1,.882-3.63v-.212a4.453,4.453,0,0,1,.4-1.921A3.02,3.02,0,0,1,2.417-7.068,3.233,3.233,0,0,1,4.17-7.533a2.966,2.966,0,0,1,2.068.745,2.663,2.663,0,0,1,.878,1.935H5.92a1.743,1.743,0,0,0-.543-1.179A1.691,1.691,0,0,0,4.17-6.494,1.77,1.77,0,0,0,2.676-5.8a3.259,3.259,0,0,0-.53,2.006v.239a3.194,3.194,0,0,0,.526,1.969A1.779,1.779,0,0,0,4.177-.9Zm6.077-8.292V-7.4h1.381v.978H10.254v4.593a1.027,1.027,0,0,0,.185.667.777.777,0,0,0,.629.222,3.062,3.062,0,0,0,.6-.082V0A3.688,3.688,0,0,1,10.7.137,1.575,1.575,0,0,1,9.42-.376a2.2,2.2,0,0,1-.431-1.456V-6.419H7.643V-7.4H8.989V-9.187ZM17.678-.731a2.686,2.686,0,0,1-2.167.868,2.3,2.3,0,0,1-1.8-.687,2.974,2.974,0,0,1-.625-2.034V-7.4h1.265v4.778q0,1.682,1.367,1.682a1.893,1.893,0,0,0,1.928-1.08V-7.4h1.265V0h-1.2ZM24.4-6.262a3.79,3.79,0,0,0-.622-.048,1.667,1.667,0,0,0-1.688,1.06V0H20.829V-7.4h1.23l.021.854a1.969,1.969,0,0,1,1.764-.991,1.292,1.292,0,0,1,.561.1ZM29.859,0a2.657,2.657,0,0,1-.178-.779,2.822,2.822,0,0,1-2.105.916,2.611,2.611,0,0,1-1.794-.619,2,2,0,0,1-.7-1.569,2.091,2.091,0,0,1,.878-1.794,4.142,4.142,0,0,1,2.471-.639h1.23v-.581a1.42,1.42,0,0,0-.4-1.056A1.593,1.593,0,0,0,28.1-6.515a1.844,1.844,0,0,0-1.135.342,1.007,1.007,0,0,0-.458.827H25.231a1.745,1.745,0,0,1,.393-1.07,2.683,2.683,0,0,1,1.066-.817,3.588,3.588,0,0,1,1.48-.3,2.924,2.924,0,0,1,2,.639,2.306,2.306,0,0,1,.752,1.76v3.4a4.162,4.162,0,0,0,.26,1.62V0Zm-2.1-.964a2.223,2.223,0,0,0,1.128-.308,1.861,1.861,0,0,0,.772-.8V-3.589H28.67q-2.324,0-2.324,1.36a1.151,1.151,0,0,0,.4.93A1.524,1.524,0,0,0,27.761-.964ZM-21.967,10.4h-4.313v3.527h5.011V15h-6.323V5.047h6.255V6.12h-4.942V9.326h4.313Zm6.439,2.639a.931.931,0,0,0-.386-.8,3.718,3.718,0,0,0-1.347-.489,6.367,6.367,0,0,1-1.524-.492,2.169,2.169,0,0,1-.834-.684,1.635,1.635,0,0,1-.27-.943A1.919,1.919,0,0,1-19.12,8.1a3,3,0,0,1,1.965-.629,3.091,3.091,0,0,1,2.041.649,2.063,2.063,0,0,1,.783,1.661H-15.6a1.142,1.142,0,0,0-.441-.9,1.652,1.652,0,0,0-1.111-.376,1.729,1.729,0,0,0-1.08.3.947.947,0,0,0-.39.786.767.767,0,0,0,.362.69,4.458,4.458,0,0,0,1.309.444,6.821,6.821,0,0,1,1.535.506,2.239,2.239,0,0,1,.872.708,1.74,1.74,0,0,1,.284,1.008,1.893,1.893,0,0,1-.793,1.589,3.326,3.326,0,0,1-2.058.6,3.725,3.725,0,0,1-1.572-.314,2.557,2.557,0,0,1-1.07-.878,2.117,2.117,0,0,1-.386-1.22h1.265a1.309,1.309,0,0,0,.509,1.008,1.976,1.976,0,0,0,1.254.373,2.039,2.039,0,0,0,1.152-.291A.893.893,0,0,0-15.528,13.038ZM-10.9,5.813V7.6h1.381v.978H-10.9v4.593a1.027,1.027,0,0,0,.185.667.777.777,0,0,0,.629.222,3.062,3.062,0,0,0,.6-.082V15a3.688,3.688,0,0,1-.971.136,1.575,1.575,0,0,1-1.278-.513,2.2,2.2,0,0,1-.431-1.456V8.581h-1.347V7.6h1.347V5.813ZM-3.476,15a2.657,2.657,0,0,1-.178-.779,2.822,2.822,0,0,1-2.105.916,2.611,2.611,0,0,1-1.794-.619,2,2,0,0,1-.7-1.569,2.091,2.091,0,0,1,.878-1.794A4.142,4.142,0,0,1-4.9,10.516h1.23V9.935a1.42,1.42,0,0,0-.4-1.056A1.593,1.593,0,0,0-5.24,8.485a1.844,1.844,0,0,0-1.135.342,1.007,1.007,0,0,0-.458.827H-8.1a1.745,1.745,0,0,1,.393-1.07,2.683,2.683,0,0,1,1.066-.817,3.588,3.588,0,0,1,1.48-.3,2.924,2.924,0,0,1,2,.639,2.306,2.306,0,0,1,.752,1.76v3.4a4.162,4.162,0,0,0,.26,1.62V15Zm-2.1-.964a2.223,2.223,0,0,0,1.128-.308,1.861,1.861,0,0,0,.772-.8V11.411h-.991q-2.324,0-2.324,1.36a1.151,1.151,0,0,0,.4.93A1.524,1.524,0,0,0-5.575,14.036Zm1.169-9.522h1.531l-1.832,2.01-1.019,0Zm5.694,1.3V7.6H2.669v.978H1.289v4.593a1.027,1.027,0,0,0,.185.667.777.777,0,0,0,.629.222,3.062,3.062,0,0,0,.6-.082V15a3.688,3.688,0,0,1-.971.136,1.575,1.575,0,0,1-1.278-.513,2.2,2.2,0,0,1-.431-1.456V8.581H-1.323V7.6H.024V5.813ZM5.52,15H4.255V7.6H5.52ZM4.153,5.642a.755.755,0,0,1,.188-.52A.706.706,0,0,1,4.9,4.91a.717.717,0,0,1,.561.212.747.747,0,0,1,.191.52.722.722,0,0,1-.191.513.73.73,0,0,1-.561.205.718.718,0,0,1-.557-.205A.73.73,0,0,1,4.153,5.642ZM10.51,14.1a1.822,1.822,0,0,0,1.183-.41,1.443,1.443,0,0,0,.561-1.025h1.2a2.293,2.293,0,0,1-.437,1.21,2.881,2.881,0,0,1-1.077.916,3.107,3.107,0,0,1-1.425.342,3.047,3.047,0,0,1-2.4-1.008,4.016,4.016,0,0,1-.892-2.758v-.212a4.453,4.453,0,0,1,.4-1.921A3.02,3.02,0,0,1,8.75,7.932,3.233,3.233,0,0,1,10.5,7.467a2.966,2.966,0,0,1,2.068.745,2.663,2.663,0,0,1,.878,1.935h-1.2a1.743,1.743,0,0,0-.543-1.179A1.691,1.691,0,0,0,10.5,8.506,1.77,1.77,0,0,0,9.01,9.2a3.259,3.259,0,0,0-.53,2.006v.239a3.194,3.194,0,0,0,.526,1.969A1.779,1.779,0,0,0,10.51,14.1Zm8.928.9a2.657,2.657,0,0,1-.178-.779,2.822,2.822,0,0,1-2.105.916,2.611,2.611,0,0,1-1.794-.619,2,2,0,0,1-.7-1.569,2.091,2.091,0,0,1,.878-1.794,4.142,4.142,0,0,1,2.471-.639h1.23V9.935a1.42,1.42,0,0,0-.4-1.056,1.593,1.593,0,0,0-1.169-.393,1.844,1.844,0,0,0-1.135.342,1.007,1.007,0,0,0-.458.827H14.81a1.745,1.745,0,0,1,.393-1.07,2.683,2.683,0,0,1,1.066-.817,3.588,3.588,0,0,1,1.48-.3,2.924,2.924,0,0,1,2,.639,2.306,2.306,0,0,1,.752,1.76v3.4a4.162,4.162,0,0,0,.26,1.62V15Zm-2.1-.964a2.223,2.223,0,0,0,1.128-.308,1.861,1.861,0,0,0,.772-.8V11.411h-.991q-2.324,0-2.324,1.36a1.151,1.151,0,0,0,.4.93A1.524,1.524,0,0,0,17.339,14.036Zm9.454-1a.931.931,0,0,0-.386-.8,3.718,3.718,0,0,0-1.347-.489,6.367,6.367,0,0,1-1.524-.492,2.169,2.169,0,0,1-.834-.684,1.635,1.635,0,0,1-.27-.943A1.919,1.919,0,0,1,23.2,8.1a3,3,0,0,1,1.965-.629,3.091,3.091,0,0,1,2.041.649,2.063,2.063,0,0,1,.783,1.661H26.718a1.142,1.142,0,0,0-.441-.9,1.652,1.652,0,0,0-1.111-.376,1.729,1.729,0,0,0-1.08.3.947.947,0,0,0-.39.786.767.767,0,0,0,.362.69,4.458,4.458,0,0,0,1.309.444,6.821,6.821,0,0,1,1.535.506,2.239,2.239,0,0,1,.872.708,1.74,1.74,0,0,1,.284,1.008,1.893,1.893,0,0,1-.793,1.589,3.326,3.326,0,0,1-2.058.6,3.725,3.725,0,0,1-1.572-.314,2.557,2.557,0,0,1-1.07-.878,2.117,2.117,0,0,1-.386-1.22h1.265a1.309,1.309,0,0,0,.509,1.008,1.976,1.976,0,0,0,1.254.373,2.039,2.039,0,0,0,1.152-.291A.893.893,0,0,0,26.793,13.038Z" transform="translate(585 2112)" fill="#12263f"/>
      <path id="Trazado_102909" data-name="Trazado 102909" d="M-25.17-4.6h-4.313v3.527h5.011V0H-30.8V-9.953h6.255V-8.88h-4.942v3.206h4.313Zm6.439,2.639a.931.931,0,0,0-.386-.8,3.718,3.718,0,0,0-1.347-.489,6.367,6.367,0,0,1-1.524-.492,2.169,2.169,0,0,1-.834-.684,1.635,1.635,0,0,1-.27-.943A1.919,1.919,0,0,1-22.323-6.9a3,3,0,0,1,1.965-.629,3.091,3.091,0,0,1,2.041.649,2.063,2.063,0,0,1,.783,1.661h-1.271a1.142,1.142,0,0,0-.441-.9,1.652,1.652,0,0,0-1.111-.376,1.729,1.729,0,0,0-1.08.3.947.947,0,0,0-.39.786.767.767,0,0,0,.362.69,4.458,4.458,0,0,0,1.309.444,6.821,6.821,0,0,1,1.535.506,2.239,2.239,0,0,1,.872.708,1.74,1.74,0,0,1,.284,1.008,1.893,1.893,0,0,1-.793,1.589,3.326,3.326,0,0,1-2.058.6,3.725,3.725,0,0,1-1.572-.314,2.557,2.557,0,0,1-1.07-.878,2.117,2.117,0,0,1-.386-1.22h1.265a1.309,1.309,0,0,0,.509,1.008A1.976,1.976,0,0,0-20.316-.9a2.039,2.039,0,0,0,1.152-.291A.893.893,0,0,0-18.73-1.962ZM-14.1-9.187V-7.4h1.381v.978H-14.1v4.593a1.027,1.027,0,0,0,.185.667.777.777,0,0,0,.629.222,3.062,3.062,0,0,0,.6-.082V0a3.688,3.688,0,0,1-.971.136,1.575,1.575,0,0,1-1.278-.513,2.2,2.2,0,0,1-.431-1.456V-6.419h-1.347V-7.4h1.347V-9.187ZM-7.67-6.262a3.79,3.79,0,0,0-.622-.048A1.667,1.667,0,0,0-9.98-5.25V0h-1.265V-7.4h1.23l.021.854A1.969,1.969,0,0,1-8.23-7.533a1.292,1.292,0,0,1,.561.1Zm5.729,5.53A2.686,2.686,0,0,1-4.108.137,2.3,2.3,0,0,1-5.91-.55a2.974,2.974,0,0,1-.625-2.034V-7.4h1.265v4.778q0,1.682,1.367,1.682a1.893,1.893,0,0,0,1.928-1.08V-7.4H-.711V0h-1.2ZM4.177-.9a1.822,1.822,0,0,0,1.183-.41A1.443,1.443,0,0,0,5.92-2.331h1.2a2.293,2.293,0,0,1-.437,1.21A2.881,2.881,0,0,1,5.6-.205,3.107,3.107,0,0,1,4.177.137a3.047,3.047,0,0,1-2.4-1.008A4.016,4.016,0,0,1,.882-3.63v-.212a4.453,4.453,0,0,1,.4-1.921A3.02,3.02,0,0,1,2.417-7.068,3.233,3.233,0,0,1,4.17-7.533a2.966,2.966,0,0,1,2.068.745,2.663,2.663,0,0,1,.878,1.935H5.92a1.743,1.743,0,0,0-.543-1.179A1.691,1.691,0,0,0,4.17-6.494,1.77,1.77,0,0,0,2.676-5.8a3.259,3.259,0,0,0-.53,2.006v.239a3.194,3.194,0,0,0,.526,1.969A1.779,1.779,0,0,0,4.177-.9Zm6.077-8.292V-7.4h1.381v.978H10.254v4.593a1.027,1.027,0,0,0,.185.667.777.777,0,0,0,.629.222,3.062,3.062,0,0,0,.6-.082V0A3.688,3.688,0,0,1,10.7.137,1.575,1.575,0,0,1,9.42-.376a2.2,2.2,0,0,1-.431-1.456V-6.419H7.643V-7.4H8.989V-9.187ZM17.678-.731a2.686,2.686,0,0,1-2.167.868,2.3,2.3,0,0,1-1.8-.687,2.974,2.974,0,0,1-.625-2.034V-7.4h1.265v4.778q0,1.682,1.367,1.682a1.893,1.893,0,0,0,1.928-1.08V-7.4h1.265V0h-1.2ZM24.4-6.262a3.79,3.79,0,0,0-.622-.048,1.667,1.667,0,0,0-1.688,1.06V0H20.829V-7.4h1.23l.021.854a1.969,1.969,0,0,1,1.764-.991,1.292,1.292,0,0,1,.561.1ZM29.859,0a2.657,2.657,0,0,1-.178-.779,2.822,2.822,0,0,1-2.105.916,2.611,2.611,0,0,1-1.794-.619,2,2,0,0,1-.7-1.569,2.091,2.091,0,0,1,.878-1.794,4.142,4.142,0,0,1,2.471-.639h1.23v-.581a1.42,1.42,0,0,0-.4-1.056A1.593,1.593,0,0,0,28.1-6.515a1.844,1.844,0,0,0-1.135.342,1.007,1.007,0,0,0-.458.827H25.231a1.745,1.745,0,0,1,.393-1.07,2.683,2.683,0,0,1,1.066-.817,3.588,3.588,0,0,1,1.48-.3,2.924,2.924,0,0,1,2,.639,2.306,2.306,0,0,1,.752,1.76v3.4a4.162,4.162,0,0,0,.26,1.62V0Zm-2.1-.964a2.223,2.223,0,0,0,1.128-.308,1.861,1.861,0,0,0,.772-.8V-3.589H28.67q-2.324,0-2.324,1.36a1.151,1.151,0,0,0,.4.93A1.524,1.524,0,0,0,27.761-.964ZM-31.719,15V5.047h2.81a4.523,4.523,0,0,1,2.3.574,3.884,3.884,0,0,1,1.542,1.634,5.318,5.318,0,0,1,.55,2.434v.636a5.336,5.336,0,0,1-.543,2.468,3.823,3.823,0,0,1-1.552,1.627A4.811,4.811,0,0,1-28.964,15Zm1.313-8.88v7.807h1.381a3,3,0,0,0,2.362-.944,3.9,3.9,0,0,0,.844-2.689V9.712a3.963,3.963,0,0,0-.8-2.637,2.834,2.834,0,0,0-2.259-.954ZM-21.362,15h-1.265V7.6h1.265Zm-1.367-9.358a.755.755,0,0,1,.188-.52.706.706,0,0,1,.557-.212.717.717,0,0,1,.561.212.747.747,0,0,1,.191.52.722.722,0,0,1-.191.513.73.73,0,0,1-.561.205.718.718,0,0,1-.557-.205A.73.73,0,0,1-22.729,5.642ZM-18.143,7.6l.041.93a2.7,2.7,0,0,1,2.215-1.066q2.345,0,2.365,2.646V15h-1.265V10.105a1.7,1.7,0,0,0-.366-1.183A1.466,1.466,0,0,0-16.27,8.54a1.825,1.825,0,0,0-1.08.328,2.228,2.228,0,0,0-.725.861V15h-1.265V7.6ZM-7.048,15a2.657,2.657,0,0,1-.178-.779,2.822,2.822,0,0,1-2.105.916,2.611,2.611,0,0,1-1.794-.619,2,2,0,0,1-.7-1.569,2.091,2.091,0,0,1,.878-1.794,4.142,4.142,0,0,1,2.471-.639h1.23V9.935a1.42,1.42,0,0,0-.4-1.056,1.593,1.593,0,0,0-1.169-.393,1.844,1.844,0,0,0-1.135.342,1.007,1.007,0,0,0-.458.827h-1.271a1.745,1.745,0,0,1,.393-1.07,2.683,2.683,0,0,1,1.066-.817,3.588,3.588,0,0,1,1.48-.3,2.924,2.924,0,0,1,2,.639,2.306,2.306,0,0,1,.752,1.76v3.4a4.162,4.162,0,0,0,.26,1.62V15Zm-2.1-.964a2.223,2.223,0,0,0,1.128-.308,1.861,1.861,0,0,0,.772-.8V11.411h-.991q-2.324,0-2.324,1.36a1.151,1.151,0,0,0,.4.93A1.524,1.524,0,0,0-9.146,14.036Zm1.169-9.522h1.531l-1.832,2.01-1.019,0ZM-2.81,7.6l.034.82A2.732,2.732,0,0,1-.581,7.467,2.115,2.115,0,0,1,1.531,8.656a2.8,2.8,0,0,1,.96-.861,2.837,2.837,0,0,1,1.4-.328q2.434,0,2.475,2.577V15H5.1V10.119a1.7,1.7,0,0,0-.362-1.186A1.6,1.6,0,0,0,3.521,8.54a1.677,1.677,0,0,0-1.169.42,1.706,1.706,0,0,0-.54,1.131V15H.54V10.153A1.411,1.411,0,0,0-1.039,8.54a1.692,1.692,0,0,0-1.7,1.06V15H-4.006V7.6ZM9.646,15H8.381V7.6H9.646ZM8.278,5.642a.755.755,0,0,1,.188-.52.706.706,0,0,1,.557-.212.717.717,0,0,1,.561.212.747.747,0,0,1,.191.52.722.722,0,0,1-.191.513.73.73,0,0,1-.561.205.718.718,0,0,1-.557-.205A.73.73,0,0,1,8.278,5.642ZM14.636,14.1a1.822,1.822,0,0,0,1.183-.41,1.443,1.443,0,0,0,.561-1.025h1.2a2.293,2.293,0,0,1-.437,1.21,2.881,2.881,0,0,1-1.077.916,3.107,3.107,0,0,1-1.425.342,3.047,3.047,0,0,1-2.4-1.008,4.016,4.016,0,0,1-.892-2.758v-.212a4.453,4.453,0,0,1,.4-1.921,3.02,3.02,0,0,1,1.138-1.306,3.233,3.233,0,0,1,1.753-.465,2.966,2.966,0,0,1,2.068.745,2.663,2.663,0,0,1,.878,1.935h-1.2a1.743,1.743,0,0,0-.543-1.179,1.691,1.691,0,0,0-1.207-.461,1.77,1.77,0,0,0-1.494.694,3.259,3.259,0,0,0-.53,2.006v.239a3.194,3.194,0,0,0,.526,1.969A1.779,1.779,0,0,0,14.636,14.1Zm8.928.9a2.657,2.657,0,0,1-.178-.779,2.822,2.822,0,0,1-2.105.916,2.611,2.611,0,0,1-1.794-.619,2,2,0,0,1-.7-1.569,2.091,2.091,0,0,1,.878-1.794,4.142,4.142,0,0,1,2.471-.639h1.23V9.935a1.42,1.42,0,0,0-.4-1.056A1.593,1.593,0,0,0,21.8,8.485a1.844,1.844,0,0,0-1.135.342,1.007,1.007,0,0,0-.458.827H18.936a1.745,1.745,0,0,1,.393-1.07A2.683,2.683,0,0,1,20.4,7.768a3.588,3.588,0,0,1,1.48-.3,2.924,2.924,0,0,1,2,.639,2.306,2.306,0,0,1,.752,1.76v3.4a4.162,4.162,0,0,0,.26,1.62V15Zm-2.1-.964a2.223,2.223,0,0,0,1.128-.308,1.861,1.861,0,0,0,.772-.8V11.411h-.991q-2.324,0-2.324,1.36a1.151,1.151,0,0,0,.4.93A1.524,1.524,0,0,0,21.465,14.036Zm9.454-1a.931.931,0,0,0-.386-.8,3.718,3.718,0,0,0-1.347-.489,6.367,6.367,0,0,1-1.524-.492,2.169,2.169,0,0,1-.834-.684,1.635,1.635,0,0,1-.27-.943A1.919,1.919,0,0,1,27.327,8.1a3,3,0,0,1,1.965-.629,3.091,3.091,0,0,1,2.041.649,2.063,2.063,0,0,1,.783,1.661H30.844a1.142,1.142,0,0,0-.441-.9,1.652,1.652,0,0,0-1.111-.376,1.729,1.729,0,0,0-1.08.3.947.947,0,0,0-.39.786.767.767,0,0,0,.362.69,4.458,4.458,0,0,0,1.309.444,6.821,6.821,0,0,1,1.535.506,2.239,2.239,0,0,1,.872.708,1.74,1.74,0,0,1,.284,1.008,1.893,1.893,0,0,1-.793,1.589,3.326,3.326,0,0,1-2.058.6,3.725,3.725,0,0,1-1.572-.314,2.557,2.557,0,0,1-1.07-.878,2.117,2.117,0,0,1-.386-1.22h1.265a1.309,1.309,0,0,0,.509,1.008,1.976,1.976,0,0,0,1.254.373,2.039,2.039,0,0,0,1.152-.291A.893.893,0,0,0,30.919,13.038Z" transform="translate(707 2112)" fill="#12263f"/>
      <path id="Trazado_102907" data-name="Trazado 102907" d="M-31.206-2.6h-4.17L-36.312,0h-1.354l3.8-9.953h1.148L-28.909,0h-1.347Zm-3.773-1.073H-31.6l-1.7-4.655Zm8.812-5.51V-7.4h1.381v.978h-1.381v4.593a1.027,1.027,0,0,0,.185.667.777.777,0,0,0,.629.222,3.062,3.062,0,0,0,.6-.082V0a3.688,3.688,0,0,1-.971.136A1.575,1.575,0,0,1-27-.376a2.2,2.2,0,0,1-.431-1.456V-6.419h-1.347V-7.4h1.347V-9.187Zm6.433,2.926a3.79,3.79,0,0,0-.622-.048,1.667,1.667,0,0,0-1.688,1.06V0h-1.265V-7.4h1.23l.021.854A1.969,1.969,0,0,1-20.3-7.533a1.292,1.292,0,0,1,.561.1ZM-17.2,0h-1.265V-7.4H-17.2Zm-1.367-9.358a.755.755,0,0,1,.188-.52.706.706,0,0,1,.557-.212.717.717,0,0,1,.561.212.747.747,0,0,1,.191.52.722.722,0,0,1-.191.513.73.73,0,0,1-.561.205.718.718,0,0,1-.557-.205A.73.73,0,0,1-18.566-9.358Zm9.652,5.742A4.4,4.4,0,0,1-9.693-.892,2.49,2.49,0,0,1-11.785.137a2.578,2.578,0,0,1-2.167-.991L-14.014,0h-1.162V-10.5h1.265v3.917a2.564,2.564,0,0,1,2.112-.95A2.505,2.505,0,0,1-9.683-6.515a4.53,4.53,0,0,1,.769,2.789Zm-1.265-.144a3.417,3.417,0,0,0-.5-2,1.652,1.652,0,0,0-1.436-.7,1.857,1.857,0,0,0-1.8,1.162v3.2A1.909,1.909,0,0,0-12.1-.937a1.643,1.643,0,0,0,1.415-.7A3.634,3.634,0,0,0-10.179-3.76ZM-2.755-.731A2.686,2.686,0,0,1-4.922.137a2.3,2.3,0,0,1-1.8-.687,2.974,2.974,0,0,1-.625-2.034V-7.4h1.265v4.778q0,1.682,1.367,1.682a1.893,1.893,0,0,0,1.928-1.08V-7.4h1.265V0h-1.2ZM2.112-9.187V-7.4H3.493v.978H2.112v4.593a1.027,1.027,0,0,0,.185.667.777.777,0,0,0,.629.222,3.062,3.062,0,0,0,.6-.082V0a3.688,3.688,0,0,1-.971.136A1.575,1.575,0,0,1,1.278-.376,2.2,2.2,0,0,1,.848-1.832V-6.419H-.5V-7.4H.848V-9.187ZM4.5-3.767a4.369,4.369,0,0,1,.427-1.955,3.187,3.187,0,0,1,1.189-1.34,3.238,3.238,0,0,1,1.74-.472A3.119,3.119,0,0,1,10.3-6.487a4.024,4.024,0,0,1,.933,2.782v.089a4.407,4.407,0,0,1-.414,1.938A3.14,3.14,0,0,1,9.635-.342,3.275,3.275,0,0,1,7.868.137,3.111,3.111,0,0,1,5.431-.909,4,4,0,0,1,4.5-3.678Zm1.271.15A3.164,3.164,0,0,0,6.34-1.641,1.827,1.827,0,0,0,7.868-.9,1.816,1.816,0,0,0,9.4-1.651a3.46,3.46,0,0,0,.567-2.116,3.159,3.159,0,0,0-.578-1.972,1.836,1.836,0,0,0-1.535-.755,1.816,1.816,0,0,0-1.511.745A3.434,3.434,0,0,0,5.77-3.616ZM17.124-1.962a.931.931,0,0,0-.386-.8,3.718,3.718,0,0,0-1.347-.489,6.367,6.367,0,0,1-1.524-.492,2.169,2.169,0,0,1-.834-.684,1.635,1.635,0,0,1-.27-.943A1.919,1.919,0,0,1,13.532-6.9,3,3,0,0,1,15.5-7.533a3.091,3.091,0,0,1,2.041.649,2.063,2.063,0,0,1,.783,1.661H17.049a1.142,1.142,0,0,0-.441-.9A1.652,1.652,0,0,0,15.5-6.494a1.729,1.729,0,0,0-1.08.3.947.947,0,0,0-.39.786.767.767,0,0,0,.362.69,4.458,4.458,0,0,0,1.309.444,6.821,6.821,0,0,1,1.535.506,2.239,2.239,0,0,1,.872.708,1.74,1.74,0,0,1,.284,1.008A1.893,1.893,0,0,1,17.6-.461a3.326,3.326,0,0,1-2.058.6,3.725,3.725,0,0,1-1.572-.314,2.557,2.557,0,0,1-1.07-.878,2.117,2.117,0,0,1-.386-1.22h1.265a1.309,1.309,0,0,0,.509,1.008A1.976,1.976,0,0,0,15.538-.9a2.039,2.039,0,0,0,1.152-.291A.893.893,0,0,0,17.124-1.962Zm6.07-1.8A4.333,4.333,0,0,1,24-6.5a2.551,2.551,0,0,1,2.112-1.036,2.565,2.565,0,0,1,2.058.889V-10.5h1.265V0H28.273l-.062-.793A2.575,2.575,0,0,1,26.1.137,2.526,2.526,0,0,1,24-.916a4.382,4.382,0,0,1-.81-2.748Zm1.265.144a3.281,3.281,0,0,0,.52,1.969,1.68,1.68,0,0,0,1.436.711,1.845,1.845,0,0,0,1.757-1.08v-3.4A1.859,1.859,0,0,0,26.428-6.46a1.687,1.687,0,0,0-1.449.718A3.612,3.612,0,0,0,24.459-3.616ZM34.467.137A3.232,3.232,0,0,1,32.02-.851a3.666,3.666,0,0,1-.943-2.642v-.232a4.438,4.438,0,0,1,.42-1.965,3.28,3.28,0,0,1,1.176-1.354,2.956,2.956,0,0,1,1.637-.489,2.77,2.77,0,0,1,2.242.95,4.114,4.114,0,0,1,.8,2.721v.526H32.341a2.629,2.629,0,0,0,.639,1.767A2.009,2.009,0,0,0,34.535-.9a2.2,2.2,0,0,0,1.135-.273,2.851,2.851,0,0,0,.813-.725l.772.6A3.106,3.106,0,0,1,34.467.137ZM34.31-6.494a1.687,1.687,0,0,0-1.285.557,2.708,2.708,0,0,0-.643,1.562h3.705v-.1a2.409,2.409,0,0,0-.52-1.494A1.588,1.588,0,0,0,34.31-6.494Zm-49.3,18.336a3.662,3.662,0,0,1-1.166,2.437,3.82,3.82,0,0,1-2.608.858,3.507,3.507,0,0,1-2.827-1.265,5.088,5.088,0,0,1-1.063-3.384V9.531a5.671,5.671,0,0,1,.5-2.44,3.7,3.7,0,0,1,1.4-1.617,3.911,3.911,0,0,1,2.105-.564A3.6,3.6,0,0,1-16.1,5.8a3.706,3.706,0,0,1,1.114,2.451h-1.319a2.86,2.86,0,0,0-.742-1.728,2.244,2.244,0,0,0-1.6-.535,2.348,2.348,0,0,0-1.972.93,4.272,4.272,0,0,0-.714,2.648v.965a4.391,4.391,0,0,0,.677,2.579,2.187,2.187,0,0,0,1.894.958,2.526,2.526,0,0,0,1.678-.5,2.75,2.75,0,0,0,.776-1.726ZM-8.829,15a2.657,2.657,0,0,1-.178-.779,2.822,2.822,0,0,1-2.105.916,2.611,2.611,0,0,1-1.794-.619,2,2,0,0,1-.7-1.569,2.091,2.091,0,0,1,.878-1.794,4.142,4.142,0,0,1,2.471-.639h1.23V9.935a1.42,1.42,0,0,0-.4-1.056,1.593,1.593,0,0,0-1.169-.393,1.844,1.844,0,0,0-1.135.342,1.007,1.007,0,0,0-.458.827h-1.271a1.745,1.745,0,0,1,.393-1.07A2.683,2.683,0,0,1-12,7.768a3.588,3.588,0,0,1,1.48-.3,2.924,2.924,0,0,1,2,.639,2.306,2.306,0,0,1,.752,1.76v3.4a4.162,4.162,0,0,0,.26,1.62V15Zm-2.1-.964A2.223,2.223,0,0,0-9.8,13.729a1.861,1.861,0,0,0,.772-.8V11.411h-.991q-2.324,0-2.324,1.36a1.151,1.151,0,0,0,.4.93A1.524,1.524,0,0,0-10.927,14.036ZM-4.406,15H-5.67V4.5h1.265Zm3.4,0H-2.273V7.6h1.265ZM-2.375,5.642a.755.755,0,0,1,.188-.52A.706.706,0,0,1-1.63,4.91a.717.717,0,0,1,.561.212.747.747,0,0,1,.191.52.722.722,0,0,1-.191.513.73.73,0,0,1-.561.205.718.718,0,0,1-.557-.205A.73.73,0,0,1-2.375,5.642Zm3.083,5.6A4.333,4.333,0,0,1,1.514,8.5,2.551,2.551,0,0,1,3.626,7.467a2.565,2.565,0,0,1,2.058.889V4.5H6.949V15H5.787l-.062-.793a2.575,2.575,0,0,1-2.112.93,2.526,2.526,0,0,1-2.1-1.053,4.382,4.382,0,0,1-.81-2.748Zm1.265.144a3.281,3.281,0,0,0,.52,1.969,1.68,1.68,0,0,0,1.436.711,1.845,1.845,0,0,0,1.757-1.08v-3.4A1.859,1.859,0,0,0,3.941,8.54a1.687,1.687,0,0,0-1.449.718A3.612,3.612,0,0,0,1.972,11.384ZM13.477,15a2.657,2.657,0,0,1-.178-.779,2.822,2.822,0,0,1-2.105.916A2.611,2.611,0,0,1,9.4,14.518a2,2,0,0,1-.7-1.569,2.091,2.091,0,0,1,.878-1.794,4.142,4.142,0,0,1,2.471-.639h1.23V9.935a1.42,1.42,0,0,0-.4-1.056,1.593,1.593,0,0,0-1.169-.393,1.844,1.844,0,0,0-1.135.342,1.007,1.007,0,0,0-.458.827H8.849a1.745,1.745,0,0,1,.393-1.07,2.683,2.683,0,0,1,1.066-.817,3.588,3.588,0,0,1,1.48-.3,2.924,2.924,0,0,1,2,.639,2.306,2.306,0,0,1,.752,1.76v3.4a4.162,4.162,0,0,0,.26,1.62V15Zm-2.1-.964a2.223,2.223,0,0,0,1.128-.308,1.861,1.861,0,0,0,.772-.8V11.411h-.991q-2.324,0-2.324,1.36a1.151,1.151,0,0,0,.4.93A1.524,1.524,0,0,0,11.378,14.036Zm4.84-2.8A4.333,4.333,0,0,1,17.025,8.5a2.745,2.745,0,0,1,4.17-.147V4.5h1.265V15H21.3l-.062-.793a2.575,2.575,0,0,1-2.112.93,2.526,2.526,0,0,1-2.1-1.053,4.382,4.382,0,0,1-.81-2.748Zm1.265.144A3.281,3.281,0,0,0,18,13.353a1.68,1.68,0,0,0,1.436.711,1.845,1.845,0,0,0,1.757-1.08v-3.4A1.859,1.859,0,0,0,19.452,8.54,1.687,1.687,0,0,0,18,9.258,3.612,3.612,0,0,0,17.483,11.384Z" transform="translate(961 2112)" fill="#12263f"/>
      <path id="Trazado_102908" data-name="Trazado 102908" d="M-44.375-3.158A3.662,3.662,0,0,1-45.541-.721a3.82,3.82,0,0,1-2.608.858,3.507,3.507,0,0,1-2.827-1.265,5.088,5.088,0,0,1-1.063-3.384v-.957a5.671,5.671,0,0,1,.5-2.44,3.7,3.7,0,0,1,1.4-1.617,3.911,3.911,0,0,1,2.105-.564A3.6,3.6,0,0,1-45.49-9.2a3.706,3.706,0,0,1,1.114,2.451h-1.319a2.86,2.86,0,0,0-.742-1.728,2.244,2.244,0,0,0-1.6-.535A2.348,2.348,0,0,0-50-8.086a4.271,4.271,0,0,0-.714,2.648v.965a4.391,4.391,0,0,0,.677,2.579,2.187,2.187,0,0,0,1.894.958,2.526,2.526,0,0,0,1.678-.5,2.75,2.75,0,0,0,.776-1.726Zm1.258-.608a4.369,4.369,0,0,1,.427-1.955A3.187,3.187,0,0,1-41.5-7.062a3.238,3.238,0,0,1,1.74-.472,3.119,3.119,0,0,1,2.444,1.046,4.024,4.024,0,0,1,.933,2.782v.089A4.407,4.407,0,0,1-36.8-1.678,3.14,3.14,0,0,1-37.98-.342a3.275,3.275,0,0,1-1.767.479A3.111,3.111,0,0,1-42.185-.909a4,4,0,0,1-.933-2.769Zm1.271.15a3.164,3.164,0,0,0,.571,1.976A1.827,1.827,0,0,0-39.748-.9a1.816,1.816,0,0,0,1.531-.755,3.46,3.46,0,0,0,.567-2.116,3.159,3.159,0,0,0-.578-1.972,1.836,1.836,0,0,0-1.535-.755,1.816,1.816,0,0,0-1.511.745A3.434,3.434,0,0,0-41.846-3.616Zm8.237-3.78.034.82a2.732,2.732,0,0,1,2.194-.957,2.115,2.115,0,0,1,2.112,1.189,2.8,2.8,0,0,1,.96-.861,2.837,2.837,0,0,1,1.4-.328q2.434,0,2.475,2.577V0H-25.7V-4.881a1.7,1.7,0,0,0-.362-1.186,1.6,1.6,0,0,0-1.217-.393,1.677,1.677,0,0,0-1.169.42,1.706,1.706,0,0,0-.54,1.131V0h-1.271V-4.847A1.411,1.411,0,0,0-31.838-6.46a1.692,1.692,0,0,0-1.7,1.06V0h-1.265V-7.4Zm17.329,3.78A4.429,4.429,0,0,1-17.052-.9,2.476,2.476,0,0,1-19.144.137a2.713,2.713,0,0,1-2.119-.854V2.844h-1.265V-7.4h1.155l.062.82a2.605,2.605,0,0,1,2.146-.957,2.522,2.522,0,0,1,2.109,1,4.477,4.477,0,0,1,.776,2.8Zm-1.265-.144a3.268,3.268,0,0,0-.533-1.976,1.718,1.718,0,0,0-1.463-.725,1.859,1.859,0,0,0-1.723,1.019v3.534A1.863,1.863,0,0,0-19.527-.9a1.71,1.71,0,0,0,1.446-.721A3.567,3.567,0,0,0-17.544-3.76Zm2.536-.007a4.369,4.369,0,0,1,.427-1.955,3.187,3.187,0,0,1,1.189-1.34,3.238,3.238,0,0,1,1.74-.472A3.119,3.119,0,0,1-9.208-6.487a4.024,4.024,0,0,1,.933,2.782v.089a4.407,4.407,0,0,1-.414,1.938A3.14,3.14,0,0,1-9.871-.342a3.275,3.275,0,0,1-1.767.479A3.111,3.111,0,0,1-14.075-.909a4,4,0,0,1-.933-2.769Zm1.271.15a3.164,3.164,0,0,0,.571,1.976A1.827,1.827,0,0,0-11.638-.9a1.816,1.816,0,0,0,1.531-.755A3.46,3.46,0,0,0-9.54-3.767a3.159,3.159,0,0,0-.578-1.972,1.836,1.836,0,0,0-1.535-.755,1.816,1.816,0,0,0-1.511.745A3.434,3.434,0,0,0-13.737-3.616ZM-3.114-6.262a3.79,3.79,0,0,0-.622-.048A1.667,1.667,0,0,0-5.424-5.25V0H-6.689V-7.4h1.23l.021.854a1.969,1.969,0,0,1,1.764-.991,1.292,1.292,0,0,1,.561.1ZM.106-9.187V-7.4H1.487v.978H.106v4.593a1.027,1.027,0,0,0,.185.667.777.777,0,0,0,.629.222,3.062,3.062,0,0,0,.6-.082V0A3.688,3.688,0,0,1,.55.137,1.575,1.575,0,0,1-.728-.376a2.2,2.2,0,0,1-.431-1.456V-6.419H-2.505V-7.4h1.347V-9.187ZM7.53,0a2.657,2.657,0,0,1-.178-.779A2.822,2.822,0,0,1,5.247.137,2.611,2.611,0,0,1,3.452-.482a2,2,0,0,1-.7-1.569A2.091,2.091,0,0,1,3.63-3.845,4.142,4.142,0,0,1,6.1-4.484h1.23v-.581a1.42,1.42,0,0,0-.4-1.056,1.593,1.593,0,0,0-1.169-.393,1.844,1.844,0,0,0-1.135.342,1.007,1.007,0,0,0-.458.827H2.9a1.745,1.745,0,0,1,.393-1.07,2.683,2.683,0,0,1,1.066-.817,3.588,3.588,0,0,1,1.48-.3,2.924,2.924,0,0,1,2,.639A2.306,2.306,0,0,1,8.6-5.134v3.4a4.162,4.162,0,0,0,.26,1.62V0Zm-2.1-.964a2.223,2.223,0,0,0,1.128-.308,1.861,1.861,0,0,0,.772-.8V-3.589H6.34q-2.324,0-2.324,1.36a1.151,1.151,0,0,0,.4.93A1.524,1.524,0,0,0,5.431-.964ZM11.768-7.4l.034.82A2.732,2.732,0,0,1,14-7.533a2.115,2.115,0,0,1,2.112,1.189,2.8,2.8,0,0,1,.96-.861,2.837,2.837,0,0,1,1.4-.328q2.434,0,2.475,2.577V0H19.677V-4.881a1.7,1.7,0,0,0-.362-1.186A1.6,1.6,0,0,0,18.1-6.46a1.677,1.677,0,0,0-1.169.42,1.706,1.706,0,0,0-.54,1.131V0H15.118V-4.847A1.411,1.411,0,0,0,13.539-6.46a1.692,1.692,0,0,0-1.7,1.06V0H10.572V-7.4ZM24.223,0H22.958V-7.4h1.265ZM22.856-9.358a.755.755,0,0,1,.188-.52.706.706,0,0,1,.557-.212.717.717,0,0,1,.561.212.747.747,0,0,1,.191.52.722.722,0,0,1-.191.513.73.73,0,0,1-.561.205.718.718,0,0,1-.557-.205A.73.73,0,0,1,22.856-9.358Zm6.46,9.5a3.232,3.232,0,0,1-2.447-.988,3.666,3.666,0,0,1-.943-2.642v-.232a4.438,4.438,0,0,1,.42-1.965,3.28,3.28,0,0,1,1.176-1.354,2.956,2.956,0,0,1,1.637-.489,2.77,2.77,0,0,1,2.242.95,4.114,4.114,0,0,1,.8,2.721v.526H27.19a2.629,2.629,0,0,0,.639,1.767A2.009,2.009,0,0,0,29.384-.9a2.2,2.2,0,0,0,1.135-.273,2.851,2.851,0,0,0,.813-.725l.772.6A3.106,3.106,0,0,1,29.316.137Zm-.157-6.631a1.687,1.687,0,0,0-1.285.557,2.708,2.708,0,0,0-.643,1.562h3.705v-.1a2.409,2.409,0,0,0-.52-1.494A1.588,1.588,0,0,0,29.159-6.494Zm5.7-.9.041.93a2.7,2.7,0,0,1,2.215-1.066q2.345,0,2.365,2.646V0H38.216V-4.895a1.7,1.7,0,0,0-.366-1.183,1.466,1.466,0,0,0-1.118-.383,1.825,1.825,0,0,0-1.08.328,2.228,2.228,0,0,0-.725.861V0H33.664V-7.4ZM43.1-9.187V-7.4h1.381v.978H43.1v4.593a1.027,1.027,0,0,0,.185.667.777.777,0,0,0,.629.222,3.062,3.062,0,0,0,.6-.082V0a3.688,3.688,0,0,1-.971.136A1.575,1.575,0,0,1,42.27-.376a2.2,2.2,0,0,1-.431-1.456V-6.419H40.493V-7.4h1.347V-9.187ZM45.49-3.767a4.369,4.369,0,0,1,.427-1.955,3.187,3.187,0,0,1,1.189-1.34,3.238,3.238,0,0,1,1.74-.472A3.119,3.119,0,0,1,51.29-6.487a4.024,4.024,0,0,1,.933,2.782v.089a4.407,4.407,0,0,1-.414,1.938A3.14,3.14,0,0,1,50.627-.342,3.275,3.275,0,0,1,48.86.137,3.111,3.111,0,0,1,46.423-.909a4,4,0,0,1-.933-2.769Zm1.271.15a3.164,3.164,0,0,0,.571,1.976A1.827,1.827,0,0,0,48.86-.9a1.816,1.816,0,0,0,1.531-.755,3.46,3.46,0,0,0,.567-2.116,3.159,3.159,0,0,0-.578-1.972,1.836,1.836,0,0,0-1.535-.755,1.816,1.816,0,0,0-1.511.745A3.434,3.434,0,0,0,46.761-3.616ZM-36.4,10.4h-4.313v3.527H-35.7V15h-6.323V5.047h6.255V6.12h-4.942V9.326H-36.4Zm4.614-.1,1.641-2.7h1.477l-2.42,3.657,2.5,3.739h-1.463l-1.709-2.769L-33.476,15h-1.47l2.5-3.739L-34.87,7.6h1.463Zm6.173-4.491V7.6h1.381v.978h-1.381v4.593a1.027,1.027,0,0,0,.185.667.777.777,0,0,0,.629.222,3.062,3.062,0,0,0,.6-.082V15a3.688,3.688,0,0,1-.971.136,1.575,1.575,0,0,1-1.278-.513,2.2,2.2,0,0,1-.431-1.456V8.581h-1.347V7.6h1.347V5.813Zm5.927,9.324a3.232,3.232,0,0,1-2.447-.988,3.666,3.666,0,0,1-.943-2.642v-.232a4.438,4.438,0,0,1,.42-1.965,3.28,3.28,0,0,1,1.176-1.354,2.956,2.956,0,0,1,1.637-.489,2.77,2.77,0,0,1,2.242.95,4.114,4.114,0,0,1,.8,2.721v.526h-5.011a2.629,2.629,0,0,0,.639,1.767,2.009,2.009,0,0,0,1.555.673,2.2,2.2,0,0,0,1.135-.273,2.851,2.851,0,0,0,.813-.725l.772.6A3.106,3.106,0,0,1-19.687,15.137Zm-.157-6.631a1.687,1.687,0,0,0-1.285.557,2.708,2.708,0,0,0-.643,1.562h3.705v-.1a2.409,2.409,0,0,0-.52-1.494A1.588,1.588,0,0,0-19.845,8.506Zm8.08.232a3.79,3.79,0,0,0-.622-.048,1.667,1.667,0,0,0-1.688,1.06V15H-15.34V7.6h1.23l.021.854a1.969,1.969,0,0,1,1.764-.991,1.292,1.292,0,0,1,.561.1ZM-9.406,7.6l.041.93A2.7,2.7,0,0,1-7.15,7.467q2.345,0,2.365,2.646V15H-6.05V10.105a1.7,1.7,0,0,0-.366-1.183A1.466,1.466,0,0,0-7.533,8.54a1.825,1.825,0,0,0-1.08.328,2.228,2.228,0,0,0-.725.861V15H-10.6V7.6ZM1.688,15a2.657,2.657,0,0,1-.178-.779,2.822,2.822,0,0,1-2.105.916,2.611,2.611,0,0,1-1.794-.619,2,2,0,0,1-.7-1.569,2.091,2.091,0,0,1,.878-1.794A4.142,4.142,0,0,1,.26,10.516H1.49V9.935a1.42,1.42,0,0,0-.4-1.056A1.593,1.593,0,0,0-.075,8.485a1.844,1.844,0,0,0-1.135.342,1.007,1.007,0,0,0-.458.827H-2.939a1.745,1.745,0,0,1,.393-1.07A2.683,2.683,0,0,1-1.48,7.768,3.588,3.588,0,0,1,0,7.467a2.924,2.924,0,0,1,2,.639,2.306,2.306,0,0,1,.752,1.76v3.4a4.162,4.162,0,0,0,.26,1.62V15Zm-2.1-.964a2.223,2.223,0,0,0,1.128-.308,1.861,1.861,0,0,0,.772-.8V11.411H.5q-2.324,0-2.324,1.36a1.151,1.151,0,0,0,.4.93A1.524,1.524,0,0,0-.41,14.036ZM5.927,7.6l.034.82a2.732,2.732,0,0,1,2.194-.957,2.115,2.115,0,0,1,2.112,1.189,2.8,2.8,0,0,1,.96-.861,2.837,2.837,0,0,1,1.4-.328q2.434,0,2.475,2.577V15H13.836V10.119a1.7,1.7,0,0,0-.362-1.186,1.6,1.6,0,0,0-1.217-.393,1.677,1.677,0,0,0-1.169.42,1.706,1.706,0,0,0-.54,1.131V15H9.276V10.153A1.411,1.411,0,0,0,7.7,8.54,1.692,1.692,0,0,0,6,9.6V15H4.73V7.6Zm14.15,7.533a3.232,3.232,0,0,1-2.447-.988,3.666,3.666,0,0,1-.943-2.642v-.232a4.438,4.438,0,0,1,.42-1.965,3.28,3.28,0,0,1,1.176-1.354,2.956,2.956,0,0,1,1.637-.489,2.77,2.77,0,0,1,2.242.95,4.114,4.114,0,0,1,.8,2.721v.526H17.951a2.629,2.629,0,0,0,.639,1.767,2.009,2.009,0,0,0,1.555.673,2.2,2.2,0,0,0,1.135-.273,2.851,2.851,0,0,0,.813-.725l.772.6A3.106,3.106,0,0,1,20.077,15.137ZM19.92,8.506a1.687,1.687,0,0,0-1.285.557,2.708,2.708,0,0,0-.643,1.562H21.7v-.1a2.409,2.409,0,0,0-.52-1.494A1.588,1.588,0,0,0,19.92,8.506Zm5.7-.9.041.93a2.7,2.7,0,0,1,2.215-1.066q2.345,0,2.365,2.646V15H28.978V10.105a1.7,1.7,0,0,0-.366-1.183,1.466,1.466,0,0,0-1.118-.383,1.825,1.825,0,0,0-1.08.328,2.228,2.228,0,0,0-.725.861V15H24.425V7.6Zm8.244-1.791V7.6h1.381v.978H33.865v4.593a1.027,1.027,0,0,0,.185.667.777.777,0,0,0,.629.222,3.062,3.062,0,0,0,.6-.082V15a3.688,3.688,0,0,1-.971.136,1.575,1.575,0,0,1-1.278-.513,2.2,2.2,0,0,1-.431-1.456V8.581H31.254V7.6H32.6V5.813Zm5.927,9.324a3.232,3.232,0,0,1-2.447-.988,3.666,3.666,0,0,1-.943-2.642v-.232a4.438,4.438,0,0,1,.42-1.965A3.28,3.28,0,0,1,38,7.956a2.956,2.956,0,0,1,1.637-.489,2.77,2.77,0,0,1,2.242.95,4.114,4.114,0,0,1,.8,2.721v.526H37.666a2.629,2.629,0,0,0,.639,1.767,2.009,2.009,0,0,0,1.555.673A2.2,2.2,0,0,0,41,13.831a2.851,2.851,0,0,0,.813-.725l.772.6A3.106,3.106,0,0,1,39.792,15.137Zm-.157-6.631a1.687,1.687,0,0,0-1.285.557,2.708,2.708,0,0,0-.643,1.562h3.705v-.1a2.409,2.409,0,0,0-.52-1.494A1.588,1.588,0,0,0,39.635,8.506ZM-16.345,28.257l2.844-8.21h1.436L-15.757,30h-1.162L-20.6,20.047h1.429ZM-9.557,30h-1.265V22.6h1.265Zm-1.367-9.358a.755.755,0,0,1,.188-.52.706.706,0,0,1,.557-.212.717.717,0,0,1,.561.212.747.747,0,0,1,.191.52.722.722,0,0,1-.191.513.73.73,0,0,1-.561.205.718.718,0,0,1-.557-.205A.73.73,0,0,1-10.924,20.642Zm7.7,7.4a.931.931,0,0,0-.386-.8,3.718,3.718,0,0,0-1.347-.489,6.367,6.367,0,0,1-1.524-.492,2.169,2.169,0,0,1-.834-.684,1.635,1.635,0,0,1-.27-.943A1.919,1.919,0,0,1-6.819,23.1a3,3,0,0,1,1.965-.629,3.091,3.091,0,0,1,2.041.649,2.063,2.063,0,0,1,.783,1.661H-3.3a1.142,1.142,0,0,0-.441-.9,1.652,1.652,0,0,0-1.111-.376,1.729,1.729,0,0,0-1.08.3.947.947,0,0,0-.39.786.767.767,0,0,0,.362.69,4.458,4.458,0,0,0,1.309.444,6.821,6.821,0,0,1,1.535.506,2.239,2.239,0,0,1,.872.708,1.74,1.74,0,0,1,.284,1.008,1.893,1.893,0,0,1-.793,1.589,3.326,3.326,0,0,1-2.058.6,3.725,3.725,0,0,1-1.572-.314,2.557,2.557,0,0,1-1.07-.878,2.117,2.117,0,0,1-.386-1.22h1.265a1.309,1.309,0,0,0,.509,1.008,1.976,1.976,0,0,0,1.254.373,2.039,2.039,0,0,0,1.152-.291A.893.893,0,0,0-3.227,28.038ZM1.06,30H-.205V22.6H1.06ZM-.308,20.642a.755.755,0,0,1,.188-.52.706.706,0,0,1,.557-.212A.717.717,0,0,1,1,20.122a.747.747,0,0,1,.191.52A.722.722,0,0,1,1,21.154a.73.73,0,0,1-.561.205.718.718,0,0,1-.557-.205A.73.73,0,0,1-.308,20.642Zm9.652,5.742a4.4,4.4,0,0,1-.779,2.724,2.49,2.49,0,0,1-2.092,1.029,2.578,2.578,0,0,1-2.167-.991L4.245,30H3.083V19.5H4.348v3.917a2.564,2.564,0,0,1,2.112-.95,2.505,2.505,0,0,1,2.116,1.019,4.53,4.53,0,0,1,.769,2.789ZM8.08,26.24a3.417,3.417,0,0,0-.5-2,1.652,1.652,0,0,0-1.436-.7,1.857,1.857,0,0,0-1.8,1.162v3.2a1.909,1.909,0,0,0,1.812,1.162,1.643,1.643,0,0,0,1.415-.7A3.634,3.634,0,0,0,8.08,26.24ZM12.312,30H11.047V19.5h1.265Zm5.093.137a3.232,3.232,0,0,1-2.447-.988,3.666,3.666,0,0,1-.943-2.642v-.232a4.438,4.438,0,0,1,.42-1.965,3.28,3.28,0,0,1,1.176-1.354,2.956,2.956,0,0,1,1.637-.489,2.77,2.77,0,0,1,2.242.95,4.114,4.114,0,0,1,.8,2.721v.526H15.278a2.629,2.629,0,0,0,.639,1.767,2.009,2.009,0,0,0,1.555.673,2.2,2.2,0,0,0,1.135-.273,2.851,2.851,0,0,0,.813-.725l.772.6A3.106,3.106,0,0,1,17.4,30.137Zm-.157-6.631a1.687,1.687,0,0,0-1.285.557,2.708,2.708,0,0,0-.643,1.562h3.705v-.1a2.409,2.409,0,0,0-.52-1.494A1.588,1.588,0,0,0,17.247,23.506Z" transform="translate(825 2112)" fill="#12263f"/>
      <path id="Trazado_99452" data-name="Trazado 99452" d="M-8974-9707v18.313h-98v32.181" transform="translate(9720 11663)" fill="none" stroke="#3366c2" stroke-width="2"/>
      <path id="Trazado_99453" data-name="Trazado 99453" d="M-9072-9707v18.313h111v32.181" transform="translate(9848 11663)" fill="none" stroke="#3366c2" stroke-width="2"/>
      <rect id="Rectángulo_5097" data-name="Rectángulo 5097" width="226" height="28" transform="translate(643 1928)" fill="#3366c2"/>
      <rect id="Rectángulo_5098" data-name="Rectángulo 5098" width="212" height="28" transform="translate(540 2004)" fill="#0991a1"/>
      <rect id="Rectángulo_5099" data-name="Rectángulo 5099" width="250" height="28" transform="translate(768 2004)" fill="#95308e"/>
      <path id="Trazado_102911" data-name="Trazado 102911" d="M-86.91-2.977h-4.766L-92.746,0h-1.547l4.344-11.375h1.313L-84.285,0h-1.539ZM-91.223-4.2h3.867l-1.937-5.32Zm12.328-2.953a4.331,4.331,0,0,0-.711-.055A1.9,1.9,0,0,0-81.535-6V0H-82.98V-8.453h1.406l.023.977a2.251,2.251,0,0,1,2.016-1.133,1.477,1.477,0,0,1,.641.109Zm.828,2.859a4.961,4.961,0,0,1,.914-3.152A2.962,2.962,0,0,1-74.7-8.609,2.96,2.96,0,0,1-72.332-7.6l.063-.852h1.328V3.25h-1.445V-.781a3.033,3.033,0,0,1-2.328.938,2.915,2.915,0,0,1-2.441-1.191,5.072,5.072,0,0,1-.91-3.16Zm1.445.164a3.761,3.761,0,0,0,.613,2.281,1.951,1.951,0,0,0,1.652.828,2.164,2.164,0,0,0,1.969-1.141V-6.3A2.171,2.171,0,0,0-74.34-7.422,1.965,1.965,0,0,0-76-6.59,4.094,4.094,0,0,0-76.621-4.133ZM-63.4-.836a3.07,3.07,0,0,1-2.477.992,2.628,2.628,0,0,1-2.059-.785,3.4,3.4,0,0,1-.715-2.324v-5.5h1.445v5.461q0,1.922,1.563,1.922a2.163,2.163,0,0,0,2.2-1.234V-8.453H-62V0h-1.375ZM-58.23,0h-1.445V-8.453h1.445Zm-1.562-10.7a.863.863,0,0,1,.215-.594.807.807,0,0,1,.637-.242.819.819,0,0,1,.641.242.854.854,0,0,1,.219.594.826.826,0,0,1-.219.586.834.834,0,0,1-.641.234.821.821,0,0,1-.637-.234A.834.834,0,0,1-59.793-10.7Zm5.836.2v2.047h1.578v1.117h-1.578v5.249a1.173,1.173,0,0,0,.211.763.888.888,0,0,0,.719.254,3.5,3.5,0,0,0,.688-.094V0a4.215,4.215,0,0,1-1.109.155A1.8,1.8,0,0,1-54.91-.43,2.517,2.517,0,0,1-55.4-2.094V-7.336h-1.539V-8.453H-55.4V-10.5ZM-47.184.156a3.693,3.693,0,0,1-2.8-1.129,4.19,4.19,0,0,1-1.078-3.02v-.266a5.073,5.073,0,0,1,.48-2.246,3.748,3.748,0,0,1,1.344-1.547,3.378,3.378,0,0,1,1.871-.559A3.166,3.166,0,0,1-44.8-7.523a4.7,4.7,0,0,1,.914,3.109v.6h-5.727a3,3,0,0,0,.73,2.02,2.3,2.3,0,0,0,1.777.77,2.517,2.517,0,0,0,1.3-.312,3.259,3.259,0,0,0,.93-.828l.883.688A3.55,3.55,0,0,1-47.184.156Zm-.18-7.578a1.928,1.928,0,0,0-1.469.637A3.1,3.1,0,0,0-49.566-5h4.234v-.109a2.753,2.753,0,0,0-.594-1.707A1.815,1.815,0,0,0-47.363-7.422Zm8.539,6.4a2.082,2.082,0,0,0,1.352-.469,1.649,1.649,0,0,0,.641-1.172h1.367a2.621,2.621,0,0,1-.5,1.383A3.293,3.293,0,0,1-37.2-.234a3.55,3.55,0,0,1-1.629.391A3.482,3.482,0,0,1-41.57-1a4.59,4.59,0,0,1-1.02-3.152v-.242a5.089,5.089,0,0,1,.453-2.2,3.451,3.451,0,0,1,1.3-1.492,3.7,3.7,0,0,1,2-.531,3.39,3.39,0,0,1,2.363.852,3.043,3.043,0,0,1,1,2.211h-1.367a1.992,1.992,0,0,0-.621-1.348,1.932,1.932,0,0,0-1.379-.527,2.023,2.023,0,0,0-1.707.793,3.724,3.724,0,0,0-.605,2.293v.273a3.65,3.65,0,0,0,.6,2.25A2.033,2.033,0,0,0-38.824-1.023Zm6.945-9.477v2.047H-30.3v1.117h-1.578v5.249a1.173,1.173,0,0,0,.211.763.888.888,0,0,0,.719.254,3.5,3.5,0,0,0,.688-.094V0a4.215,4.215,0,0,1-1.109.155A1.8,1.8,0,0,1-32.832-.43a2.517,2.517,0,0,1-.492-1.664V-7.336h-1.539V-8.453h1.539V-10.5Zm8.484,9.664a3.07,3.07,0,0,1-2.477.992A2.628,2.628,0,0,1-27.93-.629a3.4,3.4,0,0,1-.715-2.324v-5.5H-27.2v5.461q0,1.922,1.563,1.922a2.163,2.163,0,0,0,2.2-1.234V-8.453h1.445V0h-1.375Zm7.688-6.32a4.331,4.331,0,0,0-.711-.055A1.9,1.9,0,0,0-18.348-6V0h-1.445V-8.453h1.406l.023.977a2.251,2.251,0,0,1,2.016-1.133,1.477,1.477,0,0,1,.641.109ZM-9.473,0a3.036,3.036,0,0,1-.2-.891A3.225,3.225,0,0,1-12.082.156a2.984,2.984,0,0,1-2.051-.707,2.287,2.287,0,0,1-.8-1.793,2.39,2.39,0,0,1,1-2.051,4.733,4.733,0,0,1,2.824-.73H-9.7v-.664A1.623,1.623,0,0,0-10.152-7a1.821,1.821,0,0,0-1.336-.449,2.107,2.107,0,0,0-1.3.391,1.151,1.151,0,0,0-.523.945h-1.453a2,2,0,0,1,.449-1.223,3.066,3.066,0,0,1,1.219-.934A4.1,4.1,0,0,1-11.4-8.609a3.342,3.342,0,0,1,2.289.73,2.635,2.635,0,0,1,.859,2.012v3.891a4.757,4.757,0,0,0,.3,1.852V0Zm-2.4-1.1a2.54,2.54,0,0,0,1.289-.352A2.127,2.127,0,0,0-9.7-2.367V-4.1h-1.133q-2.656,0-2.656,1.555a1.316,1.316,0,0,0,.453,1.063A1.742,1.742,0,0,0-11.871-1.1Zm9.492-3.2a4.952,4.952,0,0,1,.922-3.129A2.915,2.915,0,0,1,.957-8.609,2.932,2.932,0,0,1,3.309-7.594V-12H4.754V0H3.426l-.07-.906A2.943,2.943,0,0,1,.941.156a2.887,2.887,0,0,1-2.395-1.2,5.008,5.008,0,0,1-.926-3.141Zm1.445.164A3.749,3.749,0,0,0-.34-1.883,1.92,1.92,0,0,0,1.3-1.07,2.108,2.108,0,0,0,3.309-2.3V-6.187a2.125,2.125,0,0,0-1.992-1.2,1.929,1.929,0,0,0-1.656.82A4.128,4.128,0,0,0-.934-4.133ZM10.5.156a3.693,3.693,0,0,1-2.8-1.129,4.19,4.19,0,0,1-1.078-3.02v-.266A5.073,5.073,0,0,1,7.109-6.5,3.748,3.748,0,0,1,8.453-8.051a3.378,3.378,0,0,1,1.871-.559,3.166,3.166,0,0,1,2.563,1.086A4.7,4.7,0,0,1,13.8-4.414v.6H8.074a3,3,0,0,0,.73,2.02,2.3,2.3,0,0,0,1.777.77,2.517,2.517,0,0,0,1.3-.312,3.259,3.259,0,0,0,.93-.828l.883.688A3.55,3.55,0,0,1,10.5.156Zm-.18-7.578a1.928,1.928,0,0,0-1.469.637A3.1,3.1,0,0,0,8.121-5h4.234v-.109a2.753,2.753,0,0,0-.594-1.707A1.815,1.815,0,0,0,10.324-7.422ZM23.012-5.07A7.053,7.053,0,0,1,20.2-6.434a2.6,2.6,0,0,1-.879-2A2.751,2.751,0,0,1,20.4-10.652a4.269,4.269,0,0,1,2.793-.879,4.66,4.66,0,0,1,2.09.453A3.436,3.436,0,0,1,26.7-9.828a3.2,3.2,0,0,1,.5,1.742H25.7a2.08,2.08,0,0,0-.656-1.627,2.669,2.669,0,0,0-1.852-.592,2.732,2.732,0,0,0-1.73.489,1.632,1.632,0,0,0-.621,1.358,1.468,1.468,0,0,0,.59,1.178,5.785,5.785,0,0,0,2.008.88,9.316,9.316,0,0,1,2.219.88A3.367,3.367,0,0,1,26.844-4.4a2.861,2.861,0,0,1,.387,1.508A2.658,2.658,0,0,1,26.152-.676,4.6,4.6,0,0,1,23.27.156a5.347,5.347,0,0,1-2.187-.449,3.681,3.681,0,0,1-1.566-1.23A3,3,0,0,1,18.965-3.3h1.508a1.959,1.959,0,0,0,.762,1.629,3.207,3.207,0,0,0,2.035.6,2.948,2.948,0,0,0,1.82-.484,1.573,1.573,0,0,0,.633-1.32,1.545,1.545,0,0,0-.586-1.293A6.755,6.755,0,0,0,23.012-5.07Zm5.531.766a4.993,4.993,0,0,1,.488-2.234A3.643,3.643,0,0,1,30.391-8.07a3.7,3.7,0,0,1,1.988-.539,3.565,3.565,0,0,1,2.793,1.2,4.6,4.6,0,0,1,1.066,3.18v.1a5.036,5.036,0,0,1-.473,2.215A3.589,3.589,0,0,1,34.414-.391a3.743,3.743,0,0,1-2.02.547,3.556,3.556,0,0,1-2.785-1.2A4.575,4.575,0,0,1,28.543-4.2ZM30-4.133a3.616,3.616,0,0,0,.652,2.258,2.088,2.088,0,0,0,1.746.852,2.075,2.075,0,0,0,1.75-.863A3.955,3.955,0,0,0,34.793-4.3a3.61,3.61,0,0,0-.66-2.254,2.1,2.1,0,0,0-1.754-.863,2.075,2.075,0,0,0-1.727.852A3.925,3.925,0,0,0,30-4.133ZM38.762,0V-7.336H37.426V-8.453h1.336V-9.32a2.878,2.878,0,0,1,.727-2.1,2.745,2.745,0,0,1,2.055-.742,3.816,3.816,0,0,1,.992.132l-.078,1.165a4.151,4.151,0,0,0-.781-.07,1.41,1.41,0,0,0-1.086.411,1.669,1.669,0,0,0-.383,1.18v.893h1.8v1.117h-1.8V0Zm6.8-10.5v2.047h1.578v1.117H45.566v5.249a1.173,1.173,0,0,0,.211.763.888.888,0,0,0,.719.254,3.5,3.5,0,0,0,.688-.094V0a4.215,4.215,0,0,1-1.109.155A1.8,1.8,0,0,1,44.613-.43a2.517,2.517,0,0,1-.492-1.664V-7.336H42.582V-8.453h1.539V-10.5Zm10.75,8.508,1.625-6.461h1.445L56.926,0H55.754L53.7-6.406,51.7,0H50.527L48.074-8.453h1.438l1.664,6.328,1.969-6.328h1.164ZM66.074,0a3.036,3.036,0,0,1-.2-.891A3.225,3.225,0,0,1,63.465.156a2.984,2.984,0,0,1-2.051-.707,2.287,2.287,0,0,1-.8-1.793,2.39,2.39,0,0,1,1-2.051,4.733,4.733,0,0,1,2.824-.73h1.406v-.664A1.623,1.623,0,0,0,65.395-7a1.821,1.821,0,0,0-1.336-.449,2.107,2.107,0,0,0-1.3.391,1.151,1.151,0,0,0-.523.945H60.785a2,2,0,0,1,.449-1.223,3.066,3.066,0,0,1,1.219-.934,4.1,4.1,0,0,1,1.691-.344,3.342,3.342,0,0,1,2.289.73,2.635,2.635,0,0,1,.859,2.012v3.891a4.757,4.757,0,0,0,.3,1.852V0Zm-2.4-1.1a2.54,2.54,0,0,0,1.289-.352,2.127,2.127,0,0,0,.883-.914V-4.1H64.715q-2.656,0-2.656,1.555a1.316,1.316,0,0,0,.453,1.063A1.742,1.742,0,0,0,63.676-1.1Zm9.969-6.055a4.331,4.331,0,0,0-.711-.055A1.9,1.9,0,0,0,71-6V0H69.559V-8.453h1.406l.023.977A2.251,2.251,0,0,1,73-8.609a1.477,1.477,0,0,1,.641.109ZM82.59-1.992l1.625-6.461H85.66L83.2,0H82.027L79.973-6.406,77.973,0H76.8L74.348-8.453h1.438l1.664,6.328,1.969-6.328h1.164ZM90.637.156a3.693,3.693,0,0,1-2.8-1.129,4.19,4.19,0,0,1-1.078-3.02v-.266a5.073,5.073,0,0,1,.48-2.246,3.748,3.748,0,0,1,1.344-1.547,3.378,3.378,0,0,1,1.871-.559A3.166,3.166,0,0,1,93.02-7.523a4.7,4.7,0,0,1,.914,3.109v.6H88.207a3,3,0,0,0,.73,2.02,2.3,2.3,0,0,0,1.777.77,2.517,2.517,0,0,0,1.3-.312,3.259,3.259,0,0,0,.93-.828l.883.688A3.55,3.55,0,0,1,90.637.156Zm-.18-7.578a1.928,1.928,0,0,0-1.469.637A3.1,3.1,0,0,0,88.254-5h4.234v-.109a2.753,2.753,0,0,0-.594-1.707A1.815,1.815,0,0,0,90.457-7.422Z" transform="translate(756 1948)" fill="#fff"/>
      <path id="Trazado_102912" data-name="Trazado 102912" d="M-72.445-5.258h-4.93v4.031h5.727V0h-7.227V-11.375h7.148v1.227h-5.648v3.664h4.93Zm7.359,3.016a1.064,1.064,0,0,0-.441-.91,4.249,4.249,0,0,0-1.539-.559,7.277,7.277,0,0,1-1.742-.562,2.479,2.479,0,0,1-.953-.781,1.869,1.869,0,0,1-.309-1.078,2.193,2.193,0,0,1,.879-1.758,3.432,3.432,0,0,1,2.246-.719,3.532,3.532,0,0,1,2.332.742,2.357,2.357,0,0,1,.895,1.9h-1.453a1.3,1.3,0,0,0-.5-1.023,1.888,1.888,0,0,0-1.27-.43,1.976,1.976,0,0,0-1.234.344,1.082,1.082,0,0,0-.445.9.877.877,0,0,0,.414.789,5.1,5.1,0,0,0,1.5.508,7.8,7.8,0,0,1,1.754.578,2.558,2.558,0,0,1,1,.809,1.988,1.988,0,0,1,.324,1.152,2.163,2.163,0,0,1-.906,1.816A3.8,3.8,0,0,1-66.9.156,4.257,4.257,0,0,1-68.7-.2a2.922,2.922,0,0,1-1.223-1A2.42,2.42,0,0,1-70.359-2.6h1.445a1.5,1.5,0,0,0,.582,1.152,2.258,2.258,0,0,0,1.434.426,2.331,2.331,0,0,0,1.316-.332A1.02,1.02,0,0,0-65.086-2.242ZM-59.8-10.5v2.047h1.578v1.117H-59.8v5.249a1.173,1.173,0,0,0,.211.763.888.888,0,0,0,.719.254,3.5,3.5,0,0,0,.688-.094V0a4.215,4.215,0,0,1-1.109.155A1.8,1.8,0,0,1-60.75-.43a2.517,2.517,0,0,1-.492-1.664V-7.336h-1.539V-8.453h1.539V-10.5Zm7.352,3.344a4.331,4.331,0,0,0-.711-.055A1.9,1.9,0,0,0-55.086-6V0h-1.445V-8.453h1.406l.023.977a2.251,2.251,0,0,1,2.016-1.133,1.477,1.477,0,0,1,.641.109ZM-45.9-.836a3.07,3.07,0,0,1-2.477.992,2.628,2.628,0,0,1-2.059-.785,3.4,3.4,0,0,1-.715-2.324v-5.5H-49.7v5.461q0,1.922,1.563,1.922a2.163,2.163,0,0,0,2.2-1.234V-8.453h1.445V0h-1.375Zm6.992-.187a2.082,2.082,0,0,0,1.352-.469,1.649,1.649,0,0,0,.641-1.172h1.367a2.621,2.621,0,0,1-.5,1.383,3.293,3.293,0,0,1-1.23,1.047,3.55,3.55,0,0,1-1.629.391A3.482,3.482,0,0,1-41.652-1a4.59,4.59,0,0,1-1.02-3.152v-.242a5.089,5.089,0,0,1,.453-2.2,3.451,3.451,0,0,1,1.3-1.492,3.7,3.7,0,0,1,2-.531,3.39,3.39,0,0,1,2.363.852,3.043,3.043,0,0,1,1,2.211h-1.367a1.992,1.992,0,0,0-.621-1.348,1.932,1.932,0,0,0-1.379-.527,2.023,2.023,0,0,0-1.707.793,3.724,3.724,0,0,0-.605,2.293v.273a3.65,3.65,0,0,0,.6,2.25A2.033,2.033,0,0,0-38.906-1.023Zm6.945-9.477v2.047h1.578v1.117h-1.578v5.249a1.173,1.173,0,0,0,.211.763.888.888,0,0,0,.719.254,3.5,3.5,0,0,0,.688-.094V0a4.215,4.215,0,0,1-1.109.155A1.8,1.8,0,0,1-32.914-.43a2.517,2.517,0,0,1-.492-1.664V-7.336h-1.539V-8.453h1.539V-10.5Zm8.484,9.664a3.07,3.07,0,0,1-2.477.992,2.628,2.628,0,0,1-2.059-.785,3.4,3.4,0,0,1-.715-2.324v-5.5h1.445v5.461q0,1.922,1.563,1.922a2.163,2.163,0,0,0,2.2-1.234V-8.453h1.445V0h-1.375Zm7.688-6.32a4.331,4.331,0,0,0-.711-.055A1.9,1.9,0,0,0-18.43-6V0h-1.445V-8.453h1.406l.023.977A2.251,2.251,0,0,1-16.43-8.609a1.477,1.477,0,0,1,.641.109ZM-9.555,0a3.036,3.036,0,0,1-.2-.891A3.225,3.225,0,0,1-12.164.156a2.984,2.984,0,0,1-2.051-.707,2.287,2.287,0,0,1-.8-1.793,2.39,2.39,0,0,1,1-2.051,4.733,4.733,0,0,1,2.824-.73h1.406v-.664A1.623,1.623,0,0,0-10.234-7a1.821,1.821,0,0,0-1.336-.449,2.107,2.107,0,0,0-1.3.391,1.151,1.151,0,0,0-.523.945h-1.453a2,2,0,0,1,.449-1.223,3.066,3.066,0,0,1,1.219-.934,4.1,4.1,0,0,1,1.691-.344,3.342,3.342,0,0,1,2.289.73,2.635,2.635,0,0,1,.859,2.012v3.891a4.757,4.757,0,0,0,.3,1.852V0Zm-2.4-1.1a2.54,2.54,0,0,0,1.289-.352,2.127,2.127,0,0,0,.883-.914V-4.1h-1.133q-2.656,0-2.656,1.555a1.316,1.316,0,0,0,.453,1.063A1.742,1.742,0,0,0-11.953-1.1Zm9.492-3.2a4.952,4.952,0,0,1,.922-3.129A2.915,2.915,0,0,1,.875-8.609,2.932,2.932,0,0,1,3.227-7.594V-12H4.672V0H3.344l-.07-.906A2.943,2.943,0,0,1,.859.156a2.887,2.887,0,0,1-2.395-1.2,5.008,5.008,0,0,1-.926-3.141Zm1.445.164a3.749,3.749,0,0,0,.594,2.25,1.92,1.92,0,0,0,1.641.813A2.108,2.108,0,0,0,3.227-2.3V-6.187a2.125,2.125,0,0,0-1.992-1.2,1.929,1.929,0,0,0-1.656.82A4.128,4.128,0,0,0-1.016-4.133ZM10.422.156a3.693,3.693,0,0,1-2.8-1.129,4.19,4.19,0,0,1-1.078-3.02v-.266A5.073,5.073,0,0,1,7.027-6.5,3.748,3.748,0,0,1,8.371-8.051a3.378,3.378,0,0,1,1.871-.559A3.166,3.166,0,0,1,12.8-7.523a4.7,4.7,0,0,1,.914,3.109v.6H7.992a3,3,0,0,0,.73,2.02,2.3,2.3,0,0,0,1.777.77,2.517,2.517,0,0,0,1.3-.312,3.259,3.259,0,0,0,.93-.828l.883.688A3.55,3.55,0,0,1,10.422.156Zm-.18-7.578a1.928,1.928,0,0,0-1.469.637A3.1,3.1,0,0,0,8.039-5h4.234v-.109a2.753,2.753,0,0,0-.594-1.707A1.815,1.815,0,0,0,10.242-7.422ZM16.961,0H15.516V-12h1.445Zm9.852-5.07A7.053,7.053,0,0,1,24-6.434a2.6,2.6,0,0,1-.879-2A2.751,2.751,0,0,1,24.2-10.652a4.269,4.269,0,0,1,2.793-.879,4.66,4.66,0,0,1,2.09.453A3.436,3.436,0,0,1,30.5-9.828a3.2,3.2,0,0,1,.5,1.742H29.5a2.08,2.08,0,0,0-.656-1.627,2.669,2.669,0,0,0-1.852-.592,2.732,2.732,0,0,0-1.73.489,1.632,1.632,0,0,0-.621,1.358,1.468,1.468,0,0,0,.59,1.178,5.785,5.785,0,0,0,2.008.88,9.316,9.316,0,0,1,2.219.88A3.367,3.367,0,0,1,30.645-4.4a2.861,2.861,0,0,1,.387,1.508A2.658,2.658,0,0,1,29.953-.676,4.6,4.6,0,0,1,27.07.156a5.347,5.347,0,0,1-2.187-.449,3.681,3.681,0,0,1-1.566-1.23A3,3,0,0,1,22.766-3.3h1.508a1.959,1.959,0,0,0,.762,1.629,3.207,3.207,0,0,0,2.035.6,2.948,2.948,0,0,0,1.82-.484,1.573,1.573,0,0,0,.633-1.32,1.545,1.545,0,0,0-.586-1.293A6.755,6.755,0,0,0,26.813-5.07ZM34.3,0H32.852V-8.453H34.3ZM32.734-10.7a.863.863,0,0,1,.215-.594.807.807,0,0,1,.637-.242.819.819,0,0,1,.641.242.854.854,0,0,1,.219.594.826.826,0,0,1-.219.586.834.834,0,0,1-.641.234.821.821,0,0,1-.637-.234A.834.834,0,0,1,32.734-10.7Zm8.8,8.453a1.064,1.064,0,0,0-.441-.91,4.249,4.249,0,0,0-1.539-.559,7.277,7.277,0,0,1-1.742-.562,2.479,2.479,0,0,1-.953-.781,1.869,1.869,0,0,1-.309-1.078,2.193,2.193,0,0,1,.879-1.758,3.432,3.432,0,0,1,2.246-.719A3.532,3.532,0,0,1,42-7.867a2.357,2.357,0,0,1,.895,1.9H41.445a1.3,1.3,0,0,0-.5-1.023,1.888,1.888,0,0,0-1.27-.43,1.976,1.976,0,0,0-1.234.344,1.082,1.082,0,0,0-.445.9.877.877,0,0,0,.414.789,5.1,5.1,0,0,0,1.5.508,7.8,7.8,0,0,1,1.754.578,2.558,2.558,0,0,1,1,.809,1.988,1.988,0,0,1,.324,1.152A2.163,2.163,0,0,1,42.07-.527a3.8,3.8,0,0,1-2.352.684,4.257,4.257,0,0,1-1.8-.359,2.922,2.922,0,0,1-1.223-1A2.42,2.42,0,0,1,36.258-2.6H37.7a1.5,1.5,0,0,0,.582,1.152,2.258,2.258,0,0,0,1.434.426,2.331,2.331,0,0,0,1.316-.332A1.02,1.02,0,0,0,41.531-2.242ZM46.82-10.5v2.047H48.4v1.117H46.82v5.249a1.173,1.173,0,0,0,.211.763.888.888,0,0,0,.719.254,3.5,3.5,0,0,0,.688-.094V0a4.215,4.215,0,0,1-1.109.155A1.8,1.8,0,0,1,45.867-.43a2.517,2.517,0,0,1-.492-1.664V-7.336H43.836V-8.453h1.539V-10.5ZM53.594.156A3.693,3.693,0,0,1,50.8-.973a4.19,4.19,0,0,1-1.078-3.02v-.266A5.073,5.073,0,0,1,50.2-6.5a3.748,3.748,0,0,1,1.344-1.547,3.378,3.378,0,0,1,1.871-.559,3.166,3.166,0,0,1,2.563,1.086,4.7,4.7,0,0,1,.914,3.109v.6H51.164a3,3,0,0,0,.73,2.02,2.3,2.3,0,0,0,1.777.77,2.517,2.517,0,0,0,1.3-.312,3.259,3.259,0,0,0,.93-.828l.883.688A3.55,3.55,0,0,1,53.594.156Zm-.18-7.578a1.928,1.928,0,0,0-1.469.637A3.1,3.1,0,0,0,51.211-5h4.234v-.109a2.753,2.753,0,0,0-.594-1.707A1.815,1.815,0,0,0,53.414-7.422Zm6.508-1.031.039.938a3.122,3.122,0,0,1,2.508-1.094A2.417,2.417,0,0,1,64.883-7.25a3.2,3.2,0,0,1,1.1-.984,3.242,3.242,0,0,1,1.6-.375q2.781,0,2.828,2.945V0H68.961V-5.578a1.941,1.941,0,0,0-.414-1.355,1.823,1.823,0,0,0-1.391-.449,1.916,1.916,0,0,0-1.336.48A1.949,1.949,0,0,0,65.2-5.609V0H63.75V-5.539a1.613,1.613,0,0,0-1.8-1.844A1.934,1.934,0,0,0,60-6.172V0H58.555V-8.453ZM77.8,0a3.036,3.036,0,0,1-.2-.891A3.225,3.225,0,0,1,75.2.156a2.984,2.984,0,0,1-2.051-.707,2.288,2.288,0,0,1-.8-1.793,2.39,2.39,0,0,1,1-2.051,4.733,4.733,0,0,1,2.824-.73h1.406v-.664A1.623,1.623,0,0,0,77.125-7a1.821,1.821,0,0,0-1.336-.449,2.108,2.108,0,0,0-1.3.391,1.151,1.151,0,0,0-.523.945H72.516a2,2,0,0,1,.449-1.223,3.066,3.066,0,0,1,1.219-.934,4.1,4.1,0,0,1,1.691-.344,3.342,3.342,0,0,1,2.289.73,2.635,2.635,0,0,1,.859,2.012v3.891a4.757,4.757,0,0,0,.3,1.852V0Zm-2.4-1.1A2.54,2.54,0,0,0,76.7-1.453a2.127,2.127,0,0,0,.883-.914V-4.1H76.445q-2.656,0-2.656,1.555a1.316,1.316,0,0,0,.453,1.063A1.742,1.742,0,0,0,75.406-1.1Z" transform="translate(646 2024)" fill="#fff"/>
      <path id="Trazado_102913" data-name="Trazado 102913" d="M-85.5-4.453V0H-87V-11.375h4.2a4.215,4.215,0,0,1,2.926.953A3.231,3.231,0,0,1-78.824-7.9a3.189,3.189,0,0,1-1.035,2.551,4.4,4.4,0,0,1-2.965.895Zm0-1.227h2.7a2.7,2.7,0,0,0,1.844-.567,2.075,2.075,0,0,0,.641-1.64,2.143,2.143,0,0,0-.641-1.628,2.525,2.525,0,0,0-1.758-.634H-85.5Zm12.453-1.477a4.331,4.331,0,0,0-.711-.055A1.9,1.9,0,0,0-75.691-6V0h-1.445V-8.453h1.406l.023.977a2.251,2.251,0,0,1,2.016-1.133,1.477,1.477,0,0,1,.641.109Zm.789,2.852a4.993,4.993,0,0,1,.488-2.234A3.643,3.643,0,0,1-70.414-8.07a3.7,3.7,0,0,1,1.988-.539,3.565,3.565,0,0,1,2.793,1.2,4.6,4.6,0,0,1,1.066,3.18v.1a5.036,5.036,0,0,1-.473,2.215A3.589,3.589,0,0,1-66.391-.391a3.743,3.743,0,0,1-2.02.547,3.556,3.556,0,0,1-2.785-1.2A4.575,4.575,0,0,1-72.262-4.2Zm1.453.172a3.616,3.616,0,0,0,.652,2.258,2.088,2.088,0,0,0,1.746.852,2.075,2.075,0,0,0,1.75-.863A3.955,3.955,0,0,0-66.012-4.3a3.61,3.61,0,0,0-.66-2.254,2.1,2.1,0,0,0-1.754-.863,2.075,2.075,0,0,0-1.727.852A3.925,3.925,0,0,0-70.809-4.133Zm15.2,0A5.062,5.062,0,0,1-56.5-1.023,2.829,2.829,0,0,1-58.887.156,3.1,3.1,0,0,1-61.309-.82V3.25h-1.445v-11.7h1.32l.07.938A2.977,2.977,0,0,1-58.91-8.609,2.882,2.882,0,0,1-56.5-7.461a5.117,5.117,0,0,1,.887,3.2ZM-57.059-4.3a3.735,3.735,0,0,0-.609-2.258,1.963,1.963,0,0,0-1.672-.828,2.125,2.125,0,0,0-1.969,1.164V-2.18a2.129,2.129,0,0,0,1.984,1.156,1.954,1.954,0,0,0,1.652-.824A4.077,4.077,0,0,0-57.059-4.3ZM-52.207,0h-1.445V-8.453h1.445ZM-53.77-10.7a.863.863,0,0,1,.215-.594.807.807,0,0,1,.637-.242.819.819,0,0,1,.641.242.854.854,0,0,1,.219.594.826.826,0,0,1-.219.586.834.834,0,0,1-.641.234.821.821,0,0,1-.637-.234A.834.834,0,0,1-53.77-10.7ZM-46.387.156a3.693,3.693,0,0,1-2.8-1.129,4.19,4.19,0,0,1-1.078-3.02v-.266a5.073,5.073,0,0,1,.48-2.246,3.748,3.748,0,0,1,1.344-1.547,3.378,3.378,0,0,1,1.871-.559A3.166,3.166,0,0,1-44-7.523a4.7,4.7,0,0,1,.914,3.109v.6h-5.727a3,3,0,0,0,.73,2.02,2.3,2.3,0,0,0,1.777.77,2.517,2.517,0,0,0,1.3-.312,3.259,3.259,0,0,0,.93-.828l.883.688A3.55,3.55,0,0,1-46.387.156Zm-.18-7.578a1.928,1.928,0,0,0-1.469.637A3.1,3.1,0,0,0-48.77-5h4.234v-.109a2.753,2.753,0,0,0-.594-1.707A1.815,1.815,0,0,0-46.566-7.422Zm4.8,3.125a4.952,4.952,0,0,1,.922-3.129,2.915,2.915,0,0,1,2.414-1.184,2.932,2.932,0,0,1,2.352,1.016V-12h1.445V0h-1.328l-.07-.906A2.943,2.943,0,0,1-38.449.156a2.887,2.887,0,0,1-2.395-1.2,5.008,5.008,0,0,1-.926-3.141Zm1.445.164a3.749,3.749,0,0,0,.594,2.25,1.92,1.92,0,0,0,1.641.813A2.108,2.108,0,0,0-36.082-2.3V-6.187a2.125,2.125,0,0,0-1.992-1.2,1.929,1.929,0,0,0-1.656.82A4.128,4.128,0,0,0-40.324-4.133ZM-27.176,0a3.036,3.036,0,0,1-.2-.891A3.225,3.225,0,0,1-29.785.156a2.984,2.984,0,0,1-2.051-.707,2.287,2.287,0,0,1-.8-1.793,2.39,2.39,0,0,1,1-2.051,4.733,4.733,0,0,1,2.824-.73H-27.4v-.664A1.623,1.623,0,0,0-27.855-7a1.821,1.821,0,0,0-1.336-.449,2.108,2.108,0,0,0-1.3.391,1.151,1.151,0,0,0-.523.945h-1.453a2,2,0,0,1,.449-1.223A3.066,3.066,0,0,1-30.8-8.266a4.1,4.1,0,0,1,1.691-.344,3.342,3.342,0,0,1,2.289.73,2.635,2.635,0,0,1,.859,2.012v3.891a4.757,4.757,0,0,0,.3,1.852V0Zm-2.4-1.1a2.54,2.54,0,0,0,1.289-.352,2.127,2.127,0,0,0,.883-.914V-4.1h-1.133q-2.656,0-2.656,1.555a1.316,1.316,0,0,0,.453,1.063A1.742,1.742,0,0,0-29.574-1.1Zm5.531-3.2a4.952,4.952,0,0,1,.922-3.129,2.915,2.915,0,0,1,2.414-1.184,2.932,2.932,0,0,1,2.352,1.016V-12h1.445V0h-1.328l-.07-.906A2.943,2.943,0,0,1-20.723.156a2.887,2.887,0,0,1-2.395-1.2,5.008,5.008,0,0,1-.926-3.141Zm1.445.164A3.749,3.749,0,0,0-22-1.883a1.92,1.92,0,0,0,1.641.813A2.108,2.108,0,0,0-18.355-2.3V-6.187a2.125,2.125,0,0,0-1.992-1.2A1.929,1.929,0,0,0-22-6.562,4.128,4.128,0,0,0-22.6-4.133ZM-11.16.156a3.693,3.693,0,0,1-2.8-1.129,4.19,4.19,0,0,1-1.078-3.02v-.266a5.073,5.073,0,0,1,.48-2.246,3.748,3.748,0,0,1,1.344-1.547,3.378,3.378,0,0,1,1.871-.559A3.166,3.166,0,0,1-8.777-7.523a4.7,4.7,0,0,1,.914,3.109v.6H-13.59a3,3,0,0,0,.73,2.02,2.3,2.3,0,0,0,1.777.77,2.517,2.517,0,0,0,1.3-.312,3.259,3.259,0,0,0,.93-.828l.883.688A3.55,3.55,0,0,1-11.16.156Zm-.18-7.578a1.928,1.928,0,0,0-1.469.637A3.1,3.1,0,0,0-13.543-5h4.234v-.109A2.753,2.753,0,0,0-9.9-6.816,1.815,1.815,0,0,0-11.34-7.422Zm10.07,5.18a1.064,1.064,0,0,0-.441-.91A4.249,4.249,0,0,0-3.25-3.711a7.277,7.277,0,0,1-1.742-.562,2.479,2.479,0,0,1-.953-.781,1.869,1.869,0,0,1-.309-1.078,2.193,2.193,0,0,1,.879-1.758,3.432,3.432,0,0,1,2.246-.719A3.532,3.532,0,0,1-.8-7.867,2.357,2.357,0,0,1,.1-5.969H-1.355a1.3,1.3,0,0,0-.5-1.023,1.888,1.888,0,0,0-1.27-.43,1.976,1.976,0,0,0-1.234.344,1.082,1.082,0,0,0-.445.9.877.877,0,0,0,.414.789,5.1,5.1,0,0,0,1.5.508A7.8,7.8,0,0,1-1.145-4.3a2.558,2.558,0,0,1,1,.809A1.988,1.988,0,0,1,.176-2.344,2.163,2.163,0,0,1-.73-.527,3.8,3.8,0,0,1-3.082.156,4.257,4.257,0,0,1-4.879-.2a2.922,2.922,0,0,1-1.223-1A2.42,2.42,0,0,1-6.543-2.6H-5.1a1.5,1.5,0,0,0,.582,1.152,2.258,2.258,0,0,0,1.434.426,2.331,2.331,0,0,0,1.316-.332A1.02,1.02,0,0,0-1.27-2.242ZM5.668-4.3A4.952,4.952,0,0,1,6.59-7.426,2.915,2.915,0,0,1,9-8.609a2.932,2.932,0,0,1,2.352,1.016V-12H12.8V0H11.473L11.4-.906A2.943,2.943,0,0,1,8.988.156a2.887,2.887,0,0,1-2.395-1.2,5.008,5.008,0,0,1-.926-3.141Zm1.445.164a3.749,3.749,0,0,0,.594,2.25,1.92,1.92,0,0,0,1.641.813A2.108,2.108,0,0,0,11.355-2.3V-6.187a2.125,2.125,0,0,0-1.992-1.2,1.929,1.929,0,0,0-1.656.82A4.128,4.128,0,0,0,7.113-4.133ZM18.551.156a3.693,3.693,0,0,1-2.8-1.129,4.19,4.19,0,0,1-1.078-3.02v-.266a5.073,5.073,0,0,1,.48-2.246A3.748,3.748,0,0,1,16.5-8.051a3.378,3.378,0,0,1,1.871-.559,3.166,3.166,0,0,1,2.563,1.086,4.7,4.7,0,0,1,.914,3.109v.6H16.121a3,3,0,0,0,.73,2.02,2.3,2.3,0,0,0,1.777.77,2.517,2.517,0,0,0,1.3-.312,3.259,3.259,0,0,0,.93-.828l.883.688A3.55,3.55,0,0,1,18.551.156Zm-.18-7.578a1.928,1.928,0,0,0-1.469.637A3.1,3.1,0,0,0,16.168-5H20.4v-.109a2.753,2.753,0,0,0-.594-1.707A1.815,1.815,0,0,0,18.371-7.422ZM25.09,0H23.645V-12H25.09Zm9.852-5.07a7.053,7.053,0,0,1-2.809-1.363,2.6,2.6,0,0,1-.879-2,2.751,2.751,0,0,1,1.074-2.223,4.269,4.269,0,0,1,2.793-.879,4.66,4.66,0,0,1,2.09.453,3.436,3.436,0,0,1,1.422,1.25,3.2,3.2,0,0,1,.5,1.742H37.629a2.08,2.08,0,0,0-.656-1.627,2.669,2.669,0,0,0-1.852-.592,2.732,2.732,0,0,0-1.73.489,1.632,1.632,0,0,0-.621,1.358,1.468,1.468,0,0,0,.59,1.178,5.785,5.785,0,0,0,2.008.88,9.316,9.316,0,0,1,2.219.88A3.367,3.367,0,0,1,38.773-4.4a2.861,2.861,0,0,1,.387,1.508A2.658,2.658,0,0,1,38.082-.676,4.6,4.6,0,0,1,35.2.156a5.347,5.347,0,0,1-2.187-.449,3.681,3.681,0,0,1-1.566-1.23A3,3,0,0,1,30.895-3.3H32.4a1.959,1.959,0,0,0,.762,1.629,3.207,3.207,0,0,0,2.035.6,2.948,2.948,0,0,0,1.82-.484,1.573,1.573,0,0,0,.633-1.32,1.545,1.545,0,0,0-.586-1.293A6.755,6.755,0,0,0,34.941-5.07ZM42.426,0H40.98V-8.453h1.445ZM40.863-10.7a.863.863,0,0,1,.215-.594.807.807,0,0,1,.637-.242.819.819,0,0,1,.641.242.854.854,0,0,1,.219.594.826.826,0,0,1-.219.586.834.834,0,0,1-.641.234.821.821,0,0,1-.637-.234A.834.834,0,0,1,40.863-10.7Zm8.8,8.453a1.064,1.064,0,0,0-.441-.91,4.249,4.249,0,0,0-1.539-.559,7.277,7.277,0,0,1-1.742-.562,2.479,2.479,0,0,1-.953-.781,1.869,1.869,0,0,1-.309-1.078,2.193,2.193,0,0,1,.879-1.758A3.432,3.432,0,0,1,47.8-8.609a3.532,3.532,0,0,1,2.332.742,2.357,2.357,0,0,1,.895,1.9H49.574a1.3,1.3,0,0,0-.5-1.023,1.888,1.888,0,0,0-1.27-.43,1.976,1.976,0,0,0-1.234.344,1.082,1.082,0,0,0-.445.9.877.877,0,0,0,.414.789,5.1,5.1,0,0,0,1.5.508,7.8,7.8,0,0,1,1.754.578,2.558,2.558,0,0,1,1,.809,1.988,1.988,0,0,1,.324,1.152A2.163,2.163,0,0,1,50.2-.527a3.8,3.8,0,0,1-2.352.684,4.257,4.257,0,0,1-1.8-.359,2.922,2.922,0,0,1-1.223-1A2.42,2.42,0,0,1,44.387-2.6h1.445a1.5,1.5,0,0,0,.582,1.152,2.258,2.258,0,0,0,1.434.426,2.331,2.331,0,0,0,1.316-.332A1.02,1.02,0,0,0,49.66-2.242ZM54.949-10.5v2.047h1.578v1.117H54.949v5.249a1.173,1.173,0,0,0,.211.763.888.888,0,0,0,.719.254,3.5,3.5,0,0,0,.688-.094V0a4.215,4.215,0,0,1-1.109.155A1.8,1.8,0,0,1,54-.43,2.517,2.517,0,0,1,53.5-2.094V-7.336H51.965V-8.453H53.5V-10.5ZM61.723.156a3.693,3.693,0,0,1-2.8-1.129,4.19,4.19,0,0,1-1.078-3.02v-.266a5.073,5.073,0,0,1,.48-2.246,3.748,3.748,0,0,1,1.344-1.547,3.378,3.378,0,0,1,1.871-.559,3.166,3.166,0,0,1,2.563,1.086,4.7,4.7,0,0,1,.914,3.109v.6H59.293a3,3,0,0,0,.73,2.02,2.3,2.3,0,0,0,1.777.77,2.517,2.517,0,0,0,1.3-.312,3.259,3.259,0,0,0,.93-.828l.883.688A3.55,3.55,0,0,1,61.723.156Zm-.18-7.578a1.928,1.928,0,0,0-1.469.637A3.1,3.1,0,0,0,59.34-5h4.234v-.109a2.753,2.753,0,0,0-.594-1.707A1.815,1.815,0,0,0,61.543-7.422Zm6.508-1.031.039.938A3.122,3.122,0,0,1,70.6-8.609,2.417,2.417,0,0,1,73.012-7.25a3.2,3.2,0,0,1,1.1-.984,3.242,3.242,0,0,1,1.6-.375q2.781,0,2.828,2.945V0H77.09V-5.578a1.941,1.941,0,0,0-.414-1.355,1.823,1.823,0,0,0-1.391-.449,1.916,1.916,0,0,0-1.336.48,1.949,1.949,0,0,0-.617,1.293V0H71.879V-5.539a1.613,1.613,0,0,0-1.8-1.844,1.934,1.934,0,0,0-1.945,1.211V0H66.684V-8.453ZM85.934,0a3.036,3.036,0,0,1-.2-.891A3.225,3.225,0,0,1,83.324.156a2.984,2.984,0,0,1-2.051-.707,2.288,2.288,0,0,1-.8-1.793,2.39,2.39,0,0,1,1-2.051,4.733,4.733,0,0,1,2.824-.73h1.406v-.664A1.623,1.623,0,0,0,85.254-7a1.821,1.821,0,0,0-1.336-.449,2.108,2.108,0,0,0-1.3.391,1.151,1.151,0,0,0-.523.945H80.645a2,2,0,0,1,.449-1.223,3.066,3.066,0,0,1,1.219-.934A4.1,4.1,0,0,1,84-8.609a3.342,3.342,0,0,1,2.289.73,2.635,2.635,0,0,1,.859,2.012v3.891a4.757,4.757,0,0,0,.3,1.852V0Zm-2.4-1.1a2.54,2.54,0,0,0,1.289-.352,2.127,2.127,0,0,0,.883-.914V-4.1H84.574q-2.656,0-2.656,1.555a1.316,1.316,0,0,0,.453,1.063A1.742,1.742,0,0,0,83.535-1.1Z" transform="translate(893 2024)" fill="#fff"/>
      <path id="Trazado_99454" data-name="Trazado 99454" d="M-9084-9631v36.663" transform="translate(9732 11663)" fill="none" stroke="#3366c2" stroke-width="2"/>
      <path id="Trazado_99455" data-name="Trazado 99455" d="M-9084-9631v36.663" transform="translate(9971 11663)" fill="none" stroke="#3366c2" stroke-width="2"/>
      <path id="Trazado_99456" data-name="Trazado 99456" d="M-9149-9576.58v-17.757h132.77v17.757" transform="translate(9731 11663)" fill="none" stroke="#3366c2" stroke-width="2"/>
      <path id="Trazado_99457" data-name="Trazado 99457" d="M-9149-9576.58v-17.757h154.385v17.757" transform="translate(9956.615 11663)" fill="none" stroke="#3366c2" stroke-width="2"/>
      <g id="Trazado_99458" data-name="Trazado 99458" transform="translate(760 2086)" fill="none">
        <path d="M0,0H127.315V68H0Z" stroke="none"/>
        <path d="M 1.000007629394531 1 L 1.000007629394531 67 L 52.95480346679688 67 L 78.18943786621094 67 L 126.3149337768555 67 L 126.3149337768555 1 L 1.000007629394531 1 M 7.62939453125e-06 0 L 127.3149337768555 0 L 127.3149337768555 68 L 78.18943786621094 68 L 52.95480346679688 68 L 7.62939453125e-06 68 L 7.62939453125e-06 0 Z" stroke="none" fill="#3366c2"/>
      </g>
      <g id="Rectángulo_5100" data-name="Rectángulo 5100" transform="translate(900 2086)" fill="none" stroke="#3366c2" stroke-width="1">
        <rect width="118" height="68" stroke="none"/>
        <rect x="0.5" y="0.5" width="117" height="67" fill="none"/>
      </g>
      <g id="Trazado_99459" data-name="Trazado 99459" transform="translate(662 2086)" fill="none">
        <path d="M0,0H90V68H0Z" stroke="none"/>
        <path d="M 1 1 L 1 67 L 37.4354133605957 67 L 55.27456665039063 67 L 89.0029296875 67 L 89.0029296875 1 L 1 1 M 0 0 L 90.0029296875 0 L 90.0029296875 68 L 55.27456665039063 68 L 37.4354133605957 68 L 0 68 L 0 0 Z" stroke="none" fill="#3366c2"/>
      </g>
      <g id="Trazado_99460" data-name="Trazado 99460" transform="translate(540 2086)" fill="none">
        <path d="M0,0H90V68H0Z" stroke="none"/>
        <path d="M 1 1 L 1 67 L 37.4354133605957 67 L 55.27456665039063 67 L 89.0029296875 67 L 89.0029296875 1 L 1 1 M 0 0 L 90.0029296875 0 L 90.0029296875 68 L 55.27456665039063 68 L 37.4354133605957 68 L 0 68 L 0 0 Z" stroke="none" fill="#3366c2"/>
      </g>
    </g>
    <g id="Grupo_54809" data-name="Grupo 54809" transform="translate(2003.149 230.26)">
      <ellipse id="Elipse_3998" data-name="Elipse 3998" cx="94" cy="8.659" rx="94" ry="8.659" transform="translate(-1713.15 1930.84)" fill="#e4e4e4"/>
      <path id="Trazado_102469" data-name="Trazado 102469" d="M-1589.835,1913.386s-2.267,1.7-2.5,3.165-.661,3.78-.661,3.78v11.9h1.276v-5.574s.614,4.3.566,4.677,1.748,7.748,3.024,8.882,7.606,2.881,12,1.748,2.126-5.433,1.937-5.811-4.346-4.725-4.63-4.914-6.52-7.228-6.945-7.984S-1589.835,1913.386-1589.835,1913.386Z" fill="#494f80" style="isolation: isolate"/>
      <path id="Trazado_102470" data-name="Trazado 102470" d="M-1650.78,1914.709a3.145,3.145,0,0,0-2.834,2.126c-.662,2.078-1.181,10.393-1.04,12.141s.426,3.355.426,3.355h1.748s1.133,5.2,1.181,5.527a9.057,9.057,0,0,0,4.96,3.969c2.788.709,10.111.8,10.914-.331s-3.118-8.409-3.26-8.457l-.142-.047-5.716-4.46s-4.205-6.406-4.3-6.831S-1650.78,1914.709-1650.78,1914.709Z" fill="#494f80" style="isolation: isolate"/>
      <path id="Trazado_102471" data-name="Trazado 102471" d="M-1626.733,1814.347s12.8,29.732,14.505,36.913.378,15.307,2.834,22.866,17.953,41.386,17.953,41.386,2.457,14.551,4.535,16.441,6.426,4.157,9.449,3.023-3.59-9.824-3.59-9.824l-2.079-10.207-9.26-41.2s-3.024-21.165-3.968-23.055-5.345-36.346-5.345-36.346Z" fill="#eea886" style="isolation: isolate"/>
      <path id="Trazado_102472" data-name="Trazado 102472" d="M-1638.118,1819.7l-3.024,24s-1.323,43.842-2.645,56.126-.378,23.059,1.133,25.325,5.355,11.944-1.763,10.128-6.741-12.209-6.741-12.209-1.511-18.52-1.7-20.409-3.969-38.174-4.158-40.63-1.323-42.331-1.323-42.331Z" fill="#eea886"/>
      <path id="Trazado_102473" data-name="Trazado 102473" d="M-1650.848,1749.591s-11.459,8.645-11.459,33.59v40.677s43.512,5.244,62.362-6.378L-1611,1753.134Z" fill="#494f80" style="isolation: isolate"/>
      <path id="Trazado_102474" data-name="Trazado 102474" d="M-1615.063,1754.032s-15.78,6.8-26.929.661l-3.2-26.74s-2.749-29.2-3.032-29.669-1.323-6.8-1.323-6.8l32.409-6.173Z" fill="#eddad3" style="isolation: isolate"/>
      <path id="Trazado_102475" data-name="Trazado 102475" d="M-1643.221,1662.284v17.2s8.434,10.016,8.906,10.3,4.677,2.622,4.677,2.622l2.2-3.473-2.362-7.937s-2.551-5.48-2.74-10.11-2.93-5.291-2.93-5.291Z" fill="#eea886"/>
      <path id="Trazado_102476" data-name="Trazado 102476" d="M-1631.014,1670.641s-.277,4.576-.286,8.887c-6.83-.23-10.441-7.652-11.92-11.766Z" fill="#f8904f"/>
      <path id="Trazado_102477" data-name="Trazado 102477" d="M-1625.74,1642.913c.378.1,2.74,15.5.661,21.638s-5.858,10.3-10.677,7.748-14.362-15.118-14.362-15.118,3.4-14.74,3.59-15.023,8.972-5.1,9.352-5.008S-1625.74,1642.913-1625.74,1642.913Z" fill="#eea886" style="isolation: isolate"/>
      <path id="Trazado_102478" data-name="Trazado 102478" d="M-1633.961,1642.441l10.394,13.417s.283-12.472-1.417-16.252-7.937-9.921-14.74-9.165c0,0-.284-7.37-9.827-9.449s-17.953,9.071-14.929,20.126,8.787,22.3,7.086,26.362-5.575,5.481-9.449,1.323c0,0,1.134,8.41,8.5,7.465s7.748-13.512,7.559-14.74a12.509,12.509,0,0,1,.662-3.874l2.268,3.968Z" fill="#d88a51" style="isolation: isolate"/>
      <path id="Trazado_102479" data-name="Trazado 102479" d="M-1642.087,1631.008s-9.165,2.079-10.677,7.842c0,0-.472-5.858,3.024-7.842S-1642.087,1631.008-1642.087,1631.008Z" fill="#eddad3" style="isolation: isolate"/>
      <path id="Trazado_102480" data-name="Trazado 102480" d="M-1643.976,1681.181h-3.686s-12.566,2.481-14.551,5.729-8.882,36.791-8.882,36.791-.944,6.9,0,7.464,17.764-.472,17.764-.472,1.323,6.614,0,10.2-5.48,16.063-5.48,16.063,15.4,5.669,16.724,4.819,6.094-21.638,7.11-26.268a37.093,37.093,0,0,0,1.016-7.087l3.78-.094v-6.236l-3.118.094s3.292-22.3-4.118-29.953S-1643.976,1681.181-1643.976,1681.181Z" fill="#ef4188" style="isolation: isolate"/>
      <path id="Trazado_102481" data-name="Trazado 102481" d="M-1627.441,1688.929l2.74,8.882a82.626,82.626,0,0,1,4.158,20.5c.472,10.11.661,36.378.661,36.378s-1.7,5.291,1.323,4.724,9.354-3.59,9.354-3.59l-.661-11.811,19.559-2.551s8.6-.284,8.031-11.622-9.543-22.3-11.905-23.433-8.315-9.071-8.315-9.071-7.181-17.619-27.685-17.219Z" fill="#ef4188" style="isolation: isolate"/>
      <path id="Trazado_102482" data-name="Trazado 102482" d="M-1632.4,1733.5l-1.894-1.655,15.146-2.526,4.606,1.63v5.386l-3.118,3.094Z" fill="#b5a6a1" style="isolation: isolate"/>
      <path id="Trazado_102483" data-name="Trazado 102483" d="M-1629.284,1692.685l5.05-2.551-6.78-12.205.667,11.071.142,1.984Z" fill="#ceb5ae"/>
      <path id="Trazado_102484" data-name="Trazado 102484" d="M-1631.014,1677.929l11.864,14.756-5.084-2.551Z" fill="#eddad3"/>
      <path id="Trazado_102485" data-name="Trazado 102485" d="M-1629.638,1692.685l-4.039-1.7-6.024,4.607s-4.89-13.748-5.1-14.6a6.44,6.44,0,0,0-.393-1.2l1.456-1.559Z" fill="#eddad3" style="isolation: isolate"/>
      <path id="Trazado_102486" data-name="Trazado 102486" d="M-1630.181,1722.095l9.792.379s3.342,2.077,3.909,3.306a19.117,19.117,0,0,0,1.417,2.456l-1.134,3.591s-1.039-.378-1.323,0-6.714-4.158-6.714-4.158l-5.947-.283Z" fill="#eea886"/>
      <path id="Trazado_102487" data-name="Trazado 102487" d="M-1611.756,1737.685v6.614l-11.528-.567s-7.937-3.685-8.692-4.63-2.174-2.834-2.174-2.834v-1.7l11.528,2.646Z" fill="#eea886"/>
      <path id="Trazado_102488" data-name="Trazado 102488" d="M-1562.244,1690.724l-45.26,5.386-10.772,41.291-16.02-5.552-.482,2.718,15.628,6.047,45.283-8.031Z" fill="#eddad3" style="isolation: isolate"/>
    </g>
    <g id="Grupo_54814" data-name="Grupo 54814" transform="translate(3051.229 230.243)">
      <ellipse id="Elipse_3998-2" data-name="Elipse 3998" cx="94" cy="8.659" rx="94" ry="8.659" transform="translate(-1929.229 1930.84)" fill="#e4e4e4"/>
      <g id="Grupo_54813" data-name="Grupo 54813">
        <g id="Grupo_54810" data-name="Grupo 54810">
          <path id="Trazado_102489" data-name="Trazado 102489" d="M-1866.543,1937.733c-.261,3.553-5.274,3.591-10.963,2.931s-4.176.78-12.141.89-10.711-2.521-11.1-3.66c-.344-1.009,3.492-1.86,7.6-2.859.517-.124,1.035-.254,1.552-.385,4.628-1.176,7.692-4.64,11.652-7.664,3.75-2.865,8.586-13.232,8.586-13.232l10.882-.492s-4.583,9.294-6.3,13.3c-1.012,2.357-.581,5.252-.141,7.475A13.971,13.971,0,0,1-1866.543,1937.733Z" fill="#ffad73"/>
          <path id="Trazado_102490" data-name="Trazado 102490" d="M-1877.506,1940.664c-5.689-.66-4.176.78-12.141.89s-10.711-2.521-11.1-3.66c-.344-1.009,3.492-1.86,7.6-2.859l.049.075a22.323,22.323,0,0,0,11.688,2.094c5.346-.536,10.8-2.767,14.49-3.167a13.971,13.971,0,0,1,.377,3.7C-1866.8,1941.286-1871.817,1941.324-1877.506,1940.664Z" fill="#1f3765"/>
        </g>
        <g id="Grupo_54811" data-name="Grupo 54811">
          <path id="Trazado_102491" data-name="Trazado 102491" d="M-1791.4,1938.469c-.257,3.554-5.27,3.6-10.959,2.943s-4.176.784-12.141.9-10.713-2.511-11.1-3.649c-.345-1.01,3.491-1.863,7.594-2.867.516-.124,1.034-.255,1.552-.386,4.626-1.182,7.687-4.648,11.643-7.676,3.748-2.869,0-19.851,0-19.851l11.968-1.165s-.574,14.3-.567,20.8c0,2.565,1.183,5.032,1.626,7.254A13.965,13.965,0,0,1-1791.4,1938.469Z" fill="#ffad73"/>
          <path id="Trazado_102492" data-name="Trazado 102492" d="M-1802.354,1941.412c-5.69-.654-4.176.784-12.141.9s-10.713-2.511-11.1-3.649c-.345-1.01,3.491-1.863,7.594-2.867l.049.075a22.319,22.319,0,0,0,11.69,2.082c5.346-.542,10.8-2.779,14.487-3.182a13.965,13.965,0,0,1,.38,3.695C-1791.652,1942.023-1796.665,1942.066-1802.354,1941.412Z" fill="#1f3765"/>
        </g>
        <path id="Trazado_102493" data-name="Trazado 102493" d="M-1826.322,1644.961c-2.06-8.474.927-12.42,3.621-14.521,1.278-3.119,2.737-5.367,4.228-6.215a15.269,15.269,0,0,1,8.26-1.58,3.86,3.86,0,0,0-1.742-.826c1.414-.21,4.569,1.192,4.569,1.192,19.665-7.578,22.756,21.378,22.343,28.1s-.356,14.649,9.876,19.949c19.521,10.113-6.488,48.223-6.488,48.223.5-5.436-24.586-34.124-37.673-42.715-3.185-4.69-4.317-12.975-4.4-13.627.55,6.569,1.674,10.254,2.678,12.329C-1827.016,1669.785-1827.9,1656.6-1826.322,1644.961Z" fill="#b43d37"/>
        <path id="Trazado_102494" data-name="Trazado 102494" d="M-1818.553,1677c-.065.03,6.318,3.345,11.12,2.031,4.517-1.231,7.469-7.088,7.406-7.1-1.913-.38-2.464-3.009-2.423-14.3l-.865.17-14.54,2.879s.331,4.576.341,8.887C-1817.505,1673.181-1817.724,1676.614-1818.553,1677Z" fill="#ffad73"/>
        <path id="Trazado_102495" data-name="Trazado 102495" d="M-1817.855,1660.675s.331,4.576.341,8.887c8.136-.229,12.437-7.652,14.2-11.766Z" fill="#f8904f"/>
        <path id="Trazado_102496" data-name="Trazado 102496" d="M-1877.013,1919.514a3.568,3.568,0,0,0,3.233,4.648l5.68.265,6.01.185a4.826,4.826,0,0,0,3.89-1.776,168.975,168.975,0,0,0,28.521-54q.379-1.2.8-2.427c5.915-17.249,18.178-38.9,24.641-58.5,1.029-3.121,1.952-6.059,2.781-8.84.265-.891.524-1.765.77-2.627a207.891,207.891,0,0,0,7.412-39.021l-46.666.374S-1849.765,1834.156-1877.013,1919.514Z" fill="#ef4188" style="isolation: isolate"/>
        <path id="Trazado_102497" data-name="Trazado 102497" d="M-1833.408,1730.982c.118,22.206-3.258,31.734-3.258,31.734a62.71,62.71,0,0,0,43.729,2.678c.279-.088,16.989-4.819,16.989-4.819-.4-.9-3.7-15.757-4.086-16.582-5.014-10.767-6.38-15.287-6.975-18.6a70.447,70.447,0,0,1-.578-18.6,149.3,149.3,0,0,1,5.759-29.217c-6.471-1.472-12.53-4.059-19.265-6.584-1.548,1.929-6.284,3.947-10.392,3.855-4.73-.1-6.264-2.13-6.019-4.34-5.041,2.8-9.063,5.454-9.063,5.454-4.284,7.442-12.973,14.669-13.6,26.084C-1840.325,1704.851-1833.411,1730.36-1833.408,1730.982Z" fill="#eddad3" style="isolation: isolate"/>
        <path id="Trazado_102498" data-name="Trazado 102498" d="M-1793.275,1733.457c2.041,2.887,5.951,20.435,15.681,22.641-5.013-12.506-8.82-17.99-9.415-21.835a94.908,94.908,0,0,1-.578-21.611c-3.257-5.709-5.688-9.623-5.688-9.623-.255-.923-5.176-16.138-6.752-2.538S-1795.553,1730.228-1793.275,1733.457Z" fill="#4d99a8"/>
        <path id="Trazado_102499" data-name="Trazado 102499" d="M-1820.572,1664.757s19.25.318,19.263-11.674,2.507-20.026-9.783-20.735-14.684,3.863-15.662,7.864S-1825.58,1664.365-1820.572,1664.757Z" fill="#ffad73"/>
        <path id="Trazado_102500" data-name="Trazado 102500" d="M-1819.86,1632.054s5.271,14.068,13.36,16.148,11.6-.087,11.6-.087a22.909,22.909,0,0,1-7.492-13.533S-1815.884,1625.358-1819.86,1632.054Z" fill="#b43d37"/>
        <path id="Trazado_102501" data-name="Trazado 102501" d="M-1818.554,1633.2s-3.936,3.141-4.9,6.194-1.392,9.34-3.224,9.126c0,0-3.971-9.562.492-14.971C-1821.449,1627.809-1818.554,1633.2-1818.554,1633.2Z" fill="#b43d37"/>
        <path id="Trazado_102502" data-name="Trazado 102502" d="M-1850.862,1746.395l-9.093,27.721,5.186,2.079,15.033-24.491Z" fill="#ffad73"/>
        <path id="Trazado_102503" data-name="Trazado 102503" d="M-1826.349,1674.327s-10.72,4.254-13.823,10.886-7.8,51.123-9.672,55.692-3.278,8.186-3.278,8.186,5.4,4.555,10.842,4.89S-1826.349,1674.327-1826.349,1674.327Z" fill="#494f80" style="isolation: isolate"/>
        <path id="Trazado_102504" data-name="Trazado 102504" d="M-1817.5,1670.505s-11.137,27.514-11.465,33.082-1.31,91.059-1.31,91.059.655,3.931-6.879,2.293-9.5-3.275-9.5-3.275,7.206-52.736,5.241-71.078,15.067-48.259,15.067-48.259Z" fill="#494f80" style="isolation: isolate"/>
        <path id="Trazado_102505" data-name="Trazado 102505" d="M-1868.1,1924.427l6.525.2a3.767,3.767,0,0,0,3.026-1.366,168.417,168.417,0,0,0,28.87-54.425q.379-1.2.8-2.427c5.915-17.249,18.178-38.9,24.641-58.5,1.029-3.121,1.952-6.059,2.781-8.84.265-.891.524-1.765.77-2.627l-6.872-5.215s-20.633,33.411-27.02,64.852C-1840.127,1883.392-1862.349,1916.255-1868.1,1924.427Z" fill="#b22465" style="isolation: isolate"/>
        <path id="Trazado_102506" data-name="Trazado 102506" d="M-1808.277,1859.009c-.111,14.465.575,46.7,2.335,62.465a2.847,2.847,0,0,0,2.832,2.531h4.869c2.053,0,3.588-.015,4.608-.03a1.873,1.873,0,0,0,1.806-1.512c4.843-24.64,8.308-45.111,10.845-62.8,2.123-14.8,4.009-27.5,5.46-38.425,1.461-10.995,2.476-20.2,2.84-27.982q.084-1.837.121-3.574t.02-3.39l-40.321-3.93C-1812.355,1809.153-1808.211,1850.123-1808.277,1859.009Z" fill="#ef4188" style="isolation: isolate"/>
        <path id="Trazado_102507" data-name="Trazado 102507" d="M-1798.241,1924.005c1.844,0,3.27-.012,4.281-.026a2.271,2.271,0,0,0,2.2-1.834c4.809-24.5,8.256-44.869,10.782-62.481,2.123-14.8,4.009-27.5,5.46-38.425,1.461-10.995,2.476-20.2,2.84-27.982l-14.8,8.7s9.443,3.331,5.84,28.552S-1793.226,1920.434-1798.241,1924.005Z" fill="#b22465" style="isolation: isolate"/>
        <path id="Trazado_102508" data-name="Trazado 102508" d="M-1800.145,1793.009s2.84,10.262,12.667,8.952,23.8-7.207,23.8-7.207-4.2-13.269-9.421-30.7c-6.322-21.1-14.147-48.31-17.835-65.47a106.433,106.433,0,0,1-2.005-11.7l-8.152-15.818s-12.156,27.282-12.811,34.16S-1800.145,1793.009-1800.145,1793.009Z" fill="#494f80" style="isolation: isolate"/>
        <path id="Trazado_102509" data-name="Trazado 102509" d="M-1790.333,1704.2l-10.76-33.135c.03.014,13.59,4.035,20.411,7.481,0,0,4.264,5.5,6.9,18.179,0,0,2.787,30.446-3.436,41.583,0,0-19.653,3.93-51.1-6.879v-7.206s34.393,1.8,41.435,2.621Z" fill="#ffad73"/>
        <path id="Trazado_102510" data-name="Trazado 102510" d="M-1799.709,1719.637c.439,11.137,3.059,32.755,26.423,44.328.063.029.125.062.187.088-6.322-21.1-14.147-48.31-17.835-65.47C-1795.225,1705-1799.948,1713.506-1799.709,1719.637Z" fill="#2f355b" style="isolation: isolate"/>
        <path id="Trazado_102511" data-name="Trazado 102511" d="M-1801.093,1671.065s19.946,1.405,24.75,12.105,6.333,46.294.219,56.776c0,0-8.418,2.4-23.307-.387l-.55-.1s-4.749-11.628-.491-13.921c0,0,12.556.656,11.246-3.493S-1801.093,1671.065-1801.093,1671.065Z" fill="#494f80" style="isolation: isolate"/>
        <g id="Grupo_54812" data-name="Grupo 54812">
          <path id="Trazado_102512" data-name="Trazado 102512" d="M-1851.1,1728.675l.588,1.889,32.728-10.181a1.257,1.257,0,0,0,.221-1.158.926.926,0,0,0-.808-.731Z" fill="#b43d37"/>
          <path id="Trazado_102513" data-name="Trazado 102513" d="M-1853.468,1730.46l2.367-1.785.587,1.888Z" fill="#b43d37"/>
        </g>
        <path id="Trazado_102514" data-name="Trazado 102514" d="M-1858.663,1773.358s-8.3,4.588-9.4,8.083-.342,10.816.976,10.706,3.285-7.865,4.377-8.411,2.622-2.184,2.622-.983-1.092,3.386-.546,3.714,2.294-3.058,3.495-3.714,1.707-6.058,2.875-7.508S-1858.663,1773.358-1858.663,1773.358Z" fill="#ffad73"/>
        <path id="Trazado_102515" data-name="Trazado 102515" d="M-1828.314,1724.223s-7.425-4.573-10.54-3.869-11.052,6.453-7.234,7.7,6.91-.061,8.379.843,2.552,2.557,9.4,2.534S-1828.314,1724.223-1828.314,1724.223Z" fill="#ffad73"/>
      </g>
    </g>
  </g>
</svg>
