<svg xmlns="http://www.w3.org/2000/svg" width="604" height="518" viewBox="0 0 604 518">
  <g id="Grupo_53527" data-name="Grupo 53527" transform="translate(-186 -3062.433)">
    <g id="Grupo_53525" data-name="Grupo 53525" transform="translate(265 3097.433)">
      <g id="Grupo_53524" data-name="Grupo 53524">
        <g id="Grupo_53523" data-name="Grupo 53523" transform="translate(0 0)">
          <g id="Grupo_53522" data-name="Grupo 53522">
            <g id="Grupo_53481" data-name="Grupo 53481" transform="translate(73.706 143.053)">
              <path id="Trazado_99582" data-name="Trazado 99582" d="M1809.989-46.649c-.265.189-.54.36-.833.53L1701.244,16.189,1681.9,27.354,1579.175,86.66a11.024,11.024,0,0,1-7.974,1.2,10.818,10.818,0,0,1-3.1-1.212L1464.7,26.624l-1-.587q-.412-.241-.8-.511a11.048,11.048,0,0,1,.871-18.645l.976-.559L1509.4-19.16a8.813,8.813,0,0,0,.881-.568,11.04,11.04,0,0,0-.7-18.522L1450.108-73.7l-2.273-1.354c-.237-.142-.474-.293-.692-.445a10.861,10.861,0,0,1-4.668-8.2,10.589,10.589,0,0,1,0-1.733c.009-.142.019-.284.038-.417a10.94,10.94,0,0,1,5.512-8.305l151.215-86.1a11.056,11.056,0,0,1,10.994.038L1809.166-65.256A11.054,11.054,0,0,1,1809.989-46.649Z" transform="translate(-1442.439 216.806)" fill="#15325c" opacity="0.22" style="mix-blend-mode: multiply;isolation: isolate"/>
              <path id="Trazado_99583" data-name="Trazado 99583" d="M1814.523-139.864l.2-14.909L1610.233-260.712a11.034,11.034,0,0,0-10.994-.037L1450.062-175.8l-7.587-8.671-.036,18.45.047-.038v0a10.978,10.978,0,0,0,5.35,10.511l61.75,36.8c.246.142.473.293.7.445a11.065,11.065,0,0,1-.881,18.654l-28,15.975-12.594,7.187.426-.464-11.041-5.133.028,17.263a10.983,10.983,0,0,0,5.474,10.369l98.689,57.28,5.719,3.324a11.053,11.053,0,0,0,3.409,1.288,11.061,11.061,0,0,0,7.661-1.269L1681.9-53.134l19.346-11.174,105.284-59.439a17.706,17.706,0,0,0,6.093-5.748C1814.585-132.519,1814.672-136.126,1814.523-139.864Z" transform="translate(-1442.439 280.28)" fill="#d6edff"/>
              <path id="Trazado_99584" data-name="Trazado 99584" d="M1771.251-4.124V13.959L1790.6,2.789V-15.294Z" transform="translate(-1531.791 213.186)" fill="#fff"/>
              <path id="Trazado_99585" data-name="Trazado 99585" d="M1803.3-20.007V-1.924l7.191-4.152V-24.159Z" transform="translate(-1540.499 215.595)" fill="#fff"/>
              <path id="Trazado_99586" data-name="Trazado 99586" d="M1577.392,52.986V70.854l-9.128-4.611-98.69-57.28A10.98,10.98,0,0,1,1464.1-1.406l-.029-17.263a10.947,10.947,0,0,1,5.577-9.612l.976-.559c5.265,2.784,11.353,5.956,16.656,8.58,5.937,2.945,10.89,5.217,12.585,5.53,5.094.91,72.071,62.688,77.213,67.431Z" transform="translate(-1448.318 216.866)" fill="#bbe0fd"/>
              <path id="Trazado_99587" data-name="Trazado 99587" d="M1809.989-151.971c-.265.189-.54.36-.833.53L1701.244-89.133,1681.9-77.968,1579.175-18.663a11.025,11.025,0,0,1-7.974,1.2,10.818,10.818,0,0,1-3.1-1.212L1464.7-78.7l-1-.587q-.412-.241-.8-.511a10.9,10.9,0,0,1-4.706-9.034,10.947,10.947,0,0,1,5.577-9.612l.976-.559,44.656-25.482a8.809,8.809,0,0,0,.881-.568,11.04,11.04,0,0,0-.7-18.522l-59.477-35.454-2.273-1.354c-.237-.142-.474-.293-.692-.445a10.861,10.861,0,0,1-4.668-8.2,10.581,10.581,0,0,1,0-1.733c.009-.142.019-.284.038-.417a10.94,10.94,0,0,1,5.512-8.305l151.215-86.1a11.06,11.06,0,0,1,10.994.038l198.932,114.968A11.054,11.054,0,0,1,1809.989-151.971Z" transform="translate(-1442.439 287.028)" fill="#fff"/>
            </g>
            <g id="Grupo_53482" data-name="Grupo 53482" transform="translate(0 258.574)">
              <path id="Trazado_99588" data-name="Trazado 99588" d="M1452.533-86.133v15.116l-.079-.058a4.75,4.75,0,0,1-2.336,3.359l-50.795,29.325a4.794,4.794,0,0,1-2.437.645,4.861,4.861,0,0,1-2.393-.645l-50.852-29.441a4.773,4.773,0,0,1-2.4-4.185V-86.133l10.663,5.186,42.511-24.479a4.831,4.831,0,0,1,4.823.007l32.842,18.938,8.523,4.911Z" transform="translate(-1341.233 120.748)" fill="#bbe0fd"/>
              <path id="Trazado_99589" data-name="Trazado 99589" d="M1473.3-78.825v15.116l-.08-.058a4.749,4.749,0,0,1-2.335,3.359l-50.795,29.325a4.794,4.794,0,0,1-2.437.645v-18.2l35.192-30.536,8.523,4.911Z" transform="translate(-1361.997 113.44)" fill="#d6edff"/>
              <path id="Trazado_99590" data-name="Trazado 99590" d="M1394.408-124.958l-50.757,29.223a4.83,4.83,0,0,0-.01,8.367l50.847,29.439a4.833,4.833,0,0,0,4.837,0l50.792-29.325a4.831,4.831,0,0,0,0-8.369l-50.883-29.336A4.828,4.828,0,0,0,1394.408-124.958Z" transform="translate(-1341.23 126.057)" fill="#fff"/>
              <path id="Trazado_99591" data-name="Trazado 99591" d="M1394.408-125.582l-50.757,29.223a4.83,4.83,0,0,0-.01,8.367l50.847,29.439a4.834,4.834,0,0,0,4.837,0l50.792-29.325a4.831,4.831,0,0,0,0-8.369l-50.883-29.336A4.831,4.831,0,0,0,1394.408-125.582Z" transform="translate(-1341.23 126.226)" fill="#fff"/>
            </g>
            <g id="Grupo_53485" data-name="Grupo 53485" transform="translate(15.47 188.758)">
              <g id="Grupo_53483" data-name="Grupo 53483" transform="translate(0.414 40.868)">
                <path id="Trazado_99592" data-name="Trazado 99592" d="M1363.042-91.553l38.971-22.819,40.075,22.819-39.523,22.819Z" transform="translate(-1363.042 151.263)" fill="#15325c" opacity="0.33" style="mix-blend-mode: multiply;isolation: isolate"/>
                <path id="Trazado_99593" data-name="Trazado 99593" d="M1363.042-142.21l38.971-22.818,40.075,22.818-39.523,22.819Z" transform="translate(-1363.042 165.028)" fill="#d6effb"/>
                <path id="Trazado_99594" data-name="Trazado 99594" d="M1363.042-110.286V-133.7l39.523,22.819-.414,23.058Z" transform="translate(-1363.042 156.514)" fill="#77b8e0"/>
                <path id="Trazado_99595" data-name="Trazado 99595" d="M1456.68-133.7l-39.523,22.819-.414,23.058,39.523-22.467Z" transform="translate(-1377.635 156.514)" fill="#a9d1ea"/>
              </g>
              <g id="Grupo_53484" data-name="Grupo 53484">
                <path id="Trazado_99596" data-name="Trazado 99596" d="M1362.473-198.328l38.971-22.818,40.075,22.818L1402-175.509Z" transform="translate(-1362.473 221.146)" fill="#bbe0fd"/>
                <path id="Trazado_99597" data-name="Trazado 99597" d="M1362.473-166.4v-23.409L1402-166.995l-.414,23.058Z" transform="translate(-1362.473 212.632)" fill="#77b8e0"/>
                <path id="Trazado_99598" data-name="Trazado 99598" d="M1456.111-189.813l-39.523,22.819-.414,23.058L1455.7-166.4Z" transform="translate(-1377.065 212.632)" fill="#a9d1ea"/>
              </g>
            </g>
            <g id="Grupo_53486" data-name="Grupo 53486" transform="translate(110.596)">
              <path id="Trazado_99599" data-name="Trazado 99599" d="M1646.116-181.342v-4.7l-3.324,2.076-33.453-19.284a2.526,2.526,0,0,0-2.512-.006l-42.607,24.289-3.33-1.962v5.2l.108-.081a1.519,1.519,0,0,0,.717.939l35.971,20.833a2.525,2.525,0,0,0,2.529,0l45.253-26.126A1.29,1.29,0,0,0,1646.116-181.342Z" transform="translate(-1511.517 401.974)" fill="#183561"/>
              <path id="Trazado_99600" data-name="Trazado 99600" d="M1606.807-210.251l-45.1,25.712a1.539,1.539,0,0,0-.009,2.668l35.971,20.832a2.526,2.526,0,0,0,2.529,0l45.253-26.127a1.3,1.3,0,0,0,0-2.255l-36.128-20.826A2.525,2.525,0,0,0,1606.807-210.251Z" transform="translate(-1511.527 403.875)" fill="#d6effb"/>
              <path id="Trazado_99601" data-name="Trazado 99601" d="M1628.69-222.577l-3.543,26.541L1601.058-176.4l-3.6-2.028a2.693,2.693,0,0,1-1.121-.993,2.694,2.694,0,0,1-.416-1.44l.049-24.445a3.252,3.252,0,0,1,.444-1.643,3.283,3.283,0,0,1,1.18-1.178l26.278-15.29a3.016,3.016,0,0,1,2.8-.126Z" transform="translate(-1521.036 407.474)" fill="#183561"/>
              <path id="Trazado_99602" data-name="Trazado 99602" d="M1633.514-223.643l-.082,29.579-30.677,17.717.027-29.415Z" transform="translate(-1522.894 407.424)" fill="#3c6a9e"/>
              <path id="Trazado_99603" data-name="Trazado 99603" d="M1654.549-475.148l7.112,3.83-10.638,142.382L1503.732-233.2l-5.844-3.146a9.109,9.109,0,0,1-3.5-3.352,9.114,9.114,0,0,1-1.29-4.675V-380.533a7.064,7.064,0,0,1,.935-3.511,7.054,7.054,0,0,1,2.557-2.58l150.983-88.4a7.126,7.126,0,0,1,3-.951A7.124,7.124,0,0,1,1654.549-475.148Z" transform="translate(-1493.094 476)" fill="#a9d1ea"/>
              <path id="Trazado_99604" data-name="Trazado 99604" d="M1665.631-469.571v148.11L1507.7-231.449V-377.1Z" transform="translate(-1497.063 474.253)" fill="#d6effb"/>
              <path id="Trazado_99605" data-name="Trazado 99605" d="M1664.19-444.919v118.734L1645.5-315.533l-5.614,3.2-38.378,21.873-21.259,12.114-33.379,19.027-32.425,18.48V-357.243l31.738-18.581,17.181-10.061,27.107-15.869,32.614-19.1,20.311-11.891,14.826-8.677Z" transform="translate(-1498.896 467.554)" fill="#183561"/>
            </g>
            <g id="Grupo_53491" data-name="Grupo 53491" transform="translate(347.753 198.046)">
              <g id="Grupo_53489" data-name="Grupo 53489">
                <g id="Grupo_53487" data-name="Grupo 53487" transform="translate(0 28.569)">
                  <path id="Trazado_99606" data-name="Trazado 99606" d="M1820.371-135.089l36.422-21.326a3.289,3.289,0,0,1,3.29-.02l37.523,21.366a3.291,3.291,0,0,1,.017,5.709l-36.938,21.326a3.287,3.287,0,0,1-3.291,0L1820.389-129.4A3.29,3.29,0,0,1,1820.371-135.089Z" transform="translate(-1818.744 165.64)" fill="#15325c" opacity="0.33" style="mix-blend-mode: multiply;isolation: isolate"/>
                  <path id="Trazado_99607" data-name="Trazado 99607" d="M1903.314-145.975l-28.933,16.705-.3,16.88,28.934-16.448Z" transform="translate(-1833.781 162.68)" fill="#a9d1ea"/>
                  <path id="Trazado_99608" data-name="Trazado 99608" d="M1834.763-152.209l28.53-16.7,29.338,16.7L1863.7-135.5Z" transform="translate(-1823.097 168.914)" fill="#bbe0fd"/>
                  <path id="Trazado_99609" data-name="Trazado 99609" d="M1851.963-149.445l15.88-9.3,16.33,9.3-16.105,9.3Z" transform="translate(-1827.771 166.15)" fill="#15325c"/>
                  <path id="Trazado_99610" data-name="Trazado 99610" d="M1834.763-128.838v-17.137L1863.7-129.27l-.3,16.88Z" transform="translate(-1823.097 162.68)" fill="#77b8e0"/>
                </g>
                <g id="Grupo_53488" data-name="Grupo 53488" transform="translate(21.979)">
                  <path id="Trazado_99611" data-name="Trazado 99611" d="M1881.044-170.159a20.287,20.287,0,0,1-6.193,6.075c-6.443,5.179-18.047,3.913-21.3-2.317a14.551,14.551,0,0,1-4.536-12.246,14.4,14.4,0,0,0,5.12,6.425c-5.315-4.537-1.928-17.815-1.928-17.815a20.952,20.952,0,0,0,6.678,10.514,46.738,46.738,0,0,1,.448-17.386,20.2,20.2,0,0,1,6.581-11.233c-1.48,13.551,5.431,22.136,5.431,22.136,4.5-5.393,3.408-13.336,3.408-13.336s6.483,12.441,3.5,21.922a14.569,14.569,0,0,0,6.425-5.179A22.4,22.4,0,0,1,1881.044-170.159Z" transform="translate(-1848.924 208.143)" fill="#77b8e0"/>
                  <path id="Trazado_99612" data-name="Trazado 99612" d="M1881.044-165.967a20.288,20.288,0,0,1-6.193,6.075,14.626,14.626,0,0,1-5.412,2.647c-6.172,1.636-13.415-.253-15.887-4.965a14.551,14.551,0,0,1-4.536-12.246,14.4,14.4,0,0,0,5.12,6.425c-5.315-4.537-1.928-17.815-1.928-17.815a19.693,19.693,0,0,0,2.356,5.452,19.8,19.8,0,0,0,4.322,5.062,46.737,46.737,0,0,1,.448-17.386C1859.315-173.677,1869.089-165.694,1881.044-165.967Z" transform="translate(-1848.924 203.951)" fill="#77b8e0" opacity="0.33" style="mix-blend-mode: multiply;isolation: isolate"/>
                  <path id="Trazado_99613" data-name="Trazado 99613" d="M1869.44-154.68c-6.172,1.636-13.415-.253-15.887-4.965a14.551,14.551,0,0,1-4.536-12.246,14.4,14.4,0,0,0,5.12,6.425c-5.315-4.537-1.928-17.815-1.928-17.815a19.693,19.693,0,0,0,2.356,5.452C1856.375-164.2,1864.028-157.659,1869.44-154.68Z" transform="translate(-1848.924 201.387)" fill="#77b8e0" opacity="0.33" style="mix-blend-mode: multiply;isolation: isolate"/>
                </g>
              </g>
              <g id="Grupo_53490" data-name="Grupo 53490" transform="translate(33.712 12.391)">
                <path id="Trazado_99614" data-name="Trazado 99614" d="M1866.929-171.42a10.526,10.526,0,0,0,3.212,3.152c3.344,2.687,9.365,2.03,11.052-1.2a7.554,7.554,0,0,0,2.354-6.355,7.471,7.471,0,0,1-2.657,3.334c2.757-2.354,1-9.244,1-9.244a10.87,10.87,0,0,1-3.465,5.455,24.241,24.241,0,0,0-.232-9.021,10.48,10.48,0,0,0-3.415-5.829,16.475,16.475,0,0,1-2.819,11.486c-2.333-2.8-1.767-6.92-1.767-6.92s-3.364,6.455-1.818,11.375a7.564,7.564,0,0,1-3.334-2.687A11.622,11.622,0,0,0,1866.929-171.42Z" transform="translate(-1865.036 191.129)" fill="#77b8e0"/>
                <path id="Trazado_99615" data-name="Trazado 99615" d="M1867.636-169.245a10.521,10.521,0,0,0,3.213,3.152,7.6,7.6,0,0,0,2.809,1.374c3.2.848,6.96-.132,8.243-2.576a7.553,7.553,0,0,0,2.354-6.355,7.475,7.475,0,0,1-2.656,3.334c2.757-2.354,1-9.244,1-9.244a10.222,10.222,0,0,1-1.223,2.829,10.254,10.254,0,0,1-2.242,2.626,24.249,24.249,0,0,0-.232-9.021C1878.91-173.245,1873.838-169.1,1867.636-169.245Z" transform="translate(-1865.742 188.954)" fill="#77b8e0" opacity="0.33" style="mix-blend-mode: multiply;isolation: isolate"/>
                <path id="Trazado_99616" data-name="Trazado 99616" d="M1875.9-163.389c3.2.848,6.96-.132,8.243-2.576a7.554,7.554,0,0,0,2.354-6.355,7.472,7.472,0,0,1-2.657,3.334c2.757-2.354,1-9.244,1-9.244a10.225,10.225,0,0,1-1.223,2.829C1882.682-168.328,1878.712-164.934,1875.9-163.389Z" transform="translate(-1867.989 187.623)" fill="#77b8e0" opacity="0.33" style="mix-blend-mode: multiply;isolation: isolate"/>
              </g>
            </g>
            <g id="Grupo_53501" data-name="Grupo 53501" transform="translate(299.185 31.249)">
              <g id="Grupo_53495" data-name="Grupo 53495" transform="translate(81.023 70.073)">
                <path id="Trazado_99617" data-name="Trazado 99617" d="M1905.992-313.276v46.923l-1.326,1.06-40.03-24.655-1.325-45.863,1.325-1.06Z" transform="translate(-1863.311 336.871)" fill="#183561"/>
                <path id="Trazado_99618" data-name="Trazado 99618" d="M1863.311-335.415v46.923l41.356,23.594V-311.82Z" transform="translate(-1863.311 336.475)" fill="#183561"/>
                <path id="Trazado_99619" data-name="Trazado 99619" d="M1863.311-335.415v9.809l41.356,23.594v-9.809Z" transform="translate(-1863.311 336.475)" fill="#3c6a9e"/>
                <g id="Grupo_53494" data-name="Grupo 53494" transform="translate(2.868 19.618)">
                  <path id="Trazado_99620" data-name="Trazado 99620" d="M1867.248-309.933l.02,3.263,22.47,13.018-.138-3.354Z" transform="translate(-1867.248 309.933)" fill="#fec400"/>
                  <path id="Trazado_99621" data-name="Trazado 99621" d="M1882.69-272.589l.019,3.263,22.471,13.018-.138-3.354Z" transform="translate(-1871.445 299.785)" fill="#fec400"/>
                  <g id="Grupo_53492" data-name="Grupo 53492" transform="translate(25.073 14.544)">
                    <path id="Trazado_99622" data-name="Trazado 99622" d="M1901.677-289.962v3.163l8.446,4.9v-3.161Z" transform="translate(-1901.677 289.962)" fill="#77b8e0"/>
                  </g>
                  <g id="Grupo_53493" data-name="Grupo 53493" transform="translate(3.633 16.189)">
                    <path id="Trazado_99623" data-name="Trazado 99623" d="M1872.237-287.7v3.163l8.446,4.9V-282.8Z" transform="translate(-1872.237 287.703)" fill="#77b8e0"/>
                  </g>
                  <path id="Trazado_99624" data-name="Trazado 99624" d="M1868.482-279.94v3.163l8.446,4.9v-3.161Z" transform="translate(-1867.584 301.783)" fill="#fff"/>
                  <path id="Trazado_99625" data-name="Trazado 99625" d="M1886.3-289.962l19.612,11.323v3.274L1886.267-286.8Z" transform="translate(-1872.416 304.506)" fill="#fff"/>
                  <path id="Trazado_99626" data-name="Trazado 99626" d="M1886.3-280.506l19.612,11.323v3.274l-19.649-11.434Z" transform="translate(-1872.416 301.936)" fill="#fff"/>
                </g>
              </g>
              <g id="Grupo_53500" data-name="Grupo 53500">
                <path id="Trazado_99627" data-name="Trazado 99627" d="M1818.53-396.343v110.827l-2.064,1.651-62.347-38.4-2.065-109.176,2.065-1.651Z" transform="translate(-1752.054 433.091)" fill="#183561"/>
                <path id="Trazado_99628" data-name="Trazado 99628" d="M1752.054-430.823V-320l64.411,36.748V-394.076Z" transform="translate(-1752.054 432.475)" fill="#a9d1ea"/>
                <path id="Trazado_99629" data-name="Trazado 99629" d="M1752.054-430.823v15.277l64.411,36.748v-15.277Z" transform="translate(-1752.054 432.475)" fill="#3c6a9e"/>
                <g id="Grupo_53499" data-name="Grupo 53499" transform="translate(6.687 32.775)">
                  <g id="Grupo_53498" data-name="Grupo 53498">
                    <path id="Trazado_99630" data-name="Trazado 99630" d="M1761.236-388.087l.03,5.082,35,20.276-.214-5.223Z" transform="translate(-1761.236 388.087)" fill="#0991a1"/>
                    <path id="Trazado_99631" data-name="Trazado 99631" d="M1785.285-329.925l.031,5.082,35,20.276-.214-5.223Z" transform="translate(-1767.771 372.282)" fill="#ff0062"/>
                    <g id="Grupo_53496" data-name="Grupo 53496" transform="translate(39.05 22.651)">
                      <path id="Trazado_99632" data-name="Trazado 99632" d="M1814.857-356.984v4.926l13.155,7.627v-4.924Z" transform="translate(-1814.857 356.984)" fill="#0991a1"/>
                    </g>
                    <g id="Grupo_53497" data-name="Grupo 53497" transform="translate(5.658 25.214)">
                      <path id="Trazado_99633" data-name="Trazado 99633" d="M1769-353.465v4.926l13.155,7.627v-4.924Z" transform="translate(-1769.005 353.465)" fill="#fff"/>
                    </g>
                    <path id="Trazado_99634" data-name="Trazado 99634" d="M1763.158-341.374v4.926l13.154,7.627v-4.924Z" transform="translate(-1761.758 375.393)" fill="#ff0062"/>
                    <path id="Trazado_99635" data-name="Trazado 99635" d="M1790.914-356.984l30.546,17.636v5.1l-30.6-17.809Z" transform="translate(-1769.286 379.635)" fill="#ff0062"/>
                    <path id="Trazado_99636" data-name="Trazado 99636" d="M1790.914-342.255l30.546,17.636v5.1l-30.6-17.809Z" transform="translate(-1769.286 375.632)" fill="#fff"/>
                  </g>
                  <path id="Trazado_99637" data-name="Trazado 99637" d="M1761.236-327.111l.03,5.082,35,20.276-.214-5.223Z" transform="translate(-1761.236 371.517)" fill="#ff0062"/>
                  <path id="Trazado_99638" data-name="Trazado 99638" d="M1785.285-281.144l.031,5.082,35,20.276-.214-5.223Z" transform="translate(-1767.771 359.026)" fill="#ff0062"/>
                  <path id="Trazado_99639" data-name="Trazado 99639" d="M1814.857-296.008v4.926l13.155,7.627v-4.924Z" transform="translate(-1775.807 363.065)" fill="#77b8e0"/>
                  <path id="Trazado_99640" data-name="Trazado 99640" d="M1769-304.684v4.926l13.155,7.627v-4.924Z" transform="translate(-1763.347 365.423)" fill="#77b8e0"/>
                  <path id="Trazado_99641" data-name="Trazado 99641" d="M1763.158-292.594v4.926l13.154,7.627v-4.924Z" transform="translate(-1761.758 362.137)" fill="#fff"/>
                  <path id="Trazado_99642" data-name="Trazado 99642" d="M1790.914-293.474l30.546,17.636v5.1l-30.6-17.809Z" transform="translate(-1769.286 362.377)" fill="#fff"/>
                </g>
              </g>
            </g>
            <g id="Grupo_53505" data-name="Grupo 53505" transform="translate(135.604 78.907)">
              <path id="Trazado_99643" data-name="Trazado 99643" d="M1550.445-260.841l-3.2,1.874-6.885,4.032-12.719,7.446v5.636l12.719-7.446,6.885-4.032,3.2-1.874Z" transform="translate(-1527.49 339.993)" fill="#fff"/>
              <g id="Grupo_53502" data-name="Grupo 53502" transform="translate(0.151 71.24)">
                <path id="Trazado_99644" data-name="Trazado 99644" d="M1592.958-270.3l-5.941,3.477-8.139,4.765-13.069,7.654-9.83,5.754v5.636l9.83-5.755,13.069-7.654,8.139-4.765,5.941-3.477,2.393-1.4V-271.7Z" transform="translate(-1535.341 271.705)" fill="#f02098"/>
                <path id="Trazado_99645" data-name="Trazado 99645" d="M1546.544-238.656l-6.184,3.621-12.719,7.446v5.636l12.719-7.446,6.184-3.621Z" transform="translate(-1527.641 262.724)" fill="#fff"/>
              </g>
              <g id="Grupo_53503" data-name="Grupo 53503" transform="translate(0.151 93.783)">
                <path id="Trazado_99646" data-name="Trazado 99646" d="M1556.948-216.066l-9.7,5.68-6.885,4.032-12.719,7.446v5.636l12.719-7.446,6.885-4.032,9.7-5.68Z" transform="translate(-1527.641 234.043)" fill="#fec400"/>
                <path id="Trazado_99647" data-name="Trazado 99647" d="M1596.84-239.349l-5.941,3.477-8.139,4.765-12.5,7.318v5.636l12.5-7.318,8.139-4.765,5.941-3.477,2.393-1.4v-5.635Z" transform="translate(-1539.224 240.751)" fill="#fff"/>
              </g>
              <g id="Grupo_53504" data-name="Grupo 53504" transform="translate(0.151 82.512)">
                <path id="Trazado_99648" data-name="Trazado 99648" d="M1571-238.863l-7.943,4.652-10.863,6.359-6.336,3.711v5.636l6.336-3.711,10.863-6.359,7.943-4.652Z" transform="translate(-1532.592 251.509)" fill="#fff"/>
                <path id="Trazado_99649" data-name="Trazado 99649" d="M1539.174-217.254l-11.533,6.752v5.635l11.533-6.752Z" transform="translate(-1527.641 245.637)" fill="#fff"/>
                <path id="Trazado_99650" data-name="Trazado 99650" d="M1600.237-254.826l-5.941,3.477-8.139,4.765-3.392,1.986v5.636l3.392-1.986,8.139-4.765,5.941-3.477,2.393-1.4v-5.635Z" transform="translate(-1542.621 256.228)" fill="#fff"/>
              </g>
              <path id="Trazado_99651" data-name="Trazado 99651" d="M1601.368-369.528l-.038,6.36-43.8,25.375.268-6.537Z" transform="translate(-1535.613 369.528)" fill="#fec400"/>
              <path id="Trazado_99652" data-name="Trazado 99652" d="M1571.271-296.739l-.038,6.36L1527.433-265l.269-6.537Z" transform="translate(-1527.433 349.748)" fill="#fff"/>
              <path id="Trazado_99653" data-name="Trazado 99653" d="M1544.476-330.6v6.165l-16.463,9.546v-6.162Z" transform="translate(-1527.591 358.95)" fill="#f02098"/>
              <path id="Trazado_99654" data-name="Trazado 99654" d="M1601.859-326.2v6.165l-16.463,9.546v-6.162Z" transform="translate(-1543.185 357.754)" fill="#f02098"/>
              <path id="Trazado_99655" data-name="Trazado 99655" d="M1609.177-311.068v6.165l-16.463,9.546v-6.162Z" transform="translate(-1545.173 353.642)" fill="#fff"/>
              <path id="Trazado_99656" data-name="Trazado 99656" d="M1635.366-326.2v6.165l-16.463,9.546v-6.162Z" transform="translate(-1552.29 357.754)" fill="#fff"/>
              <path id="Trazado_99657" data-name="Trazado 99657" d="M1566.293-330.6l-38.228,22.071v6.382l38.3-22.288Z" transform="translate(-1527.605 358.95)" fill="#fff"/>
              <path id="Trazado_99658" data-name="Trazado 99658" d="M1566.293-312.17,1528.065-290.1v6.382l38.3-22.288Z" transform="translate(-1527.605 353.941)" fill="#fff"/>
            </g>
            <path id="Trazado_99659" data-name="Trazado 99659" d="M1666.687-327.716V-355.19l-24.144,14.043v27.72Z" transform="translate(-1423.11 444.363)" fill="#3c6a9e"/>
            <path id="Trazado_99660" data-name="Trazado 99660" d="M1705.695-349.821v-27.474l-24.144,14.043v27.72Z" transform="translate(-1433.71 450.152)" fill="#3c6a9e"/>
            <path id="Trazado_99661" data-name="Trazado 99661" d="M1666.687-280.906V-308.38l-24.144,14.043v27.72Z" transform="translate(-1423.11 432.105)" fill="#3c6a9e"/>
            <path id="Trazado_99662" data-name="Trazado 99662" d="M1705.695-303.011v-27.474l-24.144,14.043v27.72Z" transform="translate(-1433.71 437.894)" fill="#3c6a9e"/>
            <g id="Grupo_53506" data-name="Grupo 53506" transform="translate(165.872 325.496)">
              <path id="Trazado_99663" data-name="Trazado 99663" d="M1648.941,24.607l-.25.145L1608.966,47.69l-.25-.145L1569,24.607l12.1-7.089,27.31-15.989,28.259,16.089,12.03,6.848Z" transform="translate(-1568.995 26.171)" fill="#15325c" opacity="0.33" style="mix-blend-mode: multiply;isolation: isolate"/>
              <path id="Trazado_99664" data-name="Trazado 99664" d="M1608.966,1.542l-.25,13.932-.168,9.386L1569,2.137v-9.6l12.1-7.089Z" transform="translate(-1568.995 30.541)" fill="#183561"/>
              <path id="Trazado_99665" data-name="Trazado 99665" d="M1663.455-7.567l0,.286-.168,9.454L1623.307,24.9l.168-9.386.25-13.932,27.7-15.994Z" transform="translate(-1583.755 30.504)" fill="#23477c"/>
              <path id="Trazado_99666" data-name="Trazado 99666" d="M1648.941-13.43l-.25.145L1608.966,9.653l-.25-.145L1569-13.43l12.1-7.089,27.31-15.989,28.259,16.089,12.03,6.848Z" transform="translate(-1568.995 36.507)" fill="#3c6a9e"/>
              <path id="Trazado_99667" data-name="Trazado 99667" d="M1586.358-10.73l26.812-15.7,27.709,15.776-27.194,15.7Z" transform="translate(-1573.714 33.768)" fill="#ffd561"/>
              <path id="Trazado_99668" data-name="Trazado 99668" d="M1591.321-9.958l23.211-13.589,24.045,13.69L1615.034,3.736Z" transform="translate(-1575.062 32.986)" fill="#5b95d3"/>
              <path id="Trazado_99669" data-name="Trazado 99669" d="M1616.395-5.984l5.273-3.087,5.462,3.11-5.348,3.088Z" transform="translate(-1581.876 29.052)" fill="#bbe0fd"/>
              <path id="Trazado_99670" data-name="Trazado 99670" d="M1614.531-21.731l22.461,12.788,1.584-.915-24.045-13.69L1591.321-9.958l1.562.9Z" transform="translate(-1575.062 32.986)" fill="#183561"/>
            </g>
            <g id="Grupo_53509" data-name="Grupo 53509" transform="translate(117.993 272.114)">
              <g id="Grupo_53507" data-name="Grupo 53507" transform="translate(0.303 29.892)">
                <path id="Trazado_99671" data-name="Trazado 99671" d="M1503.668-13.236l28.5-16.69,29.312,16.69-28.908,16.69Z" transform="translate(-1503.668 56.909)" fill="#15325c" opacity="0.33" style="mix-blend-mode: multiply;isolation: isolate"/>
                <path id="Trazado_99672" data-name="Trazado 99672" d="M1503.668-50.287l28.5-16.69,29.312,16.69L1532.575-33.6Z" transform="translate(-1503.668 66.977)" fill="#d6effb"/>
                <path id="Trazado_99673" data-name="Trazado 99673" d="M1503.668-26.938V-44.06l28.908,16.69-.3,16.865Z" transform="translate(-1503.668 60.749)" fill="#77b8e0"/>
                <path id="Trazado_99674" data-name="Trazado 99674" d="M1572.157-44.06l-28.908,16.69-.3,16.865,28.908-16.433Z" transform="translate(-1514.342 60.749)" fill="#a9d1ea"/>
              </g>
              <g id="Grupo_53508" data-name="Grupo 53508" transform="translate(0 0)">
                <path id="Trazado_99675" data-name="Trazado 99675" d="M1503.252-91.333l28.5-16.69,29.312,16.69-28.907,16.69Z" transform="translate(-1503.252 108.022)" fill="#bbe0fd"/>
                <path id="Trazado_99676" data-name="Trazado 99676" d="M1503.252-67.983V-85.105l28.907,16.69-.3,16.865Z" transform="translate(-1503.252 101.795)" fill="#77b8e0"/>
                <path id="Trazado_99677" data-name="Trazado 99677" d="M1571.741-85.105l-28.907,16.69-.3,16.865,28.907-16.433Z" transform="translate(-1513.926 101.795)" fill="#a9d1ea"/>
              </g>
            </g>
            <g id="Grupo_53515" data-name="Grupo 53515" transform="translate(231.963 207.965)">
              <path id="Trazado_99678" data-name="Trazado 99678" d="M1733.108-126.857l43.351,25.257L1703.327-59l-42.974-25.634Z" transform="translate(-1659.913 176.585)" fill="#15325c" opacity="0.33" style="mix-blend-mode: multiply;isolation: isolate"/>
              <g id="Grupo_53510" data-name="Grupo 53510" transform="translate(73.664 33.164)">
                <rect id="Rectángulo_5123" data-name="Rectángulo 5123" width="2.639" height="47.459" transform="matrix(0.5, -0.866, 0.866, 0.5, 0, 2.285)" fill="#77b8e0"/>
              </g>
              <g id="Grupo_53511" data-name="Grupo 53511" transform="translate(113.529 25.634)">
                <path id="Trazado_99679" data-name="Trazado 99679" d="M1817.148-109.052a1.508,1.508,0,0,0,1.508-1.507v-47.875a1.508,1.508,0,0,0-1.508-1.507,1.508,1.508,0,0,0-1.507,1.507v47.875A1.508,1.508,0,0,0,1817.148-109.052Z" transform="translate(-1815.641 159.942)" fill="#77b8e0"/>
              </g>
              <path id="Trazado_99680" data-name="Trazado 99680" d="M1818.933-105.592v9.738a1.949,1.949,0,0,1-1.948,1.948,1.948,1.948,0,0,1-1.947-1.948v-9.738Z" transform="translate(-1701.948 170.806)" fill="#1c427e"/>
              <g id="Grupo_53512" data-name="Grupo 53512" transform="translate(0.44 42.597)">
                <path id="Trazado_99681" data-name="Trazado 99681" d="M1661.861-85.759a1.508,1.508,0,0,0,1.508-1.507v-47.875a1.508,1.508,0,0,0-1.508-1.508,1.508,1.508,0,0,0-1.508,1.508v47.875A1.508,1.508,0,0,0,1661.861-85.759Z" transform="translate(-1660.353 136.649)" fill="#77b8e0"/>
              </g>
              <path id="Trazado_99682" data-name="Trazado 99682" d="M1663.645-82.3v9.738a1.948,1.948,0,0,1-1.948,1.948,1.949,1.949,0,0,1-1.948-1.948V-82.3Z" transform="translate(-1659.749 164.477)" fill="#1c427e"/>
              <g id="Grupo_53513" data-name="Grupo 53513" transform="translate(41.906 67.099)">
                <path id="Trazado_99683" data-name="Trazado 99683" d="M1718.8-52.113a1.508,1.508,0,0,0,1.508-1.508V-101.5A1.508,1.508,0,0,0,1718.8-103a1.508,1.508,0,0,0-1.508,1.508v47.874A1.508,1.508,0,0,0,1718.8-52.113Z" transform="translate(-1717.292 103.004)" fill="#77b8e0"/>
              </g>
              <path id="Trazado_99684" data-name="Trazado 99684" d="M1733.108-189.447l43.351,21.11v4.147l-73.131,42.6-42.974-25.633v-4.147Z" transform="translate(-1659.913 193.593)" fill="#a9d1ea"/>
              <path id="Trazado_99685" data-name="Trazado 99685" d="M1733.108-195.141l43.351,25.257-73.131,42.6-42.974-25.634Z" transform="translate(-1659.913 195.141)" fill="#bbe0fd"/>
              <path id="Trazado_99686" data-name="Trazado 99686" d="M1720.583-48.653v9.738a1.947,1.947,0,0,1-1.948,1.947,1.948,1.948,0,0,1-1.948-1.947v-9.738Z" transform="translate(-1675.222 155.334)" fill="#1c427e"/>
              <g id="Grupo_53514" data-name="Grupo 53514" transform="translate(1.287 76.137)">
                <rect id="Rectángulo_5124" data-name="Rectángulo 5124" width="2.639" height="47.458" transform="matrix(0.5, -0.866, 0.866, 0.5, 0, 2.285)" fill="#77b8e0"/>
              </g>
            </g>
            <g id="Grupo_53517" data-name="Grupo 53517" transform="translate(264.901 233.137)">
              <circle id="Elipse_3997" data-name="Elipse 3997" cx="1.588" cy="1.588" r="1.588" transform="translate(30.298 20.516)" fill="#052754"/>
              <path id="Trazado_99687" data-name="Trazado 99687" d="M1730.388-153.67l-12.461,7.33-12.95,5.62v1.955l19.058,10.751,12.706-7.33,12.705-7.33v-1.955Z" transform="translate(-1704.977 158.304)" fill="#052754"/>
              <path id="Trazado_99688" data-name="Trazado 99688" d="M1749.7-134.837l9.863-11.976.7,4.227Z" transform="translate(-1717.128 156.441)" fill="#3c6a9e"/>
              <path id="Trazado_99689" data-name="Trazado 99689" d="M1752.795-150.406l-1.822,2.214L1743-138.509l-.065.08-18.126-10.518.019-.019.172-.162,11.361-10.905Z" transform="translate(-1710.365 160.033)" fill="#fff"/>
              <path id="Trazado_99690" data-name="Trazado 99690" d="M1737.779-134.311l-.514.066-12.4,1.578-14.343-7.968-4.678-2.6,13.512-1.576.317-.038.019,0,.242-.028Z" transform="translate(-1705.212 155.915)" fill="#fff"/>
              <g id="Grupo_53516" data-name="Grupo 53516" transform="translate(14.143 10.905)">
                <path id="Trazado_99691" data-name="Trazado 99691" d="M1742.887-134.44l-.066.08-.515.066-17.776-10.485-.134-.08.317-.038.172-.162.059.035Z" transform="translate(-1724.397 145.059)" fill="#183561"/>
              </g>
              <path id="Trazado_99692" data-name="Trazado 99692" d="M1705.843-142.621v4.63l19.021,10.634v-4.7Z" transform="translate(-1705.212 155.302)" fill="#77b8e0"/>
              <path id="Trazado_99693" data-name="Trazado 99693" d="M1731.961-128.724v4.7l12.916-6.34Z" transform="translate(-1712.31 151.972)" fill="#3c6a9e"/>
            </g>
            <g id="Grupo_53521" data-name="Grupo 53521" transform="translate(288.229 206.096)">
              <path id="Trazado_99694" data-name="Trazado 99694" d="M1795.232-53.762l-23.149,13.543L1748.347-55l23.378-12.751Z" transform="translate(-1740.09 162.418)" fill="#15325c" opacity="0.33" style="mix-blend-mode: multiply;isolation: isolate"/>
              <path id="Trazado_99695" data-name="Trazado 99695" d="M1737.213-62.138c.461-1.612,7.6-2.072,7.6-2.072l6.676,2.993c-.23,3.683-.92,4.6-2.532,4.6-10.59-1.151-11.741-3.223-11.741-3.223A2.929,2.929,0,0,1,1737.213-62.138Z" transform="translate(-1737.009 161.455)" fill="#052754"/>
              <path id="Trazado_99696" data-name="Trazado 99696" d="M1753.087-67.722c.461-1.612,7.6-2.072,7.6-2.072l6.676,2.992c-.23,3.684-.921,4.6-2.532,4.6-10.589-1.151-11.741-3.223-11.741-3.223A2.929,2.929,0,0,1,1753.087-67.722Z" transform="translate(-1741.322 162.973)" fill="#052754"/>
              <path id="Trazado_99697" data-name="Trazado 99697" d="M1765.136-115.924l-10.791,5.893-.2,2.608-.8,32.2c-4.418,2.566-6.029-1.239-6.029-1.239l-2.372-32.376h0a5.007,5.007,0,0,1,4.271-4.739Z" transform="translate(-1739.165 175.508)" fill="#f9beae"/>
              <path id="Trazado_99698" data-name="Trazado 99698" d="M1768.426-77.729c-4.165,2.956-6.111-.69-6.111-.69l-4.585-30.512-.271-1.54-.065-1.4h9.333l.023,1.982Z" transform="translate(-1742.548 174.408)" fill="#f9beae"/>
              <g id="Grupo_53518" data-name="Grupo 53518" transform="translate(30.485 94.658)">
                <path id="Trazado_99699" data-name="Trazado 99699" d="M1779.623-39.467a.754.754,0,0,1-.754-.754V-67.008a.754.754,0,0,1,.754-.754.754.754,0,0,1,.754.754v26.787A.754.754,0,0,1,1779.623-39.467Z" transform="translate(-1778.869 67.762)" fill="#77b8e0"/>
              </g>
              <path id="Trazado_99700" data-name="Trazado 99700" d="M1778.567-35.893v4.87a.974.974,0,0,0,.974.974.974.974,0,0,0,.974-.974v-4.87Z" transform="translate(-1748.302 153.76)" fill="#1c427e"/>
              <g id="Grupo_53519" data-name="Grupo 53519" transform="translate(55.143 81.115)">
                <path id="Trazado_99701" data-name="Trazado 99701" d="M1813.482-58.064a.754.754,0,0,1-.754-.754V-85.605a.754.754,0,0,1,.754-.754.753.753,0,0,1,.754.754v26.787A.754.754,0,0,1,1813.482-58.064Z" transform="translate(-1812.728 86.359)" fill="#77b8e0"/>
              </g>
              <path id="Trazado_99702" data-name="Trazado 99702" d="M1812.426-54.49v4.87a.974.974,0,0,0,.974.974.973.973,0,0,0,.973-.974v-4.87Z" transform="translate(-1757.503 158.814)" fill="#1c427e"/>
              <g id="Grupo_53520" data-name="Grupo 53520" transform="translate(7.459 81.4)">
                <path id="Trazado_99703" data-name="Trazado 99703" d="M1748.006-57.673a.755.755,0,0,1-.754-.754V-85.214a.754.754,0,0,1,.754-.754.754.754,0,0,1,.755.754v26.787A.755.755,0,0,1,1748.006-57.673Z" transform="translate(-1747.252 85.968)" fill="#77b8e0"/>
              </g>
              <path id="Trazado_99704" data-name="Trazado 99704" d="M1772.406-71.507h0a1.62,1.62,0,0,1-.926,1.192,1.621,1.621,0,0,1-1.508-.077l-22.882-13.46v-2.3Z" transform="translate(-1739.749 167.418)" fill="#a9d1ea"/>
              <path id="Trazado_99705" data-name="Trazado 99705" d="M1777.27-101.336l-6.6-3.348-23.433,13.6,23.433,13.809Z" transform="translate(-1739.787 172.454)" fill="#bbe0fd"/>
              <path id="Trazado_99706" data-name="Trazado 99706" d="M1746.95-54.1v4.87a.974.974,0,0,0,.974.974.974.974,0,0,0,.974-.974V-54.1Z" transform="translate(-1739.71 158.708)" fill="#1c427e"/>
              <path id="Trazado_99707" data-name="Trazado 99707" d="M1748-136.056s.653-2.053-.266-3.2-1.823.559-1.823.559c-3.553-2.759-4.276-1.4-4.276-1.4-2.286,1.84-1.366,2.983-1.366,2.983.649,1.653,5.243,4.093,5.243,4.093Z" transform="translate(-1737.846 182.166)" fill="#f4caab"/>
              <path id="Trazado_99708" data-name="Trazado 99708" d="M1801.021-167.48c2.52-.252,4.729,1.022,5.407,7.794s.468,18.547.468,18.547l-4.587,21.19-5.062-.678L1799.4-142.1l-2.382-16.86S1795.982-166.975,1801.021-167.48Z" transform="translate(-1753.291 189.526)" fill="#ff3b86"/>
              <path id="Trazado_99709" data-name="Trazado 99709" d="M1780.488-91.785c-16.505,9.318-33.815-13.21-35.293-15.189-.066-.095-.1-.142-.1-.142l2.414-2.983a22.99,22.99,0,0,1,5.635-5,23.024,23.024,0,0,1,14.052-3.475l22.414-4.024c.19.5.37.994.53,1.486C1797.41-99.683,1780.488-91.785,1780.488-91.785Z" transform="translate(-1739.206 177.322)" fill="#0991a1"/>
              <path id="Trazado_99710" data-name="Trazado 99710" d="M1780.527-91.231c-16.505,9.318-33.815-13.21-35.293-15.189,21.581,13.257,38.427,12.869,44.942-14.138C1797.449-99.128,1780.527-91.231,1780.527-91.231Z" transform="translate(-1739.244 176.767)" fill="#f1249a" opacity="0.44" style="mix-blend-mode: multiply;isolation: isolate"/>
              <path id="Trazado_99711" data-name="Trazado 99711" d="M1773.24-155.638l1.934,7.594a33.343,33.343,0,0,1-1.934,21.978h0s18.878,3.006,26.184-7.259l-.4-2.41a36.037,36.037,0,0,1-1.712-16.835l1.712-12.552a6.915,6.915,0,0,0-1.914-3.525,5.158,5.158,0,0,0-2.959-1.442,5.326,5.326,0,0,0-3.247.608l-13.986,7.644a7.059,7.059,0,0,0-2.295,2A7.063,7.063,0,0,0,1773.24-155.638Z" transform="translate(-1746.854 190.24)" fill="#ff0062"/>
              <path id="Trazado_99712" data-name="Trazado 99712" d="M1768.921-156.944c2.529.136,4.518,1.734,4.152,8.529-.213,3.964-1.518,12.171-2.569,18.321a5.432,5.432,0,0,1-8.115,3.762L1746.717-137.1l3.539-4.719,12.979,7.079.425-14.393S1763.864-157.216,1768.921-156.944Z" transform="translate(-1739.647 186.657)" fill="#ff3b86"/>
              <path id="Trazado_99713" data-name="Trazado 99713" d="M1777.016-189.8s-1.612,17.726,5.295,16.115,8.747-9.9,8.747-9.9l-4.834-6.216Z" transform="translate(-1747.836 195.583)" fill="#f9beae"/>
              <path id="Trazado_99714" data-name="Trazado 99714" d="M1786.46-173.211l-.69,7.367s5.294,1.611,7.6-.921v-6.446Z" transform="translate(-1750.26 191.075)" fill="#f4caab"/>
              <path id="Trazado_99715" data-name="Trazado 99715" d="M1780.608-180.129a2.6,2.6,0,0,0,2.6,2.6,2.6,2.6,0,0,0,2.6-2.6,2.6,2.6,0,0,0-2.6-2.6A2.6,2.6,0,0,0,1780.608-180.129Z" transform="translate(-1748.857 193.662)" fill="#f4caab"/>
              <path id="Trazado_99716" data-name="Trazado 99716" d="M1791.468-190.431a8.872,8.872,0,0,0-.851-2.677c-2.762-5.294-11.74-4.6-11.74-4.6s-4.6.921-4.6,4.144c0,2.194,1.81,3.638,2.969,4.339,2.661,10.754-4.554,14.886-4.554,14.886s11.648,6.427,18.878-.4C1797.078-179.951,1793.487-187.252,1791.468-190.431Z" transform="translate(-1746.704 197.742)" fill="#052754"/>
              <path id="Trazado_99717" data-name="Trazado 99717" d="M1779.124-85.291l7.951-32.639,24.479-15.483,1.988,1.36-10.147,32.744-22.282,15.169Z" transform="translate(-1748.453 180.261)" fill="#a9d1ea"/>
              <path id="Trazado_99718" data-name="Trazado 99718" d="M1782-83.568l7.951-32.639,24.479-15.483-8.16,34.1Z" transform="translate(-1749.234 179.792)" fill="#bbe0fd"/>
            </g>
            <path id="Trazado_99719" data-name="Trazado 99719" d="M1666.687-374.526V-402l-24.144,14.043v27.72Z" transform="translate(-1423.11 455.891)" fill="#3c6a9e"/>
            <path id="Trazado_99720" data-name="Trazado 99720" d="M1705.695-396.631V-424.1l-24.144,14.043v27.72Z" transform="translate(-1433.71 461.898)" fill="#3c6a9e"/>
          </g>
        </g>
      </g>
    </g>
    <rect id="Rectángulo_5125" data-name="Rectángulo 5125" width="604" height="518" transform="translate(186 3062.433)" fill="none"/>
  </g>
</svg>
