<svg xmlns="http://www.w3.org/2000/svg" width="188" height="234" viewBox="0 0 188 234">
  <g id="Grupo_54919" data-name="Grupo 54919" transform="translate(-1226 -462)">
    <g id="Grupo_54549" data-name="Grupo 54549" transform="translate(1040)">
      <ellipse id="Elipse_4028" data-name="Elipse 4028" cx="94" cy="8" rx="94" ry="8" transform="translate(186 680)" fill="#e4e4e4"/>
      <rect id="Rectángulo_5266" data-name="Rectángulo 5266" width="188" height="234" transform="translate(186 462)" fill="none"/>
    </g>
    <g id="Grupo_54548" data-name="Grupo 54548" transform="translate(1281.566 469.101)">
      <path id="Trazado_102161" data-name="Trazado 102161" d="M1177.637,344.442a25.715,25.715,0,0,1,1.761-6.6c1.23-2.459,9.054-.895,9.054-.895s1.565,1.341,1.9,7.6Z" transform="translate(-1126.079 -117.654)" fill="#233862"/>
      <path id="Trazado_102162" data-name="Trazado 102162" d="M1252.571,342.8c1.839-1.122.793-9.494.793-9.494s-8.568-6.854-9.745-1.606-8.139,7.6-12.1,8.246c-2.736.444-3.583,1.958-3.845,2.854Z" transform="translate(-1227.672 -116.072)" fill="#233862"/>
      <path id="Trazado_102163" data-name="Trazado 102163" d="M1218.631,247.63a39.535,39.535,0,0,0-.629,4.628c-.8,15.535-13.077,51.055-15.273,51.883-3.4,1.282-8.751-1.444-11.551-2.336a2.4,2.4,0,0,1-1.685-2.728c6.081-27.958,8.316-68.216,9.129-92.051a108.155,108.155,0,0,1,2.472-20.3s29.951-7.992,30.13,2.118C1231.381,197.791,1221.3,232.873,1218.631,247.63Z" transform="translate(-1175.986 -81.789)" fill="#213f7a"/>
      <path id="Trazado_102164" data-name="Trazado 102164" d="M1209.452,247.63l-20.009-40.6a108.155,108.155,0,0,1,2.472-20.3s29.951-7.992,30.13,2.118C1222.2,197.791,1212.124,232.873,1209.452,247.63Z" transform="translate(-1166.808 -81.789)" fill="#233862"/>
      <path id="Trazado_102165" data-name="Trazado 102165" d="M1170.7,189.342,1186.537,304.1s6.953,1.677,12.361.335c0,0,4.636-61.033,4.25-75.788s3.327-39.482-.848-42.209S1170.7,189.342,1170.7,189.342Z" transform="translate(-1134.722 -82.249)" fill="#213f7a"/>
      <path id="Trazado_102166" data-name="Trazado 102166" d="M1213.889,138.857l1.974,27.552a2.2,2.2,0,0,1-1.586,2.27c-2.208.641-4.755,1.087-9.667,2.1a93.8,93.8,0,0,1-18.444,1.853c-12.128.077-16.72-4.1-16.72-4.1-.523.009.276-2.529.995-14.6.244-4.088.479-9.271.649-15.821.153-5.893.256-12.894.265-21.2.013-9.992,15.479-20.741,15.764-20.741l0,0c0,1.439,2.268,4.093,5.759,4.322,4.145.271,9.23-1.792,9.23-4.179,0-.024,7.493,11.987,10.155,24.785.338,1.622.6,3.334.808,5.135l.009.082c.039.33.074.66.109.994.006.058.011.118.018.176.031.3.061.61.089.917.008.087.014.178.022.265.026.282.05.562.073.848,0,.026,0,.052.006.078.018.211.033.424.049.637.011.15.022.3.034.455.018.25.034.5.051.752.009.125.016.252.025.379.015.239.029.479.044.722.006.107.013.215.019.323.019.348.039.7.057,1.054l0,.086c.018.34.034.684.051,1.029,0,.086.008.169.011.255.016.324.031.65.044.979,0,.049.005.1.007.145q.051,1.2.095,2.44c0,.021,0,.042,0,.063Z" transform="translate(-1145.199 -61.228)" fill="#7da8ff"/>
      <path id="Trazado_102167" data-name="Trazado 102167" d="M1232.9,96.175s-14.381-.122-17.842,4.732-11.05,30.966-7.09,39.654,11.37-3.594,15.483-8.916S1232.9,96.175,1232.9,96.175Z" transform="translate(-1190.977 -61.229)" fill="#7da8ff"/>
      <path id="Trazado_102168" data-name="Trazado 102168" d="M1187.292,90.674l.008,1.487s-.4,4.649,5.32,5.328,9.966-.885,9.811-4.472a51.46,51.46,0,0,1-1.025-7.912,16.224,16.224,0,0,1,.2-2.784l-11.093-.221-3.267.533Z" transform="translate(-1145.519 -57.923)" fill="#ffb27d"/>
      <path id="Trazado_102169" data-name="Trazado 102169" d="M1188.329,82.632l.042,8.042a9.383,9.383,0,0,0,4,.882c5.1,0,8.394-3.739,10.117-6.452a16.211,16.211,0,0,1,.2-2.784L1191.6,82.1Z" transform="translate(-1146.598 -57.923)" fill="#e2915a"/>
      <path id="Trazado_102170" data-name="Trazado 102170" d="M1203.163,74.7c-1.287,6.927-10.225,6.7-14.088,6.264-1.087-.121-1.771-.26-1.771-.26-1.226-.327-1.909-2.257-2.227-4.786-.63-5.005.166-12.351,1.012-14.23,1.272-2.827,3.669-5.886,12.671-3.679S1204.814,65.826,1203.163,74.7Z" transform="translate(-1146.221 -52.089)" fill="#ffb27d"/>
      <path id="Trazado_102171" data-name="Trazado 102171" d="M1228.947,121.607s-5.562,12.283-5.4,15.965a19.194,19.194,0,0,1,5.4.695C1233.295,139.563,1228.947,121.607,1228.947,121.607Z" transform="translate(-1201.732 -67.201)" fill="#568bd8"/>
      <path id="Trazado_102172" data-name="Trazado 102172" d="M1179.814,53.51a29.775,29.775,0,0,0,8.635-2.336c3.793-1.649,8.578.167,10.132.986a2.315,2.315,0,0,0-.379-.935,2.087,2.087,0,0,1,.8,1.186c.071.053.1.09.085.1a2.67,2.67,0,0,1,1.3.084s-.356-.051-.482.178a.221.221,0,0,1-.057.063c5.917,2.859,6.463,12.21,4.559,14.373-2.29,2.6-5.037,8.465-5.037,8.465a5.025,5.025,0,0,1-.585-3.675c.417-2.291-1.562-2.291-4.061-3.332s-.416-3.957-2.6-5.727-10.2-.729-10.1-2.083C1179.043,59.774,1179.814,53.815,1179.814,53.51Z" transform="translate(-1142.709 -50.504)" fill="#233862"/>
      <path id="Trazado_102173" data-name="Trazado 102173" d="M1218.362,151.515c-2.348,9.428-27.741,14.3-33.513,15.291.244-4.088.479-9.271.649-15.821Z" transform="translate(-1159.607 -74.1)" fill="#568bd8"/>
      <path id="Trazado_102174" data-name="Trazado 102174" d="M1180.534,152.634a44.788,44.788,0,0,0,6.613-1.29c.967-.484,5.393-6.774,2.494-8.387s-10.679,4.838-10.679,4.838Z" transform="translate(-1127.353 -72.153)" fill="#ffb27d"/>
      <path id="Trazado_102175" data-name="Trazado 102175" d="M1189.63,154.661s20.9,1.134,34.92-1.869a6.028,6.028,0,0,0-4.054-5.851s-21.856-4.633-27.106-3.343S1189.63,154.661,1189.63,154.661Z" transform="translate(-1169.312 -72.312)" fill="#7da8ff"/>
      <path id="Trazado_102176" data-name="Trazado 102176" d="M1179.025,127.224c-4.337,5.228-10.006,9.5-16.256,10.5l0,0a11.655,11.655,0,0,1-1.547-6.978,13.954,13.954,0,0,1,2.276-6.406,14.224,14.224,0,0,0,1.229-2.478c3.413-8.708,2.9-25.491,2.9-25.491s14.493,1.518,19.008,7.969C1189.4,108.288,1185.877,118.956,1179.025,127.224Z" transform="translate(-1110.717 -61.274)" fill="#7da8ff"/>
      <path id="Trazado_102177" data-name="Trazado 102177" d="M1209.615,86.693c-1.086-.121-1.771-.26-1.771-.26-1.226-.327-1.909-2.257-2.227-4.786a6.053,6.053,0,0,1,3.791,3.1A4.442,4.442,0,0,1,1209.615,86.693Z" transform="translate(-1166.762 -57.817)" fill="#e2915a"/>
      <path id="Trazado_102178" data-name="Trazado 102178" d="M1209.161,90.707s-5.005-8.259-1.113-8.618a5.885,5.885,0,0,1,6.018,3.242c.563.968-.147,5.333-.147,5.333Z" transform="translate(-1172.147 -57.913)" fill="#ffb27d"/>
      <path id="Trazado_102179" data-name="Trazado 102179" d="M1208.491,129.307a10.766,10.766,0,0,1-.853,2.868,13.739,13.739,0,0,1-3.187,4.39v0c-13-5.867-15.63-26.016-16.07-37.087-.177-4.45,0-7.434,0-7.434,5.865-1.942,7.513,1.432,7.513,1.432s6.924,16.466,10.516,27.226C1207.781,124.819,1208.667,128.1,1208.491,129.307Z" transform="translate(-1152.399 -60.117)" fill="#7da8ff"/>
      <path id="Trazado_102180" data-name="Trazado 102180" d="M1204.692,128.534c-4.337,5.228-10.006,9.5-16.256,10.5l0,0c-13-5.867-15.63-26.016-16.07-37.087,0,0,6.151,22.31,14.524,30.108a9.132,9.132,0,0,0,4.735,2.59s10.558-2.983,12.772-5.793A1.183,1.183,0,0,1,1204.692,128.534Z" transform="translate(-1136.384 -62.583)" fill="#568bd8"/>
    </g>
  </g>
</svg>
