<svg xmlns="http://www.w3.org/2000/svg" xmlns:xlink="http://www.w3.org/1999/xlink" width="500" height="173.238" viewBox="0 0 500 173.238">
  <defs>
    <clipPath id="clip-path">
      <rect id="Rectángulo_5036" data-name="Rectángulo 5036" width="142.49" height="146.109" fill="none"/>
    </clipPath>
  </defs>
  <g id="Grupo_53726" data-name="Grupo 53726" transform="translate(959.798 -4241.832)">
    <rect id="Rectángulo_5036-3" data-name="Rectángulo 5036" width="142.49" height="146.109" transform="translate(-602.288 4241.832)" fill="#b4c7f9"/>
    <rect id="Rectángulo_5036-4" data-name="Rectángulo 5036" width="142.49" height="146.109" transform="translate(-959.798 4241.832)" fill="#b4c7f9"/>
    <path id="Trazado_102914" data-name="Trazado 102914" d="M1.079,0V-12.086H5.313a5.559,5.559,0,0,1,3.337.843A2.881,2.881,0,0,1,9.787-8.774,2.731,2.731,0,0,1,9.33-7.209a2.637,2.637,0,0,1-1.27.992,2.551,2.551,0,0,1,1.465.938,2.773,2.773,0,0,1,.535,1.727A3.19,3.19,0,0,1,8.948-.913,5.007,5.007,0,0,1,5.777,0Zm2.49-5.263V-2H5.7A2.059,2.059,0,0,0,7.076-2.42,1.437,1.437,0,0,0,7.57-3.578,1.518,1.518,0,0,0,5.852-5.263Zm0-1.76H5.412Q7.3-7.056,7.3-8.525a1.388,1.388,0,0,0-.477-1.183,2.51,2.51,0,0,0-1.507-.361H3.569ZM15.9.166a4.409,4.409,0,0,1-3.217-1.212,4.308,4.308,0,0,1-1.241-3.229v-.232a5.426,5.426,0,0,1,.523-2.42,3.838,3.838,0,0,1,1.482-1.644,4.159,4.159,0,0,1,2.187-.577,3.727,3.727,0,0,1,2.9,1.162A4.722,4.722,0,0,1,19.6-4.69v.979H13.879a2.229,2.229,0,0,0,.7,1.411,2.12,2.12,0,0,0,1.482.531,2.589,2.589,0,0,0,2.167-1l1.179,1.32A3.6,3.6,0,0,1,17.946-.261,4.793,4.793,0,0,1,15.9.166ZM15.63-7.213a1.5,1.5,0,0,0-1.158.484A2.5,2.5,0,0,0,13.9-5.346h3.337v-.192a1.786,1.786,0,0,0-.432-1.238A1.547,1.547,0,0,0,15.63-7.213Zm7.537-1.768.075,1.038a3.136,3.136,0,0,1,2.582-1.2,2.606,2.606,0,0,1,2.125.838A3.912,3.912,0,0,1,28.663-5.8V0h-2.4V-5.757a1.562,1.562,0,0,0-.332-1.111,1.484,1.484,0,0,0-1.1-.345,1.65,1.65,0,0,0-1.519.865V0h-2.4V-8.981Zm9.853,0V.49A3.213,3.213,0,0,1,32.232,2.8a3,3,0,0,1-2.274.826,4.878,4.878,0,0,1-1.187-.141v-1.9a4.5,4.5,0,0,0,.755.075q1.087,0,1.087-1.154V-8.981Zm-2.6-2.324a1.181,1.181,0,0,1,.361-.888,1.356,1.356,0,0,1,.984-.349,1.356,1.356,0,0,1,.984.349,1.181,1.181,0,0,1,.361.888,1.178,1.178,0,0,1-.369.9,1.363,1.363,0,0,1-.975.349,1.363,1.363,0,0,1-.975-.349A1.178,1.178,0,0,1,30.422-11.306ZM40.1,0a2.664,2.664,0,0,1-.241-.805,2.9,2.9,0,0,1-2.266.971A3.189,3.189,0,0,1,35.407-.6a2.456,2.456,0,0,1-.867-1.926A2.538,2.538,0,0,1,35.6-4.715a5.222,5.222,0,0,1,3.059-.772h1.1V-6a1.48,1.48,0,0,0-.32-1,1.257,1.257,0,0,0-1.009-.374,1.429,1.429,0,0,0-.95.291.987.987,0,0,0-.344.8h-2.4a2.41,2.41,0,0,1,.481-1.444A3.182,3.182,0,0,1,36.582-8.77a4.961,4.961,0,0,1,1.976-.378,3.92,3.92,0,0,1,2.635.834,2.918,2.918,0,0,1,.975,2.345v3.893a4.294,4.294,0,0,0,.357,1.934V0ZM38.117-1.668a2.066,2.066,0,0,0,.979-.237,1.554,1.554,0,0,0,.664-.635V-4.084h-.9q-1.8,0-1.917,1.245l-.008.141a.96.96,0,0,0,.315.739A1.225,1.225,0,0,0,38.117-1.668ZM46.26-8.981l.075,1a3.156,3.156,0,0,1,2.582-1.17A2.4,2.4,0,0,1,51.3-7.778,3.084,3.084,0,0,1,54-9.147a2.679,2.679,0,0,1,2.175.851,3.911,3.911,0,0,1,.714,2.561V0H54.478V-5.741a1.717,1.717,0,0,0-.3-1.119,1.322,1.322,0,0,0-1.054-.354,1.5,1.5,0,0,0-1.494,1.032L51.639,0h-2.4V-5.732a1.7,1.7,0,0,0-.307-1.132,1.335,1.335,0,0,0-1.046-.349,1.554,1.554,0,0,0-1.478.849V0h-2.4V-8.981ZM61.318,0h-2.4V-8.981h2.4Zm-.706-12.625h2.615l-2.3,2.573H58.977Zm4.98,3.644.075,1.038a3.136,3.136,0,0,1,2.582-1.2,2.606,2.606,0,0,1,2.125.838A3.912,3.912,0,0,1,71.088-5.8V0h-2.4V-5.757a1.562,1.562,0,0,0-.332-1.111,1.484,1.484,0,0,0-1.1-.345,1.65,1.65,0,0,0-1.519.865V0h-2.4V-8.981Z" transform="translate(-925.866 4411.442)" fill="#5258ac"/>
    <path id="Trazado_102915" data-name="Trazado 102915" d="M7.9-2.49H3.536L2.706,0H.058l4.5-12.086H6.865L11.389,0H8.741ZM4.208-4.507H7.23L5.711-9.031Zm9.961-4.474.075,1.038a3.136,3.136,0,0,1,2.582-1.2,2.606,2.606,0,0,1,2.125.838A3.912,3.912,0,0,1,19.665-5.8V0h-2.4V-5.757a1.562,1.562,0,0,0-.332-1.111,1.484,1.484,0,0,0-1.1-.345,1.65,1.65,0,0,0-1.519.865V0h-2.4V-8.981ZM26.687,0a2.664,2.664,0,0,1-.241-.805A2.9,2.9,0,0,1,24.18.166,3.189,3.189,0,0,1,21.993-.6a2.456,2.456,0,0,1-.867-1.926,2.538,2.538,0,0,1,1.058-2.191,5.222,5.222,0,0,1,3.059-.772h1.1V-6a1.48,1.48,0,0,0-.32-1,1.257,1.257,0,0,0-1.009-.374,1.429,1.429,0,0,0-.95.291.987.987,0,0,0-.344.8h-2.4a2.41,2.41,0,0,1,.481-1.444A3.182,3.182,0,0,1,23.167-8.77a4.961,4.961,0,0,1,1.976-.378,3.92,3.92,0,0,1,2.635.834,2.918,2.918,0,0,1,.975,2.345v3.893a4.294,4.294,0,0,0,.357,1.934V0ZM24.7-1.668a2.066,2.066,0,0,0,.979-.237,1.554,1.554,0,0,0,.664-.635V-4.084h-.9q-1.8,0-1.917,1.245l-.008.141a.96.96,0,0,0,.315.739A1.225,1.225,0,0,0,24.7-1.668Z" transform="translate(-545.753 4411.442)" fill="#5258ac"/>
    <g id="Grupo_53682" data-name="Grupo 53682" transform="translate(-794.578 4311.582)">
      <rect id="Rectángulo_5159" data-name="Rectángulo 5159" width="168.232" height="3.305" fill="#0991a1"/>
    </g>
    <g id="Grupo_53683" data-name="Grupo 53683" transform="translate(-730.723 4286.473)">
      <line id="Línea_158" data-name="Línea 158" x2="42.522" y2="51.949" transform="translate(0 0.001)" fill="#5258ac"/>
      <path id="Trazado_99899" data-name="Trazado 99899" d="M-747.535,4287.609c4,3.958,7.778,8.092,11.483,12.29s7.309,8.477,10.874,12.789c3.524,4.343,7.021,8.711,10.391,13.183s6.687,8.986,9.774,13.688c-4-3.957-7.782-8.089-11.486-12.287s-7.309-8.478-10.871-12.792c-3.521-4.347-7.018-8.714-10.387-13.186S-744.445,4292.31-747.535,4287.609Z" transform="translate(747.535 -4287.609)" fill="#ff0062"/>
    </g>
    <g id="Grupo_53684" data-name="Grupo 53684" transform="translate(-735.436 4291.185)">
      <line id="Línea_159" data-name="Línea 159" x1="51.949" y2="42.522" transform="translate(0 0.001)" fill="#5258ac"/>
      <path id="Trazado_99900" data-name="Trazado 99900" d="M-698.913,4290.935c-3.958,4-8.092,7.779-12.289,11.483-4.186,3.72-8.477,7.309-12.788,10.875-4.344,3.525-8.712,7.021-13.184,10.391s-8.984,6.688-13.687,9.774c3.955-4,8.09-7.782,12.287-11.486s8.476-7.307,12.79-10.869c4.347-3.522,8.714-7.02,13.187-10.388S-703.613,4294.026-698.913,4290.935Z" transform="translate(750.861 -4290.934)" fill="#ff0062"/>
    </g>
    <g id="Grupo_53692" data-name="Grupo 53692" transform="translate(-602.288 4241.832)">
      <g id="Grupo_53691" data-name="Grupo 53691" clip-path="url(#clip-path)">
        <g id="Grupo_53690" data-name="Grupo 53690" transform="translate(19.851 18.814)">
          <g id="Grupo_53685" data-name="Grupo 53685" transform="translate(69.538 101.161)">
            <path id="Trazado_99901" data-name="Trazado 99901" d="M-546.213,4403.309l-7.868-52.326,1.515-.232,7.868,52.324Z" transform="translate(554.081 -4350.751)" fill="#5c5049"/>
          </g>
          <g id="Grupo_53686" data-name="Grupo 53686" transform="translate(59.93 101.161)">
            <path id="Trazado_99902" data-name="Trazado 99902" d="M-554.935,4403.309l-7.868-52.326,1.516-.232,7.867,52.324Z" transform="translate(562.803 -4350.751)" fill="#5c5049"/>
          </g>
          <g id="Grupo_53687" data-name="Grupo 53687" transform="translate(18.962 101.161)">
            <path id="Trazado_99903" data-name="Trazado 99903" d="M-598.481,4403.309l-1.515-.234,7.868-52.324,1.515.232Z" transform="translate(599.996 -4350.751)" fill="#5c5049"/>
          </g>
          <path id="Trazado_99904" data-name="Trazado 99904" d="M-549.918,4357.525l6.163-64.841s-10.778-1.41-17.291-1.063l-9.79,65.9Z" transform="translate(621.918 -4255.597)" fill="#fab46c"/>
          <rect id="Rectángulo_5160" data-name="Rectángulo 5160" width="20.919" height="3.296" transform="translate(51.081 98.631)" fill="#fab46c"/>
          <path id="Trazado_99905" data-name="Trazado 99905" d="M-582.96,4354.875l-3.27-61.79s27.281-2.962,44.037-.409Z" transform="translate(620.356 -4255.59)" fill="#fab46c"/>
          <path id="Trazado_99906" data-name="Trazado 99906" d="M-561.042,4276.4s4.212-12.352-3.827-16.182-14.865,1.706-16.153,4.7-.95,8.441.151,12.241.94,9.582-1.45,11.514-5.35,5.146-5.2,11.685c.091,4.056,15.961-10.376,15.961-10.376Z" transform="translate(620.224 -4258.912)" fill="#fccca2"/>
          <path id="Trazado_99907" data-name="Trazado 99907" d="M-572.926,4396.754s-.25,8.73,1,9.254,5.964-2.511,8.045-5.513-2.608-9.99-3.377-13.843c-.323-1.616-3.989-4.518-5.776-3.687a8.733,8.733,0,0,0-3.092,2.965S-571.581,4389.047-572.926,4396.754Z" transform="translate(621.381 -4246.335)" fill="#d4c3bd"/>
          <g id="Grupo_53688" data-name="Grupo 53688" transform="translate(45.252 136.631)">
            <path id="Trazado_99908" data-name="Trazado 99908" d="M-576.129,4385.916a48.282,48.282,0,0,1,2.344,5.29c.8,2.311.944,8.713,1.446,9.158s4.456-1.55,4.982-3.944-1.075-7.178-2.6-9.694a15.648,15.648,0,0,0-3.079-3.775S-575.734,4383.475-576.129,4385.916Z" transform="translate(576.129 -4382.951)" fill="#de9673"/>
          </g>
          <path id="Trazado_99909" data-name="Trazado 99909" d="M-568.078,4386.3l4.249,6.2-.805.551-3.284-4.792Z" transform="translate(622.198 -4245.982)" fill="#d4c3bd"/>
          <path id="Trazado_99910" data-name="Trazado 99910" d="M-580.493,4324.271s2.077,3.508,0,6.063-16.047,9.57-15.944,13.624,2.661,10.4,3.581,12,4.311,8.287,6.074,12.2,11.953,22.6,13.947,26.818.766-16.856.766-16.856l-10.191-29.885,23.812-23.2S-561.332,4318.622-580.493,4324.271Z" transform="translate(619.319 -4252.514)" fill="#de9673"/>
          <path id="Trazado_99911" data-name="Trazado 99911" d="M-572.109,4288.158s-6.607,1.466-9.229,3-8.446,8.583-8.446,11.614,25.469,5.863,25.469,5.863l4.828,17.625s12.873-3.142,14.405-5.747-5.069-21.148-5.989-25.057-5.736-6.543-11.1-7.3A36.938,36.938,0,0,0-572.109,4288.158Z" transform="translate(619.995 -4255.978)" fill="#95308e"/>
          <path id="Trazado_99912" data-name="Trazado 99912" d="M-556.906,4324.583s-.46,3.014.766,4.291,6.875,8.725,3.883,16.041c-2.746,6.719-8.072,6.591-8.072,6.591h-8.241s2.393,12.094,1.62,20.061-4.408,26.169-4.484,27.087-3.485,3.794-4.482,2.339c0,0-.091-10.958-.629-15.1s-2.819-20.69-3.509-23.142-4.75-9.884-4.75-10.651-3.968-12.763,4.692-15.827S-568.394,4324.647-556.906,4324.583Z" transform="translate(620.408 -4252.246)" fill="#eea886"/>
          <path id="Trazado_99913" data-name="Trazado 99913" d="M-580.075,4402.632s-5.685,6.63-5.045,7.823,6.216,1.8,9.723.773,4.254-9.408,6.08-12.889c.764-1.456-.261-6.02-2.173-6.5a8.735,8.735,0,0,0-4.268.36S-574.182,4397.485-580.075,4402.632Z" transform="translate(620.463 -4245.433)" fill="#e6d3cc"/>
          <g id="Grupo_53689" data-name="Grupo 53689" transform="translate(38.563 145.929)">
            <path id="Trazado_99914" data-name="Trazado 99914" d="M-576.06,4392.232a48.044,48.044,0,0,1-1.506,5.588c-.835,2.3-4.743,7.367-4.633,8.028s4.438,1.6,6.353.067,3.678-6.257,4.073-9.173a15.667,15.667,0,0,0-.02-4.871S-574.218,4390.584-576.06,4392.232Z" transform="translate(582.201 -4391.393)" fill="#eea886"/>
          </g>
          <path id="Trazado_99915" data-name="Trazado 99915" d="M-570.634,4397.727l-.6,7.493-.972-.077.461-5.792Z" transform="translate(621.779 -4244.821)" fill="#e6d3cc"/>
          <path id="Trazado_99916" data-name="Trazado 99916" d="M-551.166,4345.182c-2.592,6.807-8.072,6.591-8.072,6.591h-8.24s-3.439-5.447-11.858-6.384a24.969,24.969,0,0,0-6.349.151l-.086.012c-11.186,1.658-9.026,5.763-8.992,5.871-.93-2.271-1.906-5.881-1.671-7.824,1.073-8.854,13.866-10.71,15.944-13.265s0-6.062,0-6.062c19.162-5.649,22.044.766,22.044.766.839-.116,2.993-1.356,3.908-1.363,0,0,.958,2.1,1.633,3.987C-552.307,4329.329-548.353,4337.8-551.166,4345.182Z" transform="translate(619.316 -4252.514)" fill="#2f4563"/>
          <path id="Trazado_99917" data-name="Trazado 99917" d="M-559.119,4298.786l2.835,26.36H-593.6l-2.836-26.36Z" transform="translate(619.319 -4254.865)" fill="#ded1c5"/>
          <rect id="Rectángulo_5161" data-name="Rectángulo 5161" width="6.233" height="2.372" transform="translate(59.772 67.91)" fill="#ded1c5"/>
          <rect id="Rectángulo_5162" data-name="Rectángulo 5162" width="102.788" height="3.588" transform="translate(0 70.281)" fill="#bc8551"/>
          <path id="Trazado_99918" data-name="Trazado 99918" d="M-569.132,4262.023s8.36,2.474,7.167,14.077-6.655,11.006-7.167,11.091-7,.511-9.043-13.564S-569.132,4262.023-569.132,4262.023Z" transform="translate(621.147 -4258.613)" fill="#eea886"/>
          <path id="Trazado_99919" data-name="Trazado 99919" d="M-565.5,4283.161a19.119,19.119,0,0,0,.3,6.231c.739,2.389-9.74,2.454-9.733.49.007-2.231,1.072-4.1.068-7.919S-565.5,4283.161-565.5,4283.161Z" transform="translate(621.502 -4256.718)" fill="#eea886"/>
          <path id="Trazado_99920" data-name="Trazado 99920" d="M-571.235,4267.263s4.544,7.227,9.325,8.9c0,0,2.609-12.126-8.173-14.667s-9.094,12.249-8.289,16.192A32.031,32.031,0,0,1-571.235,4267.263Z" transform="translate(621.091 -4258.678)" fill="#fccca2"/>
          <path id="Trazado_99921" data-name="Trazado 99921" d="M-573.751,4283.364a5.657,5.657,0,0,0,7.54.358s-.35,2.2-3.393,2.49S-573.751,4283.364-573.751,4283.364Z" transform="translate(621.622 -4256.43)" fill="#a77860"/>
          <path id="Trazado_99922" data-name="Trazado 99922" d="M-577.48,4266.222s2.391-4.63,6.428-4.836,6.439,3.3,6.439,3.3a6.865,6.865,0,0,0-6.434-3.944C-575.9,4260.737-577.48,4266.222-577.48,4266.222Z" transform="translate(621.244 -4258.727)" fill="#23344a"/>
          <path id="Trazado_99923" data-name="Trazado 99923" d="M-564.055,4288.117s-.149,8.03-6.516,8.27-5.044-7.7-5.044-7.7A22.121,22.121,0,0,1-564.055,4288.117Z" transform="translate(621.421 -4255.995)" fill="#eea886"/>
          <rect id="Rectángulo_5163" data-name="Rectángulo 5163" width="2.64" height="82.419" transform="translate(100.147 73.869)" fill="#807066"/>
          <rect id="Rectángulo_5164" data-name="Rectángulo 5164" width="2.64" height="82.419" transform="translate(0 73.869)" fill="#807066"/>
        </g>
      </g>
    </g>
    <g id="Grupo_53725" data-name="Grupo 53725" transform="translate(-959.798 4241.832)">
      <g id="Grupo_53724" data-name="Grupo 53724" clip-path="url(#clip-path)">
        <g id="Grupo_53723" data-name="Grupo 53723" transform="translate(-5.605 18.378)">
          <g id="Grupo_53693" data-name="Grupo 53693" transform="translate(0 10.451)">
            <path id="Trazado_99924" data-name="Trazado 99924" d="M-964.886,4317.748c.019,48.3,1.372,57.753,13.5,68.574,4.75,4.238,13.485,13.042,38.69,17.425a188.671,188.671,0,0,0,27.483,2.51,91.751,91.751,0,0,0,12.228-.453,63.8,63.8,0,0,0,8.645-1.511c27.7-6.941,29.77-30.675,17.655-50.64a114.976,114.976,0,0,0-10.72-14.68c-5.933-7-12.294-13.215-18.055-19.018-5.309-5.346-10.111-10.343-13.6-15.275a38.442,38.442,0,0,1-3.656-6.222c-.224-.491-.452-.978-.679-1.46-.746-1.57-1.512-3.078-2.287-4.521-1.455-2.71-2.937-5.188-4.366-7.405-1.139-1.77-2.246-3.375-3.275-4.8a79.078,79.078,0,0,0-6.165-7.635s-.327-.154-.933-.4c-.322-.134-.725-.3-1.2-.478-.191-.073-.39-.149-.6-.227s-.432-.158-.664-.24c-.213-.075-.435-.153-.662-.23q-.4-.138-.839-.279c-.171-.056-.345-.113-.522-.167-.106-.033-.213-.067-.319-.1l-.122-.037a54.993,54.993,0,0,0-13.9-2.443C-945.168,4267.464-964.906,4275.313-964.886,4317.748Z" transform="translate(964.886 -4268.003)" fill="#ff0062"/>
          </g>
          <g id="Grupo_53694" data-name="Grupo 53694" transform="translate(61.047 130.464)">
            <path id="Trazado_99925" data-name="Trazado 99925" d="M-906.072,4379.4a29.838,29.838,0,0,1-.922,4.665c-.527,1.429-3.383,4.725-2.176,7.892,1.309,3.434,7.019.124,9.35-.924s1.8-2.947,2.047-5.276,1.386-2.391.965-4.028-2.966-4.772-2.966-4.772Z" transform="translate(909.465 -4376.957)" fill="#b7ceff"/>
          </g>
          <g id="Grupo_53696" data-name="Grupo 53696" transform="translate(63.873 128.77)">
            <g id="Grupo_53695" data-name="Grupo 53695">
              <path id="Trazado_99926" data-name="Trazado 99926" d="M-901.136,4375.418s1.463,2.045,1.421,2.1-6.262,3.844-6.694,2.616a12.654,12.654,0,0,1-.49-2.391Z" transform="translate(906.899 -4375.418)" fill="#eea886"/>
            </g>
          </g>
          <g id="Grupo_53697" data-name="Grupo 53697" transform="translate(82.5 135.094)">
            <path id="Trazado_99927" data-name="Trazado 99927" d="M-881.76,4381.264a23.573,23.573,0,0,1,3.6,4.221c1.7,2.557,6.229,2.691,6.423,6.183s-6.152,3.6-9.483,2.461-3.835-4.544-5.85-5.4-3.062-1.543-2.907-3.207a20.286,20.286,0,0,1,1.27-4.365,13.924,13.924,0,0,0,1.987.48A16.507,16.507,0,0,0-881.76,4381.264Z" transform="translate(889.989 -4381.16)" fill="#b7ceff"/>
          </g>
          <g id="Grupo_53698" data-name="Grupo 53698" transform="translate(67.891 30.453)">
            <path id="Trazado_99928" data-name="Trazado 99928" d="M-903.251,4296.343s1.277,7.595,2.307,12.61h0a30.033,30.033,0,0,0,1.028,4.151,58.669,58.669,0,0,0,5.624,6.232c5.147,5.3,11.947,11.971,11.947,11.971l2.659-5.047s-6.039-7.08-10.135-11.806c-1.9-2.185-3.374-3.866-3.645-4.109-.856-.766-1.849-8.312-3.246-14.529a25.02,25.02,0,0,0-4.2-9.653Z" transform="translate(903.251 -4286.162)" fill="#e8e8e8"/>
          </g>
          <g id="Grupo_53699" data-name="Grupo 53699" transform="translate(76.85 58.745)">
            <path id="Trazado_99929" data-name="Trazado 99929" d="M-895.118,4316.729c5.147,5.3,11.947,11.971,11.947,11.971l2.659-5.047s-6.04-7.08-10.135-11.806A8.594,8.594,0,0,0-895.118,4316.729Z" transform="translate(895.118 -4311.847)" fill="#eea886"/>
          </g>
          <g id="Grupo_53700" data-name="Grupo 53700" transform="translate(83.71 132.871)">
            <path id="Trazado_99930" data-name="Trazado 99930" d="M-882.17,4379.142l.3,2.326a11.473,11.473,0,0,1-6.944-.1l-.075-2.068Z" transform="translate(888.89 -4379.142)" fill="#eea886"/>
          </g>
          <g id="Grupo_53701" data-name="Grupo 53701" transform="translate(37.384 26.127)">
            <path id="Trazado_99931" data-name="Trazado 99931" d="M-924.8,4330.678c-.191.677,34.989,0,34.989,0s-9.732-7.082-10.362-8.975,2.478-13.245,2.884-16.94c.324-2.957,1.137-16.183-.812-18.2-2.037-2.112-9.371-4.326-9.371-4.326l-10.695.4a16.7,16.7,0,0,0-3.025.954c-1.262.586-8.476,3.156-9.648,6.76s7.2,15.193,7.2,15.193.015.521.041,1.375h0c.032,1.137.08,2.867.125,4.744.055,2.43.1,5.1.1,7.059A69.95,69.95,0,0,1-924.8,4330.678Z" transform="translate(930.947 -4282.235)" fill="#e8e8e8"/>
          </g>
          <g id="Grupo_53702" data-name="Grupo 53702" transform="translate(38.68 72.749)">
            <path id="Trazado_99932" data-name="Trazado 99932" d="M-924.918,4326.384s-4.785,7.029-4.852,11.826,8.493,20.868,9.787,23.167c3.895,6.911,14.574,21.82,14.574,21.82s1.841-.047,7.584-2.278c0,0-7.1-19.691-8-21.736-3.819-8.67-5.952-14.82-4.668-16.307s4.786-2.979,5.8-3.857,18.673,3.337,20.523,3.817c4.792,1.241,2.607,9.58,1.548,13.318-1.773,6.252-3.324,28.834-3.324,28.834s3.414,1.456,9.13.226c0,0,11.226-40.775,11.585-44.83s.538-10.741-27.123-15.824Z" transform="translate(929.77 -4324.561)" fill="#303669"/>
          </g>
          <g id="Grupo_53703" data-name="Grupo 53703" transform="translate(49.748 2.748)">
            <path id="Trazado_99933" data-name="Trazado 99933" d="M-911.541,4261.156s9.282-2.093,7.162,9.588-4.354,12.6-9.952,10.181-5.1-9.9-5.381-13.57S-914.5,4261.284-911.541,4261.156Z" transform="translate(919.722 -4261.011)" fill="#eea886"/>
          </g>
          <g id="Grupo_53704" data-name="Grupo 53704" transform="translate(49.778 14.408)">
            <path id="Trazado_99934" data-name="Trazado 99934" d="M-909.087,4286.313s-4.112,4.359-10.607.4c0,0,1.453-9.445.687-14.045s8.476,7.128,8.476,7.128c-.12.063-.2.5-.219,1.127a12.362,12.362,0,0,0,.1,1.872C-910.464,4284.321-909.988,4285.938-909.087,4286.313Z" transform="translate(919.695 -4271.595)" fill="#eea886"/>
          </g>
          <g id="Grupo_53705" data-name="Grupo 53705" transform="translate(49.055)">
            <path id="Trazado_99935" data-name="Trazado 99935" d="M-919.2,4273.6s.239-3.681,1.583-3.795,1.55,1.368,1.55,1.368l1.358.255s-.429-3.227.914-3.789,8.7,1.775,9.774.828.571-7.49-1.379-8.384-7.329-2.9-11.271-.234c0,0-3.075-.35-3.53,2.131S-920.031,4271.759-919.2,4273.6Z" transform="translate(920.351 -4258.515)" fill="#3a3f47"/>
          </g>
          <g id="Grupo_53706" data-name="Grupo 53706" transform="translate(51.604 19.44)">
            <path id="Trazado_99936" data-name="Trazado 99936" d="M-910.823,4282.329c-6.7-2.067-7.207-6.1-7.214-6.166,2.206,3.791,7.118,4.293,7.118,4.293A12.351,12.351,0,0,0-910.823,4282.329Z" transform="translate(918.037 -4276.164)" fill="#a77860"/>
          </g>
          <g id="Grupo_53707" data-name="Grupo 53707" transform="translate(47.033 25.498)">
            <path id="Trazado_99937" data-name="Trazado 99937" d="M-922.187,4283.7s4.909,9.771,12.839,9.141,1.352-10.454.991-10.545C-908.753,4282.193-916.49,4280.266-922.187,4283.7Z" transform="translate(922.187 -4281.664)" fill="#eea886"/>
          </g>
          <g id="Grupo_53708" data-name="Grupo 53708" transform="translate(43.533 71.057)">
            <path id="Trazado_99938" data-name="Trazado 99938" d="M-886.349,4326.044s-24.3,3-39.016.5l28.126-3.515S-897.072,4323.742-886.349,4326.044Z" transform="translate(925.365 -4323.025)" fill="#e8e8e8"/>
          </g>
          <g id="Grupo_53709" data-name="Grupo 53709" transform="translate(62.752 69.95)">
            <path id="Trazado_99939" data-name="Trazado 99939" d="M-906.292,4322.019l1.81.918s-.412,2.875-1.4,3.746l-2.032-.518S-907.493,4323.011-906.292,4322.019Z" transform="translate(907.917 -4322.019)" fill="#eea886"/>
          </g>
          <g id="Grupo_53710" data-name="Grupo 53710" transform="translate(35.638 33.312)">
            <path id="Trazado_99940" data-name="Trazado 99940" d="M-931.907,4319.508c.361.42,5.139,2.34,10.535,4.419h0c7.371,2.839,15.687,5.526,15.687,5.526l1.891-4.059s-8.706-4.731-14.59-8.05c-2.78-1.567-4.929-2.82-5.233-3.108-.946-.9-1.192-2.347-.5-4.866s2.3-14.1,2.478-15.455-.449-4.956-3.829-5.137a10.145,10.145,0,0,0-5.1.775s-.848.352-1.479,8.552S-932.762,4318.518-931.907,4319.508Z" transform="translate(932.532 -4288.758)" fill="#e8e8e8"/>
          </g>
          <g id="Grupo_53711" data-name="Grupo 53711" transform="translate(44.737 40.906)">
            <path id="Trazado_99941" data-name="Trazado 99941" d="M-924.272,4305.552h0c.032,1.138.08,2.867.124,4.744a23.709,23.709,0,0,0,1.359-14.644C-922.432,4297.846-924.247,4305.444-924.272,4305.552Z" transform="translate(924.272 -4295.652)" fill="#b0b0b0"/>
          </g>
          <g id="Grupo_53712" data-name="Grupo 53712" transform="translate(70.198 44.965)">
            <path id="Trazado_99942" data-name="Trazado 99942" d="M-901.157,4307.616h0a30.045,30.045,0,0,0,1.028,4.151c1.126-5.452.112-12.431.112-12.431A70.105,70.105,0,0,1-901.157,4307.616Z" transform="translate(901.157 -4299.337)" fill="#b0b0b0"/>
          </g>
          <g id="Grupo_53713" data-name="Grupo 53713" transform="translate(46.797 61.9)">
            <path id="Trazado_99943" data-name="Trazado 99943" d="M-922.4,4321.293h0c7.371,2.839,15.953,5.613,15.953,5.613l1.625-4.146s-8.706-4.732-14.59-8.05C-919.412,4314.712-921.554,4315.755-922.4,4321.293Z" transform="translate(922.401 -4314.712)" fill="#eea886"/>
          </g>
          <g id="Grupo_53714" data-name="Grupo 53714" transform="translate(64.901 73.828)">
            <path id="Trazado_99944" data-name="Trazado 99944" d="M-905.966,4326.049l34.533-.508-17.435,8.852Z" transform="translate(905.966 -4325.541)" fill="#444c94"/>
          </g>
          <g id="Grupo_53715" data-name="Grupo 53715" transform="translate(64.901 74.337)">
            <path id="Trazado_99945" data-name="Trazado 99945" d="M-888.867,4334.346l-17.1-6.623V4326l18.45,6.654Z" transform="translate(905.966 -4326.002)" fill="#303669"/>
          </g>
          <g id="Grupo_53717" data-name="Grupo 53717" transform="translate(64.134 70.16)">
            <g id="Grupo_53716" data-name="Grupo 53716">
              <path id="Trazado_99946" data-name="Trazado 99946" d="M-905,4322.98s2.158-.335,3.647-.683c1.154-.269,4.023.1,4.754.841s3.055,5.9,3.494,6.215-.225,1.043-1,.678c0,0-.708,2.258-2.457,1.412s-2.937-2.689-3.853-3.015-6.25-1.965-6.25-1.965S-906.373,4322.431-905,4322.98Z" transform="translate(906.662 -4322.21)" fill="#eea886"/>
            </g>
          </g>
          <g id="Grupo_53719" data-name="Grupo 53719" transform="translate(73.038 70.751)">
            <g id="Grupo_53718" data-name="Grupo 53718">
              <path id="Trazado_99947" data-name="Trazado 99947" d="M-897.946,4322.747a15.063,15.063,0,0,1,1.747.967c.361.3,1.83,1.4,2.184,1.654s-.536.992-3.158-.143S-897.946,4322.747-897.946,4322.747Z" transform="translate(898.578 -4322.747)" fill="#eea886"/>
            </g>
          </g>
          <g id="Grupo_53720" data-name="Grupo 53720" transform="translate(82 54.635)">
            <path id="Trazado_99948" data-name="Trazado 99948" d="M-890.442,4336.161l10.27-28.045,33.114.54-9.788,25.845Z" transform="translate(890.442 -4308.116)" fill="#303669"/>
          </g>
          <g id="Grupo_53721" data-name="Grupo 53721" transform="translate(102.27 64.43)">
            <path id="Trazado_99949" data-name="Trazado 99949" d="M-871.444,4319.621c-1.01,2.02-.7,4.22.682,4.913s3.331-.38,4.342-2.4.7-4.22-.683-4.914S-870.433,4317.6-871.444,4319.621Z" transform="translate(872.04 -4317.008)" fill="#518afa"/>
          </g>
          <g id="Grupo_53722" data-name="Grupo 53722" transform="translate(50.976 10.199)">
            <path id="Trazado_99950" data-name="Trazado 99950" d="M-916.267,4268.675a1.184,1.184,0,0,0-2.323.136c-.164,1.544.925,4.258,1.7,3.991S-916.1,4270.1-916.267,4268.675Z" transform="translate(918.607 -4267.774)" fill="#eea886"/>
          </g>
        </g>
      </g>
    </g>
    <g id="Grupo_53727" data-name="Grupo 53727" transform="translate(-637.602 4304.205)">
      <path id="Trazado_99822" data-name="Trazado 99822" d="M-1634.107,1323.57c-5.391,2-12.08,5.414-16.227,9.029l3.266-9.029-3.266-9.028C-1646.188,1318.157-1639.5,1321.571-1634.107,1323.57Z" transform="translate(1650.334 -1314.542)" fill="#0991a1"/>
    </g>
  </g>
</svg>
