<svg xmlns="http://www.w3.org/2000/svg" xmlns:xlink="http://www.w3.org/1999/xlink" width="562" height="460" viewBox="0 0 562 460">
  <defs>
    <clipPath id="clip-path">
      <circle id="Elipse_4005" data-name="Elipse 4005" cx="69.038" cy="69.038" r="69.038" fill="none"/>
    </clipPath>
  </defs>
  <g id="Grupo_54918" data-name="Grupo 54918" transform="translate(-810 -915)">
    <rect id="Rectángulo_5158" data-name="Rectángulo 5158" width="562" height="460" transform="translate(810 915)" fill="#fff" opacity="0.4"/>
    <g id="Grupo_53634" data-name="Grupo 53634" transform="translate(272 234)">
      <g id="Grupo_53633" data-name="Grupo 53633" transform="translate(570 710)">
        <g id="Grupo_53588" data-name="Grupo 53588">
          <g id="Grupo_53587" data-name="Grupo 53587" clip-path="url(#clip-path)">
            <rect id="Rectángulo_5036" data-name="Rectángulo 5036" width="136.367" height="136.367" transform="translate(6.757 -7.263)" fill="#b4c7f9"/>
            <g id="Grupo_53586" data-name="Grupo 53586" transform="translate(-6.141 17.167)">
              <g id="Grupo_53556" data-name="Grupo 53556" transform="translate(0 10.224)">
                <path id="Trazado_99755" data-name="Trazado 99755" d="M-1953.185,1332.93c.02,47.25,1.343,56.5,13.208,67.084,4.646,4.146,13.191,12.758,37.848,17.046a184.716,184.716,0,0,0,26.886,2.457,89.67,89.67,0,0,0,11.962-.444,62.359,62.359,0,0,0,8.456-1.477c27.1-6.791,29.122-30.009,17.27-49.539a112.655,112.655,0,0,0-10.486-14.36c-5.8-6.847-12.028-12.927-17.662-18.6-5.195-5.232-9.891-10.118-13.3-14.943a37.569,37.569,0,0,1-3.575-6.087q-.33-.721-.664-1.428-1.1-2.3-2.237-4.423c-1.425-2.652-2.873-5.075-4.271-7.244-1.115-1.733-2.2-3.3-3.2-4.7a77.525,77.525,0,0,0-6.03-7.467s-.32-.151-.913-.4c-.314-.131-.708-.29-1.173-.468q-.278-.107-.589-.222t-.65-.235c-.209-.073-.426-.15-.648-.225-.263-.091-.538-.181-.821-.274-.167-.053-.337-.11-.512-.164-.1-.032-.208-.066-.312-.1l-.12-.037a53.743,53.743,0,0,0-13.6-2.39C-1933.895,1283.74-1953.2,1291.42-1953.185,1332.93Z" transform="translate(1953.185 -1284.269)" fill="#ff0062"/>
              </g>
              <g id="Grupo_53557" data-name="Grupo 53557" transform="translate(59.719 127.627)">
                <path id="Trazado_99756" data-name="Trazado 99756" d="M-1894.444,1395.613a29.326,29.326,0,0,1-.9,4.563c-.516,1.4-3.31,4.622-2.129,7.72,1.28,3.359,6.866.122,9.146-.9s1.76-2.883,2-5.162,1.356-2.338.945-3.939-2.9-4.668-2.9-4.668Z" transform="translate(1897.764 -1393.222)" fill="#b7ceff"/>
              </g>
              <g id="Grupo_53559" data-name="Grupo 53559" transform="translate(62.485 125.969)">
                <g id="Grupo_53558" data-name="Grupo 53558">
                  <path id="Trazado_99757" data-name="Trazado 99757" d="M-1889.559,1391.684s1.431,2,1.39,2.057-6.126,3.76-6.549,2.558a12.443,12.443,0,0,1-.478-2.338Z" transform="translate(1895.197 -1391.684)" fill="#eea886"/>
                </g>
              </g>
              <g id="Grupo_53560" data-name="Grupo 53560" transform="translate(80.707 132.154)">
                <path id="Trazado_99758" data-name="Trazado 99758" d="M-1870.238,1397.527a23,23,0,0,1,3.524,4.128c1.668,2.5,6.095,2.634,6.283,6.049s-6.018,3.518-9.277,2.407-3.752-4.446-5.722-5.281-3-1.508-2.844-3.135a19.861,19.861,0,0,1,1.242-4.271,13.5,13.5,0,0,0,1.944.471A16.144,16.144,0,0,0-1870.238,1397.527Z" transform="translate(1878.287 -1397.424)" fill="#b7ceff"/>
              </g>
              <g id="Grupo_53561" data-name="Grupo 53561" transform="translate(66.416 29.79)">
                <path id="Trazado_99759" data-name="Trazado 99759" d="M-1891.549,1312.388s1.249,7.428,2.255,12.335h0a29.288,29.288,0,0,0,1.006,4.06,56.968,56.968,0,0,0,5.5,6.1c5.035,5.183,11.687,11.71,11.687,11.71l2.6-4.936s-5.909-6.927-9.916-11.549c-1.853-2.138-3.3-3.783-3.564-4.021-.838-.749-1.811-8.131-3.177-14.213a24.5,24.5,0,0,0-4.1-9.445Z" transform="translate(1891.549 -1302.426)" fill="#e8e8e8"/>
              </g>
              <g id="Grupo_53562" data-name="Grupo 53562" transform="translate(75.179 57.467)">
                <path id="Trazado_99760" data-name="Trazado 99760" d="M-1883.417,1332.888c5.036,5.183,11.687,11.71,11.687,11.71l2.6-4.936s-5.909-6.927-9.916-11.549A8.411,8.411,0,0,0-1883.417,1332.888Z" transform="translate(1883.417 -1328.112)" fill="#eea886"/>
              </g>
              <g id="Grupo_53563" data-name="Grupo 53563" transform="translate(81.891 129.981)">
                <path id="Trazado_99761" data-name="Trazado 99761" d="M-1870.615,1395.407l.292,2.276a11.217,11.217,0,0,1-6.792-.1l-.073-2.021Z" transform="translate(1877.188 -1395.407)" fill="#eea886"/>
              </g>
              <g id="Grupo_53564" data-name="Grupo 53564" transform="translate(36.572 25.559)">
                <path id="Trazado_99762" data-name="Trazado 99762" d="M-1913.229,1345.89c-.186.662,34.229,0,34.229,0s-9.52-6.93-10.137-8.78,2.424-12.959,2.821-16.572c.317-2.892,1.112-15.831-.793-17.808-1.992-2.065-9.167-4.23-9.167-4.23l-10.462.389a16.367,16.367,0,0,0-2.96.933c-1.234.573-8.292,3.086-9.437,6.612s7.042,14.864,7.042,14.864.015.51.04,1.345h0c.031,1.113.079,2.8.122,4.641.055,2.377.1,4.993.1,6.9A68.4,68.4,0,0,1-1913.229,1345.89Z" transform="translate(1919.245 -1298.5)" fill="#e8e8e8"/>
              </g>
              <g id="Grupo_53565" data-name="Grupo 53565" transform="translate(37.84 71.167)">
                <path id="Trazado_99763" data-name="Trazado 99763" d="M-1913.322,1342.609s-4.682,6.875-4.746,11.568,8.307,20.416,9.573,22.665c3.81,6.761,14.257,21.344,14.257,21.344s1.8-.045,7.42-2.228c0,0-6.95-19.263-7.831-21.263-3.735-8.483-5.821-14.5-4.566-15.953s4.681-2.912,5.672-3.772,18.268,3.265,20.078,3.735c4.687,1.214,2.55,9.371,1.514,13.028-1.736,6.117-3.252,28.208-3.252,28.208s3.338,1.423,8.932.221c0,0,10.98-39.889,11.333-43.855s.526-10.508-26.535-15.48Z" transform="translate(1918.068 -1340.826)" fill="#303669"/>
              </g>
              <g id="Grupo_53566" data-name="Grupo 53566" transform="translate(48.667 2.689)">
                <path id="Trazado_99764" data-name="Trazado 99764" d="M-1900.017,1277.418s9.081-2.048,7.005,9.379-4.258,12.326-9.735,9.961-4.988-9.686-5.263-13.276S-1902.915,1277.543-1900.017,1277.418Z" transform="translate(1908.021 -1277.276)" fill="#eea886"/>
              </g>
              <g id="Grupo_53567" data-name="Grupo 53567" transform="translate(48.696 14.095)">
                <path id="Trazado_99765" data-name="Trazado 99765" d="M-1897.617,1302.258s-4.021,4.264-10.377.389c0,0,1.421-9.241.672-13.74s8.293,6.973,8.293,6.973c-.117.063-.2.493-.214,1.1a12.093,12.093,0,0,0,.094,1.831C-1898.963,1300.31-1898.5,1301.891-1897.617,1302.258Z" transform="translate(1907.994 -1287.861)" fill="#eea886"/>
              </g>
              <g id="Grupo_53568" data-name="Grupo 53568" transform="translate(47.989)">
                <path id="Trazado_99766" data-name="Trazado 99766" d="M-1907.52,1289.539s.234-3.6,1.549-3.713,1.517,1.337,1.517,1.337l1.328.251s-.419-3.156.894-3.707,8.508,1.737,9.561.81.559-7.327-1.348-8.2-7.171-2.838-11.027-.227c0,0-3.007-.344-3.452,2.083S-1908.337,1287.734-1907.52,1289.539Z" transform="translate(1908.65 -1274.781)" fill="#3a3f47"/>
              </g>
              <g id="Grupo_53569" data-name="Grupo 53569" transform="translate(50.482 19.017)">
                <path id="Trazado_99767" data-name="Trazado 99767" d="M-1899.278,1298.46c-6.557-2.021-7.05-5.971-7.058-6.031,2.159,3.709,6.964,4.2,6.964,4.2A12.026,12.026,0,0,0-1899.278,1298.46Z" transform="translate(1906.336 -1292.429)" fill="#a77860"/>
              </g>
              <g id="Grupo_53570" data-name="Grupo 53570" transform="translate(46.011 24.943)">
                <path id="Trazado_99768" data-name="Trazado 99768" d="M-1910.485,1299.916s4.8,9.558,12.559,8.941,1.322-10.225.971-10.313C-1897.343,1298.447-1904.912,1296.561-1910.485,1299.916Z" transform="translate(1910.485 -1297.928)" fill="#eea886"/>
              </g>
              <g id="Grupo_53571" data-name="Grupo 53571" transform="translate(42.587 69.512)">
                <path id="Trazado_99769" data-name="Trazado 99769" d="M-1875.5,1342.243s-23.768,2.93-38.168.486l27.513-3.439S-1885.985,1339.992-1875.5,1342.243Z" transform="translate(1913.663 -1339.29)" fill="#e8e8e8"/>
              </g>
              <g id="Grupo_53572" data-name="Grupo 53572" transform="translate(61.388 68.429)">
                <path id="Trazado_99770" data-name="Trazado 99770" d="M-1894.626,1338.285l1.771.9s-.4,2.811-1.373,3.663l-1.987-.506S-1895.8,1339.255-1894.626,1338.285Z" transform="translate(1896.215 -1338.285)" fill="#eea886"/>
              </g>
              <g id="Grupo_53573" data-name="Grupo 53573" transform="translate(34.863 32.588)">
                <path id="Trazado_99771" data-name="Trazado 99771" d="M-1920.22,1335.1c.354.409,5.027,2.29,10.307,4.323h0c7.211,2.778,15.345,5.406,15.345,5.406l1.851-3.97s-8.518-4.629-14.274-7.875c-2.72-1.533-4.821-2.759-5.12-3.041-.925-.881-1.165-2.3-.485-4.76s2.25-13.8,2.426-15.118-.441-4.848-3.746-5.025a9.911,9.911,0,0,0-4.988.758s-.83.345-1.447,8.366S-1921.056,1334.136-1920.22,1335.1Z" transform="translate(1920.831 -1305.023)" fill="#e8e8e8"/>
              </g>
              <g id="Grupo_53574" data-name="Grupo 53574" transform="translate(43.764 40.017)">
                <path id="Trazado_99772" data-name="Trazado 99772" d="M-1912.571,1321.6h0c.031,1.113.079,2.805.122,4.641a23.191,23.191,0,0,0,1.331-14.326C-1910.771,1314.063-1912.546,1321.5-1912.571,1321.6Z" transform="translate(1912.571 -1311.917)" fill="#b0b0b0"/>
              </g>
              <g id="Grupo_53575" data-name="Grupo 53575" transform="translate(68.671 43.986)">
                <path id="Trazado_99773" data-name="Trazado 99773" d="M-1889.456,1323.7h0a29.268,29.268,0,0,0,1.006,4.06c1.1-5.332.11-12.16.11-12.16A68.422,68.422,0,0,1-1889.456,1323.7Z" transform="translate(1889.456 -1315.601)" fill="#b0b0b0"/>
              </g>
              <g id="Grupo_53576" data-name="Grupo 53576" transform="translate(45.781 60.555)">
                <path id="Trazado_99774" data-name="Trazado 99774" d="M-1910.7,1337.416h0c7.211,2.778,15.607,5.491,15.607,5.491l1.589-4.055s-8.518-4.629-14.274-7.875C-1907.777,1330.977-1909.872,1332-1910.7,1337.416Z" transform="translate(1910.699 -1330.977)" fill="#eea886"/>
              </g>
              <g id="Grupo_53577" data-name="Grupo 53577" transform="translate(63.49 72.222)">
                <path id="Trazado_99775" data-name="Trazado 99775" d="M-1894.264,1342.3l33.783-.5-17.055,8.66Z" transform="translate(1894.264 -1341.805)" fill="#444c94"/>
              </g>
              <g id="Grupo_53578" data-name="Grupo 53578" transform="translate(63.49 72.72)">
                <path id="Trazado_99776" data-name="Trazado 99776" d="M-1877.537,1350.429l-16.727-6.479v-1.683l18.049,6.51Z" transform="translate(1894.264 -1342.267)" fill="#303669"/>
              </g>
              <g id="Grupo_53580" data-name="Grupo 53580" transform="translate(62.74 68.635)">
                <g id="Grupo_53579" data-name="Grupo 53579">
                  <path id="Trazado_99777" data-name="Trazado 99777" d="M-1893.335,1339.229s2.111-.328,3.569-.668c1.129-.263,3.935.1,4.65.823s2.989,5.771,3.419,6.078-.221,1.021-.975.664c0,0-.694,2.208-2.4,1.381s-2.873-2.632-3.769-2.949-6.114-1.922-6.114-1.922S-1894.679,1338.692-1893.335,1339.229Z" transform="translate(1894.96 -1338.476)" fill="#eea886"/>
                </g>
              </g>
              <g id="Grupo_53582" data-name="Grupo 53582" transform="translate(71.45 69.213)">
                <g id="Grupo_53581" data-name="Grupo 53581">
                  <path id="Trazado_99778" data-name="Trazado 99778" d="M-1886.259,1339.012a14.567,14.567,0,0,1,1.709.946c.354.292,1.79,1.366,2.136,1.618s-.524.971-3.088-.14S-1886.259,1339.012-1886.259,1339.012Z" transform="translate(1886.877 -1339.012)" fill="#eea886"/>
                </g>
              </g>
              <g id="Grupo_53583" data-name="Grupo 53583" transform="translate(80.217 53.447)">
                <path id="Trazado_99779" data-name="Trazado 99779" d="M-1878.741,1351.816l10.046-27.435,32.394.529-9.575,25.283Z" transform="translate(1878.741 -1324.381)" fill="#303669"/>
              </g>
              <g id="Grupo_53584" data-name="Grupo 53584" transform="translate(100.047 63.029)">
                <path id="Trazado_99780" data-name="Trazado 99780" d="M-1859.756,1335.829c-.987,1.976-.688,4.128.668,4.807s3.257-.374,4.246-2.35.69-4.127-.667-4.806S-1858.766,1333.853-1859.756,1335.829Z" transform="translate(1860.338 -1333.273)" fill="#518afa"/>
              </g>
              <g id="Grupo_53585" data-name="Grupo 53585" transform="translate(49.869 9.977)">
                <path id="Trazado_99781" data-name="Trazado 99781" d="M-1904.618,1284.921a1.157,1.157,0,0,0-2.271.132c-.16,1.512.9,4.166,1.661,3.9S-1904.453,1286.311-1904.618,1284.921Z" transform="translate(1906.905 -1284.04)" fill="#eea886"/>
              </g>
            </g>
          </g>
        </g>
        <g id="Grupo_53596" data-name="Grupo 53596" transform="translate(359.444)">
          <g id="Grupo_53595" data-name="Grupo 53595" clip-path="url(#clip-path)">
            <rect id="Rectángulo_5036-2" data-name="Rectángulo 5036" width="146.857" height="150.586" transform="translate(-5.048 -7.263)" fill="#b4c7f9"/>
            <g id="Grupo_53594" data-name="Grupo 53594" transform="translate(26.467 17.594)">
              <g id="Grupo_53589" data-name="Grupo 53589" transform="translate(68.026 98.961)">
                <path id="Trazado_99782" data-name="Trazado 99782" d="M-1518.522,1418.431l-7.7-51.188,1.482-.227,7.7,51.186Z" transform="translate(1526.219 -1367.016)" fill="#5c5049"/>
              </g>
              <g id="Grupo_53590" data-name="Grupo 53590" transform="translate(58.627 98.961)">
                <path id="Trazado_99783" data-name="Trazado 99783" d="M-1527.245,1418.431l-7.7-51.188,1.484-.227,7.7,51.186Z" transform="translate(1534.942 -1367.016)" fill="#5c5049"/>
              </g>
              <g id="Grupo_53591" data-name="Grupo 53591" transform="translate(18.549 98.961)">
                <path id="Trazado_99784" data-name="Trazado 99784" d="M-1570.653,1418.431l-1.482-.229,7.7-51.186,1.482.227Z" transform="translate(1572.135 -1367.016)" fill="#5c5049"/>
              </g>
              <path id="Trazado_99785" data-name="Trazado 99785" d="M-1522.511,1372.356l6.029-63.432s-10.544-1.378-16.916-1.039l-9.576,64.471Z" transform="translate(1592.946 -1272.645)" fill="#fab46c"/>
              <rect id="Rectángulo_5137" data-name="Rectángulo 5137" width="20.464" height="3.225" transform="translate(49.97 96.486)" fill="#fab46c"/>
              <path id="Trazado_99786" data-name="Trazado 99786" d="M-1555.169,1369.765l-3.2-60.446s26.688-2.9,43.079-.4Z" transform="translate(1591.752 -1272.639)" fill="#fab46c"/>
              <path id="Trazado_99787" data-name="Trazado 99787" d="M-1533.757,1292.283s4.122-12.085-3.742-15.83-14.542,1.669-15.8,4.6-.928,8.258.148,11.975.919,9.374-1.418,11.264-5.234,5.034-5.091,11.43c.09,3.968,15.613-10.149,15.613-10.149Z" transform="translate(1591.651 -1275.177)" fill="#fccca2"/>
              <path id="Trazado_99788" data-name="Trazado 99788" d="M-1545.134,1412.715s-.246,8.541.974,9.052,5.835-2.455,7.87-5.392-2.55-9.772-3.3-13.543c-.314-1.58-3.9-4.419-5.649-3.607a8.541,8.541,0,0,0-3.026,2.9S-1543.818,1405.177-1545.134,1412.715Z" transform="translate(1592.535 -1265.568)" fill="#d4c3bd"/>
              <g id="Grupo_53592" data-name="Grupo 53592" transform="translate(44.267 133.658)">
                <path id="Trazado_99789" data-name="Trazado 99789" d="M-1548.268,1402.116a47.071,47.071,0,0,1,2.293,5.177c.779,2.26.924,8.523,1.415,8.958s4.359-1.517,4.875-3.859-1.053-7.022-2.545-9.482a15.32,15.32,0,0,0-3.011-3.694S-1547.88,1399.729-1548.268,1402.116Z" transform="translate(1548.268 -1399.216)" fill="#de9673"/>
              </g>
              <path id="Trazado_99790" data-name="Trazado 99790" d="M-1540.217,1402.563l4.157,6.066-.788.539-3.212-4.688Z" transform="translate(1593.16 -1265.298)" fill="#d4c3bd"/>
              <path id="Trazado_99791" data-name="Trazado 99791" d="M-1552.979,1340.486s2.033,3.431,0,5.93-15.7,9.363-15.6,13.327,2.6,10.171,3.5,11.744,4.218,8.106,5.943,11.931,11.694,22.113,13.643,26.235.75-16.49.75-16.49l-9.97-29.235,23.293-22.693S-1534.233,1334.959-1552.979,1340.486Z" transform="translate(1590.96 -1270.289)" fill="#de9673"/>
              <path id="Trazado_99792" data-name="Trazado 99792" d="M-1544.633,1304.417s-6.463,1.433-9.028,2.933-8.263,8.4-8.263,11.36,24.915,5.736,24.915,5.736l4.722,17.242s12.593-3.074,14.093-5.624-4.96-20.688-5.859-24.512-5.611-6.4-10.857-7.136A36.107,36.107,0,0,0-1544.633,1304.417Z" transform="translate(1591.476 -1272.935)" fill="#95308e"/>
              <path id="Trazado_99793" data-name="Trazado 99793" d="M-1529.672,1340.848s-.449,2.947.75,4.2,6.724,8.535,3.8,15.692c-2.686,6.573-7.9,6.447-7.9,6.447h-8.062s2.34,11.831,1.585,19.626-4.313,25.6-4.388,26.5-3.408,3.712-4.384,2.288c0,0-.089-10.719-.615-14.767s-2.758-20.24-3.433-22.638-4.646-9.671-4.646-10.42-3.881-12.486,4.59-15.484S-1540.909,1340.911-1529.672,1340.848Z" transform="translate(1591.792 -1270.084)" fill="#eea886"/>
              <path id="Trazado_99794" data-name="Trazado 99794" d="M-1552.324,1418.658s-5.561,6.487-4.936,7.653,6.082,1.761,9.512.757,4.163-9.2,5.948-12.609c.749-1.424-.254-5.889-2.126-6.356a8.542,8.542,0,0,0-4.176.352S-1546.561,1413.625-1552.324,1418.658Z" transform="translate(1591.834 -1264.88)" fill="#e6d3cc"/>
              <g id="Grupo_53593" data-name="Grupo 53593" transform="translate(37.724 142.755)">
                <path id="Trazado_99795" data-name="Trazado 99795" d="M-1548.333,1408.479a46.794,46.794,0,0,1-1.473,5.466c-.816,2.248-4.64,7.208-4.532,7.854s4.343,1.561,6.216.066,3.6-6.121,3.985-8.974a15.345,15.345,0,0,0-.021-4.765S-1546.53,1406.867-1548.333,1408.479Z" transform="translate(1554.34 -1407.658)" fill="#eea886"/>
              </g>
              <path id="Trazado_99796" data-name="Trazado 99796" d="M-1542.806,1413.992l-.583,7.33-.951-.076.451-5.665Z" transform="translate(1592.84 -1264.412)" fill="#e6d3cc"/>
              <path id="Trazado_99797" data-name="Trazado 99797" d="M-1524.29,1360.942c-2.537,6.659-7.9,6.447-7.9,6.447h-8.062s-3.364-5.329-11.6-6.245a24.432,24.432,0,0,0-6.211.147l-.084.013c-10.942,1.621-8.828,5.638-8.8,5.742-.908-2.221-1.863-5.752-1.635-7.654,1.051-8.662,13.565-10.478,15.6-12.977s0-5.93,0-5.93c18.746-5.527,21.565.749,21.565.749.822-.114,2.928-1.326,3.823-1.333,0,0,.939,2.05,1.6,3.9C-1525.406,1345.432-1521.538,1353.717-1524.29,1360.942Z" transform="translate(1590.958 -1270.289)" fill="#2f4563"/>
              <path id="Trazado_99798" data-name="Trazado 99798" d="M-1532.07,1315.05l2.773,25.787H-1565.8l-2.774-25.787Z" transform="translate(1590.96 -1272.085)" fill="#ded1c5"/>
              <rect id="Rectángulo_5138" data-name="Rectángulo 5138" width="6.097" height="2.32" transform="translate(58.472 66.433)" fill="#ded1c5"/>
              <rect id="Rectángulo_5139" data-name="Rectángulo 5139" width="100.552" height="3.51" transform="translate(0 68.753)" fill="#bc8551"/>
              <path id="Trazado_99799" data-name="Trazado 99799" d="M-1541.472,1278.285s8.177,2.419,7.009,13.77-6.51,10.767-7.009,10.85-6.844.5-8.848-13.269S-1541.472,1278.285-1541.472,1278.285Z" transform="translate(1592.357 -1274.949)" fill="#eea886"/>
              <path id="Trazado_99800" data-name="Trazado 99800" d="M-1537.847,1299.37a18.724,18.724,0,0,0,.291,6.094c.723,2.337-9.527,2.4-9.52.48.005-2.183,1.049-4.007.066-7.748S-1537.847,1299.37-1537.847,1299.37Z" transform="translate(1592.628 -1273.501)" fill="#eea886"/>
              <path id="Trazado_99801" data-name="Trazado 99801" d="M-1543.542,1283.4s4.444,7.07,9.121,8.709c0,0,2.554-11.861-7.995-14.349s-8.9,11.984-8.109,15.84A31.327,31.327,0,0,1-1543.542,1283.4Z" transform="translate(1592.314 -1274.999)" fill="#fccca2"/>
              <path id="Trazado_99802" data-name="Trazado 99802" d="M-1545.889,1299.628a5.533,5.533,0,0,0,7.375.351s-.342,2.155-3.318,2.434S-1545.889,1299.628-1545.889,1299.628Z" transform="translate(1592.72 -1273.281)" fill="#a77860"/>
              <path id="Trazado_99803" data-name="Trazado 99803" d="M-1549.619,1282.367s2.34-4.53,6.29-4.731,6.3,3.224,6.3,3.224a6.716,6.716,0,0,0-6.294-3.858C-1548.077,1277-1549.619,1282.367-1549.619,1282.367Z" transform="translate(1592.43 -1275.036)" fill="#23344a"/>
              <path id="Trazado_99804" data-name="Trazado 99804" d="M-1536.448,1304.371s-.145,7.856-6.375,8.09-4.934-7.535-4.934-7.535A21.65,21.65,0,0,1-1536.448,1304.371Z" transform="translate(1592.566 -1272.949)" fill="#eea886"/>
              <rect id="Rectángulo_5140" data-name="Rectángulo 5140" width="2.583" height="80.626" transform="translate(97.969 72.262)" fill="#807066"/>
              <rect id="Rectángulo_5141" data-name="Rectángulo 5141" width="2.582" height="80.626" transform="translate(0 72.262)" fill="#807066"/>
            </g>
          </g>
        </g>
        <g id="Grupo_53629" data-name="Grupo 53629" transform="translate(179.722 231.712)">
          <g id="Grupo_53628" data-name="Grupo 53628" clip-path="url(#clip-path)">
            <rect id="Rectángulo_5036-3" data-name="Rectángulo 5036" width="146.857" height="150.586" transform="translate(-5.048 -7.263)" fill="#b4c7f9"/>
            <g id="Grupo_53627" data-name="Grupo 53627" transform="translate(36.009 18.456)">
              <g id="Grupo_53599" data-name="Grupo 53599" transform="translate(18.849)">
                <g id="Grupo_53598" data-name="Grupo 53598">
                  <g id="Grupo_53597" data-name="Grupo 53597">
                    <path id="Trazado_99805" data-name="Trazado 99805" d="M-1712.616,1448.351s8.157-.854,11.1,7.023,5.706,10.457,6.052,14.594c1.4,16.738,9.217,12.951,7.018,22.6s-3.72,11.11-3.72,11.11l-18.686-3.665-18.932.06s7.407-3.7,5.759-11.575-5.759-20.788-3.437-29.583S-1717.491,1449.024-1712.616,1448.351Z" transform="translate(1729.788 -1448.324)" fill="#464240"/>
                  </g>
                </g>
              </g>
              <g id="Grupo_53601" data-name="Grupo 53601" transform="translate(0 42.137)">
                <g id="Grupo_53600" data-name="Grupo 53600">
                  <path id="Trazado_99806" data-name="Trazado 99806" d="M-1685.84,1566.557c.691-.28-4.854-18.617-5.955-24.1-.991-4.943-4.369-9.47-1.069-17.892a31.338,31.338,0,0,0,1.762-10.521s5.048,11.138,5.527,14.013-17.449-2.356-17.7-1.958c-.474.757-1,5.61-1,7.286,0,1.386,26.025,7.535,29.1,2.086.875-1.545-4.779-31.121-8.425-35.06-5.988-6.469-21.72-11.979-21.72-11.979s-4.312-2.314-11.9.081-18.2,9.74-20.043,11.658-9.184,30.8-9.826,34.538c-.6,3.517-.364,10.919,7.668,9.973l21.679-4.964-1.346-6.609-16.25,1.285c-3.318.566-1.726-2.345-1.3-3.963.414-1.586,4.492-16.285,4.492-16.285-.237,4.072,2.835,17.443,4.433,22.075s-1.934,29.416-2.174,32.129C-1729.877,1568.351-1716.825,1579.072-1685.84,1566.557Z" transform="translate(1747.281 -1487.428)" fill="#0991a1"/>
                </g>
              </g>
              <g id="Grupo_53603" data-name="Grupo 53603" transform="translate(28.05 42.339)">
                <g id="Grupo_53602" data-name="Grupo 53602">
                  <path id="Trazado_99807" data-name="Trazado 99807" d="M-1703.787,1489.776s-5.349,11.036-9.815,14.271c0,0-8.042-12.05-7.631-14.829C-1721.234,1489.217-1712.326,1485.267-1703.787,1489.776Z" transform="translate(1721.249 -1487.616)" fill="#eea886"/>
                </g>
              </g>
              <g id="Grupo_53604" data-name="Grupo 53604" transform="translate(37.114 78.679)">
                <path id="Trazado_99808" data-name="Trazado 99808" d="M-1704.248,1524.372s-2.477-1-3.136-1.9-2.854-1.435-4.48-.953-.725,7.47-.725,7.47l8.578,1.112Z" transform="translate(1712.838 -1521.341)" fill="#eea886"/>
              </g>
              <g id="Grupo_53606" data-name="Grupo 53606" transform="translate(30.176 80.805)">
                <g id="Grupo_53605" data-name="Grupo 53605">
                  <path id="Trazado_99809" data-name="Trazado 99809" d="M-1719.277,1529.554s.824-4.513.627-5.346,1.465-1.668,1.7.391.356,3.367.356,3.367Z" transform="translate(1719.277 -1523.314)" fill="#eea886"/>
                </g>
              </g>
              <g id="Grupo_53607" data-name="Grupo 53607" transform="translate(31.113 73.245)">
                <path id="Trazado_99810" data-name="Trazado 99810" d="M-1715.778,1533.232l6.246-.255a1.5,1.5,0,0,0,1.444-1.484l.166-13.674a1.5,1.5,0,0,0-1.552-1.52l-7.476.244a1.506,1.506,0,0,0-1.452,1.619l1.064,13.684A1.5,1.5,0,0,0-1715.778,1533.232Z" transform="translate(1718.407 -1516.297)" fill="#51578c"/>
              </g>
              <g id="Grupo_53609" data-name="Grupo 53609" transform="translate(23.08 82.156)">
                <g id="Grupo_53608" data-name="Grupo 53608">
                  <path id="Trazado_99811" data-name="Trazado 99811" d="M-1718.9,1529.824s-.116-1.282,2.347-2.456c3.269-1.56,7.63-3.145,8.375-2.736,1.073.589.52,1.406-1.546,2.087s-2.747.9-2.747.9,4.041-.385,4.949.1.957,1.6.294,1.785a16.971,16.971,0,0,1-2.225.293s1.714.066,1.887.753c.127.511.189,1.24-1.433,1.542a1.2,1.2,0,0,1-.55,2.005,28.775,28.775,0,0,1-6.141,1.742c-3.121.512-10.168.131-10.168.131l2.893-4.9a8.291,8.291,0,0,0,2.72-.251C-1718.752,1530.308-1718.9,1529.824-1718.9,1529.824Z" transform="translate(1725.862 -1524.567)" fill="#eea886"/>
                </g>
              </g>
              <g id="Grupo_53610" data-name="Grupo 53610" transform="translate(15.203 87.818)">
                <path id="Trazado_99812" data-name="Trazado 99812" d="M-1720.169,1529.822l1.346,6.608-13.815,3.165-.534-8.745Z" transform="translate(1733.172 -1529.822)" fill="#0991a1"/>
              </g>
              <g id="Grupo_53611" data-name="Grupo 53611" transform="translate(43.001 80.809)">
                <path id="Trazado_99813" data-name="Trazado 99813" d="M-1706.366,1523.317s-1.139,2.444-1,7.286c0,0,8.567,3.129,15.222,3.856v-8.4Z" transform="translate(1707.375 -1523.317)" fill="#0991a1"/>
              </g>
              <g id="Grupo_53612" data-name="Grupo 53612" transform="translate(19.868 94.427)">
                <path id="Trazado_99814" data-name="Trazado 99814" d="M-1719.159,1535.955l-9.684,5.385c.067-1.124.115-2.2.138-3.2Z" transform="translate(1728.843 -1535.955)" fill="#077075"/>
              </g>
              <g id="Grupo_53613" data-name="Grupo 53613" transform="translate(43.013 88.095)">
                <path id="Trazado_99815" data-name="Trazado 99815" d="M-1695.367,1537.127c-7.77-3.088-10.88-5.873-11.734-6.756a3.637,3.637,0,0,1-.262-.292l11.034,3.219h0C-1696.053,1534.633-1695.692,1535.888-1695.367,1537.127Z" transform="translate(1707.363 -1530.079)" fill="#077075"/>
              </g>
              <g id="Grupo_53616" data-name="Grupo 53616" transform="translate(24.227 4.546)">
                <g id="Grupo_53615" data-name="Grupo 53615">
                  <g id="Grupo_53614" data-name="Grupo 53614">
                    <path id="Trazado_99816" data-name="Trazado 99816" d="M-1711.929,1452.631s10.8,1.56,9.223,17.5-11.116,14.684-11.753,14.67-9.566.333-10.337-19.128C-1724.8,1465.679-1725.156,1451.288-1711.929,1452.631Z" transform="translate(1724.798 -1452.543)" fill="#eea886"/>
                  </g>
                </g>
              </g>
              <g id="Grupo_53619" data-name="Grupo 53619" transform="translate(29.596 33.257)">
                <g id="Grupo_53618" data-name="Grupo 53618">
                  <g id="Grupo_53617" data-name="Grupo 53617">
                    <path id="Trazado_99817" data-name="Trazado 99817" d="M-1707.515,1479.911s-.667,8.3.929,10.781-1.365,5.86-7.474,4.7-5.751-4.615-5.751-4.615,1.71-5.12,1.209-9.219S-1707.515,1479.911-1707.515,1479.911Z" transform="translate(1719.815 -1479.187)" fill="#eea886"/>
                  </g>
                </g>
              </g>
              <g id="Grupo_53622" data-name="Grupo 53622" transform="translate(23.153 2.024)">
                <g id="Grupo_53621" data-name="Grupo 53621">
                  <g id="Grupo_53620" data-name="Grupo 53620">
                    <path id="Trazado_99818" data-name="Trazado 99818" d="M-1713.087,1458.593s5.048,5.307,7.394,7.993,2.612,7.878,2.612,7.878,3.951-4.824,2.3-10.443-5.561-16.548-15.452-13.191-10.258,18.137-9.1,25.465C-1725.333,1476.295-1720.891,1460.119-1713.087,1458.593Z" transform="translate(1725.794 -1450.203)" fill="#464240"/>
                  </g>
                </g>
              </g>
              <g id="Grupo_53624" data-name="Grupo 53624" transform="translate(31.604 35.048)">
                <g id="Grupo_53623" data-name="Grupo 53623">
                  <path id="Trazado_99819" data-name="Trazado 99819" d="M-1717.951,1481.889a9.433,9.433,0,0,0,9.082-1.039,5.839,5.839,0,0,1-4.542,2.935A4.471,4.471,0,0,1-1717.951,1481.889Z" transform="translate(1717.951 -1480.85)" fill="#a77860"/>
                </g>
              </g>
              <g id="Grupo_53625" data-name="Grupo 53625" transform="translate(18.391 38.981)">
                <path id="Trazado_99820" data-name="Trazado 99820" d="M-1718.569,1484.5s-14.863,13.224-11.006,21.474c3.291,7.041,14.965,2.723,13.04-4.655A82.953,82.953,0,0,1-1718.569,1484.5Z" transform="translate(1730.214 -1484.499)" fill="#464240"/>
              </g>
              <g id="Grupo_53626" data-name="Grupo 53626" transform="translate(32.224 75.196)">
                <path id="Trazado_99821" data-name="Trazado 99821" d="M-1715.517,1519.038a.929.929,0,0,1-.928.929.93.93,0,0,1-.931-.929.93.93,0,0,1,.931-.93A.929.929,0,0,1-1715.517,1519.038Z" transform="translate(1717.376 -1518.108)" fill="#48484d"/>
              </g>
            </g>
          </g>
        </g>
        <path id="Trazado_102924" data-name="Trazado 102924" d="M.825,0V-9.242H4.063A4.251,4.251,0,0,1,6.614-8.6a2.2,2.2,0,0,1,.87,1.888,2.088,2.088,0,0,1-.349,1.2,2.017,2.017,0,0,1-.971.759,1.951,1.951,0,0,1,1.12.717,2.121,2.121,0,0,1,.409,1.32A2.439,2.439,0,0,1,6.843-.7,3.829,3.829,0,0,1,4.418,0Zm1.9-4.024V-1.53H4.361A1.574,1.574,0,0,0,5.411-1.85a1.1,1.1,0,0,0,.378-.885A1.161,1.161,0,0,0,4.475-4.024Zm0-1.346H4.139Q5.58-5.4,5.58-6.519a1.062,1.062,0,0,0-.365-.9A1.92,1.92,0,0,0,4.063-7.7H2.729Zm9.433,5.5A3.372,3.372,0,0,1,9.7-.8a3.294,3.294,0,0,1-.949-2.469v-.178a4.149,4.149,0,0,1,.4-1.85,2.935,2.935,0,0,1,1.133-1.257A3.18,3.18,0,0,1,11.959-7a2.85,2.85,0,0,1,2.219.889,3.611,3.611,0,0,1,.809,2.52v.749H10.613a1.7,1.7,0,0,0,.536,1.079,1.621,1.621,0,0,0,1.133.406,1.98,1.98,0,0,0,1.657-.768l.9,1.009A2.754,2.754,0,0,1,13.724-.2,3.665,3.665,0,0,1,12.162.127Zm-.209-5.643a1.146,1.146,0,0,0-.885.37,1.915,1.915,0,0,0-.435,1.058h2.552v-.147a1.366,1.366,0,0,0-.33-.947A1.183,1.183,0,0,0,11.953-5.516Zm5.764-1.352.057.793A2.4,2.4,0,0,1,19.748-7a1.993,1.993,0,0,1,1.625.641,2.991,2.991,0,0,1,.546,1.917V0H20.084V-4.4a1.2,1.2,0,0,0-.254-.849,1.135,1.135,0,0,0-.844-.264,1.261,1.261,0,0,0-1.162.662V0H15.99V-6.868Zm7.535,0V.375a2.457,2.457,0,0,1-.6,1.768,2.292,2.292,0,0,1-1.739.632A3.73,3.73,0,0,1,22,2.666V1.212a3.444,3.444,0,0,0,.578.057q.832,0,.832-.882V-6.868ZM23.264-8.646a.9.9,0,0,1,.276-.679,1.037,1.037,0,0,1,.752-.267,1.037,1.037,0,0,1,.752.267.9.9,0,0,1,.276.679.9.9,0,0,1-.282.686,1.042,1.042,0,0,1-.746.267,1.042,1.042,0,0,1-.746-.267A.9.9,0,0,1,23.264-8.646ZM30.666,0a2.037,2.037,0,0,1-.184-.616,2.22,2.22,0,0,1-1.733.743,2.439,2.439,0,0,1-1.673-.584,1.878,1.878,0,0,1-.663-1.473,1.941,1.941,0,0,1,.809-1.676,3.994,3.994,0,0,1,2.339-.59h.844v-.394a1.132,1.132,0,0,0-.244-.762.961.961,0,0,0-.771-.286,1.093,1.093,0,0,0-.727.222.755.755,0,0,0-.263.609H26.565a1.843,1.843,0,0,1,.368-1.1,2.434,2.434,0,0,1,1.041-.8A3.794,3.794,0,0,1,29.485-7a3,3,0,0,1,2.015.638,2.232,2.232,0,0,1,.746,1.793v2.977a3.284,3.284,0,0,0,.273,1.479V0ZM29.148-1.276a1.58,1.58,0,0,0,.749-.181,1.188,1.188,0,0,0,.508-.486V-3.123H29.72q-1.377,0-1.466.952l-.006.108a.734.734,0,0,0,.241.565A.937.937,0,0,0,29.148-1.276Zm6.227-5.592.057.768A2.414,2.414,0,0,1,37.407-7a1.832,1.832,0,0,1,1.822,1.047A2.358,2.358,0,0,1,41.292-7a2.049,2.049,0,0,1,1.663.651A2.991,2.991,0,0,1,43.5-4.386V0H41.66V-4.39a1.313,1.313,0,0,0-.229-.856,1.011,1.011,0,0,0-.806-.27,1.145,1.145,0,0,0-1.143.789L39.489,0H37.654V-4.384a1.3,1.3,0,0,0-.235-.865,1.021,1.021,0,0,0-.8-.267,1.188,1.188,0,0,0-1.13.649V0H33.655V-6.868ZM46.89,0H45.056V-6.868H46.89Zm-.54-9.655h2L46.592-7.687H45.1Zm3.809,2.787.057.793A2.4,2.4,0,0,1,52.19-7a1.993,1.993,0,0,1,1.625.641,2.991,2.991,0,0,1,.546,1.917V0H52.527V-4.4a1.2,1.2,0,0,0-.254-.849,1.135,1.135,0,0,0-.844-.264,1.261,1.261,0,0,0-1.162.662V0H48.433V-6.868Z" transform="translate(32.536 161.458)" fill="#5258ac"/>
        <path id="Trazado_102927" data-name="Trazado 102927" d="M-10.374-4.327h-3.937v2.68H-9.69V0h-6.672V-9.953H-9.7v1.661h-4.607V-5.92h3.938ZM-6.532,0H-8.514V-10.5h1.982ZM-1.5.137a3.631,3.631,0,0,1-2.649-1A3.548,3.548,0,0,1-5.171-3.521v-.191A4.468,4.468,0,0,1-4.741-5.7a3.161,3.161,0,0,1,1.22-1.354,3.425,3.425,0,0,1,1.8-.475A3.07,3.07,0,0,1,.67-6.576a3.889,3.889,0,0,1,.872,2.714v.807h-4.71a1.835,1.835,0,0,0,.578,1.162,1.746,1.746,0,0,0,1.22.438A2.132,2.132,0,0,0,.414-2.283L1.384-1.2a2.966,2.966,0,0,1-1.2.981A3.947,3.947,0,0,1-1.5.137ZM-1.726-5.94a1.234,1.234,0,0,0-.954.4A2.062,2.062,0,0,0-3.148-4.4H-.4V-4.56A1.471,1.471,0,0,0-.755-5.58,1.274,1.274,0,0,0-1.726-5.94ZM4.481-7.4l.062.854a2.582,2.582,0,0,1,2.126-.991,2.146,2.146,0,0,1,1.75.69,3.221,3.221,0,0,1,.588,2.064V0H7.031V-4.741a1.287,1.287,0,0,0-.273-.915,1.222,1.222,0,0,0-.909-.284A1.359,1.359,0,0,0,4.6-5.228V0H2.622V-7.4ZM14.79,0a2.194,2.194,0,0,1-.2-.663,2.39,2.39,0,0,1-1.866.8,2.626,2.626,0,0,1-1.8-.629,2.023,2.023,0,0,1-.714-1.586,2.09,2.09,0,0,1,.872-1.8A4.3,4.3,0,0,1,13.6-4.519h.909v-.424a1.219,1.219,0,0,0-.263-.82,1.035,1.035,0,0,0-.831-.308,1.177,1.177,0,0,0-.783.239.813.813,0,0,0-.284.656H10.374a1.984,1.984,0,0,1,.4-1.189,2.621,2.621,0,0,1,1.121-.858,4.086,4.086,0,0,1,1.627-.311,3.228,3.228,0,0,1,2.17.687,2.4,2.4,0,0,1,.8,1.931v3.206a3.536,3.536,0,0,0,.294,1.593V0ZM13.156-1.374a1.7,1.7,0,0,0,.807-.195,1.28,1.28,0,0,0,.547-.523V-3.363h-.738q-1.483,0-1.579,1.025l-.007.116a.791.791,0,0,0,.26.608A1.009,1.009,0,0,0,13.156-1.374ZM-55.2,7.96a10.569,10.569,0,0,1,.414-2.967,8.618,8.618,0,0,1,1.234-2.584,5.249,5.249,0,0,1,1.7-1.641l.26.834A5.444,5.444,0,0,0-53.225,3.94a10.135,10.135,0,0,0-.7,3.521l-.007.581a10.188,10.188,0,0,0,.964,4.58,5.47,5.47,0,0,0,1.381,1.818l-.26.772a5.418,5.418,0,0,1-1.736-1.7A9.5,9.5,0,0,1-55.2,7.96ZM-44.669,9.4h-4.17l-.937,2.6h-1.354l3.8-9.953h1.148L-42.373,12h-1.347Zm-3.773-1.073h3.384l-1.7-4.655Zm8.4-3.719.034.82a2.732,2.732,0,0,1,2.194-.957A2.115,2.115,0,0,1-35.7,5.656a2.8,2.8,0,0,1,.96-.861,2.837,2.837,0,0,1,1.4-.328q2.434,0,2.475,2.577V12h-1.265V7.119a1.7,1.7,0,0,0-.362-1.186,1.6,1.6,0,0,0-1.217-.393,1.677,1.677,0,0,0-1.169.42,1.706,1.706,0,0,0-.54,1.131V12h-1.271V7.153A1.411,1.411,0,0,0-38.271,5.54a1.692,1.692,0,0,0-1.7,1.06V12h-1.265V4.6Zm14.15,7.533a3.232,3.232,0,0,1-2.447-.988,3.666,3.666,0,0,1-.943-2.642V8.274a4.438,4.438,0,0,1,.42-1.965,3.28,3.28,0,0,1,1.176-1.354,2.956,2.956,0,0,1,1.637-.489,2.77,2.77,0,0,1,2.242.95,4.114,4.114,0,0,1,.8,2.721v.526h-5.011a2.629,2.629,0,0,0,.639,1.767,2.009,2.009,0,0,0,1.555.673,2.2,2.2,0,0,0,1.135-.273,2.851,2.851,0,0,0,.813-.725l.772.6A3.106,3.106,0,0,1-25.891,12.137Zm-.157-6.631a1.687,1.687,0,0,0-1.285.557,2.708,2.708,0,0,0-.643,1.562h3.705v-.1a2.409,2.409,0,0,0-.52-1.494A1.588,1.588,0,0,0-26.048,5.506Zm5.7-.9.041.93a2.7,2.7,0,0,1,2.215-1.066q2.345,0,2.365,2.646V12h-1.265V7.105a1.7,1.7,0,0,0-.366-1.183,1.466,1.466,0,0,0-1.118-.383,1.825,1.825,0,0,0-1.08.328,2.228,2.228,0,0,0-.725.861V12h-1.265V4.6ZM-9.252,12a2.657,2.657,0,0,1-.178-.779,2.822,2.822,0,0,1-2.105.916,2.611,2.611,0,0,1-1.794-.619,2,2,0,0,1-.7-1.569,2.091,2.091,0,0,1,.878-1.794,4.142,4.142,0,0,1,2.471-.639h1.23V6.935a1.42,1.42,0,0,0-.4-1.056,1.593,1.593,0,0,0-1.169-.393,1.844,1.844,0,0,0-1.135.342,1.007,1.007,0,0,0-.458.827H-13.88a1.745,1.745,0,0,1,.393-1.07,2.683,2.683,0,0,1,1.066-.817,3.588,3.588,0,0,1,1.48-.3,2.924,2.924,0,0,1,2,.639,2.306,2.306,0,0,1,.752,1.76v3.4a4.162,4.162,0,0,0,.26,1.62V12Zm-2.1-.964a2.223,2.223,0,0,0,1.128-.308,1.861,1.861,0,0,0,.772-.8V8.411h-.991q-2.324,0-2.324,1.36a1.151,1.151,0,0,0,.4.93A1.524,1.524,0,0,0-11.351,11.036Zm6.337-.068H-.687V12H-6.559v-.93l4.081-5.421H-6.5V4.6H-.892v.9ZM5.3,12a2.657,2.657,0,0,1-.178-.779,2.822,2.822,0,0,1-2.105.916,2.611,2.611,0,0,1-1.794-.619,2,2,0,0,1-.7-1.569A2.091,2.091,0,0,1,1.4,8.155a4.142,4.142,0,0,1,2.471-.639H5.1V6.935a1.42,1.42,0,0,0-.4-1.056,1.593,1.593,0,0,0-1.169-.393A1.844,1.844,0,0,0,2.4,5.827a1.007,1.007,0,0,0-.458.827H.673a1.745,1.745,0,0,1,.393-1.07,2.683,2.683,0,0,1,1.066-.817,3.588,3.588,0,0,1,1.48-.3,2.924,2.924,0,0,1,2,.639,2.306,2.306,0,0,1,.752,1.76v3.4a4.162,4.162,0,0,0,.26,1.62V12Zm-2.1-.964a2.223,2.223,0,0,0,1.128-.308,1.861,1.861,0,0,0,.772-.8V8.411H4.112q-2.324,0-2.324,1.36a1.151,1.151,0,0,0,.4.93A1.524,1.524,0,0,0,3.2,11.036ZM18.064,8.384a4.429,4.429,0,0,1-.772,2.721A2.476,2.476,0,0,1,15.2,12.137a2.713,2.713,0,0,1-2.119-.854v3.562H11.816V4.6h1.155l.062.82a2.605,2.605,0,0,1,2.146-.957,2.522,2.522,0,0,1,2.109,1,4.477,4.477,0,0,1,.776,2.8ZM16.8,8.24a3.268,3.268,0,0,0-.533-1.976A1.718,1.718,0,0,0,14.8,5.54a1.859,1.859,0,0,0-1.723,1.019v3.534A1.863,1.863,0,0,0,14.817,11.1a1.71,1.71,0,0,0,1.446-.721A3.567,3.567,0,0,0,16.8,8.24ZM24.237,12a2.657,2.657,0,0,1-.178-.779,2.822,2.822,0,0,1-2.105.916,2.611,2.611,0,0,1-1.794-.619,2,2,0,0,1-.7-1.569,2.091,2.091,0,0,1,.878-1.794,4.142,4.142,0,0,1,2.471-.639h1.23V6.935a1.42,1.42,0,0,0-.4-1.056,1.593,1.593,0,0,0-1.169-.393,1.844,1.844,0,0,0-1.135.342,1.007,1.007,0,0,0-.458.827H19.609A1.745,1.745,0,0,1,20,5.584a2.683,2.683,0,0,1,1.066-.817,3.588,3.588,0,0,1,1.48-.3,2.924,2.924,0,0,1,2,.639,2.306,2.306,0,0,1,.752,1.76v3.4a4.162,4.162,0,0,0,.26,1.62V12Zm-2.1-.964a2.223,2.223,0,0,0,1.128-.308,1.861,1.861,0,0,0,.772-.8V8.411h-.991q-2.324,0-2.324,1.36a1.151,1.151,0,0,0,.4.93A1.524,1.524,0,0,0,22.138,11.036Zm9.454-1a.931.931,0,0,0-.386-.8,3.718,3.718,0,0,0-1.347-.489,6.367,6.367,0,0,1-1.524-.492,2.169,2.169,0,0,1-.834-.684,1.635,1.635,0,0,1-.27-.943A1.919,1.919,0,0,1,28,5.1a3,3,0,0,1,1.965-.629,3.091,3.091,0,0,1,2.041.649,2.063,2.063,0,0,1,.783,1.661H31.517a1.142,1.142,0,0,0-.441-.9,1.652,1.652,0,0,0-1.111-.376,1.729,1.729,0,0,0-1.08.3.947.947,0,0,0-.39.786.767.767,0,0,0,.362.69,4.458,4.458,0,0,0,1.309.444,6.821,6.821,0,0,1,1.535.506,2.239,2.239,0,0,1,.872.708,1.74,1.74,0,0,1,.284,1.008,1.893,1.893,0,0,1-.793,1.589,3.326,3.326,0,0,1-2.058.6,3.725,3.725,0,0,1-1.572-.314,2.557,2.557,0,0,1-1.07-.878,2.117,2.117,0,0,1-.386-1.22h1.265a1.309,1.309,0,0,0,.509,1.008,1.976,1.976,0,0,0,1.254.373,2.039,2.039,0,0,0,1.152-.291A.893.893,0,0,0,31.592,10.038ZM35.878,12H34.614V4.6h1.265ZM34.511,2.642a.755.755,0,0,1,.188-.52.706.706,0,0,1,.557-.212.717.717,0,0,1,.561.212.747.747,0,0,1,.191.52.722.722,0,0,1-.191.513.73.73,0,0,1-.561.205.718.718,0,0,1-.557-.205A.73.73,0,0,1,34.511,2.642Zm5.831,7.643L42.174,4.6h1.292L40.814,12H39.85L37.17,4.6h1.292ZM49.147,12a2.657,2.657,0,0,1-.178-.779,2.822,2.822,0,0,1-2.105.916,2.611,2.611,0,0,1-1.794-.619,2,2,0,0,1-.7-1.569,2.091,2.091,0,0,1,.878-1.794,4.142,4.142,0,0,1,2.471-.639h1.23V6.935a1.42,1.42,0,0,0-.4-1.056,1.593,1.593,0,0,0-1.169-.393,1.844,1.844,0,0,0-1.135.342,1.007,1.007,0,0,0-.458.827H44.519a1.745,1.745,0,0,1,.393-1.07,2.683,2.683,0,0,1,1.066-.817,3.588,3.588,0,0,1,1.48-.3,2.924,2.924,0,0,1,2,.639,2.306,2.306,0,0,1,.752,1.76v3.4a4.162,4.162,0,0,0,.26,1.62V12Zm-2.1-.964a2.223,2.223,0,0,0,1.128-.308,1.861,1.861,0,0,0,.772-.8V8.411h-.991q-2.324,0-2.324,1.36a1.151,1.151,0,0,0,.4.93A1.524,1.524,0,0,0,47.048,11.036Zm8.066-3.008a10.574,10.574,0,0,1-.4,2.922,8.641,8.641,0,0,1-1.224,2.581,5.361,5.361,0,0,1-1.726,1.682L51.5,14.44a5.5,5.5,0,0,0,1.692-2.505,10.839,10.839,0,0,0,.653-3.77V7.946a11.254,11.254,0,0,0-.3-2.669,9.009,9.009,0,0,0-.837-2.211A5.108,5.108,0,0,0,51.5,1.541l.267-.772a5.34,5.34,0,0,1,1.719,1.668,8.66,8.66,0,0,1,1.224,2.577A10.818,10.818,0,0,1,55.115,8.028Z" transform="translate(244.26 385.731)" fill="#5258ac"/>
        <path id="Trazado_102926" data-name="Trazado 102926" d="M6.043-1.9H2.7L2.069,0H.044l3.44-9.242H5.25L8.709,0H6.684ZM3.218-3.447H5.529L4.367-6.906Zm7.617-3.421.057.793A2.4,2.4,0,0,1,12.867-7a1.993,1.993,0,0,1,1.625.641,2.991,2.991,0,0,1,.546,1.917V0H13.2V-4.4a1.2,1.2,0,0,0-.254-.849,1.135,1.135,0,0,0-.844-.264,1.261,1.261,0,0,0-1.162.662V0H9.109V-6.868ZM20.408,0a2.037,2.037,0,0,1-.184-.616,2.22,2.22,0,0,1-1.733.743,2.439,2.439,0,0,1-1.673-.584,1.878,1.878,0,0,1-.663-1.473,1.941,1.941,0,0,1,.809-1.676A3.994,3.994,0,0,1,19.3-4.2h.844v-.394a1.132,1.132,0,0,0-.244-.762.961.961,0,0,0-.771-.286,1.093,1.093,0,0,0-.727.222.755.755,0,0,0-.263.609H16.307a1.843,1.843,0,0,1,.368-1.1,2.434,2.434,0,0,1,1.041-.8A3.794,3.794,0,0,1,19.227-7a3,3,0,0,1,2.015.638,2.232,2.232,0,0,1,.746,1.793v2.977a3.284,3.284,0,0,0,.273,1.479V0ZM18.891-1.276a1.58,1.58,0,0,0,.749-.181,1.188,1.188,0,0,0,.508-.486V-3.123h-.686q-1.377,0-1.466.952l-.006.108a.734.734,0,0,0,.241.565A.937.937,0,0,0,18.891-1.276Z" transform="translate(413.434 161.458)" fill="#5258ac"/>
        <g id="Grupo_53631" data-name="Grupo 53631" transform="translate(161.097 60.012)">
          <rect id="Rectángulo_5142" data-name="Rectángulo 5142" width="164.573" height="3.233" transform="translate(0 7.41)" fill="#0991a1"/>
          <g id="Grupo_53630" data-name="Grupo 53630" transform="translate(159.099)">
            <path id="Trazado_99822" data-name="Trazado 99822" d="M-1634.107,1323.57c-5.391,2-12.08,5.414-16.227,9.029l3.266-9.029-3.266-9.028C-1646.188,1318.157-1639.5,1321.571-1634.107,1323.57Z" transform="translate(1650.334 -1314.542)" fill="#0991a1"/>
          </g>
        </g>
        <g id="Grupo_53632" data-name="Grupo 53632" transform="translate(247.824 81.013)">
          <rect id="Rectángulo_5143" data-name="Rectángulo 5143" width="1.872" height="1.872" transform="translate(0)" fill="#ff0062"/>
          <path id="Trazado_99823" data-name="Trazado 99823" d="M-1715.625,1473.5h-1.873v-5.833h1.873Zm0-11.667h-1.873V1456h1.873Zm0-11.668h-1.873v-5.835h1.873Zm0-11.668h-1.873v-5.835h1.873Zm0-35h-1.873v-5.835h1.873Zm0-11.668h-1.873v-5.835h1.873Zm0-11.668h-1.873v-5.835h1.873Zm0-11.668h-1.873v-5.833h1.873Zm0-11.667h-1.873v-5.835h1.873Zm0-11.668h-1.873v-5.835h1.873Z" transform="translate(1717.498 -1333.622)" fill="#ff0062"/>
          <rect id="Rectángulo_5144" data-name="Rectángulo 5144" width="1.872" height="1.872" transform="translate(0 143.697)" fill="#ff0062"/>
        </g>
        <path id="Trazado_102925" data-name="Trazado 102925" d="M2.38,0H1.162V-9.242H2.38ZM5.535-6.868,5.573-6A2.5,2.5,0,0,1,7.63-7q2.177,0,2.2,2.457V0H8.652V-4.545a1.581,1.581,0,0,0-.34-1.1A1.361,1.361,0,0,0,7.274-6a1.7,1.7,0,0,0-1,.3,2.069,2.069,0,0,0-.673.8V0H4.424V-6.868ZM13.19-8.531v1.663h1.282v.908H13.19V-1.7a.953.953,0,0,0,.171.62.721.721,0,0,0,.584.207A2.843,2.843,0,0,0,14.5-.946V0a3.424,3.424,0,0,1-.9.126,1.462,1.462,0,0,1-1.187-.476,2.045,2.045,0,0,1-.4-1.352V-5.96h-1.25v-.908h1.25V-8.531Zm5.5,8.658A3,3,0,0,1,16.421-.79a3.4,3.4,0,0,1-.876-2.453v-.216a4.121,4.121,0,0,1,.39-1.825,3.045,3.045,0,0,1,1.092-1.257A2.745,2.745,0,0,1,18.548-7a2.572,2.572,0,0,1,2.082.882,3.82,3.82,0,0,1,.743,2.526V-3.1H16.72a2.441,2.441,0,0,0,.594,1.641,1.866,1.866,0,0,0,1.444.625,2.045,2.045,0,0,0,1.054-.254,2.648,2.648,0,0,0,.755-.673l.717.559A2.884,2.884,0,0,1,18.694.127ZM18.548-6.03a1.566,1.566,0,0,0-1.193.517,2.515,2.515,0,0,0-.6,1.45H20.2v-.089a2.237,2.237,0,0,0-.482-1.387A1.475,1.475,0,0,0,18.548-6.03Zm7.5.216a3.519,3.519,0,0,0-.578-.044,1.547,1.547,0,0,0-1.568.984V0H22.731V-6.868h1.143l.019.793A1.829,1.829,0,0,1,25.53-7a1.2,1.2,0,0,1,.521.089ZM29.764-.832a1.692,1.692,0,0,0,1.1-.381,1.34,1.34,0,0,0,.521-.952h1.111a2.13,2.13,0,0,1-.406,1.124,2.676,2.676,0,0,1-1,.851,2.885,2.885,0,0,1-1.323.317,2.829,2.829,0,0,1-2.231-.936A3.729,3.729,0,0,1,26.7-3.371v-.2a4.135,4.135,0,0,1,.368-1.784A2.8,2.8,0,0,1,28.13-6.563,3,3,0,0,1,29.758-7a2.755,2.755,0,0,1,1.92.692,2.473,2.473,0,0,1,.816,1.8H31.383a1.618,1.618,0,0,0-.5-1.095,1.57,1.57,0,0,0-1.12-.428,1.644,1.644,0,0,0-1.387.644,3.026,3.026,0,0,0-.492,1.863V-3.3a2.965,2.965,0,0,0,.489,1.828A1.651,1.651,0,0,0,29.764-.832Zm6.9.958A3,3,0,0,1,34.392-.79a3.4,3.4,0,0,1-.876-2.453v-.216a4.121,4.121,0,0,1,.39-1.825A3.045,3.045,0,0,1,35-6.541,2.745,2.745,0,0,1,36.518-7a2.572,2.572,0,0,1,2.082.882,3.82,3.82,0,0,1,.743,2.526V-3.1H34.69a2.441,2.441,0,0,0,.594,1.641,1.866,1.866,0,0,0,1.444.625,2.045,2.045,0,0,0,1.054-.254,2.648,2.648,0,0,0,.755-.673l.717.559A2.884,2.884,0,0,1,36.664.127ZM36.518-6.03a1.566,1.566,0,0,0-1.193.517,2.515,2.515,0,0,0-.6,1.45h3.44v-.089a2.237,2.237,0,0,0-.482-1.387A1.475,1.475,0,0,0,36.518-6.03ZM46.5-3.358a4.113,4.113,0,0,1-.717,2.526,2.3,2.3,0,0,1-1.942.958,2.519,2.519,0,0,1-1.968-.793V2.641H40.7V-6.868h1.073l.057.762A2.419,2.419,0,0,1,43.824-7a2.342,2.342,0,0,1,1.958.933,4.157,4.157,0,0,1,.72,2.6Zm-1.174-.133a3.035,3.035,0,0,0-.5-1.834A1.6,1.6,0,0,0,43.475-6a1.726,1.726,0,0,0-1.6.946v3.282a1.73,1.73,0,0,0,1.612.939A1.587,1.587,0,0,0,44.83-1.5,3.312,3.312,0,0,0,45.329-3.491ZM50.75-.832a1.692,1.692,0,0,0,1.1-.381,1.34,1.34,0,0,0,.521-.952h1.111a2.13,2.13,0,0,1-.406,1.124,2.676,2.676,0,0,1-1,.851A2.885,2.885,0,0,1,50.75.127a2.829,2.829,0,0,1-2.231-.936,3.729,3.729,0,0,1-.828-2.561v-.2a4.135,4.135,0,0,1,.368-1.784,2.8,2.8,0,0,1,1.057-1.212A3,3,0,0,1,50.743-7a2.755,2.755,0,0,1,1.92.692,2.473,2.473,0,0,1,.816,1.8H52.368a1.618,1.618,0,0,0-.5-1.095,1.57,1.57,0,0,0-1.12-.428,1.644,1.644,0,0,0-1.387.644,3.026,3.026,0,0,0-.492,1.863V-3.3a2.965,2.965,0,0,0,.489,1.828A1.651,1.651,0,0,0,50.75-.832ZM56.075,0H54.9V-6.868h1.174Zm-1.27-8.69a.7.7,0,0,1,.175-.482.655.655,0,0,1,.517-.2.666.666,0,0,1,.521.2.694.694,0,0,1,.178.482.671.671,0,0,1-.178.476.678.678,0,0,1-.521.19.667.667,0,0,1-.517-.19A.678.678,0,0,1,54.806-8.69ZM57.643-3.5a4.057,4.057,0,0,1,.4-1.815,2.96,2.96,0,0,1,1.1-1.244A3.007,3.007,0,0,1,60.76-7a2.9,2.9,0,0,1,2.269.971A3.736,3.736,0,0,1,63.9-3.44v.083a4.092,4.092,0,0,1-.384,1.8,2.916,2.916,0,0,1-1.1,1.241,3.041,3.041,0,0,1-1.641.444A2.889,2.889,0,0,1,58.51-.844a3.718,3.718,0,0,1-.866-2.571Zm1.181.14a2.938,2.938,0,0,0,.53,1.834,1.7,1.7,0,0,0,1.419.692,1.686,1.686,0,0,0,1.422-.7A3.213,3.213,0,0,0,62.721-3.5a2.933,2.933,0,0,0-.536-1.831,1.705,1.705,0,0,0-1.425-.7,1.686,1.686,0,0,0-1.4.692A3.189,3.189,0,0,0,58.824-3.358Zm2.469-6.379h1.422l-1.7,1.866-.946,0Zm5.186,2.869L66.517-6A2.5,2.5,0,0,1,68.574-7q2.177,0,2.2,2.457V0H69.6V-4.545a1.581,1.581,0,0,0-.34-1.1A1.361,1.361,0,0,0,68.218-6a1.7,1.7,0,0,0-1,.3,2.069,2.069,0,0,0-.673.8V0H65.368V-6.868Z" transform="translate(212.142 168.958)"/>
      </g>
    </g>
  </g>
</svg>
