<svg xmlns="http://www.w3.org/2000/svg" width="1016.371" height="256.178" viewBox="0 0 1016.371 256.178">
  <g id="Grupo_54905" data-name="Grupo 54905" transform="translate(4809.807 -786.458)">
    <line id="Línea_162" data-name="Línea 162" x1="494.079" transform="translate(-4549.551 919.32)" fill="none" stroke="#ff0062" stroke-miterlimit="10" stroke-width="3.961" stroke-dasharray="5.281" opacity="0.66"/>
    <line id="Línea_163" data-name="Línea 163" x1="494.079" transform="translate(-4549.551 950.407)" fill="none" stroke="#ff0062" stroke-miterlimit="10" stroke-width="3.961" stroke-dasharray="5.281"/>
    <path id="Trazado_102721" data-name="Trazado 102721" d="M-3998.95,1016.929h54.614l13.7-13.7" fill="none" stroke="#0991a1" stroke-miterlimit="10" stroke-width="2"/>
    <g id="Grupo_54879" data-name="Grupo 54879">
      <g id="Grupo_54878" data-name="Grupo 54878">
        <path id="Trazado_102722" data-name="Trazado 102722" d="M-4619.894,805.809v50.869l-.947.758-28.617-17.625-.948-50.111.948-.758Z" fill="#183561"/>
        <path id="Trazado_102723" data-name="Trazado 102723" d="M-4650.406,789.7V840.57l29.565,16.867v-50.87Z" fill="#183561"/>
        <path id="Trazado_102724" data-name="Trazado 102724" d="M-4650.406,789.7v7.012l29.565,16.867v-7.012Z" fill="#3c6a9e"/>
        <g id="Grupo_54877" data-name="Grupo 54877">
          <g id="Grupo_54876" data-name="Grupo 54876">
            <path id="Trazado_102725" data-name="Trazado 102725" d="M-4647.337,803.985l.014,2.333,16.064,9.307-.1-2.4Z" fill="#fec400"/>
            <path id="Trazado_102726" data-name="Trazado 102726" d="M-4639.3,823.427l.014,2.333,16.063,9.307-.1-2.4Z" fill="#fec400"/>
            <g id="Grupo_54874" data-name="Grupo 54874">
              <path id="Trazado_102727" data-name="Trazado 102727" d="M-4629.413,814.382v2.261l6.038,3.5v-2.26Z" fill="#77b8e0"/>
            </g>
            <g id="Grupo_54875" data-name="Grupo 54875">
              <path id="Trazado_102728" data-name="Trazado 102728" d="M-4644.74,815.558v2.261l6.038,3.5v-2.26Z" fill="#77b8e0"/>
            </g>
            <path id="Trazado_102729" data-name="Trazado 102729" d="M-4646.695,819.6v2.261l6.038,3.5V823.1Z" fill="#fff"/>
            <path id="Trazado_102730" data-name="Trazado 102730" d="M-4637.41,814.382l14.021,8.095v2.341l-14.046-8.174Z" fill="#fff"/>
            <path id="Trazado_102731" data-name="Trazado 102731" d="M-4637.41,819.305l14.021,8.095v2.341l-14.046-8.174Z" fill="#fff"/>
          </g>
          <path id="Trazado_102732" data-name="Trazado 102732" d="M-4647.337,824.368l.014,2.333,16.064,9.307-.1-2.4Z" fill="#fec400"/>
          <path id="Trazado_102733" data-name="Trazado 102733" d="M-4639.3,839.733l.014,2.333,16.063,9.307-.1-2.4Z" fill="#fec400"/>
          <path id="Trazado_102734" data-name="Trazado 102734" d="M-4629.413,834.764v2.261l6.038,3.5v-2.26Z" fill="#77b8e0"/>
          <path id="Trazado_102735" data-name="Trazado 102735" d="M-4644.74,831.864v2.261l6.038,3.5v-2.26Z" fill="#77b8e0"/>
          <path id="Trazado_102736" data-name="Trazado 102736" d="M-4646.695,835.906v2.261l6.038,3.5v-2.26Z" fill="#fff"/>
          <path id="Trazado_102737" data-name="Trazado 102737" d="M-4637.41,835.611l14.021,8.095v2.341l-14.046-8.174Z" fill="#fff"/>
        </g>
      </g>
    </g>
    <path id="Trazado_102738" data-name="Trazado 102738" d="M-4600.994,1016.929h-54.614l-13.7-13.7" fill="none" stroke="#0991a1" stroke-miterlimit="10" stroke-width="2"/>
    <g id="Grupo_54894" data-name="Grupo 54894">
      <g id="Grupo_54889" data-name="Grupo 54889">
        <g id="Grupo_54880" data-name="Grupo 54880">
          <path id="Trazado_102739" data-name="Trazado 102739" d="M-3796.222,916.237l-32.4,18.882a5.609,5.609,0,0,0-.006,9.691l18.487,10.816a5.609,5.609,0,0,1-.128,9.758l-105.9,58.279a5.6,5.6,0,0,1-5.512-.061l-120.189-69.509a5.61,5.61,0,0,1,.006-9.715l152.473-88.032a5.62,5.62,0,0,1,5.6-.012l52.858,30.307,2.422,1.387,3.035,1.74,2.427,1.393,26.792,15.361A5.61,5.61,0,0,1-3796.222,916.237Z" fill="#15325c" opacity="0.22" style="mix-blend-mode: multiply;isolation: isolate"/>
          <path id="Trazado_102740" data-name="Trazado 102740" d="M-3793.436,881.8v18.7l-.018-.013a5.512,5.512,0,0,1-2.768,4.393l-26.122,15.226-6.272,3.656a5.618,5.618,0,0,0-.012,9.7l10.2,5.962,3.7-8.066,7.337,1.338v15.756a5.709,5.709,0,0,1,0,1.247v.036l-.006-.006a5.479,5.479,0,0,1-2.866,4.3l-8.388,4.617-1.612.883-1.947,1.076-2.275,1.259-12.222,6.729-2.433,1.338-3.042,1.673-2.433,1.338-14.412,7.927-57.129,31.445a5.629,5.629,0,0,1-4.465.414,6.018,6.018,0,0,1-1.046-.475l-62.464-36.123-2.269-1.314-1.783-1.028-.17-.1-1.6-.937-.663-.384-3.042-1.758-2.433-1.4-45.765-26.469a5.507,5.507,0,0,1-2.683-3.723v-.006a5.8,5.8,0,0,1-.018-2.244v-.019c0-.006.006-.006.006-.012l-.1-15.652v-.365a.019.019,0,0,1,0-.025l-.006-.766.066.067,9.484,9.131,68.779-39.712,76.942-44.427a5.646,5.646,0,0,1,5.6,0l77.873,44.646,5.5-7.057,6.856-.76Z" fill="#d6edff"/>
          <path id="Trazado_102741" data-name="Trazado 102741" d="M-3920.627,889.413v123.316a6.018,6.018,0,0,1-1.046-.475l-62.464-36.123-2.269-1.314-1.783-1.028-.17-.1-1.6-.937-.663-.384-3.042-1.758-2.433-1.4-45.765-26.469a5.507,5.507,0,0,1-2.683-3.723v-.006a5.8,5.8,0,0,1-.018-2.244v-.019c0-.006.006-.006.006-.012l-.1-15.652v-.365l-.006-.791.066.067,9.484,9.131,68.779-39.712Z" fill="#bbe0fd"/>
          <path id="Trazado_102742" data-name="Trazado 102742" d="M-3796.222,887.861l-32.4,18.883a5.609,5.609,0,0,0-.006,9.691l18.487,10.816a5.609,5.609,0,0,1-.128,9.758l-105.9,58.279a5.6,5.6,0,0,1-5.512-.061l-120.189-69.509a5.61,5.61,0,0,1,.006-9.715l152.473-88.032a5.62,5.62,0,0,1,5.6-.012l52.858,30.307,2.422,1.387,3.035,1.74,2.427,1.393,26.792,15.36A5.61,5.61,0,0,1-3796.222,887.861Z" fill="#fff"/>
          <path id="Trazado_102743" data-name="Trazado 102743" d="M-3847.312,957.195l.229,16.9,16.4-9.026-.229-16.9Z" fill="#fff"/>
          <path id="Trazado_102744" data-name="Trazado 102744" d="M-3859.036,963.849v17.022l4.943-2.72V961.128Z" fill="#fff"/>
        </g>
        <path id="Trazado_102745" data-name="Trazado 102745" d="M-3823.05,862.786l-60.012,35.484-4.027-6.8,56.156-33.2,2.421,1.387,3.035,1.74Z" fill="#77b8e0"/>
        <g id="Grupo_54881" data-name="Grupo 54881">
          <path id="Trazado_102746" data-name="Trazado 102746" d="M-3920.194,953.917l-71.539-40.88,70.639-42.755.785.469,70.755,42.269Zm-65.54-40.955,65.53,37.446,64.649-37.429-65.529-39.148Z" fill="#77b8e0"/>
        </g>
        <path id="Trazado_102747" data-name="Trazado 102747" d="M-3836.713,951.293v17.3l-2.433,1.339-3.042,1.673-2.433,1.338V955.855l-.128-.073-68.462-39.542,3.954-6.85Z" fill="#77b8e0"/>
        <path id="Trazado_102748" data-name="Trazado 102748" d="M-3919.6,917.457l-1.028.6-67.294,38.867-.268.152v16.717l-.17-.1-1.6-.937-.663-.383-3.042-1.758-2.433-1.405v-16.7l.28-.158,72.264-41.744,2.926,5.067Z" fill="#77b8e0"/>
        <path id="Trazado_102749" data-name="Trazado 102749" d="M-3825.477,861.393l-56.727,33.55-1.551-2.622,55.243-32.668Z" fill="#ff0062"/>
        <path id="Trazado_102750" data-name="Trazado 102750" d="M-3839.146,952.7v17.234l-3.042,1.673V954.45l-.067-.036-67.635-39.061,1.521-2.634Z" fill="#ffd561"/>
        <path id="Trazado_102751" data-name="Trazado 102751" d="M-3922.92,916.569l-67.434,38.94-.268.158v16.7l-3.042-1.758v-16.7l.274-.158,68.949-39.822Z" fill="#ff0062"/>
        <path id="Trazado_102752" data-name="Trazado 102752" d="M-3836.713,951.141l-7.908,4.867v17.034l7.908-4.258Z" fill="#77b8e0" opacity="0.39" style="mix-blend-mode: multiply;isolation: isolate"/>
        <path id="Trazado_102753" data-name="Trazado 102753" d="M-3996.1,952.357l7.908,4.867v16.425l-7.908-4.258Z" fill="#77b8e0" opacity="0.39" style="mix-blend-mode: multiply;isolation: isolate"/>
        <g id="Grupo_54882" data-name="Grupo 54882">
          <path id="Trazado_102754" data-name="Trazado 102754" d="M-3895.186,979.561l-.151.088-24.018,13.868-.151-.088-24.015-13.868,7.317-4.286,16.512-9.667,17.085,9.728,7.273,4.14Z" fill="#15325c" opacity="0.33" style="mix-blend-mode: multiply;isolation: isolate"/>
          <path id="Trazado_102755" data-name="Trazado 102755" d="M-3919.355,977.23l-.151,8.423-.1,5.675-23.914-13.739v-5.8l7.317-4.286Z" fill="#183561"/>
          <path id="Trazado_102756" data-name="Trazado 102756" d="M-3895.334,971.7l0,.173-.1,5.716-24.169,13.739.1-5.675.151-8.423,16.748-9.67Z" fill="#23477c"/>
          <path id="Trazado_102757" data-name="Trazado 102757" d="M-3895.186,971.785l-.151.088-24.018,13.868-.151-.088-24.015-13.868,7.317-4.286,16.512-9.667,17.085,9.727,7.273,4.14Z" fill="#3c6a9e"/>
          <path id="Trazado_102758" data-name="Trazado 102758" d="M-3935.876,971.761l16.211-9.491,16.753,9.538-16.442,9.493Z" fill="#ffd561"/>
          <path id="Trazado_102759" data-name="Trazado 102759" d="M-3933.691,971.755l14.033-8.216,14.537,8.277-14.234,8.218Z" fill="#5b95d3"/>
          <path id="Trazado_102760" data-name="Trazado 102760" d="M-3922.651,971.779l3.188-1.866,3.3,1.88-3.234,1.867Z" fill="#bbe0fd"/>
          <path id="Trazado_102761" data-name="Trazado 102761" d="M-3919.658,964.637l13.58,7.732.958-.553-14.537-8.277-14.033,8.216.944.545Z" fill="#183561"/>
        </g>
        <g id="Grupo_54883" data-name="Grupo 54883">
          <path id="Trazado_102762" data-name="Trazado 102762" d="M-3857.458,896.849l3.095,1.874,2.669-1.528a11.228,11.228,0,0,0,1.606.386v1.793h3.747v-1.731a11.361,11.361,0,0,0,2.032-.449l2.813,1.61,3.1-1.873-2.815-1.6a3.053,3.053,0,0,0,.838-2.026,3.086,3.086,0,0,0-.887-2.081l2.7-1.545-3.095-1.792-2.683,1.522a11.29,11.29,0,0,0-1.8-.41V887.24h-3.746v1.765a11.3,11.3,0,0,0-1.777.407l-2.539-1.439-3.095,1.791,2.556,1.463a3.085,3.085,0,0,0-.889,2.082,3.059,3.059,0,0,0,.839,2.027Zm7-3.54c0-.788,1.1-1.427,2.451-1.427s2.451.639,2.451,1.427-1.1,1.427-2.451,1.427S-3850.454,894.1-3850.454,893.309Z" fill="#15325c" opacity="0.33" style="mix-blend-mode: multiply;isolation: isolate"/>
          <path id="Trazado_102763" data-name="Trazado 102763" d="M-3857.458,893.938l2.669-1.514a3.056,3.056,0,0,1-.839-2.027c0-.376.043-2.4.043-2.4s.562.633.846.322l-2.556-1.462,3.095-1.792,2.539,1.44a12.1,12.1,0,0,1,3.658-.544,12.118,12.118,0,0,1,3.661.544l2.683-1.521,3.095,1.791-2.7,1.546c.281.308.909-.487.909-.487s-.022,2.188-.022,2.567a3.053,3.053,0,0,1-.838,2.026l2.815,1.6-3.1,1.873-2.813-1.61a12.089,12.089,0,0,1-3.694.556,12.1,12.1,0,0,1-3.691-.555l-2.669,1.528Z" fill="#e8a302"/>
          <rect id="Rectángulo_5317" data-name="Rectángulo 5317" width="3.746" height="2.443" transform="translate(-3850.128 893.938)" fill="#fec400"/>
          <path id="Trazado_102764" data-name="Trazado 102764" d="M-3854.363,893.286v2.525l-3.095-1.873v-2.525Z" fill="#fec400"/>
          <path id="Trazado_102765" data-name="Trazado 102765" d="M-3857.295,884.328v2.525l1.873,1.059,1.059-2.28Z" fill="#fec400"/>
          <path id="Trazado_102766" data-name="Trazado 102766" d="M-3841.5,893.368v2.525l3.095-1.873v-2.525Z" fill="#fec400"/>
          <path id="Trazado_102767" data-name="Trazado 102767" d="M-3838.564,884.247v2.525l-1.993,1.14-.858-2.117Z" fill="#fec400"/>
          <path id="Trazado_102768" data-name="Trazado 102768" d="M-3857.458,891.413l3.095,1.873,2.669-1.527a11.212,11.212,0,0,0,1.606.385v1.794h3.747v-1.731a11.446,11.446,0,0,0,2.032-.449l2.813,1.61,3.1-1.873-2.815-1.6a3.055,3.055,0,0,0,.838-2.026,3.086,3.086,0,0,0-.887-2.081l2.7-1.545-3.095-1.792-2.683,1.522a11.178,11.178,0,0,0-1.8-.41V881.8h-3.746v1.765a11.3,11.3,0,0,0-1.777.407l-2.539-1.439-3.095,1.791,2.556,1.463a3.085,3.085,0,0,0-.889,2.082,3.06,3.06,0,0,0,.839,2.027Zm7-3.54c0-.789,1.1-1.428,2.451-1.428s2.451.639,2.451,1.428-1.1,1.427-2.451,1.427S-3850.454,888.661-3850.454,887.873Z" fill="#ffd561"/>
        </g>
        <g id="Grupo_54884" data-name="Grupo 54884">
          <path id="Trazado_102769" data-name="Trazado 102769" d="M-3838.822,895.845l5.142,3.113,4.437-2.539a18.494,18.494,0,0,0,2.669.641v2.98h6.225v-2.876a18.947,18.947,0,0,0,3.378-.746l4.675,2.675,5.143-3.113-4.678-2.652a5.076,5.076,0,0,0,1.393-3.367,5.126,5.126,0,0,0-1.475-3.458l4.489-2.568-5.142-2.978-4.46,2.529a18.752,18.752,0,0,0-2.984-.681v-2.93h-6.226v2.934a18.742,18.742,0,0,0-2.954.676l-4.219-2.392-5.143,2.977,4.248,2.43a5.128,5.128,0,0,0-1.478,3.461,5.077,5.077,0,0,0,1.4,3.369Zm11.639-5.884c0-1.31,1.824-2.372,4.073-2.372s4.073,1.062,4.073,2.372-1.823,2.372-4.073,2.372S-3827.183,891.271-3827.183,889.961Z" fill="#15325c" opacity="0.33" style="mix-blend-mode: multiply;isolation: isolate"/>
          <path id="Trazado_102770" data-name="Trazado 102770" d="M-3838.822,891.006l4.435-2.515a5.077,5.077,0,0,1-1.4-3.369c0-.625.072-4,.072-4s.934,1.052,1.406.536l-4.248-2.431,5.143-2.977,4.219,2.392a20.136,20.136,0,0,1,6.08-.9,20.16,20.16,0,0,1,6.084.9l4.459-2.529,5.143,2.978-4.489,2.568c.467.512,1.512-.809,1.512-.809s-.037,3.637-.037,4.267a5.076,5.076,0,0,1-1.393,3.367l4.678,2.652-5.143,3.113-4.676-2.675a20.118,20.118,0,0,1-6.138.922,20.089,20.089,0,0,1-6.133-.921l-4.437,2.539Z" fill="#e8a302"/>
          <rect id="Rectángulo_5318" data-name="Rectángulo 5318" width="6.226" height="4.06" transform="translate(-3826.642 891.006)" fill="#fec400"/>
          <path id="Trazado_102771" data-name="Trazado 102771" d="M-3833.68,889.923v4.2l-5.143-3.113v-4.2Z" fill="#fec400"/>
          <path id="Trazado_102772" data-name="Trazado 102772" d="M-3838.552,875.036v4.2l3.113,1.759,1.759-3.789Z" fill="#fec400"/>
          <path id="Trazado_102773" data-name="Trazado 102773" d="M-3812.3,890.058v4.2l5.143-3.113v-4.2Z" fill="#fec400"/>
          <path id="Trazado_102774" data-name="Trazado 102774" d="M-3807.424,874.9v4.2l-3.312,1.895-1.425-3.519Z" fill="#fec400"/>
          <path id="Trazado_102775" data-name="Trazado 102775" d="M-3838.822,886.81l5.142,3.113,4.437-2.538a18.5,18.5,0,0,0,2.669.64v2.981h6.225v-2.877a18.947,18.947,0,0,0,3.378-.746l4.675,2.675,5.143-3.112-4.678-2.653a5.075,5.075,0,0,0,1.393-3.367,5.124,5.124,0,0,0-1.475-3.457l4.489-2.569-5.142-2.977-4.46,2.529a18.751,18.751,0,0,0-2.984-.682v-2.93h-6.226v2.934a18.742,18.742,0,0,0-2.954.677l-4.219-2.393-5.143,2.978,4.248,2.43a5.125,5.125,0,0,0-1.478,3.46,5.077,5.077,0,0,0,1.4,3.369Zm11.639-5.884c0-1.31,1.824-2.371,4.073-2.371s4.073,1.061,4.073,2.371-1.823,2.372-4.073,2.372S-3827.183,882.236-3827.183,880.926Z" fill="#ffd561"/>
        </g>
        <g id="Grupo_54885" data-name="Grupo 54885">
          <path id="Trazado_102776" data-name="Trazado 102776" d="M-3877.071,864.176l4.435,2.684,3.826-2.189a15.885,15.885,0,0,0,2.3.552v2.571h5.369v-2.481a16.319,16.319,0,0,0,2.913-.643l4.032,2.307,4.436-2.685-4.034-2.287a4.38,4.38,0,0,0,1.2-2.9,4.418,4.418,0,0,0-1.272-2.982l3.872-2.215-4.436-2.568-3.846,2.181a16.206,16.206,0,0,0-2.574-.588V850.4h-5.369v2.531a16.155,16.155,0,0,0-2.548.583l-3.639-2.063-4.435,2.568,3.663,2.1a4.419,4.419,0,0,0-1.274,2.984,4.384,4.384,0,0,0,1.2,2.906Zm10.038-5.075c0-1.13,1.573-2.046,3.513-2.046s3.513.916,3.513,2.046-1.573,2.045-3.513,2.045S-3867.033,860.231-3867.033,859.1Z" fill="#15325c" opacity="0.33" style="mix-blend-mode: multiply;isolation: isolate"/>
          <path id="Trazado_102777" data-name="Trazado 102777" d="M-3877.071,860.857l3.825-2.169a4.382,4.382,0,0,1-1.2-2.906c0-.539.062-3.446.062-3.446s.806.907,1.212.462l-3.663-2.1,4.436-2.568,3.638,2.063a17.392,17.392,0,0,1,5.244-.779,17.382,17.382,0,0,1,5.247.78l3.846-2.181,4.436,2.568-3.872,2.215c.4.442,1.3-.7,1.3-.7s-.032,3.136-.032,3.679a4.38,4.38,0,0,1-1.2,2.9l4.034,2.288-4.436,2.684-4.032-2.307a17.333,17.333,0,0,1-5.294.8,17.344,17.344,0,0,1-5.29-.795l-3.826,2.19Z" fill="#e8a302"/>
          <rect id="Rectángulo_5319" data-name="Rectángulo 5319" width="5.369" height="3.502" transform="translate(-3866.566 860.857)" fill="#fec400"/>
          <path id="Trazado_102778" data-name="Trazado 102778" d="M-3872.636,859.923v3.618l-4.435-2.685v-3.618Z" fill="#fec400"/>
          <path id="Trazado_102779" data-name="Trazado 102779" d="M-3876.838,847.083V850.7l2.685,1.517,1.517-3.268Z" fill="#fec400"/>
          <path id="Trazado_102780" data-name="Trazado 102780" d="M-3854.194,860.04v3.618l4.436-2.685v-3.618Z" fill="#fec400"/>
          <path id="Trazado_102781" data-name="Trazado 102781" d="M-3849.991,846.967v3.618l-2.856,1.634-1.229-3.035Z" fill="#fec400"/>
          <path id="Trazado_102782" data-name="Trazado 102782" d="M-3877.071,857.238l4.435,2.685,3.826-2.189a15.885,15.885,0,0,0,2.3.552v2.571h5.369v-2.481a16.4,16.4,0,0,0,2.913-.643l4.032,2.307,4.436-2.685-4.034-2.287a4.38,4.38,0,0,0,1.2-2.9,4.416,4.416,0,0,0-1.272-2.982l3.872-2.215-4.436-2.568-3.846,2.181a16.206,16.206,0,0,0-2.574-.588v-2.527h-5.369V846a16.162,16.162,0,0,0-2.548.583l-3.639-2.063-4.435,2.567,3.663,2.1a4.423,4.423,0,0,0-1.274,2.985,4.379,4.379,0,0,0,1.2,2.9Zm10.038-5.074c0-1.13,1.573-2.046,3.513-2.046s3.513.916,3.513,2.046-1.573,2.045-3.513,2.045S-3867.033,853.294-3867.033,852.164Z" fill="#ffd561"/>
        </g>
        <g id="Grupo_54888" data-name="Grupo 54888">
          <path id="Trazado_102783" data-name="Trazado 102783" d="M-3968.675,826.962l48.345,27.626,47.717-27.626-48.345-28.881Z" fill="#5b95d3"/>
          <path id="Trazado_102784" data-name="Trazado 102784" d="M-3967.152,918.59l43.865,26.541a3.7,3.7,0,0,0,3.793.024l45.2-26.567a3.669,3.669,0,0,0,1.827-3.179,3.668,3.668,0,0,0-1.8-3.191l-44.8-26.767a3.7,3.7,0,0,0-3.816.011l-44.265,26.792A3.7,3.7,0,0,0-3967.152,918.59Z" fill="#15325c" opacity="0.33" style="mix-blend-mode: multiply;isolation: isolate"/>
          <path id="Trazado_102785" data-name="Trazado 102785" d="M-3920.958,854.588v85.388l48.345-28.881v-84.76Z" fill="#23477c"/>
          <g id="Grupo_54886" data-name="Grupo 54886">
            <path id="Trazado_102786" data-name="Trazado 102786" d="M-3915.308,930.018V857.83l37.044-21.648v71.706Zm1.256-71.467V927.8l34.532-20.63v-68.8Z" fill="#052754"/>
          </g>
          <path id="Trazado_102787" data-name="Trazado 102787" d="M-3968.675,826.334v84.76l47.717,28.881V854.588Z" fill="#3c6a9e"/>
          <path id="Trazado_102788" data-name="Trazado 102788" d="M-3963.573,907.629V839.162a2.743,2.743,0,0,1,1.125-2.233,2.758,2.758,0,0,1,3.068-.157l31.957,18.921a2.777,2.777,0,0,1,1.363,2.391v68.887a2.779,2.779,0,0,1-4.217,2.377l-31.957-19.343A2.777,2.777,0,0,1-3963.573,907.629Z" fill="#23477c"/>
          <path id="Trazado_102789" data-name="Trazado 102789" d="M-3957.918,908.122a2.78,2.78,0,0,1-1.339-2.377V837.278a2.814,2.814,0,0,1,.025-.372l-.227-.134a2.76,2.76,0,0,0-3.069.157,2.745,2.745,0,0,0-1.124,2.233v68.467a2.777,2.777,0,0,0,1.339,2.376l31.957,19.343a2.779,2.779,0,0,0,4.192-2.007Z" fill="#052754"/>
          <path id="Trazado_102790" data-name="Trazado 102790" d="M-3925.981,861.246l-31.393-18.588v10.674l31.393,18.588Z" fill="#5b95d3"/>
          <path id="Trazado_102791" data-name="Trazado 102791" d="M-3925.981,874.431l-31.393-18.588v10.674l31.393,18.588Z" fill="#5b95d3"/>
          <path id="Trazado_102792" data-name="Trazado 102792" d="M-3925.981,887.616l-31.393-18.588V879.7l31.393,18.588Z" fill="#5b95d3"/>
          <path id="Trazado_102793" data-name="Trazado 102793" d="M-3925.981,900.8l-31.393-18.588v10.674l31.393,18.588Z" fill="#5b95d3"/>
          <path id="Trazado_102794" data-name="Trazado 102794" d="M-3925.981,913.986l-31.393-18.588v10.674l31.393,18.588Z" fill="#5b95d3"/>
          <g id="Grupo_54887" data-name="Grupo 54887">
            <path id="Trazado_102795" data-name="Trazado 102795" d="M-3951.985,847.681v7.009l20.615,12.207v-7.009Z" fill="#d6effb"/>
            <path id="Trazado_102796" data-name="Trazado 102796" d="M-3951.985,867.875l20.615,12.207v-7.009l-20.615-12.207Z" fill="#d6effb"/>
            <path id="Trazado_102797" data-name="Trazado 102797" d="M-3951.985,881.06l20.615,12.207v-7.009l-20.615-12.207Z" fill="#d6effb"/>
            <path id="Trazado_102798" data-name="Trazado 102798" d="M-3951.985,894.245l20.615,12.207v-7.009l-20.615-12.207Z" fill="#d6effb"/>
            <path id="Trazado_102799" data-name="Trazado 102799" d="M-3951.985,907.43l20.615,12.207v-7.009l-20.615-12.206Z" fill="#d6effb"/>
          </g>
        </g>
      </g>
      <g id="Grupo_54893" data-name="Grupo 54893">
        <g id="Grupo_54890" data-name="Grupo 54890">
          <path id="Trazado_102800" data-name="Trazado 102800" d="M-4807.021,916.237l32.4,18.882a5.609,5.609,0,0,1,.006,9.691l-18.487,10.816a5.609,5.609,0,0,0,.128,9.758l105.9,58.279a5.6,5.6,0,0,0,5.512-.061l120.189-69.509a5.61,5.61,0,0,0-.006-9.715l-152.474-88.032a5.619,5.619,0,0,0-5.6-.012l-52.858,30.307-2.422,1.387-3.035,1.74-2.427,1.393-26.792,15.361A5.61,5.61,0,0,0-4807.021,916.237Z" fill="#15325c" opacity="0.22" style="mix-blend-mode: multiply;isolation: isolate"/>
          <path id="Trazado_102801" data-name="Trazado 102801" d="M-4809.807,881.8v18.7l.018-.013a5.513,5.513,0,0,0,2.768,4.393l26.122,15.226,6.272,3.656a5.618,5.618,0,0,1,.012,9.7l-10.2,5.962-3.7-8.066-7.337,1.338v15.756a5.724,5.724,0,0,0,0,1.247v.036l.006-.006a5.479,5.479,0,0,0,2.866,4.3l8.388,4.617,1.612.883,1.947,1.076,2.275,1.259,12.222,6.729,2.433,1.338,3.042,1.673,2.433,1.338,14.412,7.927,57.129,31.445a5.629,5.629,0,0,0,4.465.414,6,6,0,0,0,1.046-.475l62.464-36.123,2.269-1.314,1.782-1.028.171-.1,1.6-.937.663-.384,3.041-1.758,2.434-1.4,45.765-26.469a5.505,5.505,0,0,0,2.683-3.723v-.006a5.8,5.8,0,0,0,.018-2.244v-.019c0-.006-.006-.006-.006-.012l.1-15.652v-.365a.02.02,0,0,0,0-.025l.006-.766-.067.067-9.483,9.131-68.779-39.712-76.942-44.427a5.646,5.646,0,0,0-5.6,0l-77.873,44.646-5.5-7.057-6.856-.76Z" fill="#d6edff"/>
          <path id="Trazado_102802" data-name="Trazado 102802" d="M-4682.616,889.413v123.316a6,6,0,0,0,1.046-.475l62.464-36.123,2.269-1.314,1.782-1.028.171-.1,1.6-.937.663-.384,3.041-1.758,2.434-1.4,45.765-26.469a5.505,5.505,0,0,0,2.683-3.723v-.006a5.8,5.8,0,0,0,.018-2.244v-.019c0-.006-.006-.006-.006-.012l.1-15.652v-.365l.006-.791-.067.067-9.483,9.131-68.779-39.712Z" fill="#bbe0fd"/>
          <path id="Trazado_102803" data-name="Trazado 102803" d="M-4807.021,887.861l32.4,18.883a5.609,5.609,0,0,1,.006,9.691l-18.487,10.816a5.609,5.609,0,0,0,.128,9.758l105.9,58.279a5.6,5.6,0,0,0,5.512-.061l120.189-69.509a5.61,5.61,0,0,0-.006-9.715l-152.474-88.032a5.619,5.619,0,0,0-5.6-.012l-52.858,30.307-2.422,1.387-3.035,1.74-2.427,1.393-26.792,15.36A5.61,5.61,0,0,0-4807.021,887.861Z" fill="#fff"/>
          <path id="Trazado_102804" data-name="Trazado 102804" d="M-4755.931,957.195l-.229,16.9-16.4-9.026.229-16.9Z" fill="#fff"/>
          <path id="Trazado_102805" data-name="Trazado 102805" d="M-4744.208,963.849v17.022l-4.943-2.72V961.128Z" fill="#fff"/>
        </g>
        <path id="Trazado_102806" data-name="Trazado 102806" d="M-4780.193,862.786l60.012,35.484,4.027-6.8-56.156-33.2-2.421,1.387-3.036,1.74Z" fill="#77b8e0"/>
        <g id="Grupo_54891" data-name="Grupo 54891">
          <path id="Trazado_102807" data-name="Trazado 102807" d="M-4753.689,913.02l70.755-42.269.785-.469,70.639,42.755-71.539,40.88Zm71.53-39.189-65.529,39.148,64.649,37.429,65.53-37.446Z" fill="#77b8e0"/>
        </g>
        <path id="Trazado_102808" data-name="Trazado 102808" d="M-4766.53,951.293v17.3l2.433,1.339,3.042,1.673,2.433,1.338V955.855l.128-.073,68.462-39.542-3.954-6.85Z" fill="#77b8e0"/>
        <path id="Trazado_102809" data-name="Trazado 102809" d="M-4683.645,917.457l1.028.6,67.294,38.867.268.152v16.717l.17-.1,1.6-.937.663-.383,3.042-1.758,2.434-1.405v-16.7l-.28-.158-72.265-41.744-2.926,5.067Z" fill="#77b8e0"/>
        <path id="Trazado_102810" data-name="Trazado 102810" d="M-4777.766,861.393l56.728,33.55,1.551-2.622-55.243-32.668Z" fill="#ff0062"/>
        <path id="Trazado_102811" data-name="Trazado 102811" d="M-4764.1,952.7v17.234l3.042,1.673V954.45l.067-.036,67.635-39.061-1.521-2.634Z" fill="#ffd561"/>
        <path id="Trazado_102812" data-name="Trazado 102812" d="M-4680.323,916.569l67.434,38.94.268.158v16.7l3.042-1.758v-16.7l-.274-.158-68.949-39.822Z" fill="#ff0062"/>
        <path id="Trazado_102813" data-name="Trazado 102813" d="M-4766.53,951.141l7.908,4.867v17.034l-7.908-4.258Z" fill="#77b8e0" opacity="0.39" style="mix-blend-mode: multiply;isolation: isolate"/>
        <path id="Trazado_102814" data-name="Trazado 102814" d="M-4607.146,952.357l-7.909,4.867v16.425l7.909-4.258Z" fill="#77b8e0" opacity="0.39" style="mix-blend-mode: multiply;isolation: isolate"/>
        <g id="Grupo_54892" data-name="Grupo 54892">
          <path id="Trazado_102815" data-name="Trazado 102815" d="M-4708.058,979.561l.151.088,24.018,13.868.151-.088,24.015-13.868-7.317-4.286-16.512-9.667-17.085,9.728-7.273,4.14Z" fill="#15325c" opacity="0.33" style="mix-blend-mode: multiply;isolation: isolate"/>
          <path id="Trazado_102816" data-name="Trazado 102816" d="M-4683.888,977.23l.151,8.423.1,5.675,23.914-13.739v-5.8l-7.317-4.286Z" fill="#183561"/>
          <path id="Trazado_102817" data-name="Trazado 102817" d="M-4707.909,971.7l0,.173.1,5.716,24.169,13.739-.1-5.675-.151-8.423-16.748-9.67Z" fill="#23477c"/>
          <path id="Trazado_102818" data-name="Trazado 102818" d="M-4708.058,971.785l.151.088,24.018,13.868.151-.088,24.015-13.868-7.317-4.286-16.512-9.667-17.085,9.727-7.273,4.14Z" fill="#3c6a9e"/>
          <path id="Trazado_102819" data-name="Trazado 102819" d="M-4667.367,971.761l-16.211-9.491-16.753,9.538,16.441,9.493Z" fill="#ffd561"/>
          <path id="Trazado_102820" data-name="Trazado 102820" d="M-4669.552,971.755l-14.034-8.216-14.537,8.277,14.233,8.218Z" fill="#5b95d3"/>
          <path id="Trazado_102821" data-name="Trazado 102821" d="M-4680.592,971.779l-3.188-1.866-3.3,1.88,3.233,1.867Z" fill="#bbe0fd"/>
          <path id="Trazado_102822" data-name="Trazado 102822" d="M-4683.585,964.637l-13.58,7.732-.958-.553,14.537-8.277,14.034,8.216-.944.545Z" fill="#183561"/>
        </g>
      </g>
      <g id="Aplicación" style="isolation: isolate">
        <text id="Aplicación-2" data-name="Aplicación" transform="translate(-4654.055 1038.635)" fill="#12263f" font-size="16" font-family="Roboto-Bold, Roboto" font-weight="700" style="isolation: isolate"><tspan x="0" y="0">Aplicación</tspan></text>
      </g>
      <g id="Base_de_datos" data-name="Base de datos" style="isolation: isolate">
        <text id="Base_de_datos-2" data-name="Base de datos" transform="translate(-4049.307 1038.636)" fill="#12263f" font-size="16" font-family="Roboto-Bold, Roboto" font-weight="700" style="isolation: isolate"><tspan x="0" y="0">Base de datos</tspan></text>
      </g>
    </g>
    <g id="Grupo_54904" data-name="Grupo 54904">
      <circle id="Elipse_4040" data-name="Elipse 4040" cx="3.802" cy="3.802" r="3.802" transform="translate(-4673.373 861.922) rotate(-45)" fill="#d6effb"/>
      <path id="Trazado_102823" data-name="Trazado 102823" d="M-4669.011,788.176l-3.018,72.94-76.043,49.428-3.017-1.624a4.7,4.7,0,0,1-1.809-1.731,4.7,4.7,0,0,1-.666-2.413v-70.3a3.636,3.636,0,0,1,.483-1.813,3.636,3.636,0,0,1,1.32-1.332l75.463-44.183a5.047,5.047,0,0,1,2.494-.692,5.05,5.05,0,0,1,2.51.636Z" fill="#a9d1ea"/>
      <path id="Trazado_102824" data-name="Trazado 102824" d="M-4668.212,790.1v73.416l-81.535,46.471V836.867a3.623,3.623,0,0,1,.469-1.785,3.637,3.637,0,0,1,1.325-1.346l77.109-45.146a1.733,1.733,0,0,1,1.753-.008A1.734,1.734,0,0,1-4668.212,790.1Z" fill="#d6effb"/>
      <path id="Trazado_102825" data-name="Trazado 102825" d="M-4669.9,796.317v61.3l-9.65,5.5-2.9,1.654-19.813,11.293-10.976,6.254-17.232,9.823-16.74,9.541v-60.1l16.386-9.593,8.87-5.194,13.995-8.193,16.838-9.861,10.486-6.139,7.654-4.48Z" fill="#183561"/>
      <path id="Trazado_102826" data-name="Trazado 102826" d="M-4745.122,923.513l58.073,33.753a3.6,3.6,0,0,0,3.619,0l79.417-46.113a3.566,3.566,0,0,0,1.794-3.075,3.567,3.567,0,0,0-1.781-3.147l-25.845-15.151a3.6,3.6,0,0,0-2.6-.409l-103.512,22.96a3.626,3.626,0,0,0-.979.373l-8.133,4.552A3.6,3.6,0,0,0-4745.122,923.513Z" fill="#15325c" opacity="0.33" style="mix-blend-mode: multiply;isolation: isolate"/>
      <path id="Trazado_102827" data-name="Trazado 102827" d="M-4747.277,918.163l60.452,34.712a5.121,5.121,0,0,0,2.08.657,5.112,5.112,0,0,0,3.032-.669l74.455-43.207a3.6,3.6,0,0,0,1.3-1.3,3.6,3.6,0,0,0,.488-1.923l-.1-3.439-63.487-33.986-80.69,40.979V913.9a4.921,4.921,0,0,0,.563,2.286A4.907,4.907,0,0,0-4747.277,918.163Z" fill="#a9d1ea"/>
      <path id="Trazado_102828" data-name="Trazado 102828" d="M-4749.747,909.986l62.723,38.443a5.424,5.424,0,0,0,2.344.778,5.425,5.425,0,0,0,3.212-.711l74.672-43.333a2.764,2.764,0,0,0,1.356-1.954,2.785,2.785,0,0,0-1.3-2.857l-62.316-38.1Z" fill="#d6effb"/>
      <path id="Trazado_102829" data-name="Trazado 102829" d="M-4741.861,910l73.719-43.614,49.329,30.163-73.719,43.614Z" fill="#77b8e0"/>
      <g id="Grupo_54895" data-name="Grupo 54895" opacity="0.71">
        <path id="Trazado_102830" data-name="Trazado 102830" d="M-4703.409,901.716l10.011-5.923,7.521,4.45-10.011,5.923Z" fill="#d6edff"/>
        <path id="Trazado_102831" data-name="Trazado 102831" d="M-4674.439,893.477l-10.011,5.923-7.521-4.45,10.011-5.923Z" fill="#d6edff"/>
        <path id="Trazado_102832" data-name="Trazado 102832" d="M-4704.835,900.873l-7.193-4.255,10.011-5.923,7.193,4.256Z" fill="#d6edff"/>
        <path id="Trazado_102833" data-name="Trazado 102833" d="M-4716.272,907.639l-7.193-4.256,10.012-5.923,7.193,4.255Z" fill="#d6edff"/>
        <path id="Trazado_102834" data-name="Trazado 102834" d="M-4645.108,897.3l-10.011,5.923-7.521-4.45,10.011-5.923Z" fill="#d6edff"/>
        <path id="Trazado_102835" data-name="Trazado 102835" d="M-4665.493,898.77l-10.011,5.923-7.521-4.45,10.012-5.923Z" fill="#d6edff"/>
        <path id="Trazado_102836" data-name="Trazado 102836" d="M-4654.056,892l-10.011,5.923-7.521-4.45,10.012-5.923Z" fill="#d6edff"/>
        <path id="Trazado_102837" data-name="Trazado 102837" d="M-4727.827,914.475l-7.066-4.331,10-5.917,7.193,4.256Z" fill="#d6edff"/>
        <path id="Trazado_102838" data-name="Trazado 102838" d="M-4651.2,892l9.725-5.753,7.4,4.523-9.6,5.68Z" fill="#d6edff"/>
        <path id="Trazado_102839" data-name="Trazado 102839" d="M-4632.68,891.631l7.133,4.362-9.458,5.6-7.253-4.291Z" fill="#d6edff"/>
        <path id="Trazado_102840" data-name="Trazado 102840" d="M-4660.151,886.71l9.873-5.841,7.4,4.523-9.749,5.767Z" fill="#d6edff"/>
        <path id="Trazado_102841" data-name="Trazado 102841" d="M-4674.078,905.537l10.011-5.923,7.521,4.45-10.011,5.923Z" fill="#d6edff"/>
        <path id="Trazado_102842" data-name="Trazado 102842" d="M-4693.4,894.107l-7.193-4.256,10.011-5.923,7.193,4.256Z" fill="#d6edff"/>
        <path id="Trazado_102843" data-name="Trazado 102843" d="M-4681.961,887.34l-7.193-4.255,10.011-5.923,7.193,4.256Z" fill="#d6edff"/>
        <path id="Trazado_102844" data-name="Trazado 102844" d="M-4669.1,881.417l10.02-5.928,7.4,4.523-9.9,5.855Z" fill="#d6edff"/>
        <path id="Trazado_102845" data-name="Trazado 102845" d="M-4707.325,914.62l7.521,4.45-10.445,6.18-7.389-4.529Z" fill="#d6edff"/>
        <path id="Trazado_102846" data-name="Trazado 102846" d="M-4708.848,926.107l10.47-6.194,7.521,4.45-10.6,6.273Z" fill="#d6edff"/>
        <path id="Trazado_102847" data-name="Trazado 102847" d="M-4696.952,919.07l10.011-5.923,7.521,4.45-10.011,5.923Z" fill="#d6edff"/>
        <path id="Trazado_102848" data-name="Trazado 102848" d="M-4670.524,880.574l-7.193-4.255,10.162-6.012,7.074,4.326Z" fill="#d6edff"/>
        <path id="Trazado_102849" data-name="Trazado 102849" d="M-4689.431,925.206l7.252,4.291-10.756,6.364-7.125-4.367Z" fill="#d6edff"/>
        <path id="Trazado_102850" data-name="Trazado 102850" d="M-4688.005,924.363l10.012-5.923,7.252,4.291-10.011,5.923Z" fill="#d6edff"/>
        <path id="Trazado_102851" data-name="Trazado 102851" d="M-4716.272,909.326l7.521,4.45-10.287,6.086-7.389-4.528Z" fill="#d6edff"/>
        <path id="Trazado_102852" data-name="Trazado 102852" d="M-4694.462,907.01l10.012-5.923,7.521,4.45-10.011,5.923Z" fill="#d6edff"/>
        <path id="Trazado_102853" data-name="Trazado 102853" d="M-4714.846,908.483l10.011-5.923,7.521,4.45-10.011,5.923Z" fill="#d6edff"/>
        <path id="Trazado_102854" data-name="Trazado 102854" d="M-4705.9,913.776l10.011-5.923,7.521,4.45-10.011,5.923Z" fill="#d6edff"/>
        <path id="Trazado_102855" data-name="Trazado 102855" d="M-4685.515,912.3l10.011-5.923,7.521,4.45.472-.279-10.483,6.2Z" fill="#d6edff"/>
        <path id="Trazado_102856" data-name="Trazado 102856" d="M-4663,886.71l-10.011,5.923-7.521-4.45,10.011-5.923Z" fill="#d6edff"/>
        <path id="Trazado_102857" data-name="Trazado 102857" d="M-4653.694,904.064l10.012-5.923,7.252,4.291-10.011,5.923Z" fill="#d6edff"/>
        <path id="Trazado_102858" data-name="Trazado 102858" d="M-4676.568,917.6l21.449-12.689,7.252,4.291-21.448,12.689Z" fill="#d6edff"/>
      </g>
      <g id="Grupo_54899" data-name="Grupo 54899">
        <path id="Trazado_102859" data-name="Trazado 102859" d="M-4704.387,839.608l-1.845,1.08-3.969,2.324-7.333,4.293v3.249l7.333-4.293,3.969-2.324,1.845-1.08Z" fill="#fff"/>
        <path id="Trazado_102860" data-name="Trazado 102860" d="M-4724.381,835.109l-1.845,1.08-3.969,2.324-7.333,4.293v3.249l7.333-4.293,3.969-2.324,1.845-1.08Z" fill="#fff"/>
        <path id="Trazado_102861" data-name="Trazado 102861" d="M-4724.381,840.608l-1.845,1.08-3.969,2.324-7.333,4.293v3.249l7.333-4.293,3.969-2.324,1.845-1.08Z" fill="#fec400"/>
        <g id="Grupo_54896" data-name="Grupo 54896">
          <path id="Trazado_102862" data-name="Trazado 102862" d="M-4684.317,835.855l-3.425,2-4.692,2.747-7.535,4.413-5.667,3.318v3.249l5.667-3.318,7.535-4.413,4.692-2.747,3.425-2,1.379-.808v-3.249Z" fill="#f02098"/>
          <path id="Trazado_102863" data-name="Trazado 102863" d="M-4706.636,848.922l-3.565,2.088-7.333,4.293v3.249l7.333-4.293,3.565-2.088Z" fill="#fff"/>
        </g>
        <g id="Grupo_54897" data-name="Grupo 54897">
          <path id="Trazado_102864" data-name="Trazado 102864" d="M-4700.638,858.407l-5.594,3.275-3.969,2.324-7.333,4.293v3.249l7.333-4.293,3.969-2.324,5.594-3.275Z" fill="#fec400"/>
          <path id="Trazado_102865" data-name="Trazado 102865" d="M-4684.317,848.851l-3.425,2-4.692,2.747-7.2,4.219v3.249l7.2-4.219,4.692-2.747,3.425-2,1.379-.808v-3.249Z" fill="#fff"/>
        </g>
        <g id="Grupo_54898" data-name="Grupo 54898">
          <path id="Trazado_102866" data-name="Trazado 102866" d="M-4695.39,848.835l-4.58,2.682-6.263,3.666-3.653,2.139v3.249l3.653-2.139,6.263-3.666,4.58-2.682Z" fill="#fff"/>
          <path id="Trazado_102867" data-name="Trazado 102867" d="M-4710.885,857.908l-6.649,3.893v3.249l6.649-3.893Z" fill="#fff"/>
          <path id="Trazado_102868" data-name="Trazado 102868" d="M-4684.317,842.353l-3.425,2-4.692,2.747-1.956,1.145V851.5l1.956-1.145,4.692-2.747,3.425-2,1.379-.808v-3.249Z" fill="#fff"/>
        </g>
      </g>
      <g id="Grupo_54903" data-name="Grupo 54903">
        <path id="Trazado_102869" data-name="Trazado 102869" d="M-4758.427,867.071v36.672l1.036.829,31.285-19.268,1.036-35.843-1.036-.829Z" fill="#183561"/>
        <path id="Trazado_102870" data-name="Trazado 102870" d="M-4725.07,849.46v36.672l-32.321,18.44V867.9Z" fill="#a9d1ea"/>
        <path id="Trazado_102871" data-name="Trazado 102871" d="M-4725.07,849.46v7.666l-32.321,18.44V867.9Z" fill="#3c6a9e"/>
        <g id="Grupo_54902" data-name="Grupo 54902">
          <path id="Trazado_102872" data-name="Trazado 102872" d="M-4727.311,863.963l-.015,2.55-17.561,10.174.107-2.621Z" fill="#fec400"/>
          <path id="Trazado_102873" data-name="Trazado 102873" d="M-4736.1,885.217l-.015,2.55-17.561,10.174.107-2.621Z" fill="#fec400"/>
          <g id="Grupo_54900" data-name="Grupo 54900">
            <path id="Trazado_102874" data-name="Trazado 102874" d="M-4746.906,875.329V877.8l-6.6,3.827v-2.471Z" fill="#77b8e0"/>
          </g>
          <g id="Grupo_54901" data-name="Grupo 54901">
            <path id="Trazado_102875" data-name="Trazado 102875" d="M-4730.15,876.615v2.472l-6.6,3.827v-2.471Z" fill="#77b8e0"/>
          </g>
          <path id="Trazado_102876" data-name="Trazado 102876" d="M-4728.013,881.033V883.5l-6.6,3.827v-2.471Z" fill="#fff"/>
          <path id="Trazado_102877" data-name="Trazado 102877" d="M-4738.164,875.329l-15.328,8.849v2.559l15.356-8.936Z" fill="#fff"/>
          <path id="Trazado_102878" data-name="Trazado 102878" d="M-4738.164,880.711l-15.328,8.849v2.559l15.356-8.936Z" fill="#fff"/>
        </g>
      </g>
    </g>
  </g>
</svg>
