<svg xmlns="http://www.w3.org/2000/svg" width="393.978" height="211.666" viewBox="0 0 393.978 211.666">
  <g id="Grupo_54921" data-name="Grupo 54921" transform="translate(-812 -910)">
    <g id="Image_Place_Holder" data-name="Image Place Holder" transform="translate(812 1023.707)" opacity="0.1">
      <rect id="Image_Place_Holder-2" data-name="Image Place Holder" width="393.978" height="97.959" rx="10" fill="#0991a1"/>
    </g>
    <g id="Grupo_53833" data-name="Grupo 53833" transform="translate(33.61 -56.134)">
      <g id="Grupo_53832" data-name="Grupo 53832" transform="translate(880.39 966.134)">
        <path id="Trazado_99993" data-name="Trazado 99993" d="M718.425,484.326H854.565a12.963,12.963,0,0,1,12.964,12.964V601.014H705.459V497.29A12.965,12.965,0,0,1,718.425,484.326Z" transform="translate(-692.495 -438.947)" fill="#dadcde"/>
        <path id="Trazado_99994" data-name="Trazado 99994" d="M718.24,490.623H841.414a6.483,6.483,0,0,1,6.483,6.483v90.76H711.757v-90.76A6.483,6.483,0,0,1,718.24,490.623Z" transform="translate(-685.827 -432.28)" fill="#2978b8"/>
        <path id="Trazado_99995" data-name="Trazado 99995" d="M733.8,462.284h84.278a6.481,6.481,0,0,1,6.483,6.481v6.483H733.8V462.284Z" transform="translate(-662.49 -462.284)" fill="#dadcde"/>
        <path id="Trazado_99996" data-name="Trazado 99996" d="M834.746,462.284H724.538a6.481,6.481,0,0,0-6.483,6.481V604.9H828.263V468.765A6.482,6.482,0,0,1,834.746,462.284Z" transform="translate(-679.159 -462.284)" fill="#e9eef2"/>
        <g id="Grupo_53755" data-name="Grupo 53755" transform="translate(55.103 93.998)">
          <path id="Trazado_99997" data-name="Trazado 99997" d="M800.479,514.425H729.17a3.242,3.242,0,1,1,0-6.483h71.309a3.242,3.242,0,1,1,0,6.483Z" transform="translate(-725.927 -507.942)" fill="#dadcde"/>
          <path id="Trazado_99998" data-name="Trazado 99998" d="M735.651,520.723H729.17a3.242,3.242,0,1,1,0-6.483h6.481a3.242,3.242,0,1,1,0,6.483Z" transform="translate(-725.927 -501.274)" fill="#dadcde"/>
          <path id="Trazado_99999" data-name="Trazado 99999" d="M790.477,520.723H738.615a3.242,3.242,0,0,1,0-6.483h51.862a3.242,3.242,0,1,1,0,6.483Z" transform="translate(-715.925 -501.274)" fill="#dadcde"/>
          <path id="Trazado_100000" data-name="Trazado 100000" d="M768.066,527.021h-38.9a3.241,3.241,0,1,1,0-6.483h38.9a3.241,3.241,0,0,1,0,6.483Z" transform="translate(-725.927 -494.606)" fill="#dadcde"/>
          <path id="Trazado_102467" data-name="Trazado 102467" d="M758.448,527.021H728.43c-1.382,0-2.5-1.451-2.5-3.242s1.12-3.24,2.5-3.24h30.018c1.381,0,2.5,1.451,2.5,3.24S759.829,527.021,758.448,527.021Z" transform="translate(-725.927 -536.606)" fill="#dadcde"/>
        </g>
        <path id="Trazado_100001" data-name="Trazado 100001" d="M699.162,537.857h188a25.93,25.93,0,0,1-25.93,25.93H725.092a25.93,25.93,0,0,1-25.93-25.93Z" transform="translate(-699.162 -382.271)" fill="#c3c6c7"/>
        <path id="Trazado_100002" data-name="Trazado 100002" d="M773.6,550.821H742.714a6.482,6.482,0,0,1-5.8-3.582l-4.692-9.382h51.862l-4.692,9.382A6.481,6.481,0,0,1,773.6,550.821Z" transform="translate(-664.156 -382.271)" fill="#e9eef2"/>
        <path id="Trazado_100003" data-name="Trazado 100003" d="M746.4,496.921h32.413v12.966H746.4Z" transform="translate(-649.154 -425.612)" fill="#c3c6c7"/>
        <path id="Trazado_100004" data-name="Trazado 100004" d="M773.808,476.639H754.361a3.242,3.242,0,1,1,0-6.483h19.447a3.242,3.242,0,1,1,0,6.483Z" transform="translate(-644.153 -453.95)" fill="#dadcde"/>
        <path id="Trazado_100005" data-name="Trazado 100005" d="M777.142,482.935h-25.93a3.24,3.24,0,1,1,0-6.481h25.93a3.24,3.24,0,1,1,0,6.481Z" transform="translate(-647.487 -447.282)" fill="#dadcde"/>
        <path id="Trazado_100006" data-name="Trazado 100006" d="M777.142,489.234h-25.93a3.242,3.242,0,1,1,0-6.483h25.93a3.242,3.242,0,1,1,0,6.483Z" transform="translate(-647.487 -440.615)" fill="#dadcde"/>
        <path id="Trazado_100007" data-name="Trazado 100007" d="M777.142,496.468h-25.93a3.241,3.241,0,1,1,0-6.483h25.93a3.241,3.241,0,1,1,0,6.483Z" transform="translate(-647.487 -432.956)" fill="#dadcde"/>
      </g>
      <path id="Trazado_100080" data-name="Trazado 100080" d="M723.607,502.35s6.02,16.106,9.274,18.709a5.033,5.033,0,0,0,6.345,0l28.133-47.668s.988-2.72-3.893-1.2-23.222,32.6-25.927,32.6-10.677-10.9-12.142-9.11S722.141,498.609,723.607,502.35Z" transform="translate(206.532 510.85)" fill="#ff0062"/>
    </g>
  </g>
</svg>
