<svg xmlns="http://www.w3.org/2000/svg" width="292" height="227.055" viewBox="0 0 292 227.055">
  <g id="Grupo_54564" data-name="Grupo 54564" transform="translate(-1122 -1506.945)">
    <g id="Grupo_54563" data-name="Grupo 54563" transform="translate(1842.338 -299.194)">
      <g id="Grupo_54556" data-name="Grupo 54556" transform="translate(-677.167 1818.242)">
        <g id="Grupo_54551" data-name="Grupo 54551" transform="translate(0 77.416)">
          <path id="Trazado_102181" data-name="Trazado 102181" d="M-618.548,1903.271s10.561-12.389.6-20.212c0,0-7.274-4.376-13.194-4,0,0,8.429,14.047,5.718,15.453s-8.265-16.328-8.265-16.328-16.528-1.557-21.838,1.014c0,0,14.158,11.521,11.185,12.217s-18.263-10.607-18.263-10.607-15.374,2.659-14.527,12.039,6.154,12.262,8.481,12.007,15.94-5.495,16.242-3.587-7.882,8.167-13.624,8.475c0,0,10.876,11.928,18.073,8.457s7.8-8.944,12.283-11.008,8.321-2.07,6.472.028-9.973,4.153-12.53,8.706-4.853,7.622,2.6,6.479,19.557-6.631,20.072-12.88Z" transform="translate(677.167 -1877.712)" fill="#c8dbf4"/>
          <g id="Grupo_54550" data-name="Grupo 54550" transform="translate(7.591 15.276)">
            <path id="Trazado_102182" data-name="Trazado 102182" d="M-671.1,1890.013s41.77-1.726,51.028,10.2a30.218,30.218,0,0,0,8.351,11.652l.986,2.664s-7.26-7.612-9.852-8.067C-620.585,1906.458-616.576,1891.645-671.1,1890.013Z" transform="translate(671.098 -1889.926)" fill="#c8dbf4"/>
            <path id="Trazado_102183" data-name="Trazado 102183" d="M-623.149,1907.673s8.984,6.606,9.639,18.453l-1.626.15s-2.9-12.243-8.087-17.02S-623.149,1907.673-623.149,1907.673Z" transform="translate(682.528 -1885.739)" fill="#c8dbf4"/>
          </g>
        </g>
        <g id="Grupo_54553" data-name="Grupo 54553" transform="translate(103.52 26.535)">
          <path id="Trazado_102184" data-name="Trazado 102184" d="M-583.276,1880.8s-16.88-9.392-9.05-22.221c0,0,6.27-7.883,13.006-9.923,0,0-3.543,19.11.054,19.55s2.413-21.58,2.413-21.58,17.729-8.588,24.7-7.933c0,0-10.96,18.682-7.365,18.223s15.9-19.37,15.9-19.37,18.192-3.421,21.143,7.358-1.754,16.184-4.448,16.866-20,.5-19.542,2.75,12.15,5.808,18.661,3.768c0,0-7.141,17.773-16.582,16.9s-12.377-6.708-18.222-7.14-10.108,1.151-7.183,2.715,12.81.48,17.54,4.48,8.556,6.46-.2,8.281-24.491.741-27.656-5.991Z" transform="translate(594.399 -1837.032)" fill="#c8dbf4"/>
          <g id="Grupo_54552" data-name="Grupo 54552" transform="translate(2.31 11.267)">
            <path id="Trazado_102185" data-name="Trazado 102185" d="M-532.12,1846.04s-47.148,15.411-52.494,32.5a35.857,35.857,0,0,1-4.45,16.417l.01,3.371s4.912-11.474,7.6-13.055C-581.45,1885.276-592.052,1870.475-532.12,1846.04Z" transform="translate(593.427 -1846.04)" fill="#c8dbf4"/>
            <path id="Trazado_102186" data-name="Trazado 102186" d="M-588.189,1885.576s-7.247,11.071-3.06,24.511l1.871-.508s-1.859-14.812,1.929-22.274S-588.189,1885.576-588.189,1885.576Z" transform="translate(592.552 -1836.655)" fill="#c8dbf4"/>
          </g>
        </g>
        <g id="Grupo_54555" data-name="Grupo 54555" transform="translate(6.197)">
          <path id="Trazado_102187" data-name="Trazado 102187" d="M-590.616,1873.179s22.182-12.5,11.768-29.358c0,0-8.322-10.345-17.216-12.985,0,0,4.809,25.164.071,25.77s-3.337-28.427-3.337-28.427-23.432-11.191-32.612-10.277c0,0,14.582,24.545,9.841,23.966s-21.1-25.417-21.1-25.417-24.006-4.376-27.817,9.852,2.427,21.321,5.986,22.2,26.364.519,25.78,3.483-15.974,7.745-24.572,5.1c0,0,9.543,23.375,21.981,22.155s16.267-8.931,23.966-9.545,13.334,1.445,9.489,3.528-16.882.727-23.088,6.032-11.233,8.577.326,10.915,32.29.8,36.412-8.1Z" transform="translate(672.212 -1815.815)" fill="#d4e4f8"/>
          <g id="Grupo_54554" data-name="Grupo 54554" transform="translate(12.165 14.901)">
            <path id="Trazado_102188" data-name="Trazado 102188" d="M-662.486,1827.729s62.26,19.97,69.431,42.463c0,0-.268,10.072,5.983,21.607l.013,4.444s-6.557-15.09-10.118-17.154C-597.177,1879.09-583.309,1859.5-662.486,1827.729Z" transform="translate(662.486 -1827.729)" fill="#d4e4f8"/>
            <path id="Trazado_102189" data-name="Trazado 102189" d="M-601.592,1879.509s9.634,14.541,4.214,32.289l-2.469-.656s2.341-19.539-2.705-29.348S-601.592,1879.509-601.592,1879.509Z" transform="translate(677.006 -1815.438)" fill="#d4e4f8"/>
          </g>
        </g>
      </g>
      <g id="Grupo_54562" data-name="Grupo 54562" transform="translate(-647.58 1806.139)">
        <g id="Grupo_54557" data-name="Grupo 54557" transform="translate(0 63.149)">
          <path id="Trazado_102190" data-name="Trazado 102190" d="M-450.476,2019.7l-182.4.45c-27.132-31.063-29.893-73.054,6.151-108.417,4.533-4.446,13.224-7.6,22.6-9.819,17.272-4.094,36.86-5.031,37.013-5.113.058-.021,10.355-8.362,16.551-15.86,19.252-23.287,35.62-21.279,35.62-21.279,19.615-3.81,36.345-4.923,48.744,1.986l0,.008c11.487,6.408,19.26,19.711,22.16,44.15.55,4.621.927,9.642,1.119,15.09.7,19.834,4.605,37.477,6.92,52.417l0,0C-432.641,1994.957-432.618,2010.932-450.476,2019.7Z" transform="translate(653.511 -1856.629)" fill="#698cf2"/>
        </g>
        <path id="Trazado_102191" data-name="Trazado 102191" d="M-485.435,1886.213c-11.9,6.478-13.229,27.832-31.857,33.339s-50.249,4.993-68.192,24.44c-17.31,18.762-36.373-29-28.151-42.427,17.272-4.094,36.86-5.031,37.012-5.113.058-.021,10.355-8.362,16.551-15.86,19.252-23.287,35.62-21.278,35.62-21.278,19.615-3.808,36.345-4.923,48.744,1.986l0,.008C-469.411,1868.177-473.532,1879.736-485.435,1886.213Z" transform="translate(663.014 -1793.567)" fill="#5075e3"/>
        <g id="Grupo_54561" data-name="Grupo 54561" transform="translate(16.632)">
          <path id="Trazado_102192" data-name="Trazado 102192" d="M-555.932,1885.108s-59.725-.785-67.679,4.3,8.2,85.972,8.2,85.972,15.448.45,16.665-3.641c0,0-2.883-37.913-.469-44.469s.888-15.631.888-15.631,30.224,4.526,39.812,2.231S-555.932,1885.108-555.932,1885.108Z" transform="translate(643.823 -1786.351)" fill="#233862"/>
          <path id="Trazado_102193" data-name="Trazado 102193" d="M-551.787,1851.674c-.005.046-8.4,19.59-12.5,21.671s-18.928,19.124-22.108,18.826,3.72,2.586,3.72,2.586,25.922-11.949,27.43-12.7,9.447-13.806,10.537-20.437S-551.787,1851.674-551.787,1851.674Z" transform="translate(653.495 -1794.722)" fill="#ffb27d"/>
          <path id="Trazado_102194" data-name="Trazado 102194" d="M-599.45,1965.6c-1.991,3.841-2.441,10.9-3.032,13.3s-11.029,10.536-11.927,10.128c-2.283-1.031-.1-5.007,1.293-7.916.056-.116.11-.234.164-.348,1.375-2.93.193-9.47.9-12.85s-2.713-12.471-2.713-12.471l5.766-7.283s4.054,7.711,6.951,9.114a7.039,7.039,0,0,1,1.413.9C-598.664,1959.791-597.813,1962.44-599.45,1965.6Z" transform="translate(646.433 -1770.532)" fill="#ffb27d"/>
          <path id="Trazado_102195" data-name="Trazado 102195" d="M-613.5,1983.992c-4,1.647-8.9,6.756-10.894,8.2s-15.224.933-15.648.045c-1.122-2.349,3.5-4.021,6.442-5.374.044-.019.085-.041.13-.06l.009-.006c2.909-1.464,6.161-7.078,8.845-9.168,2.722-2.121,5.972-11.275,5.972-11.275l9.1-1.846s-1.875,8.506-.567,11.447a7.376,7.376,0,0,1,.314.841C-608.956,1979.529-609.877,1982.5-613.5,1983.992Z" transform="translate(640.212 -1766.432)" fill="#ffb27d"/>
          <path id="Trazado_102196" data-name="Trazado 102196" d="M-542.293,1854.415c-1.216-1.406,17.989-7.2,22.085,8.566,0,0,35.347-9.4,13.618-25.146-7.522-5.452-8.277-11.27-9.367-16.593s-8.594-20.622-21.621-13.03c0,0-5.952.026-9.718,3.288C-555.861,1818.921-565.224,1866.088-542.293,1854.415Z" transform="translate(661.16 -1806.139)" fill="#163560"/>
          <path id="Trazado_102197" data-name="Trazado 102197" d="M-531.1,1887.316s-61.935,6.293-67.377,12.615-26.843,88.526-26.843,88.526,6.32,3.523,12.065.23c0,0,16.388-27.885,23.639-36.64s9.966-35.783,11.163-36.06,40.008,5.418,53.373-4.839S-531.1,1887.316-531.1,1887.316Z" transform="translate(643.946 -1785.786)" fill="#2a4e96"/>
          <path id="Trazado_102198" data-name="Trazado 102198" d="M-509.605,1843.261a64.525,64.525,0,0,0-33.505-3.585c-3.828.617-7.275,1.875-10.015,6.384-3.868,6.37-5.68,9.791-5.68,9.791s.373,2.952,5.656,5.3c-1.441,5.282,1.314,14.506-1.223,18.085s-18.279,12.454-19.058,17.389c-1.431,9.069,26.894,25.514,35.343,23.758C-513.78,1915.335-497.264,1850.207-509.605,1843.261Z" transform="translate(656.943 -1797.928)" fill="#f9ddbf"/>
          <path id="Trazado_102199" data-name="Trazado 102199" d="M-524.777,1832.133s2.913-5.731,3.3-10.432c.275-3.356-2.558-15.435-14.69-12.515a16.767,16.767,0,0,0-6.681,3.272c-2.5,2.055-5.987,6.309-.673,16.583l1.458,3.5Z" transform="translate(663.757 -1805.488)" fill="#163560"/>
          <g id="Grupo_54558" data-name="Grupo 54558" transform="translate(110.678 8.408)">
            <path id="Trazado_102200" data-name="Trazado 102200" d="M-542.281,1846.379c-1.227,1.293-.745,5.595,5,5.273,3.768-.211,11.847-4.87,11.09-8.089-.359-1.531-3.256-5.479-3.936-14.561l-.684.192-11.505,3.233s.555,3.656.834,7.12C-541.249,1842.456-541.774,1845.844-542.281,1846.379Z" transform="translate(553.95 -1808.814)" fill="#ffb27d"/>
            <path id="Trazado_102201" data-name="Trazado 102201" d="M-542.422,1832.388s.555,3.656.834,7.12c6.526-.7,9.514-6.935,10.671-10.353Z" transform="translate(554.052 -1808.776)" fill="#f4a269"/>
            <path id="Trazado_102202" data-name="Trazado 102202" d="M-540.623,1841.52s15.054-3.786,12.552-13.124-2.244-16.117-11.961-14.094-10.622,6.083-10.546,9.4S-544.6,1842.264-540.623,1841.52Z" transform="translate(552.007 -1812.59)" fill="#ffb27d"/>
            <path id="Trazado_102203" data-name="Trazado 102203" d="M-547.653,1816.181s5.053,9.631,14.587,10.669c5.579.608,7.11,4.285,7.11,4.285s-1.672-10.512-4.477-16.941C-530.433,1814.194-545.961,1810.136-547.653,1816.181Z" transform="translate(552.741 -1812.861)" fill="#163560"/>
            <path id="Trazado_102204" data-name="Trazado 102204" d="M-544.91,1816.85s-3.3,3.363-4.314,5.734c-1.506,3.513,1.431,10.912,2.644,12.507,0,0-7-11.886-4.663-17.031C-548.76,1812.6-544.91,1816.85-544.91,1816.85Z" transform="translate(551.721 -1812.255)" fill="#163560"/>
          </g>
          <path id="Trazado_102205" data-name="Trazado 102205" d="M-579,1886.312s-3,3.174-3.363,3.344c-1.982.928-4.486.388-5.7.692s-1-.449-.109-1.06,3.088-.372,2.191-.594-5.743-1.127-7.569-.639c-2.888.773-5.167-.135-5.348-.43s6.6-3.607,8.531-3.5,7.5-.155,7.5-.155Z" transform="translate(650.571 -1786.624)" fill="#ffb27d"/>
          <path id="Trazado_102206" data-name="Trazado 102206" d="M-509.855,1847.065s1.8,44.154-3.389,50.343c-5.154,6.146-36.746-.683-36.746-.683l-2.189-3.227s28.041-4.1,29.925-4.636c2.708-.765.824-31.169.824-31.169Z" transform="translate(662.284 -1795.878)" fill="#ffb27d"/>
          <path id="Trazado_102207" data-name="Trazado 102207" d="M-521.616,1841.829c.449.011,6.031,1.844,10.038,9.778,3.936,7.794,5.369,11.579,5.369,11.579s-17.466,13.533-24.413,8.549S-528.022,1841.661-521.616,1841.829Z" transform="translate(667.081 -1797.191)" fill="#f9ddbf"/>
          <path id="Trazado_102208" data-name="Trazado 102208" d="M-548.171,1887.185s-2.514,2.546-3.471,3.846-7.637,3.657-7.788,2.962,2.991-2.818,3.274-3.607,3.708-4.764,5.8-5.216S-548.171,1887.185-548.171,1887.185Z" transform="translate(660.465 -1786.338)" fill="#ffb27d"/>
          <path id="Trazado_102209" data-name="Trazado 102209" d="M-548.9,1884.19s-10.3,2.383-12.052,3.1-5.457,5.963-3.985,6.75c.928.5,4.994-1.649,7.059-2.1s7.91.568,10.586-4.718C-546.987,1886.628-548.9,1884.19-548.9,1884.19Z" transform="translate(659.001 -1786.57)" fill="#ffb27d"/>
          <path id="Trazado_102210" data-name="Trazado 102210" d="M-613.5,1981.529c-4,1.647-8.9,6.756-10.894,8.2s-15.224.933-15.648.045c-1.122-2.349,3.5-4.021,6.442-5.374.044-.019.085-.042.13-.06l.009-.006.414-.136s5.706,2.036,10.448,0c3.7-1.587,9.185-7.473,12.806-9.866C-608.956,1977.067-609.877,1980.034-613.5,1981.529Z" transform="translate(640.212 -1763.969)" fill="#2e3552"/>
          <path id="Trazado_102211" data-name="Trazado 102211" d="M-599.45,1963.59c-1.991,3.841-2.441,10.9-3.032,13.3s-11.029,10.536-11.927,10.128c-2.283-1.031-.1-5.007,1.293-7.916a6.474,6.474,0,0,0,3.186-1.186c2.608-1.739,7.034-8.3,7.429-12.17.321-3.154.12-7.676,1.871-9.582C-598.664,1957.783-597.813,1960.432-599.45,1963.59Z" transform="translate(646.433 -1768.524)" fill="#2e3552"/>
          <g id="Grupo_54560" data-name="Grupo 54560" transform="translate(38.442 75.228)">
            <g id="Grupo_54559" data-name="Grupo 54559">
              <path id="Trazado_102212" data-name="Trazado 102212" d="M-551.1,1899.857h-44.878l-13.5-33.571h44.808Z" transform="translate(609.476 -1866.287)" fill="#0991a1"/>
              <path id="Trazado_102213" data-name="Trazado 102213" d="M-599.1,1892.082h59.261v1.308h-58.735Z" transform="translate(612.077 -1859.819)" fill="#0991a1"/>
            </g>
            <path id="Trazado_102214" data-name="Trazado 102214" d="M-589.608,1880.136a1.556,1.556,0,0,1,1.525-2.138,3.061,3.061,0,0,1,2.749,2.138,1.554,1.554,0,0,1-1.523,2.136A3.063,3.063,0,0,1-589.608,1880.136Z" transform="translate(614.436 -1863.35)" fill="#fff"/>
          </g>
        </g>
        <path id="Trazado_102215" data-name="Trazado 102215" d="M-504.228,1892.963s-5.868,5.5-30.421,6.275-56.57,27.9-56.873,35.558,49.428,19.318,50.2,18.221,31.547-27.514,31.547-27.514Z" transform="translate(669.052 -1784.37)" fill="#698cf2"/>
        <path id="Trazado_102216" data-name="Trazado 102216" d="M-469.047,1963.107c-13.218-23.8-43.4,9.023-50.908-2.08s10.606-25.2,26.943-37.348c16-11.9,15.934-27.449,15.925-28.079.55,4.62.927,9.641,1.119,15.089C-475.264,1930.523-471.362,1948.167-469.047,1963.107Z" transform="translate(686.557 -1783.709)" fill="#5075e3"/>
      </g>
    </g>
    <rect id="Rectángulo_5267" data-name="Rectángulo 5267" width="292" height="211" transform="translate(1122 1523)" fill="none"/>
  </g>
</svg>
