<svg xmlns="http://www.w3.org/2000/svg" width="81.318" height="81.318" viewBox="0 0 81.318 81.318">
  <g id="Grupo_54535" data-name="Grupo 54535" transform="translate(-292.682 -2807.144)">
    <g id="Grupo_54538" data-name="Grupo 54538" transform="translate(-1983.395 668.347)">
      <circle id="Elipse_4024" data-name="Elipse 4024" cx="40.659" cy="40.659" r="40.659" transform="translate(2276.077 2138.797)" fill="#ca195d"/>
      <path id="Trazado_102131" data-name="Trazado 102131" d="M2316.736,2138.8a40.659,40.659,0,0,0-40.659,40.659c0,1.124.058,2.234.147,3.335,9.091,10.656,27.667,17.963,49.123,17.963a84.648,84.648,0,0,0,28.518-4.732,40.655,40.655,0,0,0-37.129-57.225Z" fill="#ff0062"/>
      <g id="Grupo_54537" data-name="Grupo 54537">
        <g id="Grupo_54535-2" data-name="Grupo 54535">
          <path id="Trazado_102132" data-name="Trazado 102132" d="M2336.653,2154.1h-37.4a6.648,6.648,0,0,0-6.647,6.65v6.85l-.019-.029.019,16.557v17.357a3.317,3.317,0,0,0,3.317,3.318h16.458l2.6-.015.019.015h24.848a3.443,3.443,0,0,0,3.443-3.444v-40.609a6.648,6.648,0,0,0-6.646-6.65Z" fill="#273863"/>
          <path id="Trazado_102133" data-name="Trazado 102133" d="M2336.61,2154.1h-18.622v50.7h22.025a3.322,3.322,0,0,0,3.286-3.439V2160.8a6.691,6.691,0,0,0-6.689-6.692Z" fill="#0a0a33"/>
          <path id="Trazado_102134" data-name="Trazado 102134" d="M2339.622,2154.1h-43.374a3.658,3.658,0,0,0-3.658,3.66v9.131h50.69v-9.131A3.659,3.659,0,0,0,2339.622,2154.1Z" fill="#e5e9f3"/>
          <path id="Trazado_102135" data-name="Trazado 102135" d="M2339.622,2154.1h-21.653V2166.9h25.311v-9.131A3.659,3.659,0,0,0,2339.622,2154.1Z" fill="#b8bedc"/>
          <circle id="Elipse_4025" data-name="Elipse 4025" cx="1.589" cy="1.589" r="1.589" transform="translate(2297.346 2158.831)" fill="#f9007b"/>
          <circle id="Elipse_4026" data-name="Elipse 4026" cx="1.589" cy="1.589" r="1.589" transform="translate(2303.805 2158.831)" fill="#ffde46"/>
          <circle id="Elipse_4027" data-name="Elipse 4027" cx="1.589" cy="1.589" r="1.589" transform="translate(2310.557 2158.831)" fill="#00ffe7"/>
        </g>
        <g id="Grupo_54536" data-name="Grupo 54536">
          <path id="Trazado_102136" data-name="Trazado 102136" d="M2328.408,2187.1a.733.733,0,0,1-.4-.742,10.219,10.219,0,0,0-.092-3.115.74.74,0,0,1,.35-.779l1.923-1.125a.738.738,0,0,0,.264-1.01l-2.185-3.734a.738.738,0,0,0-1.009-.265l-1.917,1.122a.736.736,0,0,1-.844-.067,10.039,10.039,0,0,0-3.1-1.783.739.739,0,0,1-.495-.694v-2.333a.738.738,0,0,0-.738-.738h-4.327a.739.739,0,0,0-.738.738v2.33a.744.744,0,0,1-.5.7,10.083,10.083,0,0,0-3.556,2.195.738.738,0,0,1-.842.131l-1.97-.993a.738.738,0,0,0-.991.327l-1.947,3.864a.738.738,0,0,0,.327.991l1.972.994a.732.732,0,0,1,.4.741,10.2,10.2,0,0,0,.1,3.112.74.74,0,0,1-.35.782l-1.891,1.107a.736.736,0,0,0-.264,1.009l2.185,3.735a.738.738,0,0,0,1.009.264l1.9-1.11a.734.734,0,0,1,.842.066,10.072,10.072,0,0,0,3.086,1.774.734.734,0,0,1,.493.69v2.091a.738.738,0,0,0,.738.738h4.327a.737.737,0,0,0,.738-.738v-2.085a.742.742,0,0,1,.5-.7,10.1,10.1,0,0,0,3.544-2.184.735.735,0,0,1,.839-.129l1.985,1a.738.738,0,0,0,.991-.327l1.947-3.865a.737.737,0,0,0-.327-.99Zm-10.4.976a2.98,2.98,0,1,1,2.98-2.98A2.98,2.98,0,0,1,2318,2188.073Z" fill="#fff5f5"/>
          <path id="Trazado_102137" data-name="Trazado 102137" d="M2330.382,2188.091l-1.974-.994a.733.733,0,0,1-.4-.742,10.219,10.219,0,0,0-.092-3.115.74.74,0,0,1,.35-.779l1.923-1.125a.739.739,0,0,0,.265-1.01l-2.186-3.734a.738.738,0,0,0-1.009-.265l-1.917,1.122a.736.736,0,0,1-.844-.067,10.039,10.039,0,0,0-3.1-1.783.74.74,0,0,1-.495-.694v-2.333a.738.738,0,0,0-.738-.738h-2.179v10.28H2318a2.98,2.98,0,0,1,0,5.96h-.016v10.035h2.179a.737.737,0,0,0,.738-.738v-2.086a.743.743,0,0,1,.5-.7,10.089,10.089,0,0,0,3.544-2.184.737.737,0,0,1,.84-.129l1.984,1a.738.738,0,0,0,.991-.327l1.947-3.865a.738.738,0,0,0-.327-.991Z" fill="#e5e9f3"/>
        </g>
      </g>
    </g>
  </g>
</svg>
