<svg xmlns="http://www.w3.org/2000/svg" xmlns:xlink="http://www.w3.org/1999/xlink" width="393.978" height="211.666" viewBox="0 0 393.978 211.666">
  <defs>
    <clipPath id="clip-path">
      <rect width="393.978" height="211.666" fill="none"/>
    </clipPath>
  </defs>
  <g id="Cuadrícula_de_repetición_1" data-name="Cuadrícula de repetición 1" clip-path="url(#clip-path)">
    <g id="Grupo_54920" data-name="Grupo 54920" transform="translate(-394.505 -910)">
      <g id="Image_Place_Holder" data-name="Image Place Holder" transform="translate(394.505 1023.707)" opacity="0.1">
        <rect id="Image_Place_Holder-2" data-name="Image Place Holder" width="393.978" height="97.959" rx="10" fill="#0991a1"/>
      </g>
      <g id="Grupo_53831" data-name="Grupo 53831" transform="translate(-1097.355 11781.661)">
        <g id="Grupo_53757" data-name="Grupo 53757" transform="translate(1595.355 -10871.661)">
          <g id="Grupo_53758" data-name="Grupo 53758" transform="translate(0 0)">
            <path id="Trazado_100010" data-name="Trazado 100010" d="M558.551,484.326h136.14a12.963,12.963,0,0,1,12.964,12.964V601.015H545.585V497.29A12.965,12.965,0,0,1,558.551,484.326Z" transform="translate(-532.621 -438.947)" fill="#dadcde"/>
            <path id="Trazado_100011" data-name="Trazado 100011" d="M558.366,490.623H681.54a6.483,6.483,0,0,1,6.483,6.483v90.76H551.883v-90.76A6.484,6.484,0,0,1,558.366,490.623Z" transform="translate(-525.953 -432.28)" fill="#2978b8"/>
            <path id="Trazado_100012" data-name="Trazado 100012" d="M573.925,462.284H658.2a6.482,6.482,0,0,1,6.483,6.481v6.483H573.925V462.284Z" transform="translate(-502.616 -462.284)" fill="#dadcde"/>
            <path id="Trazado_100013" data-name="Trazado 100013" d="M674.872,462.284H564.664a6.481,6.481,0,0,0-6.483,6.481V604.9H668.388V468.765A6.482,6.482,0,0,1,674.872,462.284Z" transform="translate(-519.285 -462.284)" fill="#e9eef2"/>
            <g id="Grupo_53757-2" data-name="Grupo 53757" transform="translate(55.103 93.999)">
              <path id="Trazado_100014" data-name="Trazado 100014" d="M640.605,514.425H569.3a3.242,3.242,0,1,1,0-6.483h71.309a3.242,3.242,0,1,1,0,6.483Z" transform="translate(-566.053 -507.942)" fill="#dadcde"/>
              <path id="Trazado_100015" data-name="Trazado 100015" d="M575.777,520.723H569.3a3.242,3.242,0,1,1,0-6.483h6.481a3.242,3.242,0,1,1,0,6.483Z" transform="translate(-566.053 -501.274)" fill="#dadcde"/>
              <path id="Trazado_100016" data-name="Trazado 100016" d="M630.6,520.723H578.741a3.242,3.242,0,0,1,0-6.483H630.6a3.242,3.242,0,1,1,0,6.483Z" transform="translate(-556.051 -501.274)" fill="#dadcde"/>
              <path id="Trazado_100017" data-name="Trazado 100017" d="M608.192,527.021H569.3a3.241,3.241,0,1,1,0-6.483h38.9a3.241,3.241,0,0,1,0,6.483Z" transform="translate(-566.053 -494.606)" fill="#dadcde"/>
            </g>
            <path id="Trazado_100018" data-name="Trazado 100018" d="M539.288,537.857h188a25.93,25.93,0,0,1-25.93,25.93H565.218a25.93,25.93,0,0,1-25.93-25.93Z" transform="translate(-539.288 -382.27)" fill="#c3c6c7"/>
            <path id="Trazado_100019" data-name="Trazado 100019" d="M613.724,550.821H582.84a6.486,6.486,0,0,1-5.8-3.582l-4.69-9.382h51.862l-4.692,9.382A6.482,6.482,0,0,1,613.724,550.821Z" transform="translate(-504.282 -382.27)" fill="#e9eef2"/>
            <path id="Trazado_100020" data-name="Trazado 100020" d="M586.521,496.921h32.413v12.966H586.521Z" transform="translate(-489.28 -425.612)" fill="#c3c6c7"/>
            <path id="Trazado_100021" data-name="Trazado 100021" d="M613.934,476.639H594.486a3.242,3.242,0,1,1,0-6.483h19.447a3.242,3.242,0,1,1,0,6.483Z" transform="translate(-484.279 -453.949)" fill="#dadcde"/>
            <path id="Trazado_100022" data-name="Trazado 100022" d="M617.268,482.935h-25.93a3.24,3.24,0,1,1,0-6.481h25.93a3.24,3.24,0,1,1,0,6.481Z" transform="translate(-487.613 -447.281)" fill="#dadcde"/>
            <path id="Trazado_100023" data-name="Trazado 100023" d="M617.268,489.234h-25.93a3.242,3.242,0,1,1,0-6.483h25.93a3.242,3.242,0,1,1,0,6.483Z" transform="translate(-487.613 -440.614)" fill="#dadcde"/>
            <path id="Trazado_100024" data-name="Trazado 100024" d="M617.268,496.468h-25.93a3.242,3.242,0,1,1,0-6.483h25.93a3.242,3.242,0,1,1,0,6.483Z" transform="translate(-487.613 -432.955)" fill="#dadcde"/>
          </g>
          <g id="Grupo_53759" data-name="Grupo 53759" transform="translate(44.58 12.964)">
            <path id="Trazado_100025" data-name="Trazado 100025" d="M588.132,492.068v2.971a4.518,4.518,0,0,0,.56,2.353A2.662,2.662,0,0,0,591,498.73a3.967,3.967,0,0,0,2.767-1.357l9.812-9.81a5.535,5.535,0,0,0,0-7.815l-9.812-9.812A3.97,3.97,0,0,0,591,468.581c-1.429,0-2.871,1.142-2.871,3.692v2.7a29.145,29.145,0,0,0-27.177,25.51,1.73,1.73,0,0,0,3.115,1.232,24.435,24.435,0,0,1,24.062-9.645Z" transform="translate(-560.942 -468.581)" fill="#ff0062"/>
            <path id="Trazado_100026" data-name="Trazado 100026" d="M608.792,484.671a1.729,1.729,0,0,0-2.033.588A24.432,24.432,0,0,1,582.7,494.9v-2.971c0-2.55-1.444-3.692-2.873-3.692a3.969,3.969,0,0,0-2.767,1.357l-9.812,9.81a5.533,5.533,0,0,0,0,7.815l9.811,9.811a3.969,3.969,0,0,0,2.767,1.357c1.429,0,2.873-1.142,2.873-3.692V512a29.145,29.145,0,0,0,27.175-25.511A1.729,1.729,0,0,0,608.792,484.671Z" transform="translate(-558.217 -459.302)" fill="#ff0062"/>
          </g>
        </g>
      </g>
      <path id="Trazado_102468" data-name="Trazado 102468" d="M758.448,527.021H728.43c-1.382,0-2.5-1.451-2.5-3.242s1.12-3.24,2.5-3.24h30.018c1.381,0,2.5,1.451,2.5,3.24S759.829,527.021,758.448,527.021Z" transform="translate(-172.824 468.393)" fill="#dadcde"/>
    </g>
  </g>
</svg>
