<svg xmlns="http://www.w3.org/2000/svg" width="604" height="224.839" viewBox="0 0 604 224.839">
  <g id="Grupo_54915" data-name="Grupo 54915" transform="translate(-186 -2556.161)">
    <rect id="Rect치ngulo_5321" data-name="Rect치ngulo 5321" width="604" height="98" transform="translate(186 2683)" fill="#0991a1" opacity="0.15"/>
    <g id="Grupo_54909" data-name="Grupo 54909" transform="translate(-537 133.006)">
      <g id="Grupo_53415" data-name="Grupo 53415" transform="translate(723 2434)">
        <g id="Grupo_53388" data-name="Grupo 53388" transform="translate(488.954 -10.845)">
          <path id="Trazado_99463" data-name="Trazado 99463" d="M2203.72-523.159l57.651,32.944,56.9-32.944L2260.623-557.6Z" transform="translate(-2203.407 557.6)" fill="#5b95d3"/>
          <path id="Trazado_99464" data-name="Trazado 99464" d="M2205.509-404.506l52.309,31.65a4.412,4.412,0,0,0,4.522.028l53.906-31.681a4.375,4.375,0,0,0,2.178-3.79,4.377,4.377,0,0,0-2.151-3.807l-53.43-31.918a4.414,4.414,0,0,0-4.551.013l-52.786,31.949A4.415,4.415,0,0,0,2205.509-404.506Z" transform="translate(-2203.379 548.213)" fill="#15325c" opacity="0.33" style="mix-blend-mode: multiply;isolation: isolate"/>
          <path id="Trazado_99465" data-name="Trazado 99465" d="M2265.78-487.162v101.825l57.651-34.441V-520.854Z" transform="translate(-2208.565 554.546)" fill="#23477c"/>
          <g id="Grupo_53386" data-name="Grupo 53386" transform="translate(63.953 45.436)">
            <path id="Trazado_99466" data-name="Trazado 99466" d="M2273.129-396.147v-86.084l44.174-25.815v85.509Zm1.5-85.224v82.585l41.18-24.6v-82.051Z" transform="translate(-2273.129 508.046)" fill="#052754"/>
          </g>
          <path id="Trazado_99467" data-name="Trazado 99467" d="M2203.72-520.854v101.077l56.9,34.441V-487.162Z" transform="translate(-2203.407 554.546)" fill="#3c6a9e"/>
          <path id="Trazado_99468" data-name="Trazado 99468" d="M2210.356-422.825v-81.646a3.27,3.27,0,0,1,1.342-2.663,3.29,3.29,0,0,1,3.658-.188l38.109,22.564a3.31,3.31,0,0,1,1.625,2.851v82.148a3.312,3.312,0,0,1-5.027,2.833l-38.109-23.065A3.311,3.311,0,0,1,2210.356-422.825Z" transform="translate(-2203.959 553.46)" fill="#23477c"/>
          <path id="Trazado_99469" data-name="Trazado 99469" d="M2217.091-422.236a3.315,3.315,0,0,1-1.6-2.835v-81.646a3.4,3.4,0,0,1,.03-.444l-.27-.16a3.292,3.292,0,0,0-3.659.188,3.271,3.271,0,0,0-1.341,2.663v81.646a3.314,3.314,0,0,0,1.6,2.834l38.109,23.065a3.313,3.313,0,0,0,5-2.393Z" transform="translate(-2203.951 553.46)" fill="#052754"/>
          <path id="Trazado_99470" data-name="Trazado 99470" d="M2255.854-477.457l-37.436-22.166v12.728l37.436,22.166Z" transform="translate(-2204.629 552.782)" fill="#5b95d3"/>
          <path id="Trazado_99471" data-name="Trazado 99471" d="M2255.854-460.309l-37.436-22.166v12.728l37.436,22.166Z" transform="translate(-2204.629 551.357)" fill="#5b95d3"/>
          <path id="Trazado_99472" data-name="Trazado 99472" d="M2255.854-443.161l-37.436-22.166V-452.6l37.436,22.166Z" transform="translate(-2204.629 549.931)" fill="#5b95d3"/>
          <path id="Trazado_99473" data-name="Trazado 99473" d="M2255.854-426.012l-37.436-22.166v12.728l37.436,22.166Z" transform="translate(-2204.629 548.507)" fill="#5b95d3"/>
          <path id="Trazado_99474" data-name="Trazado 99474" d="M2255.854-408.864l-37.436-22.166V-418.3l37.436,22.166Z" transform="translate(-2204.629 547.081)" fill="#5b95d3"/>
          <g id="Grupo_53387" data-name="Grupo 53387" transform="translate(20.216 59.149)">
            <path id="Trazado_99475" data-name="Trazado 99475" d="M2225.427-493.09v8.359l24.583,14.556v-8.359Z" transform="translate(-2225.427 493.09)" fill="#d6effb"/>
            <path id="Trazado_99476" data-name="Trazado 99476" d="M2225.427-467.584l24.583,14.556v-8.359l-24.583-14.556Z" transform="translate(-2225.427 491.665)" fill="#d6effb"/>
            <path id="Trazado_99477" data-name="Trazado 99477" d="M2225.427-450.436l24.583,14.556v-8.359l-24.583-14.556Z" transform="translate(-2225.427 490.24)" fill="#d6effb"/>
            <path id="Trazado_99478" data-name="Trazado 99478" d="M2225.427-433.287l24.583,14.556v-8.358l-24.583-14.556Z" transform="translate(-2225.427 488.815)" fill="#d6effb"/>
            <path id="Trazado_99479" data-name="Trazado 99479" d="M2225.427-416.139l24.583,14.556v-8.359L2225.427-424.5Z" transform="translate(-2225.427 487.39)" fill="#d6effb"/>
          </g>
        </g>
        <g id="Grupo_53405" data-name="Grupo 53405" transform="translate(100.859 5.37)">
          <g id="Grupo_53393" data-name="Grupo 53393">
            <path id="Trazado_99480" data-name="Trazado 99480" d="M1925.122-534.94v52.662l-.981.785-29.625-18.246-.981-51.877.981-.785Z" transform="translate(-1893.535 552.401)" fill="#183561"/>
            <path id="Trazado_99481" data-name="Trazado 99481" d="M1893.535-551.545v52.662l30.606,17.461v-52.662Z" transform="translate(-1893.535 552.33)" fill="#183561"/>
            <path id="Trazado_99482" data-name="Trazado 99482" d="M1893.535-551.545v7.259l30.606,17.461v-7.259Z" transform="translate(-1893.535 552.33)" fill="#3c6a9e"/>
            <g id="Grupo_53392" data-name="Grupo 53392" transform="translate(3.177 15.573)">
              <g id="Grupo_53391" data-name="Grupo 53391">
                <path id="Trazado_99483" data-name="Trazado 99483" d="M1897-535.416l.014,2.415,16.629,9.635-.1-2.482Z" transform="translate(-1897 535.416)" fill="#fec400"/>
                <path id="Trazado_99484" data-name="Trazado 99484" d="M1906.077-513.465l.015,2.415,16.63,9.634-.1-2.482Z" transform="translate(-1897.755 533.592)" fill="#fec400"/>
                <g id="Grupo_53389" data-name="Grupo 53389" transform="translate(18.555 10.763)">
                  <path id="Trazado_99485" data-name="Trazado 99485" d="M1917.237-523.677v2.341l6.251,3.624v-2.34Z" transform="translate(-1917.237 523.677)" fill="#77b8e0"/>
                </g>
                <g id="Grupo_53390" data-name="Grupo 53390" transform="translate(2.688 11.981)">
                  <path id="Trazado_99486" data-name="Trazado 99486" d="M1899.932-522.349v2.341l6.251,3.624v-2.34Z" transform="translate(-1899.932 522.349)" fill="#77b8e0"/>
                </g>
                <path id="Trazado_99487" data-name="Trazado 99487" d="M1897.726-517.786v2.341l6.251,3.624v-2.34Z" transform="translate(-1897.061 533.951)" fill="#fff"/>
                <path id="Trazado_99488" data-name="Trazado 99488" d="M1908.206-523.677l14.514,8.38v2.423l-14.541-8.462Z" transform="translate(-1897.929 534.441)" fill="#fff"/>
                <path id="Trazado_99489" data-name="Trazado 99489" d="M1908.206-518.119l14.514,8.38v2.423l-14.541-8.462Z" transform="translate(-1897.929 533.979)" fill="#fff"/>
              </g>
              <path id="Trazado_99490" data-name="Trazado 99490" d="M1897-512.4l.014,2.415,16.629,9.634-.1-2.482Z" transform="translate(-1897 533.504)" fill="#fec400"/>
              <path id="Trazado_99491" data-name="Trazado 99491" d="M1906.077-495.055l.015,2.415,16.63,9.634-.1-2.482Z" transform="translate(-1897.755 532.062)" fill="#fec400"/>
              <path id="Trazado_99492" data-name="Trazado 99492" d="M1917.237-500.665v2.341l6.251,3.624v-2.34Z" transform="translate(-1898.682 532.528)" fill="#77b8e0"/>
              <path id="Trazado_99493" data-name="Trazado 99493" d="M1899.932-503.939v2.341l6.251,3.624v-2.34Z" transform="translate(-1897.244 532.8)" fill="#77b8e0"/>
              <path id="Trazado_99494" data-name="Trazado 99494" d="M1897.726-499.376v2.341l6.251,3.624v-2.34Z" transform="translate(-1897.061 532.421)" fill="#fff"/>
              <path id="Trazado_99495" data-name="Trazado 99495" d="M1908.206-499.709l14.514,8.38v2.423l-14.541-8.462Z" transform="translate(-1897.929 532.449)" fill="#fff"/>
            </g>
          </g>
          <g id="Grupo_53404" data-name="Grupo 53404" transform="translate(42.693 36.286)">
            <path id="Trazado_99496" data-name="Trazado 99496" d="M1983.907-488.224v25.034l-1.511.863-40.789-25.9-1.511-23.739,1.511-.863Z" transform="translate(-1940.097 512.827)" fill="#183561"/>
            <path id="Trazado_99497" data-name="Trazado 99497" d="M1982.4-487.283v25.034l-42.3-25.034v-24.6Z" transform="translate(-1940.097 512.748)" fill="#a9d1ea"/>
            <g id="Grupo_53403" data-name="Grupo 53403" transform="translate(3.523 12.318)">
              <path id="Trazado_99498" data-name="Trazado 99498" d="M1973.466-486.052l-1.252-.733v-2.2l1.252.733,2.693,1.577,4.976,2.913v2.2l-4.976-2.913Z" transform="translate(-1946.289 498.528)" fill="#fec400"/>
              <g id="Grupo_53394" data-name="Grupo 53394" transform="translate(27.451 15.858)">
                <path id="Trazado_99499" data-name="Trazado 99499" d="M1973.878-479.892v-2.2l2.419,1.417,4.976,2.913v2.2l-4.976-2.913Z" transform="translate(-1973.878 482.097)" fill="#fff"/>
              </g>
              <path id="Trazado_99500" data-name="Trazado 99500" d="M1975.929-471.278l4.976,2.913v2.2l-4.976-2.913-2.694-1.577-3.8-2.222v-2.2l3.8,2.222Z" transform="translate(-1946.059 497.371)" fill="#fec400"/>
              <g id="Grupo_53395" data-name="Grupo 53395" transform="translate(19.819 15.799)">
                <path id="Trazado_99501" data-name="Trazado 99501" d="M1965.555-482.161l3.108,1.82,4.25,2.488,2.479,1.452v2.2l-2.479-1.452-4.25-2.488-3.108-1.82Z" transform="translate(-1965.555 482.161)" fill="#fff"/>
              </g>
              <g id="Grupo_53396" data-name="Grupo 53396" transform="translate(30.334 21.956)">
                <path id="Trazado_99502" data-name="Trazado 99502" d="M1977.023-475.446l4.512,2.641v2.2l-4.512-2.641Z" transform="translate(-1977.023 475.446)" fill="#fff"/>
              </g>
              <g id="Grupo_53397" data-name="Grupo 53397" transform="translate(15.342 8.769)">
                <path id="Trazado_99503" data-name="Trazado 99503" d="M1972.1-480.932l-3.845-2.251-5.113-2.994-2.472-1.447v-2.2l2.472,1.447,5.113,2.994,3.845,2.251Z" transform="translate(-1960.672 489.829)" fill="#77b8e0"/>
              </g>
              <g id="Grupo_53398" data-name="Grupo 53398">
                <path id="Trazado_99504" data-name="Trazado 99504" d="M1956.245-492.4l2.279,1.334v2.2l-2.279-1.334-12.305-6.991v-2.2Z" transform="translate(-1943.94 499.392)" fill="#fff"/>
              </g>
              <g id="Grupo_53399" data-name="Grupo 53399" transform="translate(8.142 9.035)">
                <path id="Trazado_99505" data-name="Trazado 99505" d="M1963.818-483.171v2.2l-1.327-.777-3.184-1.864-2.324-1.36-4.163-2.366v-2.2l4.163,2.366,2.324,1.36,3.184,1.864Z" transform="translate(-1952.819 489.538)" fill="#fff"/>
              </g>
              <g id="Grupo_53400" data-name="Grupo 53400" transform="translate(0 4.409)">
                <path id="Trazado_99506" data-name="Trazado 99506" d="M1951.323-488.183l-7.384-4.195v-2.2l7.384,4.195Z" transform="translate(-1943.94 494.583)" fill="#fff"/>
              </g>
              <g id="Grupo_53401" data-name="Grupo 53401" transform="translate(0 8.819)">
                <path id="Trazado_99507" data-name="Trazado 99507" d="M1954.355-481.652l-10.416-5.917v-2.2l10.416,5.917Z" transform="translate(-1943.94 489.774)" fill="#77b8e0"/>
              </g>
              <g id="Grupo_53402" data-name="Grupo 53402" transform="translate(11.173 15.167)">
                <path id="Trazado_99508" data-name="Trazado 99508" d="M1959.582-480.847l3.184,1.864,4.888,2.863v2.2l-4.888-2.863-3.184-1.864-2.324-1.36-1.132-.643v-2.2l1.132.643Z" transform="translate(-1956.126 482.851)" fill="#fff"/>
              </g>
            </g>
          </g>
        </g>
        <circle id="Elipse_3994" data-name="Elipse 3994" cx="3.568" cy="3.568" r="3.568" transform="translate(79.818 70.819) rotate(-45)" fill="#d6effb"/>
        <path id="Trazado_99509" data-name="Trazado 99509" d="M1867.859-556.644l-2.831,68.449-71.363,46.386-2.83-1.525a4.411,4.411,0,0,1-1.7-1.624,4.418,4.418,0,0,1-.625-2.265v-65.971a3.421,3.421,0,0,1,.453-1.7,3.418,3.418,0,0,1,1.24-1.251l70.817-41.463a4.735,4.735,0,0,1,2.341-.649,4.745,4.745,0,0,1,2.355.6Z" transform="translate(-1783.948 558.257)" fill="#a9d1ea"/>
        <path id="Trazado_99510" data-name="Trazado 99510" d="M1868.934-554.679v68.9l-76.516,43.61v-68.618a3.4,3.4,0,0,1,.44-1.674,3.4,3.4,0,0,1,1.244-1.263l72.361-42.367a1.627,1.627,0,0,1,1.646-.007A1.625,1.625,0,0,1,1868.934-554.679Z" transform="translate(-1784.273 558.097)" fill="#d6effb"/>
        <path id="Trazado_99511" data-name="Trazado 99511" d="M1867.564-548.166v57.526l-9.056,5.161-2.72,1.552-18.594,10.6-10.3,5.869-16.172,9.219-15.71,8.954v-56.4l15.377-9,8.324-4.874,13.133-7.689,15.8-9.254,9.841-5.761,7.183-4.2Z" transform="translate(-1784.488 557.419)" fill="#183561"/>
        <path id="Trazado_99512" data-name="Trazado 99512" d="M1795-416.1l54.5,31.674a3.379,3.379,0,0,0,3.4,0l74.529-43.275a3.347,3.347,0,0,0,1.682-2.886,3.353,3.353,0,0,0-1.671-2.953l-24.255-14.217a3.377,3.377,0,0,0-2.442-.384l-97.14,21.547a3.361,3.361,0,0,0-.919.35l-7.633,4.271A3.38,3.38,0,0,0,1795-416.1Z" transform="translate(-1784.348 549.113)" fill="#15325c" opacity="0.33" style="mix-blend-mode: multiply;isolation: isolate"/>
        <path id="Trazado_99513" data-name="Trazado 99513" d="M1794.736-427.638l56.73,32.575a4.782,4.782,0,0,0,1.952.617,4.79,4.79,0,0,0,2.846-.628l69.871-40.547a3.375,3.375,0,0,0,1.224-1.221,3.384,3.384,0,0,0,.458-1.8l-.1-3.227-59.58-31.894-75.723,38.457v3.67a4.618,4.618,0,0,0,.528,2.146A4.613,4.613,0,0,0,1794.736-427.638Z" transform="translate(-1784.273 551.236)" fill="#a9d1ea"/>
        <path id="Trazado_99514" data-name="Trazado 99514" d="M1792.418-435.887l58.863,36.078a5.089,5.089,0,0,0,2.2.729,5.087,5.087,0,0,0,3.014-.667l70.075-40.665a2.6,2.6,0,0,0,1.273-1.835,2.615,2.615,0,0,0-1.221-2.681l-58.48-35.759Z" transform="translate(-1784.273 551.811)" fill="#d6effb"/>
        <path id="Trazado_99515" data-name="Trazado 99515" d="M1800.49-435.526l69.181-40.929,46.292,28.306-69.181,40.929Z" transform="translate(-1784.944 551.459)" fill="#77b8e0"/>
        <g id="Grupo_53406" data-name="Grupo 53406" transform="translate(22.085 78.687)" opacity="0.71">
          <path id="Trazado_99516" data-name="Trazado 99516" d="M1839.845-440.794l9.4-5.558,7.058,4.176-9.395,5.558Z" transform="translate(-1810.299 470.271)" fill="#d6edff"/>
          <path id="Trazado_99517" data-name="Trazado 99517" d="M1868-449.1l-9.4,5.558-7.058-4.176,9.395-5.558Z" transform="translate(-1811.272 470.846)" fill="#d6edff"/>
          <path id="Trazado_99518" data-name="Trazado 99518" d="M1837.774-442.019l-6.75-3.994,9.4-5.558,6.75,3.994Z" transform="translate(-1809.566 470.705)" fill="#d6edff"/>
          <path id="Trazado_99519" data-name="Trazado 99519" d="M1826.068-435.094l-6.75-3.994,9.4-5.558,6.75,3.994Z" transform="translate(-1808.593 470.129)" fill="#d6edff"/>
          <path id="Trazado_99520" data-name="Trazado 99520" d="M1898.024-445.192l-9.4,5.558-7.058-4.176,9.395-5.558Z" transform="translate(-1813.767 470.522)" fill="#d6edff"/>
          <path id="Trazado_99521" data-name="Trazado 99521" d="M1877.161-443.684l-9.4,5.558-7.058-4.176,9.4-5.558Z" transform="translate(-1812.033 470.396)" fill="#d6edff"/>
          <path id="Trazado_99522" data-name="Trazado 99522" d="M1888.867-450.61l-9.4,5.558-7.058-4.176,9.4-5.558Z" transform="translate(-1813.006 470.972)" fill="#d6edff"/>
          <path id="Trazado_99523" data-name="Trazado 99523" d="M1814.252-428.1l-6.631-4.064,9.386-5.553,6.75,3.994Z" transform="translate(-1807.621 469.554)" fill="#d6edff"/>
          <path id="Trazado_99524" data-name="Trazado 99524" d="M1893.277-450.72l9.126-5.4,6.942,4.245-9.01,5.33Z" transform="translate(-1814.74 471.083)" fill="#d6edff"/>
          <path id="Trazado_99525" data-name="Trazado 99525" d="M1911.422-450.613l6.694,4.093-8.875,5.251-6.806-4.027Z" transform="translate(-1815.501 470.625)" fill="#d6edff"/>
          <path id="Trazado_99526" data-name="Trazado 99526" d="M1884.119-456.146l9.265-5.481,6.942,4.245-9.148,5.412Z" transform="translate(-1813.979 471.54)" fill="#d6edff"/>
          <path id="Trazado_99527" data-name="Trazado 99527" d="M1869.865-436.884l9.395-5.558,7.058,4.176-9.4,5.558Z" transform="translate(-1812.794 469.946)" fill="#d6edff"/>
          <path id="Trazado_99528" data-name="Trazado 99528" d="M1849.48-448.945l-6.75-3.994,9.4-5.558,6.75,3.994Z" transform="translate(-1810.539 471.28)" fill="#d6edff"/>
          <path id="Trazado_99529" data-name="Trazado 99529" d="M1861.185-455.87l-6.75-3.994,9.4-5.558,6.75,3.994Z" transform="translate(-1811.512 471.856)" fill="#d6edff"/>
          <path id="Trazado_99530" data-name="Trazado 99530" d="M1874.962-461.571l9.4-5.563,6.942,4.245-9.287,5.494Z" transform="translate(-1813.218 471.998)" fill="#d6edff"/>
          <path id="Trazado_99531" data-name="Trazado 99531" d="M1834.96-427.084l7.058,4.176-9.8,5.8-6.934-4.25Z" transform="translate(-1809.089 468.67)" fill="#d6edff"/>
          <path id="Trazado_99532" data-name="Trazado 99532" d="M1834.278-415.853l9.826-5.813,7.058,4.176-9.95,5.887Z" transform="translate(-1809.837 468.219)" fill="#d6edff"/>
          <path id="Trazado_99533" data-name="Trazado 99533" d="M1846.453-423.033l9.4-5.558,7.058,4.176-9.4,5.558Z" transform="translate(-1810.848 468.795)" fill="#d6edff"/>
          <path id="Trazado_99534" data-name="Trazado 99534" d="M1872.891-462.8l-6.75-3.994,9.537-5.642,6.639,4.059Z" transform="translate(-1812.485 472.439)" fill="#d6edff"/>
          <path id="Trazado_99535" data-name="Trazado 99535" d="M1853.248-416.248l6.806,4.027-10.094,5.972-6.686-4.1Z" transform="translate(-1810.584 467.769)" fill="#d6edff"/>
          <path id="Trazado_99536" data-name="Trazado 99536" d="M1855.611-417.615l9.4-5.558,6.806,4.027-9.4,5.558Z" transform="translate(-1811.609 468.345)" fill="#d6edff"/>
          <path id="Trazado_99537" data-name="Trazado 99537" d="M1825.816-432.5l7.058,4.176-9.654,5.711-6.933-4.25Z" transform="translate(-1808.342 469.12)" fill="#d6edff"/>
          <path id="Trazado_99538" data-name="Trazado 99538" d="M1849-435.376l9.4-5.558,7.058,4.176-9.4,5.558Z" transform="translate(-1811.06 469.821)" fill="#d6edff"/>
          <path id="Trazado_99539" data-name="Trazado 99539" d="M1828.139-433.869l9.4-5.558,7.058,4.176-9.4,5.558Z" transform="translate(-1809.326 469.695)" fill="#d6edff"/>
          <path id="Trazado_99540" data-name="Trazado 99540" d="M1837.3-428.451l9.4-5.558,7.058,4.176-9.4,5.558Z" transform="translate(-1810.088 469.245)" fill="#d6edff"/>
          <path id="Trazado_99541" data-name="Trazado 99541" d="M1858.16-429.959l9.395-5.558,7.058,4.176.443-.262-9.838,5.82Z" transform="translate(-1811.821 469.37)" fill="#d6edff"/>
          <path id="Trazado_99542" data-name="Trazado 99542" d="M1879.71-456.027l-9.4,5.558-7.058-4.176,9.4-5.558Z" transform="translate(-1812.245 471.422)" fill="#d6edff"/>
          <path id="Trazado_99543" data-name="Trazado 99543" d="M1890.728-438.392l9.4-5.558,6.806,4.027-9.4,5.558Z" transform="translate(-1814.528 470.071)" fill="#d6edff"/>
          <path id="Trazado_99544" data-name="Trazado 99544" d="M1867.317-425.116l20.128-11.908,6.806,4.027-20.128,11.908Z" transform="translate(-1812.582 469.496)" fill="#d6edff"/>
        </g>
        <g id="Grupo_53410" data-name="Grupo 53410" transform="translate(19.612 45.598)">
          <path id="Trazado_99545" data-name="Trazado 99545" d="M1837.726-503.858l-1.731,1.014-3.725,2.181-6.881,4.029v3.049l6.881-4.029,3.725-2.181,1.731-1.014Z" transform="translate(-1806.625 508.139)" fill="#fff"/>
          <path id="Trazado_99546" data-name="Trazado 99546" d="M1817.262-508.463l-1.732,1.014-3.725,2.181-6.881,4.029v3.049l6.881-4.029,3.725-2.181,1.732-1.014Z" transform="translate(-1804.924 508.521)" fill="#fff"/>
          <path id="Trazado_99547" data-name="Trazado 99547" d="M1817.262-502.835l-1.732,1.014-3.725,2.181-6.881,4.029v3.049l6.881-4.029,3.725-2.181,1.732-1.014Z" transform="translate(-1804.924 508.054)" fill="#fec400"/>
          <g id="Grupo_53407" data-name="Grupo 53407" transform="translate(18.763)">
            <path id="Trazado_99548" data-name="Trazado 99548" d="M1857.573-507.768l-3.214,1.881-4.4,2.578-7.071,4.141-5.318,3.113v3.049l5.318-3.113,7.071-4.141,4.4-2.578,3.214-1.881,1.294-.759v-3.049Z" transform="translate(-1826.4 508.527)" fill="#f02098"/>
            <path id="Trazado_99549" data-name="Trazado 99549" d="M1835.615-494.325l-3.345,1.959-6.881,4.029v3.049l6.881-4.029,3.345-1.959Z" transform="translate(-1825.388 507.347)" fill="#fff"/>
          </g>
          <g id="Grupo_53408" data-name="Grupo 53408" transform="translate(18.763 12.196)">
            <path id="Trazado_99550" data-name="Trazado 99550" d="M1841.244-484.617l-5.25,3.073-3.725,2.181-6.881,4.029v3.049l6.881-4.029,3.725-2.181,5.25-3.073Z" transform="translate(-1825.388 494.344)" fill="#fec400"/>
            <path id="Trazado_99551" data-name="Trazado 99551" d="M1858.083-494.467l-3.214,1.881-4.4,2.578-6.76,3.959V-483l6.76-3.959,4.4-2.578,3.214-1.881,1.295-.759v-3.049Z" transform="translate(-1826.91 495.225)" fill="#fff"/>
          </g>
          <g id="Grupo_53409" data-name="Grupo 53409" transform="translate(18.763 6.098)">
            <path id="Trazado_99552" data-name="Trazado 99552" d="M1846.82-494.414l-4.3,2.517-5.877,3.441-3.428,2.008v3.049l3.428-2.008,5.877-3.441,4.3-2.517Z" transform="translate(-1826.039 501.256)" fill="#fff"/>
            <path id="Trazado_99553" data-name="Trazado 99553" d="M1831.628-485.128l-6.24,3.653v3.049l6.24-3.653Z" transform="translate(-1825.388 500.484)" fill="#fff"/>
            <path id="Trazado_99554" data-name="Trazado 99554" d="M1858.529-501.117l-3.214,1.881-4.4,2.578-1.835,1.075v3.049l1.835-1.075,4.4-2.578,3.214-1.881,1.294-.759v-3.049Z" transform="translate(-1827.356 501.876)" fill="#fff"/>
          </g>
        </g>
        <g id="Grupo_53414" data-name="Grupo 53414" transform="translate(0 58.346)">
          <path id="Trazado_99555" data-name="Trazado 99555" d="M1783.534-477.319V-442.9l.972.778,29.359-18.082.972-33.637-.972-.778Z" transform="translate(-1783.534 494.623)" fill="#183561"/>
          <path id="Trazado_99556" data-name="Trazado 99556" d="M1814.926-493.775v34.415l-30.331,17.3V-476.47Z" transform="translate(-1783.623 494.553)" fill="#a9d1ea"/>
          <path id="Trazado_99557" data-name="Trazado 99557" d="M1814.926-493.775v7.194l-30.331,17.3v-7.194Z" transform="translate(-1783.623 494.553)" fill="#3c6a9e"/>
          <g id="Grupo_53413" data-name="Grupo 53413" transform="translate(4.459 14.388)">
            <path id="Trazado_99558" data-name="Trazado 99558" d="M1813.886-478.931l-.014,2.393-16.48,9.548.1-2.46Z" transform="translate(-1789.145 478.931)" fill="#fec400"/>
            <path id="Trazado_99559" data-name="Trazado 99559" d="M1804.892-457.177l-.014,2.393-16.48,9.548.1-2.46Z" transform="translate(-1788.397 477.123)" fill="#fec400"/>
            <g id="Grupo_53411" data-name="Grupo 53411" transform="translate(0.159 10.666)">
              <path id="Trazado_99560" data-name="Trazado 99560" d="M1794.765-467.3v2.32l-6.194,3.592v-2.319Z" transform="translate(-1788.57 467.298)" fill="#77b8e0"/>
            </g>
            <g id="Grupo_53412" data-name="Grupo 53412" transform="translate(15.883 11.873)">
              <path id="Trazado_99561" data-name="Trazado 99561" d="M1811.914-465.982v2.32l-6.194,3.592v-2.319Z" transform="translate(-1805.72 465.982)" fill="#77b8e0"/>
            </g>
            <path id="Trazado_99562" data-name="Trazado 99562" d="M1814.1-461.46v2.32l-6.194,3.592v-2.319Z" transform="translate(-1790.019 477.479)" fill="#fff"/>
            <path id="Trazado_99563" data-name="Trazado 99563" d="M1802.97-467.3l-14.384,8.3v2.4L1803-464.978Z" transform="translate(-1788.413 477.964)" fill="#fff"/>
            <path id="Trazado_99564" data-name="Trazado 99564" d="M1802.97-461.789l-14.384,8.3v2.4L1803-459.469Z" transform="translate(-1788.413 477.506)" fill="#fff"/>
          </g>
        </g>
        <rect id="Rect치ngulo_5101" data-name="Rect치ngulo 5101" width="330.174" height="5.948" transform="translate(152.978 107.946)" fill="#ff0062"/>
      </g>
    </g>
    <path id="Trazado_102914" data-name="Trazado 102914" d="M-30.262-2.344h-4.109L-35.152,0h-2.492l4.234-11.375h2.172L-26.98,0h-2.492Zm-3.477-1.9h2.844L-32.324-8.5Zm14.906.094a5.07,5.07,0,0,1-.887,3.129A2.843,2.843,0,0,1-22.113.156a2.633,2.633,0,0,1-2.07-.891V3.25h-2.258v-11.7h2.094l.078.828a2.654,2.654,0,0,1,2.141-.984A2.862,2.862,0,0,1-19.7-7.453a5.207,5.207,0,0,1,.867,3.188Zm-2.258-.172a3.345,3.345,0,0,0-.418-1.826,1.36,1.36,0,0,0-1.215-.643,1.478,1.478,0,0,0-1.461.815V-2.5a1.5,1.5,0,0,0,1.477.839Q-21.09-1.664-21.09-4.321ZM-15.051,0h-2.266V-12h2.266Zm4.242,0h-2.266V-8.453h2.266Zm-2.4-10.641a1.112,1.112,0,0,1,.34-.836,1.277,1.277,0,0,1,.926-.328,1.28,1.28,0,0,1,.922.328,1.105,1.105,0,0,1,.344.836,1.108,1.108,0,0,1-.348.844,1.283,1.283,0,0,1-.918.328,1.283,1.283,0,0,1-.918-.328A1.108,1.108,0,0,1-13.207-10.641Zm7.773,8.977a1.481,1.481,0,0,0,1.016-.344,1.2,1.2,0,0,0,.406-.914h2.117a2.9,2.9,0,0,1-.469,1.574A3.093,3.093,0,0,1-3.625-.238a3.949,3.949,0,0,1-1.77.395A3.67,3.67,0,0,1-8.254-1,4.56,4.56,0,0,1-9.3-4.18v-.148A4.508,4.508,0,0,1-8.262-7.445,3.627,3.627,0,0,1-5.41-8.609a3.555,3.555,0,0,1,2.543.9,3.2,3.2,0,0,1,.973,2.4H-4.012a1.551,1.551,0,0,0-.406-1.072,1.354,1.354,0,0,0-1.031-.412,1.36,1.36,0,0,0-1.191.575,3.333,3.333,0,0,0-.4,1.866v.235a3.375,3.375,0,0,0,.4,1.878A1.377,1.377,0,0,0-5.434-1.664ZM4.293,0a2.507,2.507,0,0,1-.227-.758A2.732,2.732,0,0,1,1.934.156,3,3,0,0,1-.125-.562,2.312,2.312,0,0,1-.941-2.375a2.389,2.389,0,0,1,1-2.062,4.915,4.915,0,0,1,2.879-.727H3.973v-.484a1.393,1.393,0,0,0-.3-.937,1.183,1.183,0,0,0-.949-.352,1.345,1.345,0,0,0-.895.273.929.929,0,0,0-.324.75H-.754A2.268,2.268,0,0,1-.3-7.273,3,3,0,0,1,.98-8.254,4.669,4.669,0,0,1,2.84-8.609a3.689,3.689,0,0,1,2.48.785,2.747,2.747,0,0,1,.918,2.207v3.664a4.041,4.041,0,0,0,.336,1.82V0ZM2.426-1.57a1.945,1.945,0,0,0,.922-.223,1.462,1.462,0,0,0,.625-.6V-3.844H3.129q-1.7,0-1.8,1.172l-.008.133a.9.9,0,0,0,.3.7A1.153,1.153,0,0,0,2.426-1.57Zm9.063-.094A1.481,1.481,0,0,0,12.5-2.008a1.2,1.2,0,0,0,.406-.914h2.117a2.9,2.9,0,0,1-.469,1.574A3.093,3.093,0,0,1,13.3-.238a3.949,3.949,0,0,1-1.77.395A3.67,3.67,0,0,1,8.668-1,4.56,4.56,0,0,1,7.621-4.18v-.148A4.508,4.508,0,0,1,8.66-7.445a3.627,3.627,0,0,1,2.852-1.164,3.555,3.555,0,0,1,2.543.9,3.2,3.2,0,0,1,.973,2.4H12.91A1.551,1.551,0,0,0,12.5-6.377a1.354,1.354,0,0,0-1.031-.412,1.36,1.36,0,0,0-1.191.575,3.333,3.333,0,0,0-.4,1.866v.235a3.375,3.375,0,0,0,.4,1.878A1.377,1.377,0,0,0,11.488-1.664ZM18.7,0H16.434V-8.453H18.7ZM16.3-10.641a1.112,1.112,0,0,1,.34-.836,1.277,1.277,0,0,1,.926-.328,1.28,1.28,0,0,1,.922.328,1.105,1.105,0,0,1,.344.836,1.108,1.108,0,0,1-.348.844,1.283,1.283,0,0,1-.918.328,1.283,1.283,0,0,1-.918-.328A1.108,1.108,0,0,1,16.3-10.641ZM20.207-4.3a5.013,5.013,0,0,1,.484-2.242A3.546,3.546,0,0,1,22.086-8.07,4.069,4.069,0,0,1,24.2-8.609a3.849,3.849,0,0,1,2.793,1.047A4.2,4.2,0,0,1,28.2-4.719l.016.578A4.418,4.418,0,0,1,27.129-1.02,3.775,3.775,0,0,1,24.215.156,3.793,3.793,0,0,1,21.3-1.016,4.5,4.5,0,0,1,20.207-4.2Zm2.258.16A3.16,3.16,0,0,0,22.918-2.3a1.5,1.5,0,0,0,1.3.638,1.5,1.5,0,0,0,1.281-.63,3.457,3.457,0,0,0,.461-2.015A3.128,3.128,0,0,0,25.5-6.14a1.5,1.5,0,0,0-1.3-.649,1.474,1.474,0,0,0-1.281.646A3.516,3.516,0,0,0,22.465-4.144ZM24.645-12h2.461L24.941-9.578H23.105Zm7.039,3.547.07.977a2.951,2.951,0,0,1,2.43-1.133,2.453,2.453,0,0,1,2,.789,3.682,3.682,0,0,1,.672,2.359V0H34.6V-5.419a1.47,1.47,0,0,0-.312-1.045,1.4,1.4,0,0,0-1.039-.325,1.553,1.553,0,0,0-1.43.814V0H29.559V-8.453Z" transform="translate(253 2757)" fill="#3366c2"/>
    <path id="Trazado_102915" data-name="Trazado 102915" d="M-49.652,0V-11.375h3.984a5.232,5.232,0,0,1,3.141.793,2.712,2.712,0,0,1,1.07,2.324,2.57,2.57,0,0,1-.43,1.473,2.482,2.482,0,0,1-1.2.934,2.4,2.4,0,0,1,1.379.883,2.61,2.61,0,0,1,.5,1.625A3,3,0,0,1-42.246-.859,4.713,4.713,0,0,1-45.23,0Zm2.344-4.953v3.07H-45.3a1.938,1.938,0,0,0,1.293-.395,1.353,1.353,0,0,0,.465-1.09A1.428,1.428,0,0,0-45.16-4.953Zm0-1.656h1.734Q-43.8-6.641-43.8-8.023a1.307,1.307,0,0,0-.449-1.113,2.363,2.363,0,0,0-1.418-.34h-1.641ZM-34.691,0a2.507,2.507,0,0,1-.227-.758,2.732,2.732,0,0,1-2.133.914,3,3,0,0,1-2.059-.719,2.312,2.312,0,0,1-.816-1.812,2.389,2.389,0,0,1,1-2.062,4.915,4.915,0,0,1,2.879-.727h1.039v-.484a1.393,1.393,0,0,0-.3-.937,1.183,1.183,0,0,0-.949-.352,1.345,1.345,0,0,0-.895.273.929.929,0,0,0-.324.75h-2.258a2.268,2.268,0,0,1,.453-1.359A3,3,0,0,1-38-8.254a4.669,4.669,0,0,1,1.859-.355,3.689,3.689,0,0,1,2.48.785,2.747,2.747,0,0,1,.918,2.207v3.664a4.041,4.041,0,0,0,.336,1.82V0Zm-1.867-1.57a1.945,1.945,0,0,0,.922-.223,1.462,1.462,0,0,0,.625-.6V-3.844h-.844q-1.7,0-1.8,1.172l-.008.133a.9.9,0,0,0,.3.7A1.153,1.153,0,0,0-36.559-1.57Zm10.125-.766a.727.727,0,0,0-.41-.652,4.659,4.659,0,0,0-1.316-.426q-3.016-.633-3.016-2.562a2.323,2.323,0,0,1,.934-1.879A3.766,3.766,0,0,1-27.8-8.609a4.053,4.053,0,0,1,2.574.758,2.388,2.388,0,0,1,.965,1.969H-26.52a1.092,1.092,0,0,0-.312-.8A1.322,1.322,0,0,0-27.809-7a1.351,1.351,0,0,0-.883.258A.814.814,0,0,0-29-6.086a.7.7,0,0,0,.355.605,3.657,3.657,0,0,0,1.2.4,9.8,9.8,0,0,1,1.422.379A2.336,2.336,0,0,1-24.238-2.43,2.2,2.2,0,0,1-25.23-.559a4.28,4.28,0,0,1-2.562.715A4.47,4.47,0,0,1-29.68-.223a3.166,3.166,0,0,1-1.293-1.039,2.414,2.414,0,0,1-.469-1.426H-29.3a1.179,1.179,0,0,0,.445.922,1.766,1.766,0,0,0,1.109.32,1.635,1.635,0,0,0,.98-.246A.766.766,0,0,0-26.434-2.336ZM-18.895.156A4.15,4.15,0,0,1-21.922-.984,4.054,4.054,0,0,1-23.09-4.023v-.219A5.106,5.106,0,0,1-22.6-6.52,3.612,3.612,0,0,1-21.2-8.066a3.914,3.914,0,0,1,2.059-.543,3.508,3.508,0,0,1,2.73,1.094,4.444,4.444,0,0,1,1,3.1v.922H-20.8a2.1,2.1,0,0,0,.66,1.328,2,2,0,0,0,1.395.5,2.437,2.437,0,0,0,2.039-.945L-15.6-1.367A3.389,3.389,0,0,1-16.973-.246,4.511,4.511,0,0,1-18.895.156Zm-.258-6.945a1.411,1.411,0,0,0-1.09.455,2.357,2.357,0,0,0-.535,1.3h3.141v-.181a1.681,1.681,0,0,0-.406-1.165A1.456,1.456,0,0,0-19.152-6.789Zm8.648,2.5a5.094,5.094,0,0,1,.887-3.148A2.877,2.877,0,0,1-7.191-8.609a2.589,2.589,0,0,1,2.039.922V-12h2.266V0H-4.926l-.109-.9A2.657,2.657,0,0,1-7.207.156,2.869,2.869,0,0,1-9.6-1.02,5.258,5.258,0,0,1-10.5-4.289Zm2.258.161A3.355,3.355,0,0,0-7.832-2.3a1.348,1.348,0,0,0,1.2.636,1.51,1.51,0,0,0,1.477-.887V-5.9a1.489,1.489,0,0,0-1.461-.887Q-8.246-6.789-8.246-4.128Zm11,4.285A4.15,4.15,0,0,1-.273-.984,4.054,4.054,0,0,1-1.441-4.023v-.219A5.106,5.106,0,0,1-.949-6.52,3.612,3.612,0,0,1,.445-8.066,3.914,3.914,0,0,1,2.5-8.609a3.508,3.508,0,0,1,2.73,1.094,4.444,4.444,0,0,1,1,3.1v.922H.848a2.1,2.1,0,0,0,.66,1.328,2,2,0,0,0,1.395.5,2.437,2.437,0,0,0,2.039-.945L6.051-1.367A3.389,3.389,0,0,1,4.676-.246,4.511,4.511,0,0,1,2.754.156ZM2.5-6.789a1.411,1.411,0,0,0-1.09.455,2.357,2.357,0,0,0-.535,1.3H4.012v-.181a1.681,1.681,0,0,0-.406-1.165A1.456,1.456,0,0,0,2.5-6.789Zm8.648,2.5a5.094,5.094,0,0,1,.887-3.148,2.877,2.877,0,0,1,2.426-1.172,2.589,2.589,0,0,1,2.039.922V-12h2.266V0H16.723l-.109-.9A2.657,2.657,0,0,1,14.441.156,2.869,2.869,0,0,1,12.047-1.02,5.258,5.258,0,0,1,11.145-4.289Zm2.258.161A3.355,3.355,0,0,0,13.816-2.3a1.348,1.348,0,0,0,1.2.636A1.51,1.51,0,0,0,16.5-2.551V-5.9a1.489,1.489,0,0,0-1.461-.887Q13.4-6.789,13.4-4.128ZM25.41,0a2.507,2.507,0,0,1-.227-.758,2.732,2.732,0,0,1-2.133.914,3,3,0,0,1-2.059-.719,2.312,2.312,0,0,1-.816-1.812,2.389,2.389,0,0,1,1-2.062,4.915,4.915,0,0,1,2.879-.727H25.09v-.484a1.393,1.393,0,0,0-.3-.937,1.183,1.183,0,0,0-.949-.352,1.345,1.345,0,0,0-.895.273.929.929,0,0,0-.324.75H20.363a2.268,2.268,0,0,1,.453-1.359,3,3,0,0,1,1.281-.98,4.669,4.669,0,0,1,1.859-.355,3.689,3.689,0,0,1,2.48.785,2.747,2.747,0,0,1,.918,2.207v3.664a4.041,4.041,0,0,0,.336,1.82V0ZM23.543-1.57a1.945,1.945,0,0,0,.922-.223,1.462,1.462,0,0,0,.625-.6V-3.844h-.844q-1.7,0-1.8,1.172l-.008.133a.9.9,0,0,0,.3.7A1.153,1.153,0,0,0,23.543-1.57Zm8.25-8.961v2.078h1.445V-6.8H31.793v4.219a1.007,1.007,0,0,0,.18.672.9.9,0,0,0,.688.2,3.6,3.6,0,0,0,.664-.055V-.047a4.648,4.648,0,0,1-1.367.2,2.156,2.156,0,0,1-2.422-2.4V-6.8H28.3V-8.453h1.234v-2.078ZM33.91-4.3a5.013,5.013,0,0,1,.484-2.242A3.546,3.546,0,0,1,35.789-8.07,4.069,4.069,0,0,1,37.9-8.609,3.849,3.849,0,0,1,40.7-7.562,4.2,4.2,0,0,1,41.9-4.719l.016.578A4.418,4.418,0,0,1,40.832-1.02,3.775,3.775,0,0,1,37.918.156,3.793,3.793,0,0,1,35-1.016,4.5,4.5,0,0,1,33.91-4.2Zm2.258.16A3.16,3.16,0,0,0,36.621-2.3a1.5,1.5,0,0,0,1.3.638,1.5,1.5,0,0,0,1.281-.63,3.457,3.457,0,0,0,.461-2.015A3.128,3.128,0,0,0,39.2-6.14a1.5,1.5,0,0,0-1.3-.649,1.474,1.474,0,0,0-1.281.646A3.516,3.516,0,0,0,36.168-4.144ZM47.887-2.336a.727.727,0,0,0-.41-.652,4.659,4.659,0,0,0-1.316-.426q-3.016-.633-3.016-2.562a2.323,2.323,0,0,1,.934-1.879,3.766,3.766,0,0,1,2.441-.754,4.053,4.053,0,0,1,2.574.758,2.388,2.388,0,0,1,.965,1.969H47.8a1.092,1.092,0,0,0-.312-.8A1.322,1.322,0,0,0,46.512-7a1.351,1.351,0,0,0-.883.258.814.814,0,0,0-.312.656.7.7,0,0,0,.355.605,3.657,3.657,0,0,0,1.2.4,9.8,9.8,0,0,1,1.422.379A2.336,2.336,0,0,1,50.082-2.43,2.2,2.2,0,0,1,49.09-.559a4.28,4.28,0,0,1-2.562.715,4.47,4.47,0,0,1-1.887-.379,3.166,3.166,0,0,1-1.293-1.039,2.414,2.414,0,0,1-.469-1.426H45.02a1.179,1.179,0,0,0,.445.922,1.766,1.766,0,0,0,1.109.32,1.635,1.635,0,0,0,.98-.246A.766.766,0,0,0,47.887-2.336Z" transform="translate(726 2757)" fill="#3366c2"/>
  </g>
</svg>
